<?xml version="1.0" standalone="no"?>
<!DOCTYPE svg PUBLIC "-//W3C//DTD SVG 1.1//EN" "http://www.w3.org/Graphics/SVG/1.1/DTD/svg11.dtd">
<svg xmlns="http://www.w3.org/2000/svg"><metadata>This SVG WebFont was generated by YouWorkForThem.
Copyright (c) 2019 by Emil Bertell. All rights reserved.</metadata><defs><font horiz-adv-x="704" id="ywftsvg"><font-face ascent="1536" bbox="-727 -426 1481.27 1409" cap-height="1153" descent="-512" font-family="" font-stretch="normal" font-weight="400" panose-1="0 0 0 0 0 0 0 0 0 0" underline-position="0" underline-thickness="0" unicode-range="U+000D-FB06" units-per-em="2048" x-height="565"/><missing-glyph horiz-adv-x="270"/><glyph glyph-name=".notdef" horiz-adv-x="270"/><glyph glyph-name="glyph1" horiz-adv-x="0"/><glyph glyph-name="glyph2" horiz-adv-x="681"/><glyph glyph-name="glyph3" horiz-adv-x="0"/><glyph glyph-name="glyph3" horiz-adv-x="0"/><glyph glyph-name="space" horiz-adv-x="270" unicode=" "/><glyph d="M61 385q-8 0 -13 8t5 25q25 29 51 28q14 0 -8 -30q-2 -4 -4 -6q-19 -25 -31 -25zM217 594q-25 0 -6 33q23 49 113 190q27 41 51 77t40.5 53.5t20.5 17.5q2 -2 4 -4.5t-11 -27t-42 -69.5q-25 -37 -66.5 -108.5t-69.5 -116.5t-34 -45z" glyph-name="exclam" horiz-adv-x="477" unicode="!"/><glyph d="M70 686q-4 -2 -7.5 3t-1.5 9q10 29 9 56q0 8 -2 13t-4.5 9t-4.5 6t-3 4t-3 3.5t-2 3.5q0 6 7.5 11t15.5 -3q18 -23 18 -56q1 -57 -22 -59zM10 670q-12 0 -8 14q14 29 14 47.5t-4 30.5l-6 10q0 6 7 10t16 -4q10 -14 10 -51q0 -57 -29 -57z" glyph-name="quotedbl" horiz-adv-x="116" unicode="&quot;"/><glyph d="M119 301q-2 0 1 9t10 32t20 51q10 29 24 53l-96 11l-37 -62q-25 -49 -31 -49q-6 4 35 88l12 23h-49q-14 0 -4 10q10 4 59 2l35 66l-35 -7l-16 -4h-8q-2 2 2 6q6 10 65 19q76 131 99 164q18 25 27.5 19.5t9.5 -27.5q0 -6 -2 -11q-2 -4 -4 4q-2 4 -3 9q0 20 -28 -27 q-6 -8 -12 -21l-62 -106l100 12l29 58q31 66 51 77q4 2 11.5 1t7.5 -5q2 -2 -4.5 -11t-25.5 -40t-40 -72q-4 -4 -4 -6q18 4 49 4q10 0 14 -14q2 -8 -8 -6q-18 4 -63 0l-47 -90l53 -8q6 -2 0 -11.5t-16 -5.5q-39 8 -43 8q-35 -68 -43 -90q-25 -53 -33 -53zM125 537l-41 -68 q51 0 96 -6q6 12 13.5 26.5t16.5 32t13 27.5q-53 -4 -98 -12z" glyph-name="numbersign" horiz-adv-x="319" unicode="#"/><glyph d="M59 334q-10 0 11 45l8 16q-4 0 -11.5 1t-9.5 1q-20 4 -36.5 18.5t-18.5 28.5q0 20 21 17q2 0 7 -8.5t14 -17.5t19 -11q8 -4 27 -4l10 20q39 82 66 148q-53 29 -51 63q4 31 39.5 60.5t78.5 36.5l19 45q12 25 24 22q10 -2 -2 -27q-16 -31 -18 -38q27 -2 38 -16.5t6 -29 t-19 -20.5q-12 -4 -14.5 1t3.5 13q2 6 2 9q0 23 -24 24l-55 -131q78 -43 20 -135q-37 -59 -111 -68q-29 -63 -43 -63zM193 485q33 63 -11 95l-49 -115l-18 -41q51 10 78 61zM152 662q-16 -29 24 -54l49 117q-53 -18 -73 -63z" glyph-name="dollar" horiz-adv-x="313" unicode="$"/><glyph d="M109 377q-14 0 -14.5 16.5t85.5 128.5q25 35 57.5 73t51.5 58l18 21q-2 0 -11 -4t-29.5 -10.5t-43.5 -10.5q-25 -4 -40 -2t-20 0t-5 -12q0 -23 -17.5 -41.5t-44.5 -18.5q-59 0 -59 58q0 18 18.5 34.5t40.5 16.5q14 0 25.5 -3t5.5 -13q-2 -6 -6 -8.5t-10.5 0t-10.5 2.5 q-43 0 -43 -33q0 -31 41 -31q16 0 26.5 14.5t10.5 22.5q0 25 2 27q0 2 8.5 3t28 2t39.5 5q61 8 119 30q4 2 28 27q6 4 13.5 0t8.5 -11t-5 -11q-12 -10 -74.5 -81t-101.5 -120q-23 -31 -46.5 -64.5t-33.5 -49t-12 -15.5zM358 494q-2 0 -9 2t-13 2q-10 0 -23.5 -11.5 t-13.5 -19.5q0 -16 27 -16q8 0 17 9t11 17q2 14 15 -2q0 -2 2 -4q4 -14 -8.5 -29.5t-34.5 -15.5q-20 0 -33.5 12.5t-13.5 28.5q0 20 17 36.5t36 16.5q23 0 28 -18q4 -8 -4 -8z" glyph-name="percent" horiz-adv-x="419" unicode="%"/><glyph d="M125 100q-6 -25 -14 -22q-6 0 -5 20q8 47 66 297q-47 -14 -63 -14q-45 0 -52.5 28.5t19.5 53.5q10 10 37 31q41 31 24 36q-39 14 19 72q31 27 77 41q14 57 35 136t33 128t14 58q2 25 17.5 23.5t7.5 -34.5q-20 -72 -80 -305q6 2 21 2q53 0 57 -26q2 -8 -4 -13 q-23 -18 -39 -20q-4 0 2 6q12 10 9 20.5t-25 10.5q-10 0 -27 -6l-49 -189q16 6 39 21q37 16 39 0q2 -6 -4 -13q-16 -16 -80 -36q-54 -208 -74 -306zM121 408q20 0 57 16l8 33l15 59q-45 -12 -101 -72q-34 -36 21 -36zM195 537h10l18 73q-33 -20 -49 -35q-27 -27 -18.5 -32.5 t39.5 -5.5z" glyph-name="ampersand" horiz-adv-x="417" unicode="&amp;"/><glyph d="M29 682q-4 0 -5 5t3 9q12 25 16 52q2 14 0 22t-5 12t-3 6q16 25 28 7q10 -25 0 -62q-6 -20 -15 -36.5t-19 -14.5z" glyph-name="quotesingle" horiz-adv-x="94" unicode="'"/><glyph d="M379 1137q8 2 8 -2t-20 -21q-25 -20 -65 -59t-104.5 -129t-101.5 -183q-70 -180 -69 -448q0 -63 -7 -64q-2 0 -6 21q-8 47 -13 110.5t9.5 188.5t59.5 229q45 106 116.5 192.5t120.5 123.5t72 41z" glyph-name="parenleft" horiz-adv-x="362" unicode="("/><glyph d="M-16 207q-10 -2 -7 4q4 4 19 16q23 18 63.5 64.5t105 141.5t101.5 188q68 174 68 438q0 70 6 63q2 -2 6 -20q49 -270 -55 -522q-47 -106 -117 -196.5t-120 -132.5t-70 -44z" glyph-name="parenright" horiz-adv-x="348" unicode=")"/><glyph d="M78 702q-8 -4 -12.5 -3t-4.5 5.5v6.5q18 18 29 24h-41q-12 0 0 10q6 6 10 7h45q-14 35 -16 41q-10 12 4 16q10 4 14 -8q2 -6 9.5 -20.5t9.5 -22.5q57 37 70 37q27 0 6 -17q-6 -4 -13 -8l-26 -16q18 2 35 2q10 0 12 -11q4 -8 -4 -8h-13.5t-29 -1t-31.5 -1l6 -16 q8 -14 0 -23q-10 -2 -18 15q-4 8 -4 14z" glyph-name="asterisk" horiz-adv-x="272" unicode="*"/><glyph d="M47 522q-47 0 -47 10q0 4 15.5 10.5t23.5 6.5h27q2 27 8 78q0 6 7 8t13 0t6 -6q0 -2 -2 -13.5t-4 -31t-4 -35.5h27q6 0 17 -5t11 -9q0 -12 -22 -13h-37l-4 -30q-14 -63 -25 -64q-4 6 -4 8t3 21.5t3 31.5l4 33h-16z" glyph-name="plus" horiz-adv-x="133" unicode="+"/><glyph d="M51 362q-2 2 4 9.5t18.5 22t18.5 30.5q6 12 6 24.5t-2 19.5t0 7q14 8 23 -4q18 -25 -17 -72q-8 -12 -20 -21t-20.5 -14.5t-10.5 -1.5z" glyph-name="comma" horiz-adv-x="174" unicode=","/><glyph d="M131 510q-18 0 2 16q6 8 12 9q6 0 47 2t48 2q12 0 18 -15q4 -12 -8 -12q-8 0 -59.5 -1t-59.5 -1z" glyph-name="hyphen" horiz-adv-x="346" unicode="-"/><glyph d="M14 410q-14 0 -14 20q0 2 13.5 12.5t19.5 10.5q4 0 9 -5.5t5 -11.5q0 -8 -13.5 -17t-19.5 -9z" glyph-name="period" horiz-adv-x="120" unicode="."/><glyph d="M-47 289q-12 0 24 55q61 98 148 217q215 287 223 287q10 0 10 -6q0 -12 -219 -295q-20 -25 -82.5 -117t-72.5 -106q-29 -35 -31 -35z" glyph-name="slash" horiz-adv-x="319" unicode="/"/><glyph d="M59 408q-23 2 -36 22.5t-13 42.5q0 72 51 137q29 37 66 60.5t57 23.5q14 0 22.5 -7t0.5 -15l-2 -2q18 -20 14 -72q-4 -68 -63 -139q-48 -53 -97 -51zM195 610q0 43 -17 60q-49 -12 -94 -72q-49 -63 -49 -125q0 -35 24 -39q39 -2 80 51q54 62 56 125z" glyph-name="zero" horiz-adv-x="231" unicode="0"/><glyph d="M23 377q-6 0 -9.5 6t3 24.5t22.5 49.5q115 238 123 264q16 35 2 35q-6 0 -19.5 -10.5t-39 -32t-46.5 -35.5q-10 -6 -16 -4t-5 9t9 13q18 12 44 34t43.5 34t29.5 12q20 0 25.5 -16.5t-7.5 -46.5q-70 -180 -123 -289q-24 -47 -36 -47z" glyph-name="one" horiz-adv-x="167" unicode="1"/><glyph d="M332 375q0 -23 -29 -23q-33 0 -92 17q-143 43 -154 43q-20 0 -47 -17q-18 -10 -26 11q-6 16 8 20q49 20 205 172q115 115 120 147q2 12 -8 22.5t-28 10.5q-70 0 -125.5 -34.5t-55.5 -73.5q0 -10 3 -20.5t6.5 -15.5t3.5 -10.5t-7 -7.5q-14 -4 -24 10.5t-10 47.5 q0 47 64.5 88t142.5 41q33 0 51 -14.5t14 -45.5q-4 -41 -127 -159q-41 -41 -164 -144q16 0 78 -20.5t98 -28.5q43 -8 65.5 -7t30 1t7.5 -10z" glyph-name="two" horiz-adv-x="358" unicode="2"/><glyph d="M121 690q-39 12 -39 55q0 39 56.5 75t123.5 36q18 0 35.5 -14.5t17.5 -38.5q0 -20 -13 -41t-29.5 -35t-55.5 -47q-12 -10 -33 -25q-29 -20 -18 -24h20q84 2 80 -60q-4 -53 -84 -157q-84 -117 -155 -117q-55 0 -50 86q2 33 11.5 50.5t17.5 20.5t10 -1q4 -2 4 -8.5 t-3 -12.5t-7 -20.5t-6 -30.5q-8 -59 19 -59q53 0 135 112q78 109 78 148q0 27 -41 28q-45 0 -68 -2q-16 0 -16 15q0 4 8 10t30.5 22.5t45.5 34.5q90 72 90 115q0 27 -31 26q-47 0 -97.5 -28.5t-50.5 -61.5q0 -8 4.5 -13t11.5 -10t9 -7q6 -6 2 -14.5t-12 -6.5z" glyph-name="three" horiz-adv-x="303" unicode="3"/><glyph d="M72 350q-12 4 24 101l23 55h-80q-59 4 -19 53q131 164 201 229q14 14 26.5 17.5t18.5 -1.5t4 -13q0 -4 -17 -44t-44 -104.5l-45 -107.5h31q45 0 45 -7q2 -2 0 -4q-10 -18 -52 -18h-36l-19 -51q-16 -39 -25.5 -60.5t-16.5 -32t-10 -12.5t-9 0zM55 530q41 0 76 2 q16 37 40 87.5t40 86t18 39.5q6 16 4 16.5t-14 -9.5q-39 -39 -162 -187q-33 -33 -2 -35z" glyph-name="four" horiz-adv-x="260" unicode="4"/><glyph d="M332 825q-4 -12 -35 -12q-96 0 -100 -2q-2 -2 -15.5 -22.5t-28 -43t-18.5 -26.5q-12 -20 -8 -21q2 0 6 2q16 8 49 9q121 0 121 -138q0 -111 -82 -183.5t-180 -72.5q-55 0 -77.5 38t-4.5 83q20 53 76 70q20 4 20 -10q0 -6 -10 -11q-45 -16 -59 -57q-10 -33 5 -60.5 t50 -27.5q84 0 158.5 66.5t74.5 171.5q0 106 -100 106q-31 0 -78 -29q-6 -6 -17 0.5t-7 16.5q6 14 50 84.5t50 72.5q41 10 121 11q41 -3 39 -15z" glyph-name="five" horiz-adv-x="333" unicode="5"/><glyph d="M76 504q-6 -4 -6 2q0 8 12 16q51 29 82 29q33 0 49 -24.5t16 -61.5q0 -57 -39.5 -113.5t-107.5 -56.5q-39 0 -60.5 29.5t-21.5 70.5q0 129 115 293q66 90 124 130t89 40q18 0 34.5 -13.5t18.5 -29.5q2 -25 -8 -27q-4 0 -6 5l-7 12q-6 12 -14 19t-16 7q-29 0 -82 -39.5 t-103 -109.5q-117 -164 -116 -281q0 -35 15 -58.5t38 -23.5q51 0 83 47.5t32 94.5q0 63 -45 63q-21 0 -76 -20z" glyph-name="six" horiz-adv-x="296" unicode="6"/><glyph d="M152 711q-12 0 -19.5 6t-7.5 11t4 9q8 4 11 1t25.5 -7t51.5 -4t50.5 1t28.5 2t9 1q4 -2 6 -9t-2 -9l-6 -4q-6 -2 -15 -6.5t-21.5 -12.5t-30 -22.5t-37.5 -32.5q-47 -43 -107.5 -119t-77.5 -106q-6 -10 -13 -9.5t-10 9t-1 16.5q6 16 65.5 90t106.5 117q76 66 94 76h-43 q-45 0 -61 2z" glyph-name="seven" horiz-adv-x="299" unicode="7"/><glyph d="M231 799q-74 4 -94 -31q-10 -23 2 -102q31 29 80 65q33 25 35 37q0 6 -4 12q-2 2 -1 3t5 1q14 0 21.5 -7t4 -18t-17.5 -22q-74 -49 -119 -94q0 -10 2 -14q2 -16 9.5 -46t10.5 -54.5t3 -49.5q-2 -63 -35 -102t-78 -39q-14 0 -28.5 9t-22.5 30.5t-7 50.5t18.5 71t54.5 91 q6 10 47 55q-12 104 -6 127q8 27 41.5 38t68.5 5q16 -2 17 -9t-7 -7zM137 481q2 25 -18 135q-8 -8 -29 -36q-43 -57 -57.5 -111.5t-6 -83.5t26.5 -29q31 0 56.5 39t27.5 86z" glyph-name="eight" horiz-adv-x="231" unicode="8"/><glyph d="M172 629q4 10 8 28.5t4 20.5q-41 -51 -71.5 -51t-43 31.5t8.5 66.5q31 66 98 66q16 0 29.5 -16.5t13.5 -57.5t-20 -96q-51 -135 -166 -250q-33 -33 -47 -23q-8 6 8 23q10 8 16 14q113 107 162 244zM113 647q31 0 80 60q6 63 -23 63q-47 0 -70 -47q-14 -31 -8.5 -53.5 t21.5 -22.5z" glyph-name="nine" horiz-adv-x="229" unicode="9"/><glyph d="M78 383q-2 -2 -7 1t-7.5 9t2.5 19q20 31 40 34q14 2 0 -28q-2 -4 -4 -6q-16 -29 -24 -29zM170 610q-8 -2 -8 8q-2 10 8 25l5 10t4 9.5t4 6.5l5 5t7 2q6 2 9 -2t2 -13.5t-7 -19.5q-15 -29 -29 -31z" glyph-name="colon" horiz-adv-x="258" unicode=":"/><glyph d="M51 362q-2 2 4 9.5t18.5 22t18.5 30.5q6 12 6 24.5t-2 19.5t0 7q14 8 23 -4q18 -25 -17 -72q-8 -12 -20 -21t-20.5 -14.5t-10.5 -1.5zM176 668q-8 -2 -2 28q8 31 25 33q6 2 9 0t2 -9t-7 -20q-23 -32 -27 -32z" glyph-name="semicolon" horiz-adv-x="262" unicode=";"/><glyph d="M127 518q16 0 16 -12q0 -6 -47 -17q-51 -14 -51 -20q0 -2 7 -4t18.5 -5t19.5 -7q31 -12 31 -23q2 -12 -15 -8q-10 2 -49 20q-57 20 -57 27q0 12 66 31q51 16 61 18z" glyph-name="less" horiz-adv-x="131" unicode="&lt;"/><glyph d="M162 563h-133q-18 0 0 15q8 6 14 8q6 0 53 3t56 3q12 0 18 -17q2 -12 -8 -12zM0 481q0 6 55.5 10.5t71.5 4.5q4 0 12 -8.5t8 -12.5q0 -8 -16 -8q-2 0 -45 -1t-47 -1q-8 0 -23.5 5t-15.5 11z" glyph-name="equal" horiz-adv-x="157" unicode="="/><glyph d="M16 420q-4 0 -10 5t-6 9q0 8 47 17q47 14 47 18q0 2 -39 18q-33 12 -32 23q-2 10 14 6q0 -2 51 -20q55 -25 55 -29q0 -10 -65 -29q-52 -16 -62 -18z" glyph-name="greater" horiz-adv-x="131" unicode=">"/><glyph d="M88 410q-14 0 -14 20q0 2 13 12.5t19 10.5q4 0 9.5 -5.5t5.5 -11.5q0 -8 -13.5 -17t-19.5 -9zM160 522q-10 0 -10 15q0 4 18 30.5t49 61.5t55 55q6 6 44 36t53.5 44t33 40.5t17.5 51.5t-37 25q-14 0 -26.5 -7.5t-14.5 -7.5q-8 0 -8 10.5t15.5 18.5t36 8t38.5 -12t18 -39 q0 -23 -10 -45.5t-31.5 -46t-38 -38.5t-44 -37.5t-35.5 -29.5q-23 -20 -52.5 -53t-49 -56.5t-21.5 -23.5z" glyph-name="question" horiz-adv-x="430" unicode="?"/><glyph d="M233 412q-41 -8 -40 26q0 25 31.5 55.5t66.5 30.5q25 0 40 -11t11 -21v-7q-4 -8 -7 -23.5t-3 -24.5t2 -11q10 0 46 25.5t62 54.5q84 100 84 201q0 47 -26.5 72.5t-73.5 25.5q-135 0 -258 -146q-109 -129 -109 -258q0 -162 129 -161q106 0 238 98q10 8 14 -10 q4 -14 -8 -25q-115 -92 -227 -92q-168 0 -168 186q0 135 113 279q51 63 125.5 106t134 43t99.5 -28.5t40 -91.5q0 -115 -96 -224q-31 -33 -70 -56.5t-55.5 -23.5t-16.5 37q2 8 -2 8q-2 0 -16 -10q-29 -20 -60 -24zM238 432q20 4 86 62q-12 12 -31 12q-23 0 -51.5 -21.5 t-28.5 -40t25 -12.5z" glyph-name="at" horiz-adv-x="622" unicode="@"/><glyph d="M729 -23q4 16 14 136l-6 39q-10 63 -79.5 132.5t-161.5 110.5q-45 18 -166 72q-203 -338 -322 -610q-16 -37 -28 -23q-8 6 -3 21q111 260 326 624l-53 25q-33 16 -12 45q29 35 129 37l34 55q106 178 227.5 315.5t192 190.5t92.5 51q57 -6 45 -61q-2 -12 -20 -90 t-48 -212.5t-56 -263.5q37 -8 53 -18q35 -20 35 -21q2 -4 -48 3q-16 0 -40 4h-7q-47 -238 -57 -416v-6t-2 -6q12 -78 8 -107q0 -12 -13 -25.5t-20 -11.5h-7t-6 2t-1 8zM403 586q242 4 406 -11q27 137 58.5 273.5t51 209t19.5 79.5q4 39 -18 43q-12 2 -95.5 -78t-201 -216 t-195.5 -259zM504 414q203 -98 248 -221q10 127 51 350q-164 14 -420 10l-39 -64zM268 524l49 -22l29 49q-86 -6 -82 -23q0 -2 4 -4z" glyph-name="A" horiz-adv-x="972" unicode="A"/><glyph d="M389 1059q-25 -74 -153 -604q76 162 167 309q96 150 160 211t125 61q33 0 61.5 -26.5t28.5 -75.5q0 -90 -116 -180q-29 -23 -58 -44.5t-42 -30.5t-25.5 -18.5t-15.5 -14.5t-3 -11q0 -16 80 -23q123 -6 180 -77l74 14q66 10 59 -2q0 -2 -10 -4q-49 -12 -110 -31 q12 -16 22 -49q16 -66 -3 -140.5t-104 -164.5t-231 -154q-115 -51 -226.5 -63.5t-177 9t-69.5 68.5q-8 96 162 230q43 186 47 203q121 508 149 602q6 23 23 22q12 -2 6 -16zM137 76q-6 10 19 135q-145 -121 -129 -193q8 -53 153.5 -50t280.5 61q176 74 265 199.5t60 232.5 q-8 27 -18 43q-176 -53 -369 -142q-117 -55 -206 -122q-10 -43 -18.5 -83t-11.5 -57.5t-5 -19.5q-4 -8 -11.5 -10t-9.5 6zM221 346l-20 -70q80 57 174 103q205 102 377 147q-51 61 -170 68q-86 4 -93 39q0 8 5.5 16t19.5 20.5t30.5 26t46.5 37t56 45.5q104 88 105 164 q0 27 -18.5 47.5t-47.5 20.5q-109 0 -262 -250q-158 -248 -203 -414z" glyph-name="B" horiz-adv-x="962" unicode="B"/><glyph d="M199 94q113 0 261 68.5t224 140.5q14 14 21 2q2 -4 -5 -12q-88 -98 -230 -165t-257 -67q-94 0 -151.5 50.5t-57.5 128.5q0 193 209 462q135 172 264 261.5t225 89.5q74 0 74 -68q0 -35 -26 -49q-8 -4 -11 0q-2 4 2 10q14 18 7 48t-43 30q-61 0 -194.5 -88t-277.5 -264 q-205 -250 -204 -432q0 -66 53.5 -106t116.5 -40z" glyph-name="C" horiz-adv-x="714" unicode="C"/><glyph d="M123 709q0 -68 70 -113q6 -4 -7 -6q-14 -4 -24 4q-59 45 -60 121q0 125 148 227q180 129 373 129q121 0 205.5 -74.5t84.5 -234.5q0 -139 -69.5 -303t-188.5 -287q-102 -106 -234 -173t-233 -67q-94 0 -141 43t-47 117q0 98 66.5 211t203.5 209q23 16 52 33 q76 297 94 342q12 35 18 10q4 -14 -2 -35q-18 -63 -84 -301q141 74 268 74q16 -2 2 -10q-8 -4 -30 -7q-109 -8 -252 -100q-61 -244 -80 -334q-6 -35 -14 -12q-4 10 -2 18q18 115 69 308l-24 -19q-127 -96 -197 -204.5t-70 -182.5q0 -53 44 -87t128 -34q98 0 236.5 70 t208.5 149q246 285 246 592q0 119 -68 188.5t-195 69.5q-168 0 -344 -118q-74 -49 -112.5 -106.5t-38.5 -106.5z" glyph-name="D" horiz-adv-x="962" unicode="D"/><glyph d="M516 551l-354 -41l-23 -68q-84 -258 -78 -303q4 -33 31 -33q92 6 320 74q98 31 125 53q10 10 28 -4q8 -8 2 -14q-35 -31 -161 -68q-197 -59 -279 -61q-53 -4 -61 6q-27 18 -27 45q-6 63 67 309q6 31 19 60q-59 -6 -70 -6q-8 -2 -8 8q0 14 14 16q6 2 72 11q63 199 152 419 q-154 -39 -191 -59q-12 -4 -18 0t-4 13.5t12 15.5q43 33 213 65l51 123q29 61 43 70q6 8 17 2q6 -2 -2 -10q-16 -23 -21 -46q0 -6 -4 -15t-19.5 -41t-31.5 -77l92 13q215 27 342 18q14 0 16 -4q2 -6 -10 -10q-6 -4 -12 -4h-50t-74 -1t-91.5 -6.5t-114.5 -15.5 q-51 -8 -111 -22l-2 -9q-39 -106 -145 -415q217 23 283 32q43 6 75 13q12 4 15 0q2 -6 -5.5 -18.5t-21.5 -14.5z" glyph-name="E" horiz-adv-x="634" unicode="E"/><glyph d="M500 1141q-4 -16 -58 -162q266 37 443 12q78 -10 110 -33q33 -20 15 -20q-6 0 -17 2q-27 6 -96 18q-188 29 -465 -4l-24 -71q-31 -76 -99 -297q31 0 82 -1t68 -1q72 0 98 4q12 2 13 -1t-7 -7q-29 -25 -254 -25h-10q-35 -113 -66 -229q-61 -225 -26 -252q12 -12 1 -13.5 t-34 13.5q-23 16 -17.5 68.5t38.5 185.5q23 94 69 227q-195 -2 -217 -41q-6 -14 -12 -2v10q12 39 92 53q45 10 147 11q94 272 99 282l28 80q-72 -8 -153 -26q-201 -45 -211 -91q-2 -8 -8 -6q-4 2 -2 11q8 53 161 94q127 31 224 45q18 47 34.5 82t25.5 50t11 23q4 18 13 25 q6 2 6 -6q0 -4 -2 -8z" glyph-name="F" horiz-adv-x="647" unicode="F"/><glyph d="M698 946q43 76 43 117q0 39 -57 39q-190 0 -405 -248q-94 -111 -153.5 -255t-59.5 -267q0 -127 47 -182.5t143 -55.5q111 0 240 86t210.5 188.5t81.5 157.5q0 23 -43 23q-25 0 -121 -24.5t-161 -49.5q-6 -2 -6 2q2 16 28 35q4 0 7 2q117 51 214 61.5t107 -43.5 q0 -78 -89 -191.5t-223 -199.5t-245 -86q-113 0 -166 79t-53 198q0 266 213 538q92 117 208.5 186.5t215.5 69.5q90 0 90 -57q0 -31 -13.5 -72t-27.5 -55q-18 -20 -25 -8q-4 4 0 12z" glyph-name="G" horiz-adv-x="911" unicode="G"/><glyph d="M326 1104q-16 -47 -107 -537l-6 -24q166 14 342 4l37 186q12 68 23.5 127.5t21.5 106.5t12 61q10 49 39 66q8 0 10 -7q0 -6 -51 -256q-37 -201 -51 -286q4 0 11 -1t9 -1q55 0 95 -19q12 -8 -11 -8q-8 0 -86 6q-4 0 -11 1t-11 1v-4q-12 -76 -46 -240.5t-40 -242.5l-4 -35 q16 -61 14 -84q0 -12 -12 -23.5t-23 -9.5q-14 2 -14 4q-2 4 0 9q6 29 10 102l-2 12q-37 160 -303 305q-33 -184 -22 -217q8 -33 -7 -32q-16 6 -20 30q-2 84 16 236q-25 14 -190 90q-66 33 -6 65q25 14 71 27q102 18 160 25l2 4v8l90 479q12 70 51 107q16 14 17 -4 q-2 -13 -8 -31zM551 524v4q-139 8 -342 -16l-33 -170q242 -131 307 -279q15 133 68 461zM-37 438q106 -43 180 -80l25 148q-70 -8 -137 -23q-86 -20 -80 -37q2 -4 12 -8z" glyph-name="H" horiz-adv-x="727" unicode="H"/><glyph d="M127 393q-23 10 -42 43t-19 70q0 150 143 360q90 129 191.5 208t193.5 79q47 0 72.5 -31.5t26.5 -90t-9 -128t-36.5 -157t-54.5 -165t-63 -163.5q-76 -184 -195.5 -321.5t-256.5 -137.5q-78 0 -115 51t-17.5 128t95.5 143q102 94 238 75q86 -8 86 -26q2 -10 -35 -2 q-170 33 -269 -66q-59 -57 -78.5 -123.5t5 -111.5t86.5 -45q102 0 215.5 110.5t214.5 341.5q98 227 137 388t22.5 231.5t-71.5 70.5q-72 0 -176.5 -85t-173.5 -189q-154 -229 -154 -348q0 -61 53 -94q18 -10 6 -17q-8 -4 -20 2z" glyph-name="I" unicode="I"/><glyph d="M209 399q-23 10 -41 42t-18 71q0 174 143 385q197 287 385 287q66 0 88 -62.5t3 -169t-53 -217t-85 -237.5q51 6 74 20q14 8 18 2t-8 -16q-29 -20 -97 -35l-8 -20q-53 -129 -110.5 -245t-133 -239t-163.5 -196.5t-170 -73.5q-55 0 -100.5 26.5t-69 76.5t-23.5 111.5 t41 139.5t119 154q121 117 295 191.5t301 97.5q92 219 128 372.5t20.5 222t-70.5 68.5q-70 0 -173.5 -85t-175 -189.5t-112.5 -210t-41 -162.5q0 -63 51 -94q16 -10 4 -17q-6 -4 -18 2zM29 -283q229 0 555 746q-137 -25 -292 -95.5t-272 -183.5q-63 -63 -98 -131.5t-37 -127 t14.5 -106.5t51.5 -75t78 -27z" glyph-name="J" horiz-adv-x="802" unicode="J"/><glyph d="M35 119q-10 -4 -14.5 1t2.5 19q8 18 49 215q-74 18 -74 52q0 76 123 217l6 43q78 489 86 555q4 14 18 10q16 -6 13 -39q-4 -49 -99 -541q104 106 228 211q94 80 179 144.5t140.5 100.5t97 59.5t64.5 34.5t27 16q25 23 22 6q0 -4 -4 -13q-8 -16 -62.5 -53t-178 -124 t-252.5 -191q-162 -131 -273 -256l-39 -211q104 -20 289 -8q250 16 340 59q29 14 29 6q2 -2 -4 -8q-8 -8 -41 -22.5t-116 -34t-188 -29.5q-184 -16 -313 12l-18 -96q-31 -131 -37 -135zM25 406q0 -16 51 -29l33 176q-84 -106 -84 -147z" glyph-name="K" horiz-adv-x="829" unicode="K"/><glyph d="M748 203q-606 -299 -689 -299q-70 0 -55 94q6 41 39 161t89 316.5t89 321.5q88 324 139 329q14 2 31 13q6 4 6 -4q0 -20 -24 -39q-25 -14 -66 -127q-68 -184 -100 -310q-152 -559 -162 -626q-12 -90 18 -90q49 0 285 100q96 41 192.5 85t152 69.5t63.5 29.5q12 0 12 -8 t-20 -16z" glyph-name="L" horiz-adv-x="585" unicode="L"/><glyph d="M797 -41q-2 -14 -13 -10q-6 2 -2 14q0 2 31 121t69 281.5t56 273.5q23 129 32 187.5t19 141.5t6 116.5t-20 33.5q-37 0 -130 -89t-227 -271q-78 -106 -146.5 -212t-92 -141.5t-37.5 -35.5t-20.5 14t-5.5 46t5.5 65.5t11.5 87t9 96.5q2 27 8 90t8 95t3 73t-5 59.5 t-20 18.5q-35 0 -102.5 -109.5t-106.5 -259.5q-37 -145 -43 -262t18 -137q20 -23 7 -25q-8 -2 -21 12q-29 39 -25.5 165t37.5 255q39 141 111 263t123 122q12 0 21.5 -9t14.5 -26.5t8 -38t3 -49t-1 -52t-3 -54.5t-4 -50.5t-5 -46t-3 -34.5q-2 -25 -8.5 -67t-11.5 -75.5 t-8 -67.5t-2 -53.5t9 -19.5l33 54q31 53 92 148t123 175q287 379 383 379q27 0 38 -34t8 -105.5t-15.5 -156.5t-34.5 -216q-18 -106 -47 -224t-50.5 -196t-47 -161t-29.5 -99z" glyph-name="M" horiz-adv-x="1083" unicode="M"/><glyph d="M446 82q-33 0 -52 56.5t-27.5 167t-9.5 203.5t-1 239q6 389 -39 389q-31 0 -79 -104.5t-88 -264.5q-94 -383 -80 -449q4 -20 -4.5 -23t-12.5 13q-2 4 -2 8q-6 49 15.5 189.5t54.5 267.5q106 387 194 387q84 0 76 -409q-16 -645 58 -646q51 0 133 158t125 361 q29 141 43 347t4 312q0 16 12 10q10 -6 10 -16q29 -299 -49 -672q-49 -231 -131 -377.5t-150 -146.5z" glyph-name="N" horiz-adv-x="843" unicode="N"/><glyph d="M600 516q-57 -37 -88 -51q-23 -84 -80 -215q-49 -113 -133 -210t-174 -97q-68 0 -115 52t-47 167q0 174 121 368q-27 51 -27 121q0 193 127 362t252 169q139 0 139 -283q0 -199 -55 -405q31 12 72 38q27 18 27.5 8t-19.5 -24zM262 442q100 -10 219 33q63 227 64 436 q0 246 -109 246q-113 0 -230.5 -170t-117.5 -334q0 -47 14 -94q68 100 154 166q29 23 33 8q2 -6 -10 -18q-100 -96 -160 -187q41 -74 143 -86zM406 266q39 84 65 183q-98 -41 -207 -31q-111 8 -164 86q-109 -172 -108 -344q0 -94 34.5 -143.5t90.5 -49.5q86 0 162 91 t127 208z" glyph-name="O" horiz-adv-x="659" unicode="O"/><glyph d="M692 881q10 98 -49 162.5t-186 64.5q-113 0 -226.5 -64.5t-191.5 -166.5q-70 -90 -78 -186.5t47 -153.5q20 -20 0 -23q-29 -2 -45 23q-31 31 -39 89t14.5 134t77.5 143q190 229 443 230q139 0 204.5 -73t59.5 -181q-8 -162 -158.5 -269.5t-359.5 -117.5 q-20 -104 -35.5 -197.5t-23 -141t-9.5 -59.5q-4 -25 -24 -37q-6 -4 -9 2v4q20 176 70 429h-2q-23 0 -22 18q-2 14 20 12h10l2 10q2 10 4 15q53 270 117 418q12 27 21 18q6 -4 -2 -25q-51 -147 -105 -415l-6 -21q178 6 323.5 106.5t157.5 252.5z" glyph-name="P" horiz-adv-x="720" unicode="P"/><glyph d="M412 -106q2 35 -39 243q-27 -8 -68 -8q-133 0 -202.5 104.5t-47.5 280.5q25 178 137.5 323.5t233.5 176.5q16 4 43 1t51 -1q25 2 25 -2q0 -12 -41 -15q-61 -4 -88 -14q-125 -55 -217.5 -192.5t-110.5 -288.5q-20 -147 43.5 -247.5t171.5 -100.5q31 0 66 10l-4 18 q-27 141 -66 234q-4 12 2 17t14 -7q27 -41 72 -227l6 -25q76 35 142 133q117 186 127 430q8 236 -33 305q-14 27 -2 27t26 -25q47 -90 37 -311q-20 -287 -135 -444q-76 -109 -158 -142q41 -172 43 -249q0 -6 -7 -10.5t-14 -2t-7 8.5z" glyph-name="Q" horiz-adv-x="751" unicode="Q"/><glyph d="M39 950q-29 -16 -29 0q0 14 25 27q188 104 336 153q20 68 61 193q8 18 21 14q8 -2 4 -18q-10 -20 -58 -178q102 33 183 33q137 0 204.5 -33t67.5 -109q0 -152 -281 -293q-106 -55 -323 -159l-25 -97l371 17q29 0 33 -17q-2 -12 -19 -14q-51 -6 -391 -14 q-55 -211 -69 -293q-8 -51 -5 -51q6 2 7 -2q0 -8 -19 -27q-23 -29 -27 0q0 12 5 33l84 338l-160 -4q-27 2 -34 18t26 31l204 102l37 154q41 164 90 342q-176 -64 -319 -146zM293 752l-33 -138l285 148q289 143 289 276q0 49 -69 78t-183 29q-70 0 -193 -39 q-63 -215 -96 -354zM203 481l20 86q-43 -23 -112 -53q-51 -20 -54 -29q12 -4 31 -6q60 0 115 2z" glyph-name="R" horiz-adv-x="743" unicode="R"/><glyph d="M612 903q53 16 64 64q16 76 -70 90q-49 8 -136 -10.5t-173 -57.5q-207 -98 -231 -209q-14 -63 18.5 -120.5t126.5 -143.5l92 -90q88 35 236.5 81t183.5 52q18 4 25 -2q6 -4 -7 -8q-6 -2 -14 -4q-37 -8 -178 -52t-232 -83q72 -76 97.5 -130.5t17.5 -111.5 q-10 -72 -87 -112t-175 -29q-88 8 -132 51t-36 96q20 109 248 227q4 2 29 13l-86 86q-104 98 -140.5 158.5t-21.5 125.5q16 68 74.5 123.5t175.5 106.5q195 86 331 65q106 -18 86 -118q-8 -33 -34.5 -54.5t-45.5 -23.5q-10 -2 -13 7t7 13zM403 174q8 47 -15 96t-95 129 l-27 -16q-221 -119 -237 -209q-8 -45 30.5 -80t110.5 -39q90 -6 156.5 30t76.5 89z" glyph-name="S" unicode="S"/><glyph d="M397 1133l-10 -50q82 4 336 15q102 4 199.5 6t130 3t43.5 5q18 4 20 -2q0 -4 -6 -10q-23 -23 -45 -23q-193 0 -348 -6q-276 -14 -336 -18q-31 -143 -57 -344q-14 -111 -93 -605q-2 -45 -22 -61q-6 0 -8 8q0 61 92 654q23 154 61 348q-137 -10 -202 -21q-266 -43 -273 -84 q-2 -14 -11 -15t-13 11q-4 14 4 24.5t56 30t144 41.5q119 27 301 41q23 90 48 115q16 14 24 0q4 -8 -4 -12q-21 -12 -31 -51z" glyph-name="T" horiz-adv-x="563" unicode="T"/><glyph d="M303 1047q-39 -39 -100.5 -172.5t-100.5 -266.5q-35 -127 -48 -243.5t0.5 -185t45.5 -68.5q145 0 512 772l6 12q2 8 5.5 21.5t6.5 24.5t7 22q55 197 68.5 231.5t33.5 34.5q29 0 -14 -125q-27 -76 -82 -213l-4 -23q-68 -287 -89.5 -496.5t-8 -306t50.5 -124.5 q27 -20 12 -31q-10 -8 -35 12q-33 29 -52 105.5t-9 264t70 441.5q-117 -250 -258.5 -449.5t-219.5 -199.5q-27 0 -45 19.5t-29.5 60.5t-11.5 102.5t13.5 150.5t42.5 197q94 358 211 447q23 16 28 2q2 -8 -6 -16z" glyph-name="U" horiz-adv-x="729" unicode="U"/><glyph d="M270 1096q-74 -166 -168 -516q-68 -258 -71 -390q-6 -92 26 -92q29 0 85.5 39t144.5 140.5t170 240.5q125 209 182 396.5t53 295.5q-4 51 -28 52q-14 0 -25 -21q-8 -12 -10 -12q-8 0 -8 7t4 15q12 29 41 29q23 0 38 -20.5t17 -45.5q10 -121 -61.5 -335.5t-176.5 -376.5 q-106 -168 -229 -294t-197 -126q-63 0 -55 102q6 162 72 408q27 104 83 267t85 231q14 31 26 18q4 -6 2 -12z" glyph-name="V" horiz-adv-x="684" unicode="V"/><glyph d="M74 412q0 -111 43 -111q16 0 33.5 26.5t52.5 98.5t51 102q14 25 31.5 57.5t27 50t19.5 35t18 24.5t15 7q45 0 38 -88q-4 -66 -36.5 -208t-36.5 -201q-12 -168 47 -168q39 0 123 87t159 241q82 164 136.5 371.5t54.5 334.5q0 195 -33 193h-6q-14 -4 -12 4q0 14 20 18h6 q49 -4 49 -213q0 -356 -192 -737q-76 -150 -156 -236t-143 -86q-57 0 -75.5 57.5t-8.5 131.5q8 72 42 217t36 194q2 61 -8 62q-16 0 -101 -168q-6 -10 -23.5 -47t-29.5 -62.5t-29.5 -56.5t-34 -47t-28.5 -16q-74 0 -74 133q0 184 109 430q92 203 182 282q12 10 12 2 q-2 -27 -71 -122q-47 -66 -107 -203q-100 -225 -100 -389z" glyph-name="W" horiz-adv-x="899" unicode="W"/><glyph d="M70 1104q20 -143 125 -526l10 -37l51 71q66 88 153 206t135 182.5t52 70.5q8 12 25 6q12 -4 2 -20q-29 -35 -336 -453l-70 -98q86 -274 191 -475q72 -135 153 -217q29 -27 19 -37q-4 -2 -11 2q-25 16 -34 26q-55 57 -111 146q-20 27 -35 55q-102 170 -196 467 q-16 -25 -103 -162q-74 -119 -63 -166q2 -10 -2 -10q-14 0 -23 33q-2 10 -2 20q0 61 182 322l-18 61q-119 428 -113 521q2 27 8 28q4 0 7 -6q2 -4 4 -10z" glyph-name="X" horiz-adv-x="479" unicode="X"/><glyph d="M707 207q-135 -10 -170 -17q-74 -164 -148 -292.5t-168 -226t-174 -97.5q-74 0 -110.5 43t-32.5 121q4 76 64.5 165t168.5 156q193 125 381 154q76 162 113 272q51 160 95 337t48 227q2 47 -14 47q-14 0 -39 -40t-119 -206q-66 -115 -108 -191q-53 -90 -104.5 -183 t-77 -140t-50 -88t-41 -55.5t-35.5 -14.5q-55 0 -86.5 57.5t-31.5 159.5q0 106 77 318q12 33 28.5 69.5t34 70.5t21.5 44q8 23 19 23q12 0 0 -27q-66 -154 -84 -197q-68 -188 -68 -295q0 -90 23.5 -149t56.5 -59q14 0 33.5 20t46.5 67.5t53.5 97.5t71.5 134t84 154 q207 365 252 417q27 33 41 33q41 0 37 -72q-12 -203 -140 -563q-49 -135 -106 -264q49 6 92 6q94 0 102.5 -4t-8.5 -8q-10 -2 -28 -4zM45 -397q94 0 220 170t241 411q-188 -35 -361 -145q-94 -59 -151 -144t-62 -157q-8 -135 113 -135z" glyph-name="Y" horiz-adv-x="782" unicode="Y"/><glyph d="M797 952q61 -4 -6 -82q-33 -39 -414 -358q-350 -297 -352 -299q188 37 446 25q510 -27 664 -156q20 -18 13 -25.5t-26 9.5q-57 51 -252.5 93t-398.5 50q-246 10 -451 -29q-25 -4 -30.5 15.5t18.5 40.5q16 12 47 40.5t112 97t198 163.5q330 266 403 344q43 47 20 51 q-176 16 -411 -10q-336 -37 -334 -138q0 -25 23 -49q14 -14 0 -22q-12 -4 -27 6q-10 23 -25.5 63.5t76.5 92t283 71.5q215 22 424 6z" glyph-name="Z" horiz-adv-x="770" unicode="Z"/><glyph d="M61 219q10 0 13 -2q2 -4 -8 -10q-6 -2 -13 -2q-8 -2 -28.5 0t-22.5 10q-2 6 45 346q10 72 17.5 165t12.5 140t11 49q8 4 37 0t37 -4q12 0 12 -6q2 -6 -6 -8h-10q-43 0 -49 -2q-2 0 -6.5 -46t-10.5 -134t-14 -158q-8 -78 -23.5 -161t-26 -127t-8.5 -46q2 -4 41 -4z" glyph-name="bracketleft" horiz-adv-x="163" unicode="["/><glyph d="M4 1108q8 4 17.5 -8.5t20.5 -43t21 -73.5q59 -270 78 -577q20 -309 15 -330q-2 -10 -9 -13q-8 -2 -15 6.5t-7 18.5q-4 33 -4 80q0 106 -10 244q-33 369 -74 573q-10 47 -21.5 80t-13.5 34t2 9z" glyph-name="backslash" horiz-adv-x="147" unicode="\"/><glyph d="M115 905q-20 2 -9 10q8 4 17 7q49 0 53 -11q2 -6 -4 -52t-20.5 -136t-22.5 -158q-10 -72 -17.5 -165t-12.5 -141t-11 -50q-8 -2 -36.5 2t-37.5 4q-12 0 -12 6q-2 4 6 6q4 2 10 2h50q2 2 5 48.5t10 132.5t17 157q8 76 23.5 160t25 128t7.5 46q0 4 -41 4z" glyph-name="bracketright" horiz-adv-x="163" unicode="]"/><glyph d="M10 389q-10 -4 -14 12q-2 10 4 11q6 2 127 10t135 8q63 6 68 -6q0 -2 -3 -4t-9.5 -3t-12.5 -2t-17.5 -2t-19.5 -3q-16 -2 -130 -10.5t-128 -10.5z" glyph-name="underscore" horiz-adv-x="391" unicode="_"/><glyph d="M106 604q-6 0 -49 47q-10 10 -24.5 22.5t-22.5 18.5t-8 8q-4 4 6 9q4 2 8 2q12 0 55.5 -44t43.5 -51q-1 -12 -9 -12z" glyph-name="grave" horiz-adv-x="102" unicode="`"/><glyph d="M207 403q57 0 195.5 56.5t213.5 99.5q6 4 16.5 1t-3.5 -11q-70 -45 -218.5 -108.5t-205.5 -63.5q-41 0 -59.5 19.5t-18.5 41.5q0 12 1 21.5t3 15.5v4q-6 6 -51 -18q-63 -37 -88 -37q-12 0 -20.5 6t-8.5 12q0 45 62 90q47 37 84 37q27 0 36 -30q4 -14 -2 -15 q-6 0 -14 12.5t-16 12.5q-25 0 -72 -33q-20 -14 -37.5 -35.5t-17.5 -29.5q0 -4 4 -5q16 0 67 27q86 39 93 39q14 0 14 -12q0 -2 -6 -22.5t-6 -37.5q0 -37 55 -37z" glyph-name="a" horiz-adv-x="548" unicode="a"/><glyph d="M485 567q12 0 15 -8q2 -4 -6 -8h-5q-61 -10 -184 -39t-174 -53q-2 -6 -9 -21.5t-9 -19.5q-23 -37 -53.5 -58.5t-51 -19.5t-31.5 10q-6 8 4.5 25.5t41 42t75.5 45.5l4 4q16 33 7 51q-10 16 -60 -26q-57 -53 -72 -50q-25 2 -4 64q12 41 39 143.5t52.5 193.5t52.5 173 q20 61 33.5 83.5t25.5 12.5q8 -6 5 -31.5t-15 -50.5q-8 -16 -35 -88q-41 -117 -81 -253t-56 -183q0 -2 -4 -14.5t-5 -16.5t1 -8q10 0 49 43q63 57 92 37q20 -12 10 -68q82 31 197.5 59.5t150.5 28.5zM86 430l4 8q-96 -57 -88 -73q4 -4 18.5 2t34 23t31.5 40z" glyph-name="b" horiz-adv-x="407" unicode="b"/><glyph d="M-35 434q-6 49 60 103q45 41 90 41q20 0 22 -17q-2 -8 -8 -10q-33 12 -86 -29q-53 -39 -53 -80q2 -18 25.5 -26t54.5 -4q61 6 176.5 53t202.5 94q6 4 16 1t-4 -11q-70 -45 -196 -97.5t-187 -60.5q-105 -14 -113 43z" glyph-name="c" horiz-adv-x="376" unicode="c"/><glyph d="M170 561q43 76 188 316l31 79q57 147 64 150q8 0 19 -13.5t9 -23.5q-4 -10 -82 -154q-127 -377 -170 -528q-29 -100 -43 -175t-14 -99.5t4 -32.5q10 -2 -2 -12q-8 -6 -16 -2q-33 18 53 333q39 152 119 389l-142 -233q23 -10 39 -23q6 -6 3 -10t-11 0l-43 19 q-111 -176 -139.5 -216t-46.5 -40q-14 0 -27.5 19.5t-13.5 47.5q0 78 51 148.5t123 70.5q22 0 47 -10zM-10 307q10 0 71.5 88t96.5 150q-6 2 -21 2q-66 0 -113 -64.5t-47 -130.5q1 -45 13 -45z" glyph-name="d" horiz-adv-x="382" unicode="d"/><glyph d="M84 395q-47 -4 -66.5 30t0.5 75q16 39 47 59.5t54 13.5q37 -4 20 -51q-20 -51 -104 -80q6 -25 43 -24q43 4 356 141q12 6 15.5 -1t-5.5 -11q-63 -29 -153 -72t-133 -60.5t-74 -19.5zM41 492q-8 -16 -8 -35q27 10 53.5 31.5t34.5 41.5q6 20 -6 25q-14 4 -37 -12t-37 -51z " glyph-name="e" horiz-adv-x="362" unicode="e"/><glyph d="M453 545q-4 -6 -47 -10q-123 -25 -244 -70q-61 -23 -115 -47q-12 -72 -18 -133q111 -86 110 -205q0 -72 -45 -161t-86 -89q-57 0 -14 422q2 10 2 27l-25 12q-18 8 -46.5 19.5t-37 16.5t-8.5 11q0 27 133 88q4 31 11.5 75t19.5 117.5t23 137.5q66 377 122 399 q27 10 37 -25q4 -8 1 -12t-4 -4h-9q-49 -4 -107 -356l-55 -314l70 31q59 27 136 49.5t125 32.5t58 10q25 -2 13 -22zM119 86q0 106 -92 174l-4 -35q-14 -170 -15.5 -264t10.5 -100q12 0 35 29.5t44.5 85t21.5 110.5zM-2 305l10 96q-90 -49 -90 -55q0 -2 9.5 -6t31 -13.5 t39.5 -21.5z" glyph-name="f" horiz-adv-x="358" unicode="f"/><glyph d="M-2 -98q-31 0 -54.5 20.5t-23.5 63.5q0 158 201 360q57 57 145 109q-6 98 -49 98q-12 0 -55 -29q-53 -45 -78 -45q-33 0 -31 39q2 47 51 70q41 14 63.5 8t33.5 -23q4 0 10 1t8 1q63 0 70 -108q92 47 189 72.5t140 25.5q16 0 17 -12q-2 -8 -10 -10q-49 0 -145.5 -25.5 t-188.5 -77.5v-2q0 -86 -25.5 -190.5t-70.5 -179.5q-41 -76 -94.5 -121t-102.5 -45zM172 86q43 74 68.5 172t25.5 164v4q-70 -39 -123 -96q-102 -102 -150 -194.5t-48 -153.5q0 -57 43 -58q37 0 88 42t96 120zM145 543q25 20 39 26q-39 20 -75 -4q-47 -29 -35 -57 q2 -8 10 -8q10 0 61 43z" glyph-name="g" horiz-adv-x="540" unicode="g"/><glyph d="M68 811q72 332 108 332q16 0 10 -41q-2 -6 -7 -16.5t-12 -26t-13 -27.5q-23 -70 -58 -237q-33 -145 -67 -367q14 8 38.5 25.5t34 23.5t24.5 14.5t24.5 11.5t17.5 3q25 0 25 -45v-6q0 -41 20 -41q90 0 330 141q16 6 16 -6q2 -8 -10 -14q-20 -12 -89 -51.5t-93.5 -50.5 t-68.5 -26.5t-81 -15.5q-53 0 -53 55q0 31 -2 31q-25 0 -123 -67q-18 -14 -29 -15q-14 0 -8 39q17 156 66 377z" glyph-name="h" horiz-adv-x="471" unicode="h"/><glyph d="M455 565q4 0 6 -6t-2 -10q-4 0 -27.5 -11.5t-75 -32t-112.5 -40.5q-129 -45 -160 -45q-41 0 -41 43q0 37 12 72q6 27 33 30q14 0 6 -20q-20 -43 -24 -82q-2 -20 10 -21q45 0 156 39q49 18 104 40t83 33t32 11zM113 651q-4 2 -8.5 14.5t-2.5 18.5q14 20 21 18 q20 -4 16 -26q-2 -8 -11 -16.5t-15 -8.5z" glyph-name="i" horiz-adv-x="370" unicode="i"/><glyph d="M86 410l-2 -11q78 43 154.5 74t97.5 31q10 0 10 -8q2 -6 -4 -7q-23 0 -102.5 -33.5t-159.5 -80.5q-49 -274 -105 -398q-82 -166 -196 -165q-29 0 -53.5 21.5t-24.5 64.5q0 70 56.5 172t158.5 206q57 57 139 107q18 115 23 168q0 16 18 10q14 -6 13 -20q0 -6 -23 -131z M-49 -8q63 137 100 364q-68 -45 -119 -96q-102 -102 -154 -203.5t-52 -162.5q0 -59 43 -60q39 0 95 44t87 114zM111 647q-14 0 -15 23q2 6 11.5 18t13.5 12q10 0 10 -22q0 -2 -3 -9t-3 -12q-10 -10 -14 -10z" glyph-name="j" horiz-adv-x="352" unicode="j"/><glyph d="M238 639q-4 0 -7.5 3t-5.5 3t-110 -59q-61 -37 -70 -45q-4 -20 -4 -27q27 -10 152 0q154 16 258 43q8 2 11 -3t0 -11t-7 -6q-88 -29 -260 -48q-109 -10 -160 -2l-12 -69q-4 -31 -7.5 -58.5t-4.5 -42t-1 -25.5t-2 -15.5t-6 -4.5q-18 0 -2 152q4 45 8 68q-16 6 -18 14 q-8 18 28 49q16 102 54 258q74 332 110 332q6 0 9.5 -14.5t1.5 -24.5q-2 -8 -7.5 -18.5t-13.5 -25.5t-14 -28q-23 -68 -58 -235q-10 -47 -27.5 -128t-19.5 -89l23 14q29 20 66.5 39.5t63 31t30.5 11.5q6 0 12 -8t6 -13q0 -18 -16 -18z" glyph-name="k" horiz-adv-x="452" unicode="k"/><glyph d="M-2 102q-4 0 -8 5.5t-7 16.5t-5.5 27.5t-2.5 38t2 50.5q16 254 91 577q74 332 110 332q6 0 10.5 -16.5t-0.5 -24.5q-2 -8 -14 -32.5t-18 -37.5q-14 -23 -60 -237q-72 -324 -94 -572q-4 -47 -3 -81.5t3 -36t-4 -9.5z" glyph-name="l" horiz-adv-x="159" unicode="l"/><glyph d="M422 346q-23 0 -25 25.5t11 89.5q18 98 12 100q-12 10 -84 -76q-49 -63 -72 -59q-18 6 -2 104q23 102 6 113q-6 4 -15 -2t-28.5 -31.5t-52.5 -79.5q-20 -33 -37.5 -65.5t-27 -51t-18.5 -33.5t-14 -21.5t-12 -6.5q-18 0 -12 29q8 53 17 166q0 12 9 16t16 -1t7 -19 l-22 -119q-2 -12 14 14q6 10 60 103q47 78 73.5 104.5t46.5 24.5q25 -6 25 -43t-12 -99l-13 -59q-4 -16 2.5 -18t18.5 12l24 29q86 100 111 100q20 0 21 -27q0 -31 -17 -106q-4 -18 -7 -32.5t-4 -25t-1 -16.5t1 -10t2 -6t5 -2q57 0 379 192q4 2 10 0t8 -6t-8 -10 q-301 -197 -395 -197z" glyph-name="m" horiz-adv-x="733" unicode="m"/><glyph d="M72 553q2 8 16 12q12 0 10 -14t-12 -45l-8 -31q-2 -2 0 -4t4 -2t63 31q57 31 78 30q33 0 33 -38q-4 -55 10 -56q37 -10 164 45l188 78q10 6 13 -6q0 -8 -8 -12q-29 -14 -97.5 -44t-87.5 -38q-135 -55 -184 -47q-35 8 -31 65q2 25 -4 29t-43 -14q-78 -43 -98 -43 q-6 0 -17.5 6t-11.5 12q0 2 4 15.5t10.5 34t8.5 36.5z" glyph-name="n" horiz-adv-x="542" unicode="n"/><glyph d="M-6 461q12 25 33 53q-12 12 -17 21q-16 35 8.5 68.5t65.5 33.5q39 0 62.5 -35t23.5 -92v-4h16q111 10 228 53q8 4 10 -8q0 -4 -2 -4q-137 -53 -240 -62q-4 -2 -12 -2q-8 -84 -59.5 -148.5t-96.5 -64.5q-43 0 -50 59.5t30 131.5zM10 291q43 0 84 56t49 136q-61 0 -96 17 q-25 -37 -29 -45q-23 -41 -28.5 -81t1.5 -61.5t19 -21.5zM92 555l-4 -4q-4 -4 -11 -13.5t-14 -17.5q29 -14 82 -14v12q0 45 -19.5 71.5t-46 26.5t-43 -21.5t-3.5 -47.5q2 -6 10 -15q27 31 39 31q10 0 10 -8z" glyph-name="o" horiz-adv-x="339" unicode="o"/><glyph d="M260 528q-27 0 -82 -57t-115 -168l-55 -178q-41 -119 -53 -119t-16 14q0 6 6 33t25.5 84.5t45.5 114.5l31 67q35 109 72 322q2 14 14 8q10 -4 8 -16q-14 -104 -53 -246q100 160 174 160q14 0 27.5 -18.5t13.5 -49.5q0 -4 -1 -10t-1 -8q154 74 266 104q18 6 21 -6 q0 -4 -8 -6q-127 -35 -285 -117q-16 -55 -53 -92q-31 -31 -65 -43t-53.5 -6t-19.5 22q0 41 162 127q4 12 8 41q0 43 -14 43zM219 362q25 20 37 54q-123 -68 -123 -90q0 -6 9.5 -8.5t29.5 8.5t47 36z" glyph-name="p" horiz-adv-x="491" unicode="p"/><glyph d="M127 469q-2 0 -2 16q0 18 -6 37q-8 25 -15 25q-27 0 -67 -74q-49 -86 -51 -121q-2 -20 4 -20q16 0 100 84q53 57 80 94q23 84 31 88q8 0 18 -18q6 -14 -4 -48q-8 -29 -59 -237q-51 -201 -66 -313q-4 -23 -5 -43.5t-1 -31.5t-1 -19.5t-2 -11.5t-5 -3q-27 0 -10 123 q14 119 61 315l33 150q-41 -45 -80 -82t-62.5 -54.5t-31.5 -17.5q-27 0 -21 49q4 51 55 138q47 80 74 79q25 0 37 -49q8 -29 8 -41q-4 -14 -12 -14z" glyph-name="q" horiz-adv-x="309" unicode="q"/><glyph d="M121 370.5q-55 8.5 -17 94.5q20 45 21 49q0 6 -29 18q-45 16 -33 70q8 29 29 43t37 10q8 -2 15.5 -10t7.5 -16q-6 -41 -58 -70q4 -6 12 -6q51 -20 52 -35q0 -4 -4 -11t-12.5 -22.5t-14.5 -29.5q-27 -53 2 -56q57 -8 170 35t203 121q12 12 20 4q2 -4 -4 -10 q-88 -84 -215 -135.5t-182 -43zM88 596q-4 -16 0 -23q41 27 45 58q0 4 -2 4q-8 2 -23.5 -11.5t-19.5 -27.5z" glyph-name="r" horiz-adv-x="434" unicode="r"/><glyph d="M135 719q-70 -45 -57 -92q4 -12 20.5 -55.5t24.5 -69.5q80 63 141 90q8 4 23 4q6 -4 2 -7t-10 -5q-55 -23 -148 -105q27 -92 27 -160q0 -90 -60.5 -149t-120.5 -59q-68 0 -71 69q-6 104 129 240q27 27 67 63q-6 16 -16 44t-17.5 48.5t-11.5 36.5q-12 47 10.5 84t53.5 41 q23 2 22 -8q0 -6 -8 -10zM135 334q0 53 -24 127l-54 -53q-125 -127 -125 -228q0 -49 33 -49q61 0 115.5 60.5t54.5 142.5z" glyph-name="s" horiz-adv-x="301" unicode="s"/><glyph d="M23 92q-4 -2 -8.5 3t-7.5 16.5t-5 28t-3 39t-1 48.5q6 262 57 531q12 72 27 123q-184 0 -224 2t-44 16q0 4 8 10t18 8.5t17 0.5q20 -10 55 -11l176 -2q55 221 92 221q8 0 13.5 -15t1.5 -24q0 -6 -2.5 -7t-4.5 0t-6 -3t-8 -14q-12 -12 -53 -158q12 0 61 -1t121 -1h33.5h30 t23.5 1t18.5 1t14.5 -1t11 -1t7 -1t5.5 -3t2.5 -4q2 -10 -32 -12t-118 -2h-184q-16 -59 -31 -136q-31 -184 -45 -296q-29 -197 -14 -304q2 -16 6 -34q4 -10 2 -14.5t-10 -4.5z" glyph-name="t" horiz-adv-x="206" unicode="t"/><glyph d="M162 389q14 72 45 125l-45 -51q-98 -98 -135 -98q-27 0 -25 43q2 27 29 86q27 66 51 69q14 2 14 -14q0 -4 -8 -13.5t-20.5 -24.5t-18.5 -30q-18 -35 -24.5 -63.5t8.5 -28.5q12 0 51 31t61 55q8 8 19.5 20.5t17.5 19.5t14.5 16.5t13.5 14.5t11 9t10.5 5t8.5 1 q12 -4 -2 -37q-4 -8 -7 -12q-37 -84 -47 -125q-14 -59 17 -59q41 0 120.5 43t182 110.5t133.5 83.5q14 4 18 -4q2 -2 -6 -8q-18 -12 -77.5 -52t-102.5 -67.5t-98.5 -61.5t-99.5 -51.5t-72 -17.5q-60 0 -37 86z" glyph-name="u" horiz-adv-x="563" unicode="u"/><glyph d="M88 496q8 0 33.5 24.5t42.5 50.5q-4 8 -4 15q0 8 9 18t17 10q10 0 9 -12q0 -10 -11 -31q31 -29 121 -28q80 -2 133 18q6 0 12.5 -5t0.5 -9q-74 -25 -123 -25q-111 0 -152 37l-14 -22l-12 -13q-12 -14 -22.5 -24.5t-24 -20.5t-21.5 -10q-12 0 -18.5 19.5t-4.5 39.5 q0 37 27 37q8 0 2 -18q-2 -8 -4 -12q-6 -39 4 -39z" glyph-name="v" horiz-adv-x="366" unicode="v"/><glyph d="M139 645q-76 -139 -80 -209q0 -35 15 -35q16 0 82 66q57 51 75 51q27 0 27 -22q0 -6 -2 -28t-2 -26q-2 -18 6 -18q23 0 53 43q20 23 27 43q8 20 14 20q4 2 19.5 -4t44.5 -4q74 2 174 39q10 2 13 -3t-7 -9q-66 -35 -160 -45q-29 -2 -45 0t-22 4h-6l-5 -8q-4 -8 -11 -20.5 t-15 -24.5q-35 -51 -74 -52q-29 0 -29 31q0 10 3.5 30.5t3.5 27.5q0 10 -7 10q-2 0 -61 -58q-70 -66 -92 -67q-20 -4 -30.5 10t-10.5 33q0 59 53 174q29 61 41 61q16 0 8 -10z" glyph-name="w" horiz-adv-x="509" unicode="w"/><glyph d="M88 309q57 33 135 101q-59 43 -88 108.5t-16 126.5q0 6 6 7t11 -2t3 -9q-8 -59 23 -116.5t86 -92.5q121 117 203 264q8 12 16 -8q4 -10 0 -18q-80 -145 -195 -250q45 -20 93 -21q33 0 73.5 9.5t93 32t82 35.5t93 45t73.5 38t19 0q4 -4 -8 -10q-301 -186 -420 -187 q-68 0 -127 33q-57 -51 -140 -100q-18 -12 -24 2q-2 6 8 12z" glyph-name="x" horiz-adv-x="708" unicode="x"/><glyph d="M270 537q-23 0 -92 -76q-82 -90 -115 -90q-12 0 -20 12t-4 33l29 96q4 10 5 20.5t2 14.5t3 8t6 4q16 2 16 -12q0 -6 -14 -47q-20 -61 -23 -72q-8 -29 5 -29q29 0 96 74q8 10 20.5 23.5t18.5 20.5t15 16.5t13.5 13.5t11.5 9t11 7t9 4t11 2q35 0 39 -90q154 88 211 88 q18 0 17 -12q0 -8 -11 -8q-23 0 -86 -26.5t-131 -69.5q-2 -84 -30.5 -198t-69.5 -187q-96 -168 -197 -168q-29 0 -53 21.5t-24 64.5q0 156 215 372q57 59 137 107q-5 74 -21 74zM190 82q41 72 69 178.5t32 175.5q-63 -41 -121 -96q-102 -104 -154.5 -202.5t-52.5 -157.5 q0 -57 43 -58q37 0 88 41t96 119z" glyph-name="y" horiz-adv-x="516" unicode="y"/><glyph d="M80 549q-20 12 -4 24q12 10 20 -2q12 -20 123 4q45 10 41 -16q-2 -39 -92 -90q-66 -37 -102 -61q72 0 153.5 -15.5t118.5 -32.5q31 -14 14 -18q-6 -2 -18 2q-98 31 -275 41q-31 4 -34 10q-2 6 5 13.5t33.5 25t81.5 49.5q98 57 93 72q-2 8 -19 2q-94 -31 -139 -8z" glyph-name="z" horiz-adv-x="331" unicode="z"/><glyph d="M440 932l-12 24q-12 25 -37 25q-33 0 -67.5 -43t-51.5 -119q-23 -92 -42 -129t-48 -37q-18 0 -22 -5t-4 -19q0 -45 -60 -111q-72 -78 -71 -135q0 -45 47 -45q14 0 37.5 11t29.5 9q14 -6 -14 -26q-27 -18 -55 -19q-33 0 -51.5 19.5t-18.5 50.5q0 16 3 29.5t12.5 31 t14.5 25.5t22.5 32.5t23.5 33.5q4 4 12 15t12 16t11.5 15.5t10.5 15.5t7 13t6 13.5t3 12.5t-1 12t-4 9q-2 6 -2 11.5t6 7.5t15 0q27 -4 50 25.5t42 111.5q18 90 56 141.5t89 51.5q49 0 60 -45q5 -29 -9 -29z" glyph-name="braceleft" horiz-adv-x="438" unicode="{"/><glyph d="M16 176q-2 -18 -8 -22q-6 -6 -6 6q-2 4 0 12q0 12 9 84t20.5 159t15.5 119.5t26.5 158.5t41 235.5t18.5 124.5q4 25 18.5 24.5t6.5 -33.5q-109 -622 -142 -868z" glyph-name="bar" horiz-adv-x="149" unicode="|"/><glyph d="M86 295q-63 0 -84 70q-6 16 12 20q8 0 9 -6q0 -8 3 -20.5t16 -26t34 -13.5q61 0 96 164q18 88 51 131q2 4 -6 19.5t-4 30.5q6 16 123 161q63 80 63 99q0 12 -32 12q-6 0 -24.5 -5t-29 -7t-16.5 4q-4 12 21.5 22.5t46.5 10.5q57 0 57 -33q0 -45 -53 -107 q-115 -131 -127 -155q-6 -10 -7.5 -16.5t4 -8.5t8.5 -3t11 0t10 1q14 0 11 -14q-4 -12 -27 -17q-23 -4 -33 -31.5t-26 -103.5q-4 -20 -7 -31q-30 -147 -100 -147z" glyph-name="braceright" horiz-adv-x="409" unicode="}"/><glyph d="M8 618q-8 0 -8 17q0 12 41 30.5t70 18.5q47 0 65 -45q12 -35 35 -35q12 0 57 18.5t47 18.5q12 0 12.5 -8t-50 -28.5t-70.5 -20.5q-41 0 -55 45q-12 31 -43 30q-18 0 -58.5 -20.5t-42.5 -20.5z" glyph-name="asciitilde" horiz-adv-x="315" unicode="~"/><glyph d="M49 563q18 51 51 92t62 41q8 0 16 -4l-10 -22h-6q-23 0 -47.5 -34t-38.5 -75q-23 -66 16 -76q-4 -12 -4 -16q-25 6 -38 30.5t-1 63.5zM168 670l18 -6q-45 -106 -55 -146q-2 -4 -4 -10t-4 -11t-2 -10q-6 -2 -19 -2h-10l10 25q27 70 66 160zM186 522q8 4 15.5 2t6.5 -9 t-11 -15q-39 -27 -84 -33l8 20q32 6 65 35zM195 684l-17 8q4 12 29 60q8 20 12 24q4 2 6 -4q2 -10 -6 -27zM82 410q-14 0 6 59q2 -2 12 -2h13q-21 -57 -31 -57zM233 635q-4 -14 -8 -14t-6 8q0 16 -33 35l9 20q42 -24 38 -49z" glyph-name="cent" horiz-adv-x="292" unicode="¢"/><glyph d="M78 584q-10 0 -6 14q2 10 16 8q6 -2 39 -2l16 29q47 82 80 110.5t70 28.5q49 0 43 -51q-4 -29 -31 -49q-18 -12 -22 4q-2 4 2 6q25 18 30 35q8 33 -24 33q-25 0 -52.5 -25t-70.5 -102l-12 -21q68 -8 71 -14q8 -8 5 -13.5t-17 -1.5q-6 2 -72 7q-47 -80 -77 -111 q8 -4 32.5 -21.5t44 -26.5t37.5 -9q12 0 29.5 9t21.5 21q10 14 17 9q4 -4 0 -13q-4 -14 -26.5 -33.5t-45.5 -19.5q-27 0 -76 32t-57 34q-12 -4 -16 -5q-10 -2 -19.5 7.5t-5.5 23.5q4 25 41 4q27 27 70 99q-10 0 -35 4z" glyph-name="sterling" horiz-adv-x="360" unicode="£"/><glyph d="M149.5 793q32.5 0 47.5 -25q74 47 84 47t10 -8q-2 -4 -86 -57q2 -16 -4 -37q-10 -31 -27 -47q27 -33 27 -41.5t-6 -8.5q-4 0 -37 37q-16 -10 -33 -10q-37 0 -55 29l-37 -21q-6 -4 -14.5 -6t-13.5 -1t-5 3t23 17l40 26q-8 23 3 41q8 23 12 27q-20 27 -21 30v13q2 2 7.5 1 t7.5 -5l18 -27q27 23 59.5 23zM127 666q20 0 39.5 25.5t19.5 43.5q0 37 -34 37q-25 0 -47.5 -22.5t-22.5 -44.5q0 -39 45 -39z" glyph-name="currency" horiz-adv-x="278" unicode="¤"/><glyph d="M217 602q-35 0 -55 2l-23 -29q37 -4 49 -4q14 0 17 -8q2 -8 -12 -10q-6 -2 -13 -2q-14 0 -55 4q-41 -61 -98 -162q-12 -18 -23 -10q-4 2 0 8q2 2 16.5 27.5t39 65.5t46.5 75q-23 2 -36 10q-18 6 -9 13q8 4 19 2l39 -6l18 26l-61 6q-12 2 -14.5 8.5t8.5 8.5q6 2 14 0 q25 -4 66 -4l6 6q-35 41 -35 92q0 16 3 26.5t7 12.5t8 0q2 -4 2 -8t-2 -15.5t-2 -21.5q0 -35 31 -72v2q74 98 94 98q14 0 14 -16q0 -2 -10 -10t-36.5 -34t-55.5 -62h33q10 0 14 -11q4 -8 -4 -8z" glyph-name="yen" horiz-adv-x="276" unicode="¥"/><glyph d="M100 705q-4 -23 -18 -13q-8 6 -6 15q57 330 57 346q4 25 18.5 24.5t6.5 -33.5zM51 547q2 14 17 12q10 -2 8 -12q-37 -217 -60 -371q-2 -18 -8 -22q-6 -6 -6 6q-2 4 0 12q0 14 10.5 88t22.5 166t16 121z" glyph-name="brokenbar" horiz-adv-x="149" unicode="¦"/><glyph d="M203 768q-16 0 2 27q2 4 4 6q8 14 -6.5 25.5t-45 11.5t-63.5 -54q-4 -45 43 -151q6 -16 17.5 -40t16.5 -36t11 -28.5t8.5 -32t2.5 -33.5q0 -53 -37 -90q27 -84 26 -115q0 -78 -40 -121t-83 -43q-31 0 -45 23.5t-14 44.5q0 14 16 14q8 2 11 -6v-4q-8 -12 -4 -26.5 t34 -14.5q33 0 64 46t31 93q0 96 -60 197q-70 117 -69 196q0 55 45 133t88 78q41 0 60.5 -19.5t19.5 -37.5q0 -12 -12.5 -27.5t-20.5 -15.5zM127 444l18 -43q18 29 19 72q0 49 -45 148q-41 92 -47 122q-20 -47 -21 -86q0 -61 76 -213z" glyph-name="section" horiz-adv-x="223" unicode="§"/><glyph d="M10 651q-4 2 -7 14.5t-1 18.5t8 13.5t10 4.5q20 -4 17 -26q-2 -8 -11.5 -16.5t-15.5 -8.5zM72 653q-8 0 -9 21q0 4 9.5 14t15.5 10q2 0 7 -5t5 -11q0 -8 -11 -18.5t-17 -10.5z" glyph-name="dieresis" horiz-adv-x="112" unicode="¨"/><glyph d="M135 420q-47 0 -91 32.5t-44 100.5t52 124t118 56q47 0 47 -12q0 -8 -49 -8q-53 0 -98 -49.5t-45 -106.5t32.5 -85t79.5 -28t91 49.5t44 104.5q0 35 -14 62.5t-25.5 41t-7.5 17.5q8 6 24.5 -7.5t32 -46t15.5 -71.5q0 -66 -48 -120t-114 -54zM180 547l-6 -10 q-6 -8 -13 -15.5t-18.5 -14.5t-21.5 -7q-25 0 -36 30.5t9 65.5q37 63 86 63q12 0 24.5 -16t2.5 -33q-14 -23 -25 -12q-4 4 0 8q4 8 4 20.5t-6 12.5q-41 0 -61 -47q-12 -27 -12.5 -47.5t12.5 -20.5q20 0 41 25q14 14 20 6q2 -4 0 -8z" glyph-name="copyright" horiz-adv-x="284" unicode="©"/><glyph d="M164 459q-6 -2 -23 18q-23 23 -39 29q-16 8 0 16l64 37q39 25 41 23q8 -8 -12.5 -20.5t-40 -24t-27.5 -15.5t-8 -6t33 -31q22 -18 12 -26zM111 561q-12 -8 -32 -17t-24 -12q-20 -12 -4 -18q27 -10 47 -37q6 -8 0 -10t-10 2q-20 20 -53 37q-6 4 -11.5 5t-7.5 2t-2 3 q0 12 15 19l67 36q18 10 21 0q2 -6 -6 -10z" glyph-name="guillemotleft" horiz-adv-x="235" unicode="«"/><glyph d="M207 690q6 0 21.5 -7t33 -30.5t17.5 -58.5q0 -63 -44.5 -118.5t-121.5 -55.5q-47 0 -75 23.5t-33 44t-5 40.5q0 72 65.5 136.5t129.5 64.5q18 0 24 -10q2 -4 0 -6q-2 -4 -26 -4q-55 0 -114 -62.5t-59 -122.5q0 -39 24 -62.5t69 -23.5q57 0 100 52.5t43 103.5 q0 29 -12.5 49.5t-22.5 27.5t-16 9t-4 6t6 4zM72 498q-4 0 -5 3t1 9t8 12q2 4 16 22.5t25.5 35t11.5 18.5q2 2 1 9t-1 11q6 10 51 3q37 -8 37 -25q0 -6 -16.5 -22.5t-32.5 -22.5q-23 -12 -23 -14q4 -2 18.5 -17.5t14.5 -19.5q0 -6 -10 -6q-12 0 -37 36q-12 14 -12 19 q-4 -8 -11.5 -16.5t-7.5 -10.5q-22 -24 -28 -24zM154 602q-4 -2 -35 -51l4 2q70 35 70 39q0 8 -18.5 12t-20.5 -2z" glyph-name="registered" horiz-adv-x="266" unicode="®"/><glyph d="M94 635q-94 0 -94 10q0 12 27 12h63q16 0 16 -12q0 -10 -12 -10z" glyph-name="macron" horiz-adv-x="94" unicode="¯"/><glyph d="M106.5 836q18.5 0 28.5 -13.5t10 -29.5q0 -18 -15 -36t-44 -18q-16 0 -27.5 14.5t-7.5 34.5q2 18 19.5 33t36 15zM88 764q31 0 35 29q4 20 -19 20q-31 0 -35 -24.5t19 -24.5z" glyph-name="degree" horiz-adv-x="153" unicode="°"/><glyph d="M195 621q-47 0 -48 10q0 4 15.5 10t23.5 6h27q2 27 8 78q0 6 7.5 8t13.5 0t6 -6q0 -2 -2 -13.5t-4 -30.5t-4 -36h26q6 0 17.5 -5t11.5 -9q0 -12 -23 -12h-37l-4 -31q-14 -63 -24 -64q-4 6 -4 8.5t3 21.5t3 32l4 33h-16zM119 473q-18 0 2 16q6 8 12 9q6 0 47 2t47 2 q12 0 19 -15q4 -12 -8 -12q-8 0 -59.5 -1t-59.5 -1z" glyph-name="plusminus" horiz-adv-x="370" unicode="±"/><glyph d="M96 694q12 0 13 -12q0 -10 -19 -18q-6 -2 -26.5 -15.5t-38.5 -25.5l-19 -13q-6 0 -6 8q0 2 34 30t42 34q16 12 20 12z" glyph-name="acute" horiz-adv-x="96" unicode="´"/><glyph d="M59 563q0 2 1 2t1 2l7 19q2 8 4 17l3 13.5t1 8.5t2 6t6 2q16 2 16 -12q0 -4 -12 -48q-18 -45 -25 -71q-8 -25 7 -29q27 0 90 72q80 96 104 96q27 0 8 -61q-8 -25 -25.5 -62t-23.5 -53q-20 -57 6 -57q80 0 197 84q4 4 14.5 2t-2.5 -13q-121 -100 -213 -100q-57 0 -24 86 q8 25 26.5 66.5t22.5 52.5q8 25 0 24q-14 0 -76 -78q-76 -88 -111 -88q-12 0 -18 11q-35 -100 -41 -103q-4 2 -3 10.5t9 39t19.5 66.5t29.5 95z" glyph-name="uni00B5" horiz-adv-x="432" unicode="µ"/><glyph d="M360 657q47 -10 72 -23t23 -20.5t-2 -11.5q-4 -4 -11.5 -1t-14.5 6t-7 1q-2 -2 -21.5 -34.5t-49.5 -83t-52 -84.5q-80 -115 -158 -134q-61 -18 -88 -18q-23 0 -38 27.5t-11 48.5q6 31 16 0q2 -4 2 -6q0 -45 33 -45q41 0 135 135q8 10 54 84q-45 2 -73 21.5t-11 55.5 q20 47 74 72.5t128 9.5zM299 467q94 150 92 154q-4 14 -31 8q-2 0 -8 -10.5t-19.5 -36t-27.5 -47.5q-27 -43 -92.5 -128t-93.5 -112q16 -4 55 20q51 31 125 152z" glyph-name="paragraph" horiz-adv-x="444" unicode="¶"/><glyph d="M70 283q-8 0 -12.5 5t-0.5 9q2 4 31 34.5t33 35.5q10 10 22 2q4 -2 2 -7l-39 -43q8 2 27 3q23 0 39 -16.5t16 -45.5q0 -45 -43 -85t-92 -40q-25 0 -39 12.5t-14 24.5t16 14q6 0 7 -6q0 -6 11 -13t23 -7q33 0 70 38t37 62q0 16 -10.5 29.5t-30.5 13.5q-16 0 -35 -10z" glyph-name="cedilla" horiz-adv-x="176" unicode="¸"/><glyph d="M121 584q4 0 22.5 -18.5t38.5 -30.5q14 -2 6 -13q-2 -2 -6 -4q-6 -2 -63 -37q-12 -6 -25 -16q-12 -8 -16 -6q-12 8 12 22q20 12 40 23.5t28 15.5t8 6l-35 29q-20 23 -10 29zM174 481q10 4 29.5 14.5t25.5 14.5q18 8 4 18q-23 4 -47 35q-6 8 0.5 11.5t12.5 -1.5 q16 -23 51 -36l20 -11q4 -10 -14 -20l-68 -35q-16 -10 -18 0q-2 6 4 10z" glyph-name="guillemotright" horiz-adv-x="296" unicode="»"/><glyph d="M729 -23q4 16 14 136l-6 39q-10 63 -79.5 132.5t-161.5 110.5q-45 18 -166 72q-203 -338 -322 -610q-16 -37 -28 -23q-8 6 -3 21q111 260 326 624l-53 25q-33 16 -12 45q29 35 129 37l34 55q106 178 227.5 315.5t192 190.5t92.5 51q57 -6 45 -61q-2 -12 -20 -90 t-48 -212.5t-56 -263.5q37 -8 53 -18q35 -20 35 -21q2 -4 -48 3q-16 0 -40 4h-7q-47 -238 -57 -416v-6t-2 -6q12 -78 8 -107q0 -12 -13 -25.5t-20 -11.5h-7t-6 2t-1 8zM403 586q242 4 406 -11q27 137 58.5 273.5t51 209t19.5 79.5q4 39 -18 43q-12 2 -95.5 -78t-201 -216 t-195.5 -259zM504 414q203 -98 248 -221q10 127 51 350q-164 14 -420 10l-39 -64zM268 524l49 -22l29 49q-86 -6 -82 -23q0 -2 4 -4zM1012 1204q-6 0 -49 47q-10 10 -24.5 22.5t-23 18.5t-8.5 8q-4 4 6 9q4 2 9 2q12 0 55 -43t43 -51q0 -13 -8 -13z" glyph-name="Agrave" horiz-adv-x="972" unicode="À"/><glyph d="M729 -23q4 16 14 136l-6 39q-10 63 -79.5 132.5t-161.5 110.5q-45 18 -166 72q-203 -338 -322 -610q-16 -37 -28 -23q-8 6 -3 21q111 260 326 624l-53 25q-33 16 -12 45q29 35 129 37l34 55q106 178 227.5 315.5t192 190.5t92.5 51q57 -6 45 -61q-2 -12 -20 -90 t-48 -212.5t-56 -263.5q37 -8 53 -18q35 -20 35 -21q2 -4 -48 3q-16 0 -40 4h-7q-47 -238 -57 -416v-6t-2 -6q12 -78 8 -107q0 -12 -13 -25.5t-20 -11.5h-7t-6 2t-1 8zM403 586q242 4 406 -11q27 137 58.5 273.5t51 209t19.5 79.5q4 39 -18 43q-12 2 -95.5 -78t-201 -216 t-195.5 -259zM504 414q203 -98 248 -221q10 127 51 350q-164 14 -420 10l-39 -64zM268 524l49 -22l29 49q-86 -6 -82 -23q0 -2 4 -4zM989 1319q12 0 12 -12q0 -10 -18 -19q-6 -2 -26.5 -15t-38.5 -26l-19 -12q-6 0 -6 8q0 2 34 29.5t42 34.5q16 12 20 12z" glyph-name="Aacute" horiz-adv-x="972" unicode="Á"/><glyph d="M729 -23q4 16 14 136l-6 39q-10 63 -79.5 132.5t-161.5 110.5q-45 18 -166 72q-203 -338 -322 -610q-16 -37 -28 -23q-8 6 -3 21q111 260 326 624l-53 25q-33 16 -12 45q29 35 129 37l34 55q106 178 227.5 315.5t192 190.5t92.5 51q57 -6 45 -61q-2 -12 -20 -90 t-48 -212.5t-56 -263.5q37 -8 53 -18q35 -20 35 -21q2 -4 -48 3q-16 0 -40 4h-7q-47 -238 -57 -416v-6t-2 -6q12 -78 8 -107q0 -12 -13 -25.5t-20 -11.5h-7t-6 2t-1 8zM403 586q242 4 406 -11q27 137 58.5 273.5t51 209t19.5 79.5q4 39 -18 43q-12 2 -95.5 -78t-201 -216 t-195.5 -259zM504 414q203 -98 248 -221q10 127 51 350q-164 14 -420 10l-39 -64zM268 524l49 -22l29 49q-86 -6 -82 -23q0 -2 4 -4zM909 1245q-4 -2 -7 2t-3 8q-2 4 15.5 19.5t33.5 25.5q35 23 49 23q18 4 25 -16l16 -66q0 -8 -10 -12q-10 0 -14 22q-14 43 -17 43 q-8 0 -55 -30q-25 -19 -33 -19z" glyph-name="Acircumflex" horiz-adv-x="972" unicode="Â"/><glyph d="M729 -23q4 16 14 136l-6 39q-10 63 -79.5 132.5t-161.5 110.5q-45 18 -166 72q-203 -338 -322 -610q-16 -37 -28 -23q-8 6 -3 21q111 260 326 624l-53 25q-33 16 -12 45q29 35 129 37l34 55q106 178 227.5 315.5t192 190.5t92.5 51q57 -6 45 -61q-2 -12 -20 -90 t-48 -212.5t-56 -263.5q37 -8 53 -18q35 -20 35 -21q2 -4 -48 3q-16 0 -40 4h-7q-47 -238 -57 -416v-6t-2 -6q12 -78 8 -107q0 -12 -13 -25.5t-20 -11.5h-7t-6 2t-1 8zM403 586q242 4 406 -11q27 137 58.5 273.5t51 209t19.5 79.5q4 39 -18 43q-12 2 -95.5 -78t-201 -216 t-195.5 -259zM504 414q203 -98 248 -221q10 127 51 350q-164 14 -420 10l-39 -64zM268 524l49 -22l29 49q-86 -6 -82 -23q0 -2 4 -4zM856 1266q-8 0 -8 16q0 10 27.5 23.5t50.5 13.5q37 0 35 -37q0 -18 10 -18q12 0 52 18t42 18q12 0 12 -8t-45 -28.5t-65 -20.5 q-25 0 -27 33q-2 18 -14.5 18t-39 -14t-30.5 -14z" glyph-name="Atilde" horiz-adv-x="972" unicode="Ã"/><glyph d="M729 -23q4 16 14 136l-6 39q-10 63 -79.5 132.5t-161.5 110.5q-45 18 -166 72q-203 -338 -322 -610q-16 -37 -28 -23q-8 6 -3 21q111 260 326 624l-53 25q-33 16 -12 45q29 35 129 37l34 55q106 178 227.5 315.5t192 190.5t92.5 51q57 -6 45 -61q-2 -12 -20 -90 t-48 -212.5t-56 -263.5q37 -8 53 -18q35 -20 35 -21q2 -4 -48 3q-16 0 -40 4h-7q-47 -238 -57 -416v-6t-2 -6q12 -78 8 -107q0 -12 -13 -25.5t-20 -11.5h-7t-6 2t-1 8zM403 586q242 4 406 -11q27 137 58.5 273.5t51 209t19.5 79.5q4 39 -18 43q-12 2 -95.5 -78t-201 -216 t-195.5 -259zM504 414q203 -98 248 -221q10 127 51 350q-164 14 -420 10l-39 -64zM268 524l49 -22l29 49q-86 -6 -82 -23q0 -2 4 -4zM913 1249q-4 2 -7 14.5t-1 18.5t8.5 13.5t10.5 4.5q20 -4 16 -26q-2 -8 -11.5 -16.5t-15.5 -8.5zM975 1251q-8 0 -8 21q0 4 9 14t15 10 q2 0 7.5 -5t5.5 -11q0 -8 -11.5 -18.5t-17.5 -10.5z" glyph-name="Adieresis" horiz-adv-x="972" unicode="Ä"/><glyph d="M729 -23q4 16 14 136l-6 39q-10 63 -79.5 132.5t-161.5 110.5q-45 18 -166 72q-203 -338 -322 -610q-16 -37 -28 -23q-8 6 -3 21q111 260 326 624l-53 25q-33 16 -12 45q29 35 129 37l34 55q106 178 227.5 315.5t192 190.5t92.5 51q57 -6 45 -61q-2 -12 -20 -90 t-48 -212.5t-56 -263.5q37 -8 53 -18q35 -20 35 -21q2 -4 -48 3q-16 0 -40 4h-7q-47 -238 -57 -416v-6t-2 -6q12 -78 8 -107q0 -12 -13 -25.5t-20 -11.5h-7t-6 2t-1 8zM403 586q242 4 406 -11q27 137 58.5 273.5t51 209t19.5 79.5q4 39 -18 43q-12 2 -95.5 -78t-201 -216 t-195.5 -259zM504 414q203 -98 248 -221q10 127 51 350q-164 14 -420 10l-39 -64zM268 524l49 -22l29 49q-86 -6 -82 -23q0 -2 4 -4zM985.5 1337q18.5 0 28.5 -13t10 -30q0 -18 -15.5 -35.5t-43.5 -17.5q-16 0 -27.5 14.5t-7.5 34.5q2 18 19.5 32.5t36 14.5zM967 1266 q31 0 34 28q4 20 -18 21q-31 0 -35 -24.5t19 -24.5z" glyph-name="Aring" horiz-adv-x="972" unicode="Å"/><glyph d="M793 106q92 6 319 74q98 31 125 53q10 10 29 -4q8 -8 2 -14q-35 -31 -162 -68q-197 -59 -279 -61q-45 -2 -55 2q8 -57 4 -84q0 -12 -13 -25.5t-20 -11.5h-7t-6 2t-1 8q4 16 14 136q0 2 -1 4t-1 4q-2 4 -2 16v6q-2 4 -2 9q-10 63 -79.5 132.5t-161.5 110.5q-45 18 -166 72 q-203 -338 -322 -610q-16 -37 -28 -23q-8 6 -3 21q111 260 326 624l-53 25q-33 16 -12 45q29 35 129 37l34 55q106 178 227.5 315.5t192 190.5t92.5 51q57 -6 45 -61l-38 -166l77 18l52 123q29 61 43 70q6 8 16 2q6 -2 -2 -10q-16 -23 -21 -46q0 -6 -4 -15t-19 -41t-32 -77 l92 13q215 27 342 18q14 0 17 -4q2 -6 -11 -10q-6 -4 -12 -4h-50t-74 -1t-91 -6.5t-115 -15.5q-51 -8 -110 -22l-2 -9q-2 -6 -127 -362h221q41 -4 74 -23q4 -2 14 -8q33 -14 12 -14q-18 0 -77 8q-76 10 -254 6l-39 -119q-45 -143 -62 -215l-8 -104v-2q-2 -2 -2 -4 q7 -11 25 -11zM403 586q20 0 410 6q33 172 74 336q-80 -27 -92 -33q-12 -4 -18.5 0t-4.5 13.5t12 15.5q27 18 111 41l43 172q4 39 -18 43q-12 2 -95.5 -78t-201 -216t-195.5 -259zM504 414q195 -94 244 -211q4 33 10 55q10 100 49 303q-90 -2 -240.5 -5t-183.5 -3l-39 -64z M911 934q-25 -102 -73 -342h14q55 158 133 362q-47 -10 -74 -20zM268 524l49 -22l29 49q-86 -6 -82 -23q0 -2 4 -4zM842 561h-11l-16 -80z" glyph-name="AE" horiz-adv-x="1335" unicode="Æ"/><glyph d="M152 -10q-6 0 -10.5 6t-2.5 10q37 37 54 57q-86 4 -137.5 53.5t-51.5 123.5q0 193 209 462q135 172 264 261.5t225 89.5q74 0 74 -68q0 -35 -26 -49q-8 -4 -11 0q-2 4 2 10q14 18 7 48t-43 30q-61 0 -194.5 -88t-277.5 -264q-205 -250 -204 -432q0 -66 53 -106t117 -40 q113 0 261 68.5t224 140.5q14 14 21 2q2 -4 -5 -12q-88 -96 -227 -161.5t-254 -70.5l-31 -34q8 2 27 2q23 0 40 -16.5t17 -45.5q0 -45 -44 -85t-91 -40q-27 0 -41 12.5t-14 24.5t18 15l6 -5q0 -8 10.5 -15t22.5 -7q33 0 70 38t37 64q0 41 -41 41q-16 0 -35 -10z" glyph-name="Ccedilla" horiz-adv-x="714" unicode="Ç"/><glyph d="M516 551l-354 -41l-23 -68q-84 -258 -78 -303q4 -33 31 -33q92 6 320 74q98 31 125 53q10 10 28 -4q8 -8 2 -14q-35 -31 -161 -68q-197 -59 -279 -61q-53 -4 -61 6q-27 18 -27 45q-6 63 67 309q6 31 19 60q-59 -6 -70 -6q-8 -2 -8 8q0 14 14 16q6 2 72 11q63 199 152 419 q-154 -39 -191 -59q-12 -4 -18 0t-4 13.5t12 15.5q43 33 213 65l51 123q29 61 43 70q6 8 17 2q6 -2 -2 -10q-16 -23 -21 -46q0 -6 -4 -15t-19.5 -41t-31.5 -77l92 13q215 27 342 18q14 0 16 -4q2 -6 -10 -10q-6 -4 -12 -4h-50t-74 -1t-91.5 -6.5t-114.5 -15.5 q-51 -8 -111 -22l-2 -9q-39 -106 -145 -415q217 23 283 32q43 6 75 13q12 4 15 0q2 -6 -5.5 -18.5t-21.5 -14.5zM606 1124q-6 0 -49 47q-10 10 -24.5 22.5t-22.5 19t-8 8.5q-4 4 6 8q4 2 8 2q12 0 55 -44t43 -50q0 -13 -8 -13z" glyph-name="Egrave" horiz-adv-x="634" unicode="È"/><glyph d="M516 551l-354 -41l-23 -68q-84 -258 -78 -303q4 -33 31 -33q92 6 320 74q98 31 125 53q10 10 28 -4q8 -8 2 -14q-35 -31 -161 -68q-197 -59 -279 -61q-53 -4 -61 6q-27 18 -27 45q-6 63 67 309q6 31 19 60q-59 -6 -70 -6q-8 -2 -8 8q0 14 14 16q6 2 72 11q63 199 152 419 q-154 -39 -191 -59q-12 -4 -18 0t-4 13.5t12 15.5q43 33 213 65l51 123q29 61 43 70q6 8 17 2q6 -2 -2 -10q-16 -23 -21 -46q0 -6 -4 -15t-19.5 -41t-31.5 -77l92 13q215 27 342 18q14 0 16 -4q2 -6 -10 -10q-6 -4 -12 -4h-50t-74 -1t-91.5 -6.5t-114.5 -15.5 q-51 -8 -111 -22l-2 -9q-39 -106 -145 -415q217 23 283 32q43 6 75 13q12 4 15 0q2 -6 -5.5 -18.5t-21.5 -14.5zM596 1169q12 0 12 -12q0 -10 -18 -18q-6 -2 -26.5 -15.5t-39.5 -25.5l-18 -13q-6 0 -6 9q0 2 33.5 29.5t41.5 33.5q17 12 21 12z" glyph-name="Eacute" horiz-adv-x="634" unicode="É"/><glyph d="M516 551l-354 -41l-23 -68q-84 -258 -78 -303q4 -33 31 -33q92 6 320 74q98 31 125 53q10 10 28 -4q8 -8 2 -14q-35 -31 -161 -68q-197 -59 -279 -61q-53 -4 -61 6q-27 18 -27 45q-6 63 67 309q6 31 19 60q-59 -6 -70 -6q-8 -2 -8 8q0 14 14 16q6 2 72 11q63 199 152 419 q-154 -39 -191 -59q-12 -4 -18 0t-4 13.5t12 15.5q43 33 213 65l51 123q29 61 43 70q6 8 17 2q6 -2 -2 -10q-16 -23 -21 -46q0 -6 -4 -15t-19.5 -41t-31.5 -77l92 13q215 27 342 18q14 0 16 -4q2 -6 -10 -10q-6 -4 -12 -4h-50t-74 -1t-91.5 -6.5t-114.5 -15.5 q-51 -8 -111 -22l-2 -9q-39 -106 -145 -415q217 23 283 32q43 6 75 13q12 4 15 0q2 -6 -5.5 -18.5t-21.5 -14.5zM506 1126q-2 -2 -6 2.5t-4 8.5q-2 4 15 19t34 26q33 23 49 22q18 4 24 -16l17 -66q0 -8 -10 -12q-10 0 -15 23q-14 43 -16 43q-8 0 -55 -31q-25 -19 -33 -19z " glyph-name="Ecircumflex" horiz-adv-x="634" unicode="Ê"/><glyph d="M516 551l-354 -41l-23 -68q-84 -258 -78 -303q4 -33 31 -33q92 6 320 74q98 31 125 53q10 10 28 -4q8 -8 2 -14q-35 -31 -161 -68q-197 -59 -279 -61q-53 -4 -61 6q-27 18 -27 45q-6 63 67 309q6 31 19 60q-59 -6 -70 -6q-8 -2 -8 8q0 14 14 16q6 2 72 11q63 199 152 419 q-154 -39 -191 -59q-12 -4 -18 0t-4 13.5t12 15.5q43 33 213 65l51 123q29 61 43 70q6 8 17 2q6 -2 -2 -10q-16 -23 -21 -46q0 -6 -4 -15t-19.5 -41t-31.5 -77l92 13q215 27 342 18q14 0 16 -4q2 -6 -10 -10q-6 -4 -12 -4h-50t-74 -1t-91.5 -6.5t-114.5 -15.5 q-51 -8 -111 -22l-2 -9q-39 -106 -145 -415q217 23 283 32q43 6 75 13q12 4 15 0q2 -6 -5.5 -18.5t-21.5 -14.5zM541 1137q-4 2 -7.5 14t-1 18.5t8.5 13.5t10 5q20 -4 16 -27q-2 -8 -12 -16t-14 -8zM602 1139q-8 0 -8 20q0 4 9 14.5t15 10.5q2 0 7.5 -5t5.5 -12 q0 -8 -11.5 -18t-17.5 -10z" glyph-name="Edieresis" horiz-adv-x="634" unicode="Ë"/><glyph d="M127 393q-23 10 -42 43t-19 70q0 150 143 360q90 129 191.5 208t193.5 79q47 0 72.5 -31.5t26.5 -90t-9 -128t-36.5 -157t-54.5 -165t-63 -163.5q-76 -184 -195.5 -321.5t-256.5 -137.5q-78 0 -115 51t-17.5 128t95.5 143q102 94 238 75q86 -8 86 -26q2 -10 -35 -2 q-170 33 -269 -66q-59 -57 -78.5 -123.5t5 -111.5t86.5 -45q102 0 215.5 110.5t214.5 341.5q98 227 137 388t22.5 231.5t-71.5 70.5q-72 0 -176.5 -85t-173.5 -189q-154 -229 -154 -348q0 -61 53 -94q18 -10 6 -17q-8 -4 -20 2zM725 1178q-6 0 -49 47q-10 10 -24.5 22.5 t-22.5 18.5t-8 8q-4 4 6 8q4 2 8 2q12 0 55 -44t43 -50q0 -12 -8 -12z" glyph-name="Igrave" unicode="Ì"/><glyph d="M127 393q-23 10 -42 43t-19 70q0 150 143 360q90 129 191.5 208t193.5 79q47 0 72.5 -31.5t26.5 -90t-9 -128t-36.5 -157t-54.5 -165t-63 -163.5q-76 -184 -195.5 -321.5t-256.5 -137.5q-78 0 -115 51t-17.5 128t95.5 143q102 94 238 75q86 -8 86 -26q2 -10 -35 -2 q-170 33 -269 -66q-59 -57 -78.5 -123.5t5 -111.5t86.5 -45q102 0 215.5 110.5t214.5 341.5q98 227 137 388t22.5 231.5t-71.5 70.5q-72 0 -176.5 -85t-173.5 -189q-154 -229 -154 -348q0 -61 53 -94q18 -10 6 -17q-8 -4 -20 2zM694 1274q12 0 13 -12q0 -10 -19 -19 q-6 -2 -26.5 -15.5t-38.5 -25.5l-19 -12q-6 0 -6 8q0 2 34 29.5t42 34.5q16 12 20 12z" glyph-name="Iacute" unicode="Í"/><glyph d="M127 393q-23 10 -42 43t-19 70q0 150 143 360q90 129 191.5 208t193.5 79q47 0 72.5 -31.5t26.5 -90t-9 -128t-36.5 -157t-54.5 -165t-63 -163.5q-76 -184 -195.5 -321.5t-256.5 -137.5q-78 0 -115 51t-17.5 128t95.5 143q102 94 238 75q86 -8 86 -26q2 -10 -35 -2 q-170 33 -269 -66q-59 -57 -78.5 -123.5t5 -111.5t86.5 -45q102 0 215.5 110.5t214.5 341.5q98 227 137 388t22.5 231.5t-71.5 70.5q-72 0 -176.5 -85t-173.5 -189q-154 -229 -154 -348q0 -61 53 -94q18 -10 6 -17q-8 -4 -20 2zM608 1210q-2 -2 -6 2.5t-4 8.5q-2 4 15.5 19 t33.5 26q35 23 49 22q18 4 25 -16l16 -66q0 -6 -10 -12q-10 0 -14 23q-14 43 -17 43q-8 0 -55 -31q-25 -19 -33 -19z" glyph-name="Icircumflex" unicode="Î"/><glyph d="M127 393q-23 10 -42 43t-19 70q0 150 143 360q90 129 191.5 208t193.5 79q47 0 72.5 -31.5t26.5 -90t-9 -128t-36.5 -157t-54.5 -165t-63 -163.5q-76 -184 -195.5 -321.5t-256.5 -137.5q-78 0 -115 51t-17.5 128t95.5 143q102 94 238 75q86 -8 86 -26q2 -10 -35 -2 q-170 33 -269 -66q-59 -57 -78.5 -123.5t5 -111.5t86.5 -45q102 0 215.5 110.5t214.5 341.5q98 227 137 388t22.5 231.5t-71.5 70.5q-72 0 -176.5 -85t-173.5 -189q-154 -229 -154 -348q0 -61 53 -94q18 -10 6 -17q-8 -4 -20 2zM635 1196q-4 2 -7 14.5t-1 18.5t8 13t10 5 q20 -4 17 -26q-2 -8 -12.5 -16.5t-14.5 -8.5zM696 1198q-8 0 -8 21q0 4 9.5 14t15.5 10q2 0 7 -5t5 -11q0 -8 -11.5 -18.5t-17.5 -10.5z" glyph-name="Idieresis" unicode="Ï"/><glyph d="M299 633q-20 0 0 16q8 6 14 8q20 0 37 2q59 209 66 228q12 35 18 10q4 -14 -2 -35l-57 -203q8 0 19.5 1.5t13.5 1.5q10 0 16 -15q6 -12 -6 -12q-2 0 -20.5 -1t-30.5 -1l-19 -72q141 74 268 74q16 -2 2 -10q-8 -4 -30 -7q-109 -8 -252 -100q-61 -244 -80 -334 q-6 -35 -14 -12q-4 10 -2 18q18 115 69 308l-24 -19q-127 -96 -197 -204.5t-70 -182.5q0 -53 44 -87t128 -34q98 0 236.5 70t208.5 149q246 285 246 592q0 119 -68 188.5t-195 69.5q-168 0 -344 -118q-74 -49 -112.5 -106.5t-38.5 -106.5q0 -68 70 -113q6 -4 -7 -6 q-14 -4 -24 4q-59 45 -60 121q0 125 148 227q180 129 373 129q121 0 205.5 -74.5t84.5 -234.5q0 -139 -69.5 -303t-188.5 -287q-102 -106 -234 -173t-233 -67q-94 0 -141 43t-47 117q0 98 66.5 211t203.5 209q23 16 52 33q6 31 22 88h-45z" glyph-name="Eth" horiz-adv-x="962" unicode="Ð"/><glyph d="M446 82q-33 0 -52 56.5t-27.5 167t-9.5 203.5t-1 239q6 389 -39 389q-31 0 -79 -104.5t-88 -264.5q-94 -383 -80 -449q4 -20 -4.5 -23t-12.5 13q-2 4 -2 8q-6 49 15.5 189.5t54.5 267.5q106 387 194 387q84 0 76 -409q-16 -645 58 -646q51 0 133 158t125 361 q29 141 43 347t4 312q0 16 12 10q10 -6 10 -16q29 -299 -49 -672q-49 -231 -131 -377.5t-150 -146.5zM406 1290q-8 0 -9 17q0 10 28 23t50 13q37 0 35 -36q0 -18 10 -19q12 0 52 18.5t42 18.5q12 0 12.5 -8t-44.5 -28.5t-66 -20.5q-25 0 -27 32q-2 18 -14 18.5t-38.5 -14 t-30.5 -14.5z" glyph-name="Ntilde" horiz-adv-x="843" unicode="Ñ"/><glyph d="M600 516q-57 -37 -88 -51q-23 -84 -80 -215q-49 -113 -133 -210t-174 -97q-68 0 -115 52t-47 167q0 174 121 368q-27 51 -27 121q0 193 127 362t252 169q139 0 139 -283q0 -199 -55 -405q31 12 72 38q27 18 27.5 8t-19.5 -24zM262 442q100 -10 219 33q63 227 64 436 q0 246 -109 246q-113 0 -230.5 -170t-117.5 -334q0 -47 14 -94q68 100 154 166q29 23 33 8q2 -6 -10 -18q-100 -96 -160 -187q41 -74 143 -86zM406 266q39 84 65 183q-98 -41 -207 -31q-111 8 -164 86q-109 -172 -108 -344q0 -94 34.5 -143.5t90.5 -49.5q86 0 162 91 t127 208zM514 1233q-6 0 -49 47q-10 10 -24.5 22.5t-22.5 18.5t-8 8q-4 4 6 8q4 2 8 2q10 0 54 -43t44 -51q0 -12 -8 -12z" glyph-name="Ograve" horiz-adv-x="659" unicode="Ò"/><glyph d="M600 516q-57 -37 -88 -51q-23 -84 -80 -215q-49 -113 -133 -210t-174 -97q-68 0 -115 52t-47 167q0 174 121 368q-27 51 -27 121q0 193 127 362t252 169q139 0 139 -283q0 -199 -55 -405q31 12 72 38q27 18 27.5 8t-19.5 -24zM262 442q100 -10 219 33q63 227 64 436 q0 246 -109 246q-113 0 -230.5 -170t-117.5 -334q0 -47 14 -94q68 100 154 166q29 23 33 8q2 -6 -10 -18q-100 -96 -160 -187q41 -74 143 -86zM406 266q39 84 65 183q-98 -41 -207 -31q-111 8 -164 86q-109 -172 -108 -344q0 -94 34.5 -143.5t90.5 -49.5q86 0 162 91 t127 208zM526 1358q12 0 13 -12q0 -10 -19 -19q-6 -2 -26.5 -15.5t-38.5 -25.5l-19 -12q-6 0 -6 8q0 2 34 29.5t42 34.5q16 12 20 12z" glyph-name="Oacute" horiz-adv-x="659" unicode="Ó"/><glyph d="M600 516q-57 -37 -88 -51q-23 -84 -80 -215q-49 -113 -133 -210t-174 -97q-68 0 -115 52t-47 167q0 174 121 368q-27 51 -27 121q0 193 127 362t252 169q139 0 139 -283q0 -199 -55 -405q31 12 72 38q27 18 27.5 8t-19.5 -24zM262 442q100 -10 219 33q63 227 64 436 q0 246 -109 246q-113 0 -230.5 -170t-117.5 -334q0 -47 14 -94q68 100 154 166q29 23 33 8q2 -6 -10 -18q-100 -96 -160 -187q41 -74 143 -86zM406 266q39 84 65 183q-98 -41 -207 -31q-111 8 -164 86q-109 -172 -108 -344q0 -94 34.5 -143.5t90.5 -49.5q86 0 162 91 t127 208zM383 1243q-2 -2 -6 2t-4 8q-2 4 15.5 19.5t33.5 25.5q35 23 49 23q18 4 25 -16l16 -66q0 -6 -10 -12q-10 0 -15 22q-14 43 -16 43q-8 0 -55 -30q-25 -19 -33 -19z" glyph-name="Ocircumflex" horiz-adv-x="659" unicode="Ô"/><glyph d="M600 516q-57 -37 -88 -51q-23 -84 -80 -215q-49 -113 -133 -210t-174 -97q-68 0 -115 52t-47 167q0 174 121 368q-27 51 -27 121q0 193 127 362t252 169q139 0 139 -283q0 -199 -55 -405q31 12 72 38q27 18 27.5 8t-19.5 -24zM262 442q100 -10 219 33q63 227 64 436 q0 246 -109 246q-113 0 -230.5 -170t-117.5 -334q0 -47 14 -94q68 100 154 166q29 23 33 8q2 -6 -10 -18q-100 -96 -160 -187q41 -74 143 -86zM406 266q39 84 65 183q-98 -41 -207 -31q-111 8 -164 86q-109 -172 -108 -344q0 -94 34.5 -143.5t90.5 -49.5q86 0 162 91 t127 208zM393 1255q-8 0 -8 17q0 10 27.5 23.5t50.5 13.5q37 0 35 -37q0 -18 10 -19q12 0 52 18.5t42 18.5q12 0 12 -8t-45 -28.5t-65 -20.5q-25 0 -27 33q-2 18 -14 18t-39 -14.5t-31 -14.5z" glyph-name="Otilde" horiz-adv-x="659" unicode="Õ"/><glyph d="M600 516q-57 -37 -88 -51q-23 -84 -80 -215q-49 -113 -133 -210t-174 -97q-68 0 -115 52t-47 167q0 174 121 368q-27 51 -27 121q0 193 127 362t252 169q139 0 139 -283q0 -199 -55 -405q31 12 72 38q27 18 27.5 8t-19.5 -24zM262 442q100 -10 219 33q63 227 64 436 q0 246 -109 246q-113 0 -230.5 -170t-117.5 -334q0 -47 14 -94q68 100 154 166q29 23 33 8q2 -6 -10 -18q-100 -96 -160 -187q41 -74 143 -86zM406 266q39 84 65 183q-98 -41 -207 -31q-111 8 -164 86q-109 -172 -108 -344q0 -94 34.5 -143.5t90.5 -49.5q86 0 162 91 t127 208zM424 1239q-4 2 -7 14.5t-1 18.5t8 13t10 5q20 -4 17 -26q-2 -8 -11.5 -16.5t-15.5 -8.5zM485 1241q-8 0 -8 21q0 4 9.5 14t15.5 10q2 0 7 -5t5 -11q0 -8 -11.5 -18.5t-17.5 -10.5z" glyph-name="Odieresis" horiz-adv-x="659" unicode="Ö"/><glyph d="M68 551q-23 39 -17 45q4 2 17.5 -8t17.5 -17l14 -22q45 25 62 31q6 2 10 -1.5t4 -9.5t-2 -8q-2 0 -12 -5t-24.5 -12t-26.5 -14l16 -26q2 -4 2 -16.5t-2 -14.5q-10 -8 -23 12l-18 33q-6 -2 -12 -5t-10.5 -5t-6.5 -2q-47 -20 -55 -10q-2 6 12 14q2 0 9 4q14 6 22 10 q4 2 14.5 5t16.5 8z" glyph-name="multiply" horiz-adv-x="176" unicode="×"/><glyph d="M-84 -51q-14 0 25 57l36 57q-14 41 -14 99q0 174 121 368q-27 51 -27 121q0 193 127 362t252 169q100 0 127 -154q82 133 86 133q10 0 10 -6q0 -2 -90 -158q6 -43 6 -98q0 -199 -55 -405q31 12 72 38q27 18 28 8t-20 -24q-57 -37 -88 -51q-23 -84 -80 -215 q-49 -113 -133 -210t-174 -97q-98 0 -141 98q-31 -49 -37 -57q-29 -35 -31 -35zM119 528q33 -55 94 -75l330 540q-16 164 -107 164q-113 0 -230.5 -170t-117.5 -334q0 -47 14 -94q68 100 154 166q29 23 33 8q2 -6 -10 -18q-101 -97 -160 -187zM406 266q39 84 65 183 q-98 -41 -207 -31l-39 6l-88 -141l-135 -213q31 -102 115 -103q86 0 162 91t127 208zM262 442q100 -10 219 33q63 227 64 436v45q-29 -49 -94.5 -158.5t-118.5 -198.5t-94 -155q4 0 12 -1t12 -1zM-8 160q0 -6 6 -62q100 168 119 197l82 135q-57 18 -99 74 q-108 -172 -108 -344z" glyph-name="Oslash" horiz-adv-x="659" unicode="Ø"/><glyph d="M303 1047q-39 -39 -100.5 -172.5t-100.5 -266.5q-35 -127 -48 -243.5t0.5 -185t45.5 -68.5q145 0 512 772l6 12q2 8 5.5 21.5t6.5 24.5t7 22q55 197 68.5 231.5t33.5 34.5q29 0 -14 -125q-27 -76 -82 -213l-4 -23q-68 -287 -89.5 -496.5t-8 -306t50.5 -124.5 q27 -20 12 -31q-10 -8 -35 12q-33 29 -52 105.5t-9 264t70 441.5q-117 -250 -258.5 -449.5t-219.5 -199.5q-27 0 -45 19.5t-29.5 60.5t-11.5 102.5t13.5 150.5t42.5 197q94 358 211 447q23 16 28 2q2 -8 -6 -16zM573 1159q-6 0 -49 47q-10 10 -24.5 22.5t-22.5 18.5t-8 8 q-4 4 6 9q4 2 8 2q12 0 55.5 -43t43.5 -52q-1 -12 -9 -12z" glyph-name="Ugrave" horiz-adv-x="729" unicode="Ù"/><glyph d="M303 1047q-39 -39 -100.5 -172.5t-100.5 -266.5q-35 -127 -48 -243.5t0.5 -185t45.5 -68.5q145 0 512 772l6 12q2 8 5.5 21.5t6.5 24.5t7 22q55 197 68.5 231.5t33.5 34.5q29 0 -14 -125q-27 -76 -82 -213l-4 -23q-68 -287 -89.5 -496.5t-8 -306t50.5 -124.5 q27 -20 12 -31q-10 -8 -35 12q-33 29 -52 105.5t-9 264t70 441.5q-117 -250 -258.5 -449.5t-219.5 -199.5q-27 0 -45 19.5t-29.5 60.5t-11.5 102.5t13.5 150.5t42.5 197q94 358 211 447q23 16 28 2q2 -8 -6 -16zM563 1249q12 0 12 -12q0 -10 -18 -18q-6 -2 -26.5 -15.5 t-38.5 -25.5l-19 -13q-6 0 -6 9q0 2 34 29.5t42 33.5q16 12 20 12z" glyph-name="Uacute" horiz-adv-x="729" unicode="Ú"/><glyph d="M303 1047q-39 -39 -100.5 -172.5t-100.5 -266.5q-35 -127 -48 -243.5t0.5 -185t45.5 -68.5q145 0 512 772l6 12q2 8 5.5 21.5t6.5 24.5t7 22q55 197 68.5 231.5t33.5 34.5q29 0 -14 -125q-27 -76 -82 -213l-4 -23q-68 -287 -89.5 -496.5t-8 -306t50.5 -124.5 q27 -20 12 -31q-10 -8 -35 12q-33 29 -52 105.5t-9 264t70 441.5q-117 -250 -258.5 -449.5t-219.5 -199.5q-27 0 -45 19.5t-29.5 60.5t-11.5 102.5t13.5 150.5t42.5 197q94 358 211 447q23 16 28 2q2 -8 -6 -16zM477 1198q-2 -2 -6 2t-4 8q-2 4 15.5 19.5t33.5 25.5 q33 23 49 23q18 4 25 -16l16 -66q0 -6 -10 -12q-10 0 -14 22q-14 43 -17 43q-8 0 -55 -30q-25 -19 -33 -19z" glyph-name="Ucircumflex" horiz-adv-x="729" unicode="Û"/><glyph d="M303 1047q-39 -39 -100.5 -172.5t-100.5 -266.5q-35 -127 -48 -243.5t0.5 -185t45.5 -68.5q145 0 512 772l6 12q2 8 5.5 21.5t6.5 24.5t7 22q55 197 68.5 231.5t33.5 34.5q29 0 -14 -125q-27 -76 -82 -213l-4 -23q-68 -287 -89.5 -496.5t-8 -306t50.5 -124.5 q27 -20 12 -31q-10 -8 -35 12q-33 29 -52 105.5t-9 264t70 441.5q-117 -250 -258.5 -449.5t-219.5 -199.5q-27 0 -45 19.5t-29.5 60.5t-11.5 102.5t13.5 150.5t42.5 197q94 358 211 447q23 16 28 2q2 -8 -6 -16zM483 1188q-4 2 -7 14t-1 18.5t8 13.5t11 5q20 -4 16 -27 q-2 -8 -12.5 -16t-14.5 -8zM545 1190q-8 0 -8 20q0 4 9 14.5t15 10.5q2 0 7 -5t5 -11q0 -8 -11 -18.5t-17 -10.5z" glyph-name="Udieresis" horiz-adv-x="729" unicode="Ü"/><glyph d="M707 207q-135 -10 -170 -17q-74 -164 -148 -292.5t-168 -226t-174 -97.5q-74 0 -110.5 43t-32.5 121q4 76 64.5 165t168.5 156q193 125 381 154q76 162 113 272q51 160 95 337t48 227q2 47 -14 47q-14 0 -39 -40t-119 -206q-66 -115 -108 -191q-53 -90 -104.5 -183 t-77 -140t-50 -88t-41 -55.5t-35.5 -14.5q-55 0 -86.5 57.5t-31.5 159.5q0 106 77 318q12 33 28.5 69.5t34 70.5t21.5 44q8 23 19 23q12 0 0 -27q-66 -154 -84 -197q-68 -188 -68 -295q0 -90 23.5 -149t56.5 -59q14 0 33.5 20t46.5 67.5t53.5 97.5t71.5 134t84 154 q207 365 252 417q27 33 41 33q41 0 37 -72q-12 -203 -140 -563q-49 -135 -106 -264q49 6 92 6q94 0 102.5 -4t-8.5 -8q-10 -2 -28 -4zM45 -397q94 0 220 170t241 411q-188 -35 -361 -145q-94 -59 -151 -144t-62 -157q-8 -135 113 -135zM539 1145q12 0 12 -12q0 -10 -19 -19 q-6 -2 -26.5 -15.5t-38.5 -25.5l-18 -12q-6 0 -7 8q0 2 34 29.5t42 34.5q17 12 21 12z" glyph-name="Yacute" horiz-adv-x="782" unicode="Ý"/><glyph d="M104 63q45 315 82 484q12 68 70 289q-133 -66 -217 -181q-70 -90 -78 -186t47 -154q20 -20 0 -22q-29 -2 -45 22q-31 31 -39 89.5t14.5 134t77.5 143.5q111 133 250 190q63 221 94 295q12 27 21 19q6 -4 -2 -25q-29 -86 -80 -276q80 27 160 26q139 0 204.5 -72.5 t59.5 -181.5q-8 -170 -169 -278.5t-382 -108.5q-4 0 -6 2q-6 -39 -12.5 -83t-10.5 -64.5t-6 -30.5q-4 -25 -24 -37q-6 -4 -9 2v4zM692 659q10 98 -49 163t-186 65q-84 0 -168 -37q-53 -195 -72 -307q-18 -86 -47 -242q186 -4 347 96t175 262z" glyph-name="Thorn" horiz-adv-x="747" unicode="Þ"/><glyph d="M-160 254q-6 -2 -10 1t-3 8t11 13q70 37 178 205q61 90 121 185q63 104 107 104q37 0 36 -40t-38 -95q-16 -25 -37 -42.5t-32 -26.5t-11 -13l6 -27q8 -27 9 -49t-9 -55q-27 -59 -86 -60q-31 0 -45 27t-4 47q6 12 12 -4q2 -4 2 -8q0 -37 35 -37q41 0 61 43q23 47 0 105 q-10 27 7 36q25 14 75 80q45 59 37 94q-2 10 -12 11q-33 0 -100 -109q-18 -27 -49 -78t-62 -96q-45 -70 -110.5 -144.5t-88.5 -74.5z" glyph-name="germandbls" horiz-adv-x="251" unicode="ß"/><glyph d="M207 403q57 0 195.5 56.5t213.5 99.5q6 4 16.5 1t-3.5 -11q-70 -45 -218.5 -108.5t-205.5 -63.5q-41 0 -59.5 19.5t-18.5 41.5q0 12 1 21.5t3 15.5v4q-6 6 -51 -18q-63 -37 -88 -37q-12 0 -20.5 6t-8.5 12q0 45 62 90q47 37 84 37q27 0 36 -30q4 -14 -2 -15 q-6 0 -14 12.5t-16 12.5q-25 0 -72 -33q-20 -14 -37.5 -35.5t-17.5 -29.5q0 -4 4 -5q16 0 67 27q86 39 93 39q14 0 14 -12q0 -2 -6 -22.5t-6 -37.5q0 -37 55 -37zM213 612q-6 0 -49 47q-10 10 -24.5 22.5t-22.5 19t-8 8.5q-4 4 6 8q4 2 8 2q12 0 55 -44t43 -50q0 -13 -8 -13 z" glyph-name="agrave" horiz-adv-x="548" unicode="à"/><glyph d="M207 403q57 0 195.5 56.5t213.5 99.5q6 4 16.5 1t-3.5 -11q-70 -45 -218.5 -108.5t-205.5 -63.5q-41 0 -59.5 19.5t-18.5 41.5q0 12 1 21.5t3 15.5v4q-6 6 -51 -18q-63 -37 -88 -37q-12 0 -20.5 6t-8.5 12q0 45 62 90q47 37 84 37q27 0 36 -30q4 -14 -2 -15 q-6 0 -14 12.5t-16 12.5q-25 0 -72 -33q-20 -14 -37.5 -35.5t-17.5 -29.5q0 -4 4 -5q16 0 67 27q86 39 93 39q14 0 14 -12q0 -2 -6 -22.5t-6 -37.5q0 -37 55 -37zM215 686q12 0 12 -12q0 -10 -18 -19q-6 -2 -26.5 -15t-39.5 -26l-18 -12q-6 0 -6 8q0 2 33.5 30t42.5 34 q16 12 20 12z" glyph-name="aacute" horiz-adv-x="548" unicode="á"/><glyph d="M207 403q57 0 195.5 56.5t213.5 99.5q6 4 16.5 1t-3.5 -11q-70 -45 -218.5 -108.5t-205.5 -63.5q-41 0 -59.5 19.5t-18.5 41.5q0 12 1 21.5t3 15.5v4q-6 6 -51 -18q-63 -37 -88 -37q-12 0 -20.5 6t-8.5 12q0 45 62 90q47 37 84 37q27 0 36 -30q4 -14 -2 -15 q-6 0 -14 12.5t-16 12.5q-25 0 -72 -33q-20 -14 -37.5 -35.5t-17.5 -29.5q0 -4 4 -5q16 0 67 27q86 39 93 39q14 0 14 -12q0 -2 -6 -22.5t-6 -37.5q0 -37 55 -37zM100 631q-2 -2 -6 2t-4 8q-2 4 15.5 19.5t33.5 25.5q35 23 49 23q18 4 25 -17l16 -65q0 -8 -10 -13 q-10 0 -14 23q-14 43 -17 43q-8 0 -55 -31q-25 -18 -33 -18z" glyph-name="acircumflex" horiz-adv-x="548" unicode="â"/><glyph d="M207 403q57 0 195.5 56.5t213.5 99.5q6 4 16.5 1t-3.5 -11q-70 -45 -218.5 -108.5t-205.5 -63.5q-41 0 -59.5 19.5t-18.5 41.5q0 12 1 21.5t3 15.5v4q-6 6 -51 -18q-63 -37 -88 -37q-12 0 -20.5 6t-8.5 12q0 45 62 90q47 37 84 37q27 0 36 -30q4 -14 -2 -15 q-6 0 -14 12.5t-16 12.5q-25 0 -72 -33q-20 -14 -37.5 -35.5t-17.5 -29.5q0 -4 4 -5q16 0 67 27q86 39 93 39q14 0 14 -12q0 -2 -6 -22.5t-6 -37.5q0 -37 55 -37zM100 651q-8 0 -8 17q0 10 27.5 23.5t50.5 13.5q39 0 35 -37q0 -18 10 -19q12 0 52 18.5t42 18.5q12 0 12.5 -8 t-45 -28.5t-65.5 -20.5q-25 0 -27 33q-4 18 -14 18q-12 0 -39 -14.5t-31 -14.5z" glyph-name="atilde" horiz-adv-x="548" unicode="ã"/><glyph d="M207 403q57 0 195.5 56.5t213.5 99.5q6 4 16.5 1t-3.5 -11q-70 -45 -218.5 -108.5t-205.5 -63.5q-41 0 -59.5 19.5t-18.5 41.5q0 12 1 21.5t3 15.5v4q-6 6 -51 -18q-63 -37 -88 -37q-12 0 -20.5 6t-8.5 12q0 45 62 90q47 37 84 37q27 0 36 -30q4 -14 -2 -15 q-6 0 -14 12.5t-16 12.5q-25 0 -72 -33q-20 -14 -37.5 -35.5t-17.5 -29.5q0 -4 4 -5q16 0 67 27q86 39 93 39q14 0 14 -12q0 -2 -6 -22.5t-6 -37.5q0 -37 55 -37zM119 631q-4 2 -7 14t-1 18.5t8 13.5t10 5q20 -4 16 -27q-2 -8 -12 -16t-14 -8zM180 633q-8 0 -8 20 q0 4 9 14.5t16 10.5q2 0 7 -5t5 -11q0 -8 -11.5 -18.5t-17.5 -10.5z" glyph-name="adieresis" horiz-adv-x="548" unicode="ä"/><glyph d="M207 403q57 0 195.5 56.5t213.5 99.5q6 4 16.5 1t-3.5 -11q-70 -45 -218.5 -108.5t-205.5 -63.5q-41 0 -59.5 19.5t-18.5 41.5q0 12 1 21.5t3 15.5v4q-6 6 -51 -18q-63 -37 -88 -37q-12 0 -20.5 6t-8.5 12q0 45 62 90q47 37 84 37q27 0 36 -30q4 -14 -2 -15 q-6 0 -14 12.5t-16 12.5q-25 0 -72 -33q-20 -14 -37.5 -35.5t-17.5 -29.5q0 -4 4 -5q16 0 67 27q86 39 93 39q14 0 14 -12q0 -2 -6 -22.5t-6 -37.5q0 -37 55 -37zM194.5 709q18.5 0 28.5 -13.5t10 -29.5q0 -18 -15 -36t-44 -18q-16 0 -27.5 14.5t-7.5 35.5q2 18 19.5 32.5 t36 14.5zM176 637q31 0 35 29q4 20 -18 20q-31 0 -35.5 -24.5t18.5 -24.5z" glyph-name="aring" horiz-adv-x="548" unicode="å"/><glyph d="M152 500l4 10l-4 -2q-4 -4 -14.5 -11.5t-22.5 -15.5q-57 -43 -82 -47q-12 -2 -21.5 4t-9.5 13q-8 39 49 96q45 41 82 45q25 4 37 -25q6 -12 0 -14q-6 0 -15.5 10t-15.5 10q-25 -4 -67 -41q-20 -16 -34.5 -39.5t-14.5 -31.5q0 -4 6 -4q12 0 61 32l94 60q35 33 66 24 q37 -2 22 -51q-23 -53 -104 -80q6 -25 43 -24q43 4 356 141q12 6 15.5 -1t-4.5 -11q-63 -29 -153.5 -72t-133.5 -60.5t-74 -19.5q-47 -4 -66 30t1 75zM174 492q-10 -20 -10 -35q29 10 55.5 31.5t34.5 41.5q4 23 -6 25q-14 4 -37 -12t-37 -51z" glyph-name="ae" horiz-adv-x="571" unicode="æ"/><glyph d="M-27 311q-6 0 -10 5.5t0 9.5q2 2 13.5 14t24.5 27.5t19 21.5q-53 8 -55 45q-6 49 60 103q45 41 90 41q20 0 22 -17q-2 -8 -8 -10q-33 12 -86 -29q-53 -39 -53 -80q2 -18 25.5 -26t54.5 -4q61 6 176.5 53t202.5 94q6 4 16 1t-4 -11q-70 -45 -196 -97.5t-187 -60.5 q-12 -2 -31 -2q-10 -16 -35 -41q8 2 27 2q23 0 39 -16.5t16 -44.5q0 -45 -43 -86t-92 -41q-25 0 -39 13t-14 24q0 12 16 14q6 2 6 -4q0 -20 35 -21q33 0 70 38t37 63q0 16 -10.5 29.5t-30.5 13.5q-16 0 -35 -10.5t-21 -10.5z" glyph-name="ccedilla" horiz-adv-x="376" unicode="ç"/><glyph d="M84 395q-47 -4 -66.5 30t0.5 75q16 39 47 59.5t54 13.5q37 -4 20 -51q-20 -51 -104 -80q6 -25 43 -24q43 4 356 141q12 6 15.5 -1t-5.5 -11q-63 -29 -153 -72t-133 -60.5t-74 -19.5zM41 492q-8 -16 -8 -35q27 10 53.5 31.5t34.5 41.5q6 20 -6 25q-14 4 -37 -12t-37 -51z M203 643q-6 0 -49 47q-10 10 -24.5 22.5t-23 18.5t-8.5 8q-4 4 6 9q4 2 9 2q10 0 54 -43t44 -52q0 -12 -8 -12z" glyph-name="egrave" horiz-adv-x="362" unicode="è"/><glyph d="M84 395q-47 -4 -66.5 30t0.5 75q16 39 47 59.5t54 13.5q37 -4 20 -51q-20 -51 -104 -80q6 -25 43 -24q43 4 356 141q12 6 15.5 -1t-5.5 -11q-63 -29 -153 -72t-133 -60.5t-74 -19.5zM41 492q-8 -16 -8 -35q27 10 53.5 31.5t34.5 41.5q6 20 -6 25q-14 4 -37 -12t-37 -51z M223 694q12 0 13 -12q0 -10 -19 -18q-6 -2 -26.5 -15.5t-38.5 -25.5l-19 -13q-6 0 -6 8q0 2 34 30t42 34q16 12 20 12z" glyph-name="eacute" horiz-adv-x="362" unicode="é"/><glyph d="M84 395q-47 -4 -66.5 30t0.5 75q16 39 47 59.5t54 13.5q37 -4 20 -51q-20 -51 -104 -80q6 -25 43 -24q43 4 356 141q12 6 15.5 -1t-5.5 -11q-63 -29 -153 -72t-133 -60.5t-74 -19.5zM41 492q-8 -16 -8 -35q27 10 53.5 31.5t34.5 41.5q6 20 -6 25q-14 4 -37 -12t-37 -51z M80 631q-2 -2 -6 2t-4 8q-2 4 15 19.5t34 25.5q33 23 49 23q18 4 25 -17l16 -65q0 -8 -10 -13q-10 0 -15 23q-14 43 -16 43q-8 0 -55 -31q-25 -18 -33 -18z" glyph-name="ecircumflex" horiz-adv-x="362" unicode="ê"/><glyph d="M84 395q-47 -4 -66.5 30t0.5 75q16 39 47 59.5t54 13.5q37 -4 20 -51q-20 -51 -104 -80q6 -25 43 -24q43 4 356 141q12 6 15.5 -1t-5.5 -11q-63 -29 -153 -72t-133 -60.5t-74 -19.5zM41 492q-8 -16 -8 -35q27 10 53.5 31.5t34.5 41.5q6 20 -6 25q-14 4 -37 -12t-37 -51z M113 651q-4 2 -7.5 14.5t-1.5 18.5t8.5 13.5t10.5 4.5q20 -4 16 -26q-2 -8 -11 -16.5t-15 -8.5zM174 653q-8 0 -8 21q0 4 9 14t15 10q2 0 7.5 -5t5.5 -11q0 -8 -11.5 -18.5t-17.5 -10.5z" glyph-name="edieresis" horiz-adv-x="362" unicode="ë"/><glyph d="M455 565q4 0 6 -6t-2 -10q-4 0 -27.5 -11.5t-75 -32t-112.5 -40.5q-129 -45 -160 -45q-41 0 -41 43q0 37 12 72q6 27 33 30q14 0 6 -20q-20 -43 -24 -82q-2 -20 10 -21q45 0 156 39q49 18 104 40t83 33t32 11zM178 604q-6 0 -49 47q-10 10 -24.5 22.5t-22.5 18.5t-8 8 q-4 4 6 9q4 2 8 2q10 0 54 -44t44 -51q0 -12 -8 -12z" glyph-name="igrave" horiz-adv-x="370" unicode="ì"/><glyph d="M455 565q4 0 6 -6t-2 -10q-4 0 -27.5 -11.5t-75 -32t-112.5 -40.5q-129 -45 -160 -45q-41 0 -41 43q0 37 12 72q6 27 33 30q14 0 6 -20q-20 -43 -24 -82q-2 -20 10 -21q45 0 156 39q49 18 104 40t83 33t32 11zM178 707q12 0 12 -13q0 -10 -18 -18q-6 -2 -26.5 -15.5 t-39.5 -25.5l-18 -12q-6 0 -6 8q0 2 34 29.5t42 33.5q16 13 20 13z" glyph-name="iacute" horiz-adv-x="370" unicode="í"/><glyph d="M455 565q4 0 6 -6t-2 -10q-4 0 -27.5 -11.5t-75 -32t-112.5 -40.5q-129 -45 -160 -45q-41 0 -41 43q0 37 12 72q6 27 33 30q14 0 6 -20q-20 -43 -24 -82q-2 -20 10 -21q45 0 156 39q49 18 104 40t83 33t32 11zM43 625q-2 -2 -6 2t-4 8q-2 4 15.5 19.5t33.5 25.5 q33 23 49 22q18 4 25 -16l16 -65q0 -6 -10 -13q-10 0 -15 23q-14 43 -16 43q-8 0 -55 -31q-25 -18 -33 -18z" glyph-name="icircumflex" horiz-adv-x="370" unicode="î"/><glyph d="M455 565q4 0 6 -6t-2 -10q-4 0 -27.5 -11.5t-75 -32t-112.5 -40.5q-129 -45 -160 -45q-41 0 -41 43q0 37 12 72q6 27 33 30q14 0 6 -20q-20 -43 -24 -82q-2 -20 10 -21q45 0 156 39q49 18 104 40t83 33t32 11zM76 639q-4 2 -7 14.5t-1 18.5t8 13t10 5q20 -4 16 -26 q-2 -8 -11 -16.5t-15 -8.5zM137 641q-8 0 -8 21q0 4 9 14t16 10q2 0 7 -5t5 -11q0 -8 -11.5 -18.5t-17.5 -10.5z" glyph-name="idieresis" horiz-adv-x="370" unicode="ï"/><glyph d="M106 770q-8 0 -10 4q-2 6 23 10l31 9q0 39 -13 55q-16 14 -4 14q6 0 14 -8q16 -20 19 -55q39 14 61 28q10 4 14.5 2t-8.5 -10q-33 -18 -65 -33q4 -92 -53 -178q-82 -123 -138 -123q-41 0 -40 31q0 23 26.5 53.5t59.5 30.5q27 0 40 -29q25 29 35 45q47 68 52 164 q-6 -2 -22 -5t-22 -5zM-25 506q29 0 76 49q-18 18 -28 18q-25 0 -45.5 -19t-20.5 -36q0 -12 18 -12z" glyph-name="eth" horiz-adv-x="229" unicode="ð"/><glyph d="M72 553q2 8 16 12q12 0 10 -14t-12 -45l-8 -31q-2 -2 0 -4t4 -2t63 31q57 31 78 30q33 0 33 -38q-4 -55 10 -56q37 -10 164 45l188 78q10 6 13 -6q0 -8 -8 -12q-29 -14 -97.5 -44t-87.5 -38q-135 -55 -184 -47q-35 8 -31 65q2 25 -4 29t-43 -14q-78 -43 -98 -43 q-6 0 -17.5 6t-11.5 12q0 2 4 15.5t10.5 34t8.5 36.5zM139 651q-8 0 -8 17q0 10 27.5 23.5t50.5 13.5q37 0 35 -37q0 -18 10 -19q12 0 52 18.5t42 18.5q12 0 12 -8t-45 -28.5t-65 -20.5q-25 0 -27 33q-2 18 -14 18t-39 -14.5t-31 -14.5z" glyph-name="ntilde" horiz-adv-x="542" unicode="ñ"/><glyph d="M-6 461q12 25 33 53q-12 12 -17 21q-16 35 8.5 68.5t65.5 33.5q39 0 62.5 -35t23.5 -92v-4h16q111 10 228 53q8 4 10 -8q0 -4 -2 -4q-137 -53 -240 -62q-4 -2 -12 -2q-8 -84 -59.5 -148.5t-96.5 -64.5q-43 0 -50 59.5t30 131.5zM10 291q43 0 84 56t49 136q-61 0 -96 17 q-25 -37 -29 -45q-23 -41 -28.5 -81t1.5 -61.5t19 -21.5zM92 555l-4 -4q-4 -4 -11 -13.5t-14 -17.5q29 -14 82 -14v12q0 45 -19.5 71.5t-46 26.5t-43 -21.5t-3.5 -47.5q2 -6 10 -15q27 31 39 31q10 0 10 -8zM213 678q-6 0 -49 47q-10 10 -24.5 22.5t-22.5 18.5t-8 8 q-4 4 6 8q4 2 8 2q12 0 55 -44t43 -50q0 -12 -8 -12z" glyph-name="ograve" horiz-adv-x="339" unicode="ò"/><glyph d="M-6 461q12 25 33 53q-12 12 -17 21q-16 35 8.5 68.5t65.5 33.5q39 0 62.5 -35t23.5 -92v-4h16q111 10 228 53q8 4 10 -8q0 -4 -2 -4q-137 -53 -240 -62q-4 -2 -12 -2q-8 -84 -59.5 -148.5t-96.5 -64.5q-43 0 -50 59.5t30 131.5zM10 291q43 0 84 56t49 136q-61 0 -96 17 q-25 -37 -29 -45q-23 -41 -28.5 -81t1.5 -61.5t19 -21.5zM92 555l-4 -4q-4 -4 -11 -13.5t-14 -17.5q29 -14 82 -14v12q0 45 -19.5 71.5t-46 26.5t-43 -21.5t-3.5 -47.5q2 -6 10 -15q27 31 39 31q10 0 10 -8zM227 752q12 0 13 -13q0 -10 -19 -18q-6 -2 -26.5 -15.5 t-38.5 -25.5l-19 -12q-6 0 -6 8q0 2 34 29.5t42 33.5q16 13 20 13z" glyph-name="oacute" horiz-adv-x="339" unicode="ó"/><glyph d="M-6 461q12 25 33 53q-12 12 -17 21q-16 35 8.5 68.5t65.5 33.5q39 0 62.5 -35t23.5 -92v-4h16q111 10 228 53q8 4 10 -8q0 -4 -2 -4q-137 -53 -240 -62q-4 -2 -12 -2q-8 -84 -59.5 -148.5t-96.5 -64.5q-43 0 -50 59.5t30 131.5zM10 291q43 0 84 56t49 136q-61 0 -96 17 q-25 -37 -29 -45q-23 -41 -28.5 -81t1.5 -61.5t19 -21.5zM92 555l-4 -4q-4 -4 -11 -13.5t-14 -17.5q29 -14 82 -14v12q0 45 -19.5 71.5t-46 26.5t-43 -21.5t-3.5 -47.5q2 -6 10 -15q27 31 39 31q10 0 10 -8zM96 700q-2 -2 -6 2.5t-4 8.5q-2 4 15.5 19t33.5 26q33 23 49 22 q18 4 25 -16l16 -66q0 -8 -10 -12q-10 0 -14 23q-14 43 -17 43q-8 0 -55 -31q-25 -19 -33 -19z" glyph-name="ocircumflex" horiz-adv-x="339" unicode="ô"/><glyph d="M-6 461q12 25 33 53q-12 12 -17 21q-16 35 8.5 68.5t65.5 33.5q39 0 62.5 -35t23.5 -92v-4h16q111 10 228 53q8 4 10 -8q0 -4 -2 -4q-137 -53 -240 -62q-4 -2 -12 -2q-8 -84 -59.5 -148.5t-96.5 -64.5q-43 0 -50 59.5t30 131.5zM10 291q43 0 84 56t49 136q-61 0 -96 17 q-25 -37 -29 -45q-23 -41 -28.5 -81t1.5 -61.5t19 -21.5zM92 555l-4 -4q-4 -4 -11 -13.5t-14 -17.5q29 -14 82 -14v12q0 45 -19.5 71.5t-46 26.5t-43 -21.5t-3.5 -47.5q2 -6 10 -15q27 31 39 31q10 0 10 -8zM72 684q-8 0 -9 16q0 10 28 23.5t50 13.5q39 0 35 -37 q0 -18 10 -18q12 0 52.5 18.5t42.5 18.5q12 0 12 -8.5t-45 -28.5t-66 -20q-25 0 -26 32q-4 18 -15 19q-12 0 -38.5 -14.5t-30.5 -14.5z" glyph-name="otilde" horiz-adv-x="339" unicode="õ"/><glyph d="M-6 461q12 25 33 53q-12 12 -17 21q-16 35 8.5 68.5t65.5 33.5q39 0 62.5 -35t23.5 -92v-4h16q111 10 228 53q8 4 10 -8q0 -4 -2 -4q-137 -53 -240 -62q-4 -2 -12 -2q-8 -84 -59.5 -148.5t-96.5 -64.5q-43 0 -50 59.5t30 131.5zM10 291q43 0 84 56t49 136q-61 0 -96 17 q-25 -37 -29 -45q-23 -41 -28.5 -81t1.5 -61.5t19 -21.5zM92 555l-4 -4q-4 -4 -11 -13.5t-14 -17.5q29 -14 82 -14v12q0 45 -19.5 71.5t-46 26.5t-43 -21.5t-3.5 -47.5q2 -6 10 -15q27 31 39 31q10 0 10 -8zM131 684q-4 2 -7 14.5t-1 18.5t8 13t10 5q20 -4 17 -26 q-2 -8 -12.5 -16.5t-14.5 -8.5zM193 686q-8 0 -9 21q0 4 9.5 14t15.5 10q2 0 7 -5t5 -11q0 -8 -11 -18.5t-17 -10.5z" glyph-name="odieresis" horiz-adv-x="339" unicode="ö"/><glyph d="M78 408q-2 -2 -7 1t-7.5 9t2.5 18q20 31 40 35q14 2 0 -29q-2 -4 -4 -6q-16 -28 -24 -28zM170 635q-8 -2 -8 8q-2 10 8 25l5 10t4 9t4 6l5 5t7 2q6 2 9 -2t2 -13t-7 -19q-15 -29 -29 -31zM70 535q-18 0 2 16q6 8 12 8t47 2t47 2q12 0 19 -14q4 -12 -9 -12q-8 0 -59 -1 t-59 -1z" glyph-name="divide" horiz-adv-x="258" unicode="÷"/><glyph d="M-47 268q-8 0 16 43q-18 63 25 150q12 25 33 53q-12 12 -17 21q-16 35 8.5 68.5t65.5 33.5q51 0 74 -55q49 63 55 63q10 0 10 -6q0 -8 -59 -80q6 -25 6 -49v-4h16q111 10 228 53q8 4 10 -8q0 -4 -2 -4q-137 -53 -240 -62q-4 -2 -12 -2q-8 -84 -59.5 -148.5t-96.5 -64.5 q-25 0 -37 23q-20 -25 -24 -25zM10 291q43 0 84 56t49 136q-23 0 -34 2q-20 -31 -63.5 -94t-53.5 -78q6 -22 18 -22zM92 555l-4 -4q-4 -4 -11 -13.5t-14 -17.5q12 -6 39 -10l25 31l12 18q-12 57 -59 57q-27 0 -43.5 -21.5t-3.5 -47.5q2 -6 10 -15q27 31 39 31q10 0 10 -8z M18 455q-31 -61 -30 -115q51 80 100 147q-39 10 -41 13q-25 -37 -29 -45zM125 506h20v12q0 10 -2 12l-2 -2z" glyph-name="oslash" horiz-adv-x="339" unicode="ø"/><glyph d="M162 389q14 72 45 125l-45 -51q-98 -98 -135 -98q-27 0 -25 43q2 27 29 86q27 66 51 69q14 2 14 -14q0 -4 -8 -13.5t-20.5 -24.5t-18.5 -30q-18 -35 -24.5 -63.5t8.5 -28.5q12 0 51 31t61 55q8 8 19.5 20.5t17.5 19.5t14.5 16.5t13.5 14.5t11 9t10.5 5t8.5 1 q12 -4 -2 -37q-4 -8 -7 -12q-37 -84 -47 -125q-14 -59 17 -59q41 0 120.5 43t182 110.5t133.5 83.5q14 4 18 -4q2 -2 -6 -8q-18 -12 -77.5 -52t-102.5 -67.5t-98.5 -61.5t-99.5 -51.5t-72 -17.5q-60 0 -37 86zM248 602q-6 0 -49 47q-10 10 -24.5 22.5t-23 18.5t-8.5 8 q-4 4 7 9q4 2 8 2q10 0 54 -43t44 -52q0 -12 -8 -12z" glyph-name="ugrave" horiz-adv-x="563" unicode="ù"/><glyph d="M162 389q14 72 45 125l-45 -51q-98 -98 -135 -98q-27 0 -25 43q2 27 29 86q27 66 51 69q14 2 14 -14q0 -4 -8 -13.5t-20.5 -24.5t-18.5 -30q-18 -35 -24.5 -63.5t8.5 -28.5q12 0 51 31t61 55q8 8 19.5 20.5t17.5 19.5t14.5 16.5t13.5 14.5t11 9t10.5 5t8.5 1 q12 -4 -2 -37q-4 -8 -7 -12q-37 -84 -47 -125q-14 -59 17 -59q41 0 120.5 43t182 110.5t133.5 83.5q14 4 18 -4q2 -2 -6 -8q-18 -12 -77.5 -52t-102.5 -67.5t-98.5 -61.5t-99.5 -51.5t-72 -17.5q-60 0 -37 86zM246 705q12 0 12 -13q0 -10 -18 -18q-6 -2 -26.5 -15.5 t-39.5 -25.5l-18 -12q-6 0 -6 8q0 2 33.5 29.5t41.5 33.5q17 13 21 13z" glyph-name="uacute" horiz-adv-x="563" unicode="ú"/><glyph d="M162 389q14 72 45 125l-45 -51q-98 -98 -135 -98q-27 0 -25 43q2 27 29 86q27 66 51 69q14 2 14 -14q0 -4 -8 -13.5t-20.5 -24.5t-18.5 -30q-18 -35 -24.5 -63.5t8.5 -28.5q12 0 51 31t61 55q8 8 19.5 20.5t17.5 19.5t14.5 16.5t13.5 14.5t11 9t10.5 5t8.5 1 q12 -4 -2 -37q-4 -8 -7 -12q-37 -84 -47 -125q-14 -59 17 -59q41 0 120.5 43t182 110.5t133.5 83.5q14 4 18 -4q2 -2 -6 -8q-18 -12 -77.5 -52t-102.5 -67.5t-98.5 -61.5t-99.5 -51.5t-72 -17.5q-60 0 -37 86zM131 627q-4 -2 -7 2t-3 8q-2 4 15.5 19.5t33.5 25.5 q35 23 49 23q18 4 25 -17l16 -65q0 -8 -10 -13q-10 0 -14 23q-14 43 -17 43q-10 0 -55 -31q-25 -18 -33 -18z" glyph-name="ucircumflex" horiz-adv-x="563" unicode="û"/><glyph d="M162 389q14 72 45 125l-45 -51q-98 -98 -135 -98q-27 0 -25 43q2 27 29 86q27 66 51 69q14 2 14 -14q0 -4 -8 -13.5t-20.5 -24.5t-18.5 -30q-18 -35 -24.5 -63.5t8.5 -28.5q12 0 51 31t61 55q8 8 19.5 20.5t17.5 19.5t14.5 16.5t13.5 14.5t11 9t10.5 5t8.5 1 q12 -4 -2 -37q-4 -8 -7 -12q-37 -84 -47 -125q-14 -59 17 -59q41 0 120.5 43t182 110.5t133.5 83.5q14 4 18 -4q2 -2 -6 -8q-18 -12 -77.5 -52t-102.5 -67.5t-98.5 -61.5t-99.5 -51.5t-72 -17.5q-60 0 -37 86zM147 631q-4 2 -7 14t-1 18.5t8.5 13.5t10.5 5q20 -4 16 -27 q-2 -8 -11.5 -16t-15.5 -8zM209 633q-8 0 -8 20q0 4 9 14.5t15 10.5q2 0 7.5 -5t5.5 -11q0 -8 -11.5 -18.5t-17.5 -10.5z" glyph-name="udieresis" horiz-adv-x="563" unicode="ü"/><glyph d="M270 537q-23 0 -92 -76q-82 -90 -115 -90q-12 0 -20 12t-4 33l29 96q4 10 5 20.5t2 14.5t3 8t6 4q16 2 16 -12q0 -6 -14 -47q-20 -61 -23 -72q-8 -29 5 -29q29 0 96 74q8 10 20.5 23.5t18.5 20.5t15 16.5t13.5 13.5t11.5 9t11 7t9 4t11 2q35 0 39 -90q154 88 211 88 q18 0 17 -12q0 -8 -11 -8q-23 0 -86 -26.5t-131 -69.5q-2 -84 -30.5 -198t-69.5 -187q-96 -168 -197 -168q-29 0 -53 21.5t-24 64.5q0 156 215 372q57 59 137 107q-5 74 -21 74zM190 82q41 72 69 178.5t32 175.5q-63 -41 -121 -96q-102 -104 -154.5 -202.5t-52.5 -157.5 q0 -57 43 -58q37 0 88 41t96 119zM242 700q12 0 12 -12q0 -10 -18 -18q-6 -2 -27 -15.5t-39 -25.5l-18 -13q-6 0 -7 9q0 2 34 29.5t42 33.5q17 12 21 12z" glyph-name="yacute" horiz-adv-x="516" unicode="ý"/><glyph d="M147 907q8 2 12.5 -3t2.5 -15q0 -59 -66 -328l-4 -14l-12 -17q-14 -8 -21 -36q-4 -35 7 -56q-14 -55 -35 -128.5t-33 -120t-16 -64.5q-45 -168 -62 -174q-4 -2 -6 2t3 30.5t17 77.5q111 403 136 504q18 76 32.5 140.5t21.5 99.5t12 59.5t7 33.5t4 9zM66 438l12 54 q-4 -45 16 -50q12 -4 29.5 14.5t32.5 53.5q8 23 8 40t-8 17q-25 6 -72 -53l8 33q37 45 66 45q23 0 29 -31t-9 -69q-14 -37 -40.5 -58.5t-49.5 -17.5q-16 4 -22 22zM80 510l-4 -8q-12 -14 -13 -10q0 4 5 14l12 24q6 0 4 -14l-2 -4zM82 512l-4 -20q0 8 4 20z" glyph-name="thorn" horiz-adv-x="249" unicode="þ"/><glyph d="M270 537q-23 0 -92 -76q-82 -90 -115 -90q-12 0 -20 12t-4 33l29 96q4 10 5 20.5t2 14.5t3 8t6 4q16 2 16 -12q0 -6 -14 -47q-20 -61 -23 -72q-8 -29 5 -29q29 0 96 74q8 10 20.5 23.5t18.5 20.5t15 16.5t13.5 13.5t11.5 9t11 7t9 4t11 2q35 0 39 -90q154 88 211 88 q18 0 17 -12q0 -8 -11 -8q-23 0 -86 -26.5t-131 -69.5q-2 -84 -30.5 -198t-69.5 -187q-96 -168 -197 -168q-29 0 -53 21.5t-24 64.5q0 156 215 372q57 59 137 107q-5 74 -21 74zM190 82q41 72 69 178.5t32 175.5q-63 -41 -121 -96q-102 -104 -154.5 -202.5t-52.5 -157.5 q0 -57 43 -58q37 0 88 41t96 119zM166 623q-4 2 -7 14t-1 18.5t8 13.5t10 5q20 -4 17 -27q-2 -8 -11.5 -16t-15.5 -8zM227 625q-8 0 -8 20q0 4 9.5 14.5t15.5 10.5q2 0 7 -5.5t5 -11.5q0 -8 -11.5 -18t-17.5 -10z" glyph-name="ydieresis" horiz-adv-x="516" unicode="ÿ"/><glyph d="M729 -23q4 16 14 136l-6 39q-10 63 -79.5 132.5t-161.5 110.5q-45 18 -166 72q-203 -338 -322 -610q-16 -37 -28 -23q-8 6 -3 21q111 260 326 624l-53 25q-33 16 -12 45q29 35 129 37l34 55q106 178 227.5 315.5t192 190.5t92.5 51q57 -6 45 -61q-2 -12 -20 -90 t-48 -212.5t-56 -263.5q37 -8 53 -18q35 -20 35 -21q2 -4 -48 3q-16 0 -40 4h-7q-47 -238 -57 -416v-6t-2 -6q12 -78 8 -107q0 -12 -13 -25.5t-20 -11.5h-7t-6 2t-1 8zM403 586q242 4 406 -11q27 137 58.5 273.5t51 209t19.5 79.5q4 39 -18 43q-12 2 -95.5 -78t-201 -216 t-195.5 -259zM504 414q203 -98 248 -221q10 127 51 350q-164 14 -420 10l-39 -64zM268 524l49 -22l29 49q-86 -6 -82 -23q0 -2 4 -4zM989 1247q-141 0 -141 10q0 12 41 13h94q25 0 25 -13q-1 -10 -19 -10z" glyph-name="Amacron" horiz-adv-x="972" unicode="Ā"/><glyph d="M207 403q57 0 195.5 56.5t213.5 99.5q6 4 16.5 1t-3.5 -11q-70 -45 -218.5 -108.5t-205.5 -63.5q-41 0 -59.5 19.5t-18.5 41.5q0 12 1 21.5t3 15.5v4q-6 6 -51 -18q-63 -37 -88 -37q-12 0 -20.5 6t-8.5 12q0 45 62 90q47 37 84 37q27 0 36 -30q4 -14 -2 -15 q-6 0 -14 12.5t-16 12.5q-25 0 -72 -33q-20 -14 -37.5 -35.5t-17.5 -29.5q0 -4 4 -5q16 0 67 27q86 39 93 39q14 0 14 -12q0 -2 -6 -22.5t-6 -37.5q0 -37 55 -37zM201 643q-94 0 -95 10q0 12 27 13h64q16 0 16 -13q0 -10 -12 -10z" glyph-name="amacron" horiz-adv-x="548" unicode="ā"/><glyph d="M729 -23q4 16 14 136l-6 39q-10 63 -79.5 132.5t-161.5 110.5q-45 18 -166 72q-203 -338 -322 -610q-16 -37 -28 -23q-8 6 -3 21q111 260 326 624l-53 25q-33 16 -12 45q29 35 129 37l34 55q106 178 227.5 315.5t192 190.5t92.5 51q57 -6 45 -61q-2 -12 -20 -90 t-48 -212.5t-56 -263.5q37 -8 53 -18q35 -20 35 -21q2 -4 -48 3q-16 0 -40 4h-7q-47 -238 -57 -416v-6t-2 -6q12 -78 8 -107q0 -12 -13 -25.5t-20 -11.5h-7t-6 2t-1 8zM403 586q242 4 406 -11q27 137 58.5 273.5t51 209t19.5 79.5q4 39 -18 43q-12 2 -95.5 -78t-201 -216 t-195.5 -259zM504 414q203 -98 248 -221q10 127 51 350q-164 14 -420 10l-39 -64zM268 524l49 -22l29 49q-86 -6 -82 -23q0 -2 4 -4zM995 1245q-70 0 -69 64q0 16 7 27.5t15 11.5q10 0 10 -13q0 -4 -5 -17t-5 -20q0 -27 41 -26q51 0 82 49q12 18 23 6q6 -4 0 -12 q-44 -70 -99 -70z" glyph-name="Abreve" horiz-adv-x="972" unicode="Ă"/><glyph d="M207 403q57 0 195.5 56.5t213.5 99.5q6 4 16.5 1t-3.5 -11q-70 -45 -218.5 -108.5t-205.5 -63.5q-41 0 -59.5 19.5t-18.5 41.5q0 12 1 21.5t3 15.5v4q-6 6 -51 -18q-63 -37 -88 -37q-12 0 -20.5 6t-8.5 12q0 45 62 90q47 37 84 37q27 0 36 -30q4 -14 -2 -15 q-6 0 -14 12.5t-16 12.5q-25 0 -72 -33q-20 -14 -37.5 -35.5t-17.5 -29.5q0 -4 4 -5q16 0 67 27q86 39 93 39q14 0 14 -12q0 -2 -6 -22.5t-6 -37.5q0 -37 55 -37zM170 627q-70 0 -70 63q0 16 7.5 27.5t15.5 11.5q10 0 10 -12q0 -4 -5 -17.5t-5 -19.5q0 -27 41 -27 q51 0 82 49q12 18 22 7q6 -4 0 -13q-43 -69 -98 -69z" glyph-name="abreve" horiz-adv-x="548" unicode="ă"/><glyph d="M733 -178q14 12 21 2q4 -6 -6 -14q-43 -41 -86 -3q-33 29 -17 78q6 18 18.5 36t21.5 26t24.5 21.5t19.5 17.5q0 2 2 2q0 6 12 125l-6 39q-10 63 -79.5 132.5t-161.5 110.5q-45 18 -166 72q-203 -338 -322 -610q-16 -37 -28 -23q-8 6 -3 21q111 260 326 624l-53 25 q-33 16 -12 45q29 35 129 37l34 55q106 178 227.5 315.5t192 190.5t92.5 51q57 -6 45 -61q-2 -12 -20 -90t-48 -212.5t-56 -263.5q37 -8 53 -18q35 -20 35 -21q2 -4 -48 3q-16 0 -40 4h-7q-47 -238 -57 -416v-6t-2 -6q12 -78 8 -107q0 -12 -13 -25.5t-20 -11.5h-2 q-55 -51 -65 -104q-6 -35 14 -47t43 6zM403 586q242 4 406 -11q27 137 58.5 273.5t51 209t19.5 79.5q4 39 -18 43q-12 2 -95.5 -78t-201 -216t-195.5 -259zM504 414q203 -98 248 -221q10 127 51 350q-164 14 -420 10l-39 -64zM268 524l49 -22l29 49q-86 -6 -82 -23 q0 -2 4 -4z" glyph-name="Aogonek" horiz-adv-x="972" unicode="Ą"/><glyph d="M186 227q16 10 21 4q4 -6 -6 -14q-45 -41 -84 -2q-31 27 -15 76q16 43 70 92q-45 12 -45 55q0 12 1 21.5t3 15.5v4q-6 6 -51 -18q-63 -37 -88 -37q-12 0 -20.5 6t-8.5 12q0 45 62 90q47 37 84 37q27 0 36 -30q4 -14 -2 -15q-6 0 -14 12.5t-16 12.5q-25 0 -72 -33 q-20 -14 -37.5 -35.5t-17.5 -29.5q0 -4 4 -5q16 0 67 27q86 39 93 39q14 0 14 -12q0 -2 -6 -22.5t-6 -37.5q0 -37 55 -37q57 0 195.5 56.5t213.5 99.5q6 4 16.5 1t-3.5 -11q-70 -45 -218.5 -108.5t-205.5 -63.5h-6q-2 0 -2 -2q-57 -57 -66 -103q-8 -35 12 -48t43 3z" glyph-name="aogonek" horiz-adv-x="548" unicode="ą"/><glyph d="M199 94q113 0 261 68.5t224 140.5q14 14 21 2q2 -4 -5 -12q-88 -98 -230 -165t-257 -67q-94 0 -151.5 50.5t-57.5 128.5q0 193 209 462q135 172 264 261.5t225 89.5q74 0 74 -68q0 -35 -26 -49q-8 -4 -11 0q-2 4 2 10q14 18 7 48t-43 30q-61 0 -194.5 -88t-277.5 -264 q-205 -250 -204 -432q0 -66 53.5 -106t116.5 -40zM782 1200q12 0 13 -12q0 -10 -19 -19q-6 -2 -26.5 -15t-38.5 -26l-19 -12q-6 0 -6 8q0 2 34 30t42 34q16 12 20 12z" glyph-name="Cacute" horiz-adv-x="714" unicode="Ć"/><glyph d="M-35 434q-6 49 60 103q45 41 90 41q20 0 22 -17q-2 -8 -8 -10q-33 12 -86 -29q-53 -39 -53 -80q2 -18 25.5 -26t54.5 -4q61 6 176.5 53t202.5 94q6 4 16 1t-4 -11q-70 -45 -196 -97.5t-187 -60.5q-105 -14 -113 43zM215 711q12 0 12 -13q0 -10 -18 -18q-6 -2 -26.5 -15.5 t-39.5 -25.5l-18 -12q-6 0 -6 8q0 2 33.5 29.5t42.5 33.5q16 13 20 13z" glyph-name="cacute" horiz-adv-x="376" unicode="ć"/><glyph d="M199 94q113 0 261 68.5t224 140.5q14 14 21 2q2 -4 -5 -12q-88 -98 -230 -165t-257 -67q-94 0 -151.5 50.5t-57.5 128.5q0 193 209 462q135 172 264 261.5t225 89.5q74 0 74 -68q0 -35 -26 -49q-8 -4 -11 0q-2 4 2 10q14 18 7 48t-43 30q-61 0 -194.5 -88t-277.5 -264 q-205 -250 -204 -432q0 -66 53.5 -106t116.5 -40zM668 1108q-4 -2 -7.5 2t-3.5 8q-2 4 15.5 19.5t34.5 25.5q35 23 49 23q18 4 24 -17l17 -65q0 -6 -11 -12q-10 0 -14 22q-14 43 -16 43q-10 0 -56 -31q-24 -18 -32 -18z" glyph-name="Ccircumflex" horiz-adv-x="714" unicode="Ĉ"/><glyph d="M-35 434q-6 49 60 103q45 41 90 41q20 0 22 -17q-2 -8 -8 -10q-33 12 -86 -29q-53 -39 -53 -80q2 -18 25.5 -26t54.5 -4q61 6 176.5 53t202.5 94q6 4 16 1t-4 -11q-70 -45 -196 -97.5t-187 -60.5q-105 -14 -113 43zM129 623q-2 -2 -6 2t-4 8q-2 4 15.5 19.5t33.5 25.5 q33 23 49 22q18 4 25 -16l16 -66q0 -8 -10 -12q-10 0 -15 23q-14 43 -16 43q-8 0 -55 -31q-25 -18 -33 -18z" glyph-name="ccircumflex" horiz-adv-x="376" unicode="ĉ"/><glyph d="M199 94q113 0 261 68.5t224 140.5q14 14 21 2q2 -4 -5 -12q-88 -98 -230 -165t-257 -67q-94 0 -151.5 50.5t-57.5 128.5q0 193 209 462q135 172 264 261.5t225 89.5q74 0 74 -68q0 -35 -26 -49q-8 -4 -11 0q-2 4 2 10q14 18 7 48t-43 30q-61 0 -194.5 -88t-277.5 -264 q-205 -250 -204 -432q0 -66 53.5 -106t116.5 -40zM737 1098q-4 2 -7 14t-1 18.5t8 13.5t11 5q20 -4 16 -27q-2 -8 -12.5 -16t-14.5 -8z" glyph-name="Cdotaccent" horiz-adv-x="714" unicode="Ċ"/><glyph d="M-35 434q-6 49 60 103q45 41 90 41q20 0 22 -17q-2 -8 -8 -10q-33 12 -86 -29q-53 -39 -53 -80q2 -18 25.5 -26t54.5 -4q61 6 176.5 53t202.5 94q6 4 16 1t-4 -11q-70 -45 -196 -97.5t-187 -60.5q-105 -14 -113 43zM137 651q-4 2 -7 14.5t-1 18.5t8 13.5t10 4.5 q20 -4 17 -26q-2 -8 -11.5 -16.5t-15.5 -8.5z" glyph-name="cdotaccent" horiz-adv-x="376" unicode="ċ"/><glyph d="M199 94q113 0 261 68.5t224 140.5q14 14 21 2q2 -4 -5 -12q-88 -98 -230 -165t-257 -67q-94 0 -151.5 50.5t-57.5 128.5q0 193 209 462q135 172 264 261.5t225 89.5q74 0 74 -68q0 -35 -26 -49q-8 -4 -11 0q-2 4 2 10q14 18 7 48t-43 30q-61 0 -194.5 -88t-277.5 -264 q-205 -250 -204 -432q0 -66 53.5 -106t116.5 -40zM713 1114q-6 0 -23 29q-2 6 -8 18t-6 15q0 10 8 10q12 0 14 -12l17 -33q4 0 61.5 28.5t63.5 32.5q8 2 16 -6q6 -8 2 -12t-22 -17q-115 -53 -123 -53z" glyph-name="Ccaron" horiz-adv-x="714" unicode="Č"/><glyph d="M-35 434q-6 49 60 103q45 41 90 41q20 0 22 -17q-2 -8 -8 -10q-33 12 -86 -29q-53 -39 -53 -80q2 -18 25.5 -26t54.5 -4q61 6 176.5 53t202.5 94q6 4 16 1t-4 -11q-70 -45 -196 -97.5t-187 -60.5q-105 -14 -113 43zM127 627q-6 0 -23 28q-2 6 -8 19q-6 12 -6 14 q0 10 8 10q12 0 15 -12l16 -33q4 0 61.5 29t63.5 33q8 2 16 -6q6 -8 2 -12.5t-22 -16.5q-115 -53 -123 -53z" glyph-name="ccaron" horiz-adv-x="376" unicode="č"/><glyph d="M123 709q0 -68 70 -113q6 -4 -7 -6q-14 -4 -24 4q-59 45 -60 121q0 125 148 227q180 129 373 129q121 0 205.5 -74.5t84.5 -234.5q0 -139 -69.5 -303t-188.5 -287q-102 -106 -234 -173t-233 -67q-94 0 -141 43t-47 117q0 98 66.5 211t203.5 209q23 16 52 33 q76 297 94 342q12 35 18 10q4 -14 -2 -35q-18 -63 -84 -301q141 74 268 74q16 -2 2 -10q-8 -4 -30 -7q-109 -8 -252 -100q-61 -244 -80 -334q-6 -35 -14 -12q-4 10 -2 18q18 115 69 308l-24 -19q-127 -96 -197 -204.5t-70 -182.5q0 -53 44 -87t128 -34q98 0 236.5 70 t208.5 149q246 285 246 592q0 119 -68 188.5t-195 69.5q-168 0 -344 -118q-74 -49 -112.5 -106.5t-38.5 -106.5zM678 1118q-6 0 -23 29q-2 6 -8 18t-6 15q0 10 8 10q10 0 15 -12l16 -33q4 0 61.5 28.5t63.5 32.5q8 2 16 -6q6 -8 2 -12t-22 -17q-115 -53 -123 -53z" glyph-name="Dcaron" horiz-adv-x="962" unicode="Ď"/><glyph d="M170 561q43 76 188 316l31 79q57 147 64 150q8 0 19 -13.5t9 -23.5q-4 -10 -82 -154q-127 -377 -170 -528q-29 -100 -43 -175t-14 -99.5t4 -32.5q10 -2 -2 -12q-8 -6 -16 -2q-33 18 53 333q39 152 119 389l-142 -233q23 -10 39 -23q6 -6 3 -10t-11 0l-43 19 q-111 -176 -139.5 -216t-46.5 -40q-14 0 -27.5 19.5t-13.5 47.5q0 78 51 148.5t123 70.5q22 0 47 -10zM-10 307q10 0 71.5 88t96.5 150q-6 2 -21 2q-66 0 -113 -64.5t-47 -130.5q1 -45 13 -45zM535 979q-4 0 -6.5 5t1.5 9q18 37 20.5 51.5t0.5 22.5t-5 12t-3 6q14 23 24 5 q12 -27 4 -60q-6 -23 -15 -38t-21 -13z" glyph-name="dcaron" horiz-adv-x="382" unicode="ď"/><glyph d="M403 653h-30l-25 -92q141 74 268 74q16 -2 2 -10q-8 -4 -30 -7q-109 -8 -252 -100q-61 -244 -80 -334q-6 -35 -14 -12q-4 10 -2 18q18 115 69 308l-24 -19q-127 -96 -197 -204.5t-70 -182.5q0 -53 44 -87t128 -34q98 0 236.5 70t208.5 149q246 285 246 592 q0 119 -68 188.5t-195 69.5q-168 0 -344 -118q-74 -49 -112.5 -106.5t-38.5 -106.5q0 -68 70 -113q6 -4 -7 -6q-14 -4 -24 4q-59 45 -60 121q0 125 148 227q180 129 373 129q121 0 205.5 -74.5t84.5 -234.5q0 -139 -69.5 -303t-188.5 -287q-102 -106 -234 -173t-233 -67 q-94 0 -141 43t-47 117q0 98 66.5 211t203.5 209q23 16 52 33l28 110q-41 4 -41 11q0 10 27 10h18q53 193 62 211q12 35 18 10q4 -14 -2 -35l-53 -184h20q16 0 16 -12.5t-12 -12.5z" glyph-name="Dcroat" horiz-adv-x="962" unicode="Đ"/><glyph d="M338 936q-20 0 0 16q8 6 14 9q20 0 39 2q55 141 62 143q8 0 19 -13.5t9 -23.5q-4 -10 -55 -104h20q10 0 17 -15q6 -12 -6 -12q-2 0 -17.5 -1t-27.5 -1l-13 -21q-127 -377 -170 -528q-29 -100 -43 -175t-14 -99.5t4 -32.5q10 -2 -2 -12q-8 -6 -16 -2q-33 18 53 333 q39 152 119 389l-142 -233q23 -10 39 -23q6 -6 3 -10t-11 0l-43 19q-111 -176 -139.5 -216t-46.5 -40q-14 0 -27.5 19.5t-13.5 47.5q0 78 51 148.5t123 70.5q23 0 47 -10q43 76 188 316l23 59h-43zM-10 307q10 0 71.5 88t96.5 150q-6 2 -21 2q-66 0 -113 -64.5t-47 -130.5 q1 -45 13 -45z" glyph-name="dcroat" horiz-adv-x="382" unicode="đ"/><glyph d="M516 551l-354 -41l-23 -68q-84 -258 -78 -303q4 -33 31 -33q92 6 320 74q98 31 125 53q10 10 28 -4q8 -8 2 -14q-35 -31 -161 -68q-197 -59 -279 -61q-53 -4 -61 6q-27 18 -27 45q-6 63 67 309q6 31 19 60q-59 -6 -70 -6q-8 -2 -8 8q0 14 14 16q6 2 72 11q63 199 152 419 q-154 -39 -191 -59q-12 -4 -18 0t-4 13.5t12 15.5q43 33 213 65l51 123q29 61 43 70q6 8 17 2q6 -2 -2 -10q-16 -23 -21 -46q0 -6 -4 -15t-19.5 -41t-31.5 -77l92 13q215 27 342 18q14 0 16 -4q2 -6 -10 -10q-6 -4 -12 -4h-50t-74 -1t-91.5 -6.5t-114.5 -15.5 q-51 -8 -111 -22l-2 -9q-39 -106 -145 -415q217 23 283 32q43 6 75 13q12 4 15 0q2 -6 -5.5 -18.5t-21.5 -14.5zM625 1120q-94 0 -95 10q0 12 27 13h64q16 0 16 -13q0 -10 -12 -10z" glyph-name="Emacron" horiz-adv-x="634" unicode="Ē"/><glyph d="M84 395q-47 -4 -66.5 30t0.5 75q16 39 47 59.5t54 13.5q37 -4 20 -51q-20 -51 -104 -80q6 -25 43 -24q43 4 356 141q12 6 15.5 -1t-5.5 -11q-63 -29 -153 -72t-133 -60.5t-74 -19.5zM41 492q-8 -16 -8 -35q27 10 53.5 31.5t34.5 41.5q6 20 -6 25q-14 4 -37 -12t-37 -51z M197 655q-94 0 -95 11q0 12 27 12h64q16 0 16 -12q0 -11 -12 -11z" glyph-name="emacron" horiz-adv-x="362" unicode="ē"/><glyph d="M516 551l-354 -41l-23 -68q-84 -258 -78 -303q4 -33 31 -33q92 6 320 74q98 31 125 53q10 10 28 -4q8 -8 2 -14q-35 -31 -161 -68q-197 -59 -279 -61q-53 -4 -61 6q-27 18 -27 45q-6 63 67 309q6 31 19 60q-59 -6 -70 -6q-8 -2 -8 8q0 14 14 16q6 2 72 11q63 199 152 419 q-154 -39 -191 -59q-12 -4 -18 0t-4 13.5t12 15.5q43 33 213 65l51 123q29 61 43 70q6 8 17 2q6 -2 -2 -10q-16 -23 -21 -46q0 -6 -4 -15t-19.5 -41t-31.5 -77l92 13q215 27 342 18q14 0 16 -4q2 -6 -10 -10q-6 -4 -12 -4h-50t-74 -1t-91.5 -6.5t-114.5 -15.5 q-51 -8 -111 -22l-2 -9q-39 -106 -145 -415q217 23 283 32q43 6 75 13q12 4 15 0q2 -6 -5.5 -18.5t-21.5 -14.5zM578 1102q-70 0 -70 63q0 16 7 27.5t15 11.5q10 0 11 -12q0 -4 -5.5 -17.5t-5.5 -19.5q0 -27 41 -27q51 0 82 50q12 18 23 6q6 -4 0 -13q-43 -69 -98 -69z" glyph-name="Ebreve" horiz-adv-x="634" unicode="Ĕ"/><glyph d="M84 395q-47 -4 -66.5 30t0.5 75q16 39 47 59.5t54 13.5q37 -4 20 -51q-20 -51 -104 -80q6 -25 43 -24q43 4 356 141q12 6 15.5 -1t-5.5 -11q-63 -29 -153 -72t-133 -60.5t-74 -19.5zM41 492q-8 -16 -8 -35q27 10 53.5 31.5t34.5 41.5q6 20 -6 25q-14 4 -37 -12t-37 -51z M162 614q-70 0 -70 64q0 16 7 27.5t16 11.5q10 0 10 -12q0 -4 -5 -17.5t-5 -19.5q0 -27 41 -27q51 0 82 49q12 18 22 6q6 -4 0 -12q-43 -70 -98 -70z" glyph-name="ebreve" horiz-adv-x="362" unicode="ĕ"/><glyph d="M516 551l-354 -41l-23 -68q-84 -258 -78 -303q4 -33 31 -33q92 6 320 74q98 31 125 53q10 10 28 -4q8 -8 2 -14q-35 -31 -161 -68q-197 -59 -279 -61q-53 -4 -61 6q-27 18 -27 45q-6 63 67 309q6 31 19 60q-59 -6 -70 -6q-8 -2 -8 8q0 14 14 16q6 2 72 11q63 199 152 419 q-154 -39 -191 -59q-12 -4 -18 0t-4 13.5t12 15.5q43 33 213 65l51 123q29 61 43 70q6 8 17 2q6 -2 -2 -10q-16 -23 -21 -46q0 -6 -4 -15t-19.5 -41t-31.5 -77l92 13q215 27 342 18q14 0 16 -4q2 -6 -10 -10q-6 -4 -12 -4h-50t-74 -1t-91.5 -6.5t-114.5 -15.5 q-51 -8 -111 -22l-2 -9q-39 -106 -145 -415q217 23 283 32q43 6 75 13q12 4 15 0q2 -6 -5.5 -18.5t-21.5 -14.5zM571 1124q-4 2 -7 14.5t-1 18.5t8.5 13.5t10.5 5.5q20 -4 16 -27q-2 -8 -11.5 -16.5t-15.5 -8.5z" glyph-name="Edotaccent" horiz-adv-x="634" unicode="Ė"/><glyph d="M84 395q-47 -4 -66.5 30t0.5 75q16 39 47 59.5t54 13.5q37 -4 20 -51q-20 -51 -104 -80q6 -25 43 -24q43 4 356 141q12 6 15.5 -1t-5.5 -11q-63 -29 -153 -72t-133 -60.5t-74 -19.5zM41 492q-8 -16 -8 -35q27 10 53.5 31.5t34.5 41.5q6 20 -6 25q-14 4 -37 -12t-37 -51z M147 651q-4 2 -7 14.5t-1 18.5t8.5 13.5t10.5 4.5q20 -4 16 -26q-2 -8 -11.5 -16.5t-15.5 -8.5z" glyph-name="edotaccent" horiz-adv-x="362" unicode="ė"/><glyph d="M516 551l-354 -41l-23 -68q-84 -258 -78 -303q4 -33 31 -33q92 6 320 74q98 31 125 53q10 10 28 -4q8 -8 2 -14q-35 -31 -161 -68l-62 -16v-2q-57 -57 -65 -104q-8 -35 12 -47.5t43 4.5q16 10 20 4t-6 -15q-45 -41 -84 -2q-35 31 -16 76q12 41 47 72q-119 -31 -168 -31 q-53 -4 -61 6q-27 18 -27 45q-6 63 67 309q6 31 19 60q-59 -6 -70 -6q-8 -2 -8 8q0 14 14 16q6 2 72 11q63 199 152 419q-154 -39 -191 -59q-12 -4 -18 0t-4 13.5t12 15.5q43 33 213 65l51 123q29 61 43 70q6 8 17 2q6 -2 -2 -10q-16 -23 -21 -46q0 -6 -4 -15t-19.5 -41 t-31.5 -77l92 13q215 27 342 18q14 0 16 -4q2 -6 -10 -10q-6 -4 -12 -4h-50t-74 -1t-91.5 -6.5t-114.5 -15.5q-51 -8 -111 -22l-2 -9q-39 -106 -145 -415q217 23 283 32q43 6 75 13q12 4 15 0q2 -6 -5.5 -18.5t-21.5 -14.5z" glyph-name="Eogonek" horiz-adv-x="634" unicode="Ę"/><glyph d="M72 242q18 12 22 2q2 -4 -6 -13q-47 -41 -86 -2q-35 31 -16 78q14 43 71 90q-33 8 -44 38t5 65q16 39 47 59.5t54 13.5q37 -4 20 -51q-20 -51 -104 -80q6 -25 43 -24q43 4 356 141q12 6 15.5 -1t-5.5 -11q-59 -27 -150 -71t-134 -61.5t-74 -19.5l-4 -6q-57 -57 -66 -104 q-6 -35 15 -47t41 4zM41 492q-8 -16 -8 -35q27 10 53.5 31.5t34.5 41.5q6 20 -6 25q-14 4 -37 -12t-37 -51z" glyph-name="eogonek" horiz-adv-x="362" unicode="ę"/><glyph d="M516 551l-354 -41l-23 -68q-84 -258 -78 -303q4 -33 31 -33q92 6 320 74q98 31 125 53q10 10 28 -4q8 -8 2 -14q-35 -31 -161 -68q-197 -59 -279 -61q-53 -4 -61 6q-27 18 -27 45q-6 63 67 309q6 31 19 60q-59 -6 -70 -6q-8 -2 -8 8q0 14 14 16q6 2 72 11q63 199 152 419 q-154 -39 -191 -59q-12 -4 -18 0t-4 13.5t12 15.5q43 33 213 65l51 123q29 61 43 70q6 8 17 2q6 -2 -2 -10q-16 -23 -21 -46q0 -6 -4 -15t-19.5 -41t-31.5 -77l92 13q215 27 342 18q14 0 16 -4q2 -6 -10 -10q-6 -4 -12 -4h-50t-74 -1t-91.5 -6.5t-114.5 -15.5 q-51 -8 -111 -22l-2 -9q-39 -106 -145 -415q217 23 283 32q43 6 75 13q12 4 15 0q2 -6 -5.5 -18.5t-21.5 -14.5zM547 1098q-6 0 -23 28q-2 6 -8 19q-6 12 -6 14q0 10 8 10q10 0 14 -12l17 -33q4 0 61.5 29t63.5 33q8 2 16 -6q6 -8 2 -12.5t-22 -16.5q-115 -53 -123 -53z" glyph-name="Ecaron" horiz-adv-x="634" unicode="Ě"/><glyph d="M84 395q-47 -4 -66.5 30t0.5 75q16 39 47 59.5t54 13.5q37 -4 20 -51q-20 -51 -104 -80q6 -25 43 -24q43 4 356 141q12 6 15.5 -1t-5.5 -11q-63 -29 -153 -72t-133 -60.5t-74 -19.5zM41 492q-8 -16 -8 -35q27 10 53.5 31.5t34.5 41.5q6 20 -6 25q-14 4 -37 -12t-37 -51z M125 606q-6 0 -23 29q-2 6 -8 18t-6 15q0 10 8 10q10 0 15 -12l16 -33q4 0 61.5 28.5t63.5 32.5q8 2 16 -6q6 -8 2 -12t-22 -17q-115 -53 -123 -53z" glyph-name="ecaron" horiz-adv-x="362" unicode="ě"/><glyph d="M698 946q43 76 43 117q0 39 -57 39q-190 0 -405 -248q-94 -111 -153.5 -255t-59.5 -267q0 -127 47 -182.5t143 -55.5q111 0 240 86t210.5 188.5t81.5 157.5q0 23 -43 23q-25 0 -121 -24.5t-161 -49.5q-6 -2 -6 2q2 16 28 35q4 0 7 2q117 51 214 61.5t107 -43.5 q0 -78 -89 -191.5t-223 -199.5t-245 -86q-113 0 -166 79t-53 198q0 266 213 538q92 117 208.5 186.5t215.5 69.5q90 0 90 -57q0 -31 -13.5 -72t-27.5 -55q-18 -20 -25 -8q-4 4 0 12zM637 1208q-2 -2 -6 2t-4 9q-2 4 15 19t34 26q33 23 49 22q18 4 25 -16l16 -66 q0 -8 -10 -12q-10 0 -15 22q-14 43 -16 43q-8 0 -55 -30q-25 -19 -33 -19z" glyph-name="Gcircumflex" horiz-adv-x="911" unicode="Ĝ"/><glyph d="M-2 -98q-31 0 -54.5 20.5t-23.5 63.5q0 158 201 360q57 57 145 109q-6 98 -49 98q-12 0 -55 -29q-53 -45 -78 -45q-33 0 -31 39q2 47 51 70q41 14 63.5 8t33.5 -23q4 0 10 1t8 1q63 0 70 -108q92 47 189 72.5t140 25.5q16 0 17 -12q-2 -8 -10 -10q-49 0 -145.5 -25.5 t-188.5 -77.5v-2q0 -86 -25.5 -190.5t-70.5 -179.5q-41 -76 -94.5 -121t-102.5 -45zM172 86q43 74 68.5 172t25.5 164v4q-70 -39 -123 -96q-102 -102 -150 -194.5t-48 -153.5q0 -57 43 -58q37 0 88 42t96 120zM145 543q25 20 39 26q-39 20 -75 -4q-47 -29 -35 -57 q2 -8 10 -8q10 0 61 43zM139 676q-4 -2 -7 2t-3 8q-2 4 15.5 19.5t33.5 25.5q35 23 49 23q18 4 25 -17l16 -65q0 -8 -10 -13q-10 0 -14 23q-14 43 -17 43q-10 0 -55 -31q-25 -18 -33 -18z" glyph-name="gcircumflex" horiz-adv-x="540" unicode="ĝ"/><glyph d="M698 946q43 76 43 117q0 39 -57 39q-190 0 -405 -248q-94 -111 -153.5 -255t-59.5 -267q0 -127 47 -182.5t143 -55.5q111 0 240 86t210.5 188.5t81.5 157.5q0 23 -43 23q-25 0 -121 -24.5t-161 -49.5q-6 -2 -6 2q2 16 28 35q4 0 7 2q117 51 214 61.5t107 -43.5 q0 -78 -89 -191.5t-223 -199.5t-245 -86q-113 0 -166 79t-53 198q0 266 213 538q92 117 208.5 186.5t215.5 69.5q90 0 90 -57q0 -31 -13.5 -72t-27.5 -55q-18 -20 -25 -8q-4 4 0 12zM694 1180q-70 0 -69 63q0 16 7 27.5t15 11.5q10 0 10 -12q0 -4 -5 -17.5t-5 -19.5 q0 -27 41 -27q51 0 82 49q12 18 23 7q6 -4 0 -13q-44 -69 -99 -69z" glyph-name="Gbreve" horiz-adv-x="911" unicode="Ğ"/><glyph d="M-2 -98q-31 0 -54.5 20.5t-23.5 63.5q0 158 201 360q57 57 145 109q-6 98 -49 98q-12 0 -55 -29q-53 -45 -78 -45q-33 0 -31 39q2 47 51 70q41 14 63.5 8t33.5 -23q4 0 10 1t8 1q63 0 70 -108q92 47 189 72.5t140 25.5q16 0 17 -12q-2 -8 -10 -10q-49 0 -145.5 -25.5 t-188.5 -77.5v-2q0 -86 -25.5 -190.5t-70.5 -179.5q-41 -76 -94.5 -121t-102.5 -45zM172 86q43 74 68.5 172t25.5 164v4q-70 -39 -123 -96q-102 -102 -150 -194.5t-48 -153.5q0 -57 43 -58q37 0 88 42t96 120zM145 543q25 20 39 26q-39 20 -75 -4q-47 -29 -35 -57 q2 -8 10 -8q10 0 61 43zM227 670q-70 0 -69 63q0 16 7 27.5t15 11.5q10 0 10 -12q0 -4 -5 -17.5t-5 -19.5q0 -27 41 -27q51 0 82 49q12 18 23 7q6 -4 0 -13q-44 -69 -99 -69z" glyph-name="gbreve" horiz-adv-x="540" unicode="ğ"/><glyph d="M698 946q43 76 43 117q0 39 -57 39q-190 0 -405 -248q-94 -111 -153.5 -255t-59.5 -267q0 -127 47 -182.5t143 -55.5q111 0 240 86t210.5 188.5t81.5 157.5q0 23 -43 23q-25 0 -121 -24.5t-161 -49.5q-6 -2 -6 2q2 16 28 35q4 0 7 2q117 51 214 61.5t107 -43.5 q0 -78 -89 -191.5t-223 -199.5t-245 -86q-113 0 -166 79t-53 198q0 266 213 538q92 117 208.5 186.5t215.5 69.5q90 0 90 -57q0 -31 -13.5 -72t-27.5 -55q-18 -20 -25 -8q-4 4 0 12zM696 1176q-4 2 -7 14t-1 18t8 13.5t11 5.5q20 -4 16 -27q-2 -8 -12.5 -16t-14.5 -8z" glyph-name="Gdotaccent" horiz-adv-x="911" unicode="Ġ"/><glyph d="M-2 -98q-31 0 -54.5 20.5t-23.5 63.5q0 158 201 360q57 57 145 109q-6 98 -49 98q-12 0 -55 -29q-53 -45 -78 -45q-33 0 -31 39q2 47 51 70q41 14 63.5 8t33.5 -23q4 0 10 1t8 1q63 0 70 -108q92 47 189 72.5t140 25.5q16 0 17 -12q-2 -8 -10 -10q-49 0 -145.5 -25.5 t-188.5 -77.5v-2q0 -86 -25.5 -190.5t-70.5 -179.5q-41 -76 -94.5 -121t-102.5 -45zM172 86q43 74 68.5 172t25.5 164v4q-70 -39 -123 -96q-102 -102 -150 -194.5t-48 -153.5q0 -57 43 -58q37 0 88 42t96 120zM145 543q25 20 39 26q-39 20 -75 -4q-47 -29 -35 -57 q2 -8 10 -8q10 0 61 43zM186 674q-4 2 -7 14t-1 18.5t8.5 13.5t10.5 5q20 -4 16 -27q-2 -8 -11.5 -16t-15.5 -8z" glyph-name="gdotaccent" horiz-adv-x="540" unicode="ġ"/><glyph d="M698 946q43 76 43 117q0 39 -57 39q-190 0 -405 -248q-94 -111 -153.5 -255t-59.5 -267q0 -127 47 -182.5t143 -55.5q111 0 240 86t210.5 188.5t81.5 157.5q0 23 -43 23q-25 0 -121 -24.5t-161 -49.5q-6 -2 -6 2q2 16 28 35q4 0 7 2q117 51 214 61.5t107 -43.5 q0 -78 -89 -191.5t-223 -199.5t-245 -86q-113 0 -166 79t-53 198q0 266 213 538q92 117 208.5 186.5t215.5 69.5q90 0 90 -57q0 -31 -13.5 -72t-27.5 -55q-18 -20 -25 -8q-4 4 0 12zM205 -96q-2 2 4 9t18.5 21.5t18.5 30.5q6 12 6 24.5t-2 19.5t0 7q14 8 24 -4 q14 -25 -16 -71q-8 -12 -20.5 -21.5t-21.5 -13.5t-11 -2z" glyph-name="Gcommaaccent" horiz-adv-x="911" unicode="Ģ"/><glyph d="M-2 -98q-31 0 -54.5 20.5t-23.5 63.5q0 158 201 360q57 57 145 109q-6 98 -49 98q-12 0 -55 -29q-53 -45 -78 -45q-33 0 -31 39q2 47 51 70q41 14 63.5 8t33.5 -23q4 0 10 1t8 1q63 0 70 -108q92 47 189 72.5t140 25.5q16 0 17 -12q-2 -8 -10 -10q-49 0 -145.5 -25.5 t-188.5 -77.5v-2q0 -86 -25.5 -190.5t-70.5 -179.5q-41 -76 -94.5 -121t-102.5 -45zM172 86q43 74 68.5 172t25.5 164v4q-70 -39 -123 -96q-102 -102 -150 -194.5t-48 -153.5q0 -57 43 -58q37 0 88 42t96 120zM145 543q25 20 39 26q-39 20 -75 -4q-47 -29 -35 -57 q2 -8 10 -8q10 0 61 43zM254 821q18 0 6 -28q-25 -57 -27 -74q-4 -16 -5 -34.5t-1 -26t-4 -7.5q-23 0 -10 70q18 100 41 100z" glyph-name="gcommaaccent" horiz-adv-x="540" unicode="ģ"/><glyph d="M326 1104q-16 -47 -107 -537l-6 -24q166 14 342 4l37 186q12 68 23.5 127.5t21.5 106.5t12 61q10 49 39 66q8 0 10 -7q0 -6 -51 -256q-37 -201 -51 -286q4 0 11 -1t9 -1q55 0 95 -19q12 -8 -11 -8q-8 0 -86 6q-4 0 -11 1t-11 1v-4q-12 -76 -46 -240.5t-40 -242.5l-4 -35 q16 -61 14 -84q0 -12 -12 -23.5t-23 -9.5q-14 2 -14 4q-2 4 0 9q6 29 10 102l-2 12q-37 160 -303 305q-33 -184 -22 -217q8 -33 -7 -32q-16 6 -20 30q-2 84 16 236q-25 14 -190 90q-66 33 -6 65q25 14 71 27q102 18 160 25l2 4v8l90 479q12 70 51 107q16 14 17 -4 q-2 -13 -8 -31zM551 524v4q-139 8 -342 -16l-33 -170q242 -131 307 -279q15 133 68 461zM-37 438q106 -43 180 -80l25 148q-70 -8 -137 -23q-86 -20 -80 -37q2 -4 12 -8zM469 1176q-2 -2 -6 2t-4 8q-2 4 15.5 19.5t33.5 25.5q33 23 49 22q18 4 25 -16l16 -66q0 -8 -10 -12 q-10 0 -15 23q-14 43 -16 43q-8 0 -55 -31q-25 -18 -33 -18z" glyph-name="Hcircumflex" horiz-adv-x="727" unicode="Ĥ"/><glyph d="M68 811q72 332 108 332q16 0 10 -41q-2 -6 -7 -16.5t-12 -26t-13 -27.5q-23 -70 -58 -237q-33 -145 -67 -367q14 8 38.5 25.5t34 23.5t24.5 14.5t24.5 11.5t17.5 3q25 0 25 -45v-6q0 -41 20 -41q90 0 330 141q16 6 16 -6q2 -8 -10 -14q-20 -12 -89 -51.5t-93.5 -50.5 t-68.5 -26.5t-81 -15.5q-53 0 -53 55q0 31 -2 31q-25 0 -123 -67q-18 -14 -29 -15q-14 0 -8 39q17 156 66 377zM250 1147q-4 -2 -7 2t-3 8q-2 4 15 19.5t34 25.5q35 23 49 23q18 4 24 -17l17 -65q0 -8 -10 -13q-10 0 -15 23q-14 43 -16 43q-10 0 -55 -31q-25 -18 -33 -18z " glyph-name="hcircumflex" horiz-adv-x="471" unicode="ĥ"/><glyph d="M326 1104q-14 -35 -60 -273q39 4 125 5q121 0 217 -11l41 203q10 49 39 66q8 0 10 -7q0 -6 -51 -256l-2 -10l88 -10q29 -6 8 -14q-8 -4 -16 -4l-84 10q-27 -137 -45 -258q4 0 11 -1t9 -1q55 0 95 -19q12 -8 -11 -8q-8 0 -86 6q-4 0 -11 1t-11 1v-4q-12 -76 -46 -240.5 t-40 -242.5l-4 -35q16 -61 14 -84q0 -12 -12 -23.5t-23 -9.5q-14 2 -14 4q-2 4 0 9q6 29 10 102l-2 12q-37 160 -303 305q-33 -184 -22 -217q8 -33 -7 -32q-16 6 -20 30q-2 84 16 236q-25 14 -190 90q-66 33 -6 65q25 14 71 27q102 18 160 25l2 4v8l47 246 q-123 -16 -172 -31q-18 -8 -19 6t15 23q43 20 182 32l37 203q12 70 51 107q16 14 17 -4q-2 -13 -8 -31zM551 524v4q-139 8 -342 -16l-33 -170q242 -131 307 -279q15 133 68 461zM395 813q-55 -2 -133 -10q-35 -186 -43 -236l-6 -24q166 14 342 4l37 186l12 74q-84 8 -209 6z M-37 438q106 -43 180 -80l25 148q-70 -8 -137 -23q-86 -20 -80 -37q2 -4 12 -8z" glyph-name="Hbar" horiz-adv-x="727" unicode="Ħ"/><glyph d="M170 979h-31q-31 -115 -43 -184q-33 -145 -67 -367q14 8 38.5 25.5t34 23.5t24.5 14.5t24.5 11.5t17.5 3q25 0 25 -45v-6q0 -41 20 -41q90 0 330 141q16 6 16 -6q2 -8 -10 -14q-20 -12 -89 -51.5t-93.5 -50.5t-68.5 -26.5t-81 -15.5q-53 0 -53 55q0 31 -2 31 q-25 0 -123 -67q-18 -14 -29 -15q-14 0 -8 39q16 156 66 377q23 111 38 170q-31 4 -30 8q0 12 26 12h11q41 141 63 142q16 0 10 -41q-2 -6 -7 -16.5t-12 -26t-13 -27.5l-9 -31h21q16 0 16 -12q0 -10 -12 -10z" glyph-name="hbar" horiz-adv-x="471" unicode="ħ"/><glyph d="M127 393q-23 10 -42 43t-19 70q0 150 143 360q90 129 191.5 208t193.5 79q47 0 72.5 -31.5t26.5 -90t-9 -128t-36.5 -157t-54.5 -165t-63 -163.5q-76 -184 -195.5 -321.5t-256.5 -137.5q-78 0 -115 51t-17.5 128t95.5 143q102 94 238 75q86 -8 86 -26q2 -10 -35 -2 q-170 33 -269 -66q-59 -57 -78.5 -123.5t5 -111.5t86.5 -45q102 0 215.5 110.5t214.5 341.5q98 227 137 388t22.5 231.5t-71.5 70.5q-72 0 -176.5 -85t-173.5 -189q-154 -229 -154 -348q0 -61 53 -94q18 -10 6 -17q-8 -4 -20 2zM567 1225q-8 0 -8 16q0 10 27.5 23.5 t50.5 13.5q39 0 35 -37q0 -18 10 -18q12 0 52 18.5t42 18.5q12 0 12 -8.5t-45 -29t-65 -20.5q-25 0 -27 33q-4 18 -14 18q-12 0 -39 -14t-31 -14z" glyph-name="Itilde" unicode="Ĩ"/><glyph d="M455 565q4 0 6 -6t-2 -10q-4 0 -27.5 -11.5t-75 -32t-112.5 -40.5q-129 -45 -160 -45q-41 0 -41 43q0 37 12 72q6 27 33 30q14 0 6 -20q-20 -43 -24 -82q-2 -20 10 -21q45 0 156 39q49 18 104 40t83 33t32 11zM55 641q-8 0 -8 16q0 10 27.5 23.5t50.5 13.5q39 0 35 -37 q0 -18 10 -18q12 0 52 18.5t42 18.5q12 0 12 -8.5t-45 -29t-65 -20.5q-25 0 -27 33q-4 18 -14 19q-12 0 -39 -14.5t-31 -14.5z" glyph-name="itilde" horiz-adv-x="370" unicode="ĩ"/><glyph d="M127 393q-23 10 -42 43t-19 70q0 150 143 360q90 129 191.5 208t193.5 79q47 0 72.5 -31.5t26.5 -90t-9 -128t-36.5 -157t-54.5 -165t-63 -163.5q-76 -184 -195.5 -321.5t-256.5 -137.5q-78 0 -115 51t-17.5 128t95.5 143q102 94 238 75q86 -8 86 -26q2 -10 -35 -2 q-170 33 -269 -66q-59 -57 -78.5 -123.5t5 -111.5t86.5 -45q102 0 215.5 110.5t214.5 341.5q98 227 137 388t22.5 231.5t-71.5 70.5q-72 0 -176.5 -85t-173.5 -189q-154 -229 -154 -348q0 -61 53 -94q18 -10 6 -17q-8 -4 -20 2zM729 1229q-94 0 -94 10q0 12 27 12h63 q16 0 16 -12q0 -10 -12 -10z" glyph-name="Imacron" unicode="Ī"/><glyph d="M455 565q4 0 6 -6t-2 -10q-4 0 -27.5 -11.5t-75 -32t-112.5 -40.5q-129 -45 -160 -45q-41 0 -41 43q0 37 12 72q6 27 33 30q14 0 6 -20q-20 -43 -24 -82q-2 -20 10 -21q45 0 156 39q49 18 104 40t83 33t32 11zM176 637q-94 0 -94 10q0 12 27 12h63q16 0 16 -12 q0 -10 -12 -10z" glyph-name="imacron" horiz-adv-x="370" unicode="ī"/><glyph d="M127 393q-23 10 -42 43t-19 70q0 150 143 360q90 129 191.5 208t193.5 79q47 0 72.5 -31.5t26.5 -90t-9 -128t-36.5 -157t-54.5 -165t-63 -163.5q-76 -184 -195.5 -321.5t-256.5 -137.5q-78 0 -115 51t-17.5 128t95.5 143q102 94 238 75q86 -8 86 -26q2 -10 -35 -2 q-170 33 -269 -66q-59 -57 -78.5 -123.5t5 -111.5t86.5 -45q102 0 215.5 110.5t214.5 341.5q98 227 137 388t22.5 231.5t-71.5 70.5q-72 0 -176.5 -85t-173.5 -189q-154 -229 -154 -348q0 -61 53 -94q18 -10 6 -17q-8 -4 -20 2zM670 1194q-70 0 -70 63q0 16 7 27.5t16 11.5 q10 0 10 -12q0 -4 -5 -17.5t-5 -19.5q0 -27 41 -26q51 0 81 49q12 18 23 6q6 -4 0 -12q-43 -70 -98 -70z" glyph-name="Ibreve" unicode="Ĭ"/><glyph d="M455 565q4 0 6 -6t-2 -10q-4 0 -27.5 -11.5t-75 -32t-112.5 -40.5q-129 -45 -160 -45q-41 0 -41 43q0 37 12 72q6 27 33 30q14 0 6 -20q-20 -43 -24 -82q-2 -20 10 -21q45 0 156 39q49 18 104 40t83 33t32 11zM135 641q-70 0 -69 64q0 16 7 27t15 11q10 0 10 -12 q0 -4 -5 -17.5t-5 -19.5q0 -27 41 -26q51 0 82 49q12 18 22 6q6 -4 0 -12q-43 -70 -98 -70z" glyph-name="ibreve" horiz-adv-x="370" unicode="ĭ"/><glyph d="M82 -197q14 12 20 2q4 -6 -6 -14q-43 -41 -86 -2q-33 29 -16 78q4 12 10 23.5t11 18.5t14.5 16t13.5 13.5t14.5 12.5t12.5 10q-74 2 -109 53.5t-14.5 126t94.5 140.5q102 94 238 75q86 -8 86 -26q2 -10 -35 -2q-170 33 -269 -66q-59 -57 -78.5 -123.5t5 -111.5t86.5 -45 q102 0 215.5 110.5t214.5 341.5q98 227 137 388t22.5 231.5t-71.5 70.5q-72 0 -176.5 -85t-173.5 -189q-154 -229 -154 -348q0 -61 53 -94q18 -10 6 -17q-8 -4 -20 2q-23 10 -42 43t-19 70q0 150 143 360q90 129 191.5 208t193.5 79q47 0 72.5 -31.5t26.5 -90t-9 -128 t-36.5 -157t-54.5 -165t-63 -163.5q-72 -176 -186.5 -310.5t-245.5 -146.5l-8 -10q-57 -61 -65 -107q-6 -35 14 -47t43 6z" glyph-name="Iogonek" unicode="Į"/><glyph d="M88 268q14 12 21 4q4 -6 -7 -14q-45 -41 -86 -4q-33 33 -16 78q14 43 72 90q-29 6 -29 41q0 37 12 72q6 27 33 30q14 0 6 -20q-20 -43 -24 -82q-2 -20 10 -21q45 0 156 39q49 18 104 40t83 33t32 11t6 -6t-2 -10q-4 0 -27.5 -11.5t-75 -32t-112.5 -40.5 q-104 -35 -142 -43l-6 -6q-57 -57 -65 -107q-6 -33 14 -45t43 4zM113 651q-4 2 -8.5 14.5t-2.5 18.5q14 20 21 18q20 -4 16 -26q-2 -8 -11 -16.5t-15 -8.5z" glyph-name="iogonek" horiz-adv-x="370" unicode="į"/><glyph d="M127 393q-23 10 -42 43t-19 70q0 150 143 360q90 129 191.5 208t193.5 79q47 0 72.5 -31.5t26.5 -90t-9 -128t-36.5 -157t-54.5 -165t-63 -163.5q-76 -184 -195.5 -321.5t-256.5 -137.5q-78 0 -115 51t-17.5 128t95.5 143q102 94 238 75q86 -8 86 -26q2 -10 -35 -2 q-170 33 -269 -66q-59 -57 -78.5 -123.5t5 -111.5t86.5 -45q102 0 215.5 110.5t214.5 341.5q98 227 137 388t22.5 231.5t-71.5 70.5q-72 0 -176.5 -85t-173.5 -189q-154 -229 -154 -348q0 -61 53 -94q18 -10 6 -17q-8 -4 -20 2zM702 1210q-4 2 -7 14.5t-1 18.5t8.5 13.5 t10.5 5.5q20 -4 16 -27q-2 -8 -11.5 -16.5t-15.5 -8.5z" glyph-name="Idotaccent" unicode="İ"/><glyph d="M455 565q4 0 6 -6t-2 -10q-4 0 -27.5 -11.5t-75 -32t-112.5 -40.5q-129 -45 -160 -45q-41 0 -41 43q0 37 12 72q6 27 33 30q14 0 6 -20q-20 -43 -24 -82q-2 -20 10 -21q45 0 156 39q49 18 104 40t83 33t32 11z" glyph-name="dotlessi" horiz-adv-x="370" unicode="ı"/><glyph d="M209 399q-23 10 -41 42t-18 71q0 174 143 385q197 287 385 287q66 0 88 -62.5t3 -169t-53 -217t-85 -237.5q51 6 74 20q14 8 18 2t-8 -16q-29 -20 -97 -35l-8 -20q-53 -129 -110.5 -245t-133 -239t-163.5 -196.5t-170 -73.5q-55 0 -100.5 26.5t-69 76.5t-23.5 111.5 t41 139.5t119 154q121 117 295 191.5t301 97.5q92 219 128 372.5t20.5 222t-70.5 68.5q-70 0 -173.5 -85t-175 -189.5t-112.5 -210t-41 -162.5q0 -63 51 -94q16 -10 4 -17q-6 -4 -18 2zM29 -283q229 0 555 746q-137 -25 -292 -95.5t-272 -183.5q-63 -63 -98 -131.5t-37 -127 t14.5 -106.5t51.5 -75t78 -27zM664 1233q-4 -2 -7.5 2t-3.5 8q-2 4 15.5 19.5t33.5 25.5q35 23 50 23q18 4 24 -17l17 -65q0 -8 -11 -12q-10 0 -14 22q-14 43 -16 43q-10 0 -56 -31q-24 -18 -32 -18z" glyph-name="Jcircumflex" horiz-adv-x="802" unicode="Ĵ"/><glyph d="M86 410l-2 -11q78 43 154.5 74t97.5 31q10 0 10 -8q2 -6 -4 -7q-23 0 -102.5 -33.5t-159.5 -80.5q-49 -274 -105 -398q-82 -166 -196 -165q-29 0 -53.5 21.5t-24.5 64.5q0 70 56.5 172t158.5 206q57 57 139 107q18 115 23 168q0 16 18 10q14 -6 13 -20q0 -6 -23 -131z M-49 -8q63 137 100 364q-68 -45 -119 -96q-102 -102 -154 -203.5t-52 -162.5q0 -59 43 -60q39 0 95 44t87 114zM53 631q-4 -2 -7 2t-3 8q-2 4 15.5 19.5t33.5 25.5q35 23 49 23q18 4 25 -17l16 -65q0 -8 -10 -13q-10 0 -14 23q-14 43 -17 43q-10 0 -55 -31q-25 -18 -33 -18z " glyph-name="jcircumflex" horiz-adv-x="352" unicode="ĵ"/><glyph d="M35 119q-10 -4 -14.5 1t2.5 19q8 18 49 215q-74 18 -74 52q0 76 123 217l6 43q78 489 86 555q4 14 18 10q16 -6 13 -39q-4 -49 -99 -541q104 106 228 211q94 80 179 144.5t140.5 100.5t97 59.5t64.5 34.5t27 16q25 23 22 6q0 -4 -4 -13q-8 -16 -62.5 -53t-178 -124 t-252.5 -191q-162 -131 -273 -256l-39 -211q104 -20 289 -8q250 16 340 59q29 14 29 6q2 -2 -4 -8q-8 -8 -41 -22.5t-116 -34t-188 -29.5q-184 -16 -313 12l-18 -96q-31 -131 -37 -135zM25 406q0 -16 51 -29l33 176q-84 -106 -84 -147zM192.5 63.5q-2.5 2.5 4 9.5t18.5 21.5 t18 30.5q6 12 6.5 24.5t-1.5 19.5t0 7q14 8 24 -4q14 -25 -16 -72q-8 -12 -20.5 -21t-21.5 -13.5t-11.5 -2z" glyph-name="Kcommaaccent" horiz-adv-x="829" unicode="Ķ"/><glyph d="M238 639q-4 0 -7.5 3t-5.5 3t-110 -59q-61 -37 -70 -45q-4 -20 -4 -27q27 -10 152 0q154 16 258 43q8 2 11 -3t0 -11t-7 -6q-88 -29 -260 -48q-109 -10 -160 -2l-12 -69q-4 -31 -7.5 -58.5t-4.5 -42t-1 -25.5t-2 -15.5t-6 -4.5q-18 0 -2 152q4 45 8 68q-16 6 -18 14 q-8 18 28 49q16 102 54 258q74 332 110 332q6 0 9.5 -14.5t1.5 -24.5q-2 -8 -7.5 -18.5t-13.5 -25.5t-14 -28q-23 -68 -58 -235q-10 -47 -27.5 -128t-19.5 -89l23 14q29 20 66.5 39.5t63 31t30.5 11.5q6 0 12 -8t6 -13q0 -18 -16 -18zM108.5 201q-2.5 2 4 9t18.5 21.5 t19 30.5q6 12 6 24.5t-2 19.5t0 7q14 8 24 -4q14 -25 -16 -71q-8 -12 -20.5 -21.5t-21.5 -13.5t-11.5 -2z" glyph-name="kcommaaccent" horiz-adv-x="452" unicode="ķ"/><glyph d="M238 639q-4 0 -7.5 3t-5.5 3t-110 -59q-53 -33 -70 -45q0 -10 -4 -27q27 -8 152 0q154 16 258 43q8 2 11 -3t0 -11t-7 -6q-88 -29 -260 -48q-109 -10 -160 -2l-12 -69q-4 -31 -7.5 -58.5t-4.5 -42t-1 -25.5t-2 -15.5t-6 -4.5q-18 0 -2 152l8 70q-16 2 -18 12q-8 18 28 49 q14 86 41 203q4 16 27 18q8 -2 8 -8q-6 -29 -41 -186l23 14q29 20 66.5 39.5t63 31t30.5 11.5q6 0 12 -8t6 -13q0 -18 -16 -18z" glyph-name="kgreenlandic" horiz-adv-x="452" unicode="ĸ"/><glyph d="M748 203q-606 -299 -689 -299q-70 0 -55 94q6 41 39 161t89 316.5t89 321.5q88 324 139 329q14 2 31 13q6 4 6 -4q0 -20 -24 -39q-25 -14 -66 -127q-68 -184 -100 -310q-152 -559 -162 -626q-12 -90 18 -90q49 0 285 100q96 41 192.5 85t152 69.5t63.5 29.5q12 0 12 -8 t-20 -16zM586 1186q12 0 12 -12q0 -10 -18 -19q-6 -2 -27 -15.5t-39 -25.5l-18 -12q-6 0 -7 8q0 2 34 29.5t42 34.5q17 12 21 12z" glyph-name="Lacute" horiz-adv-x="585" unicode="Ĺ"/><glyph d="M-2 102q-4 0 -8 5.5t-7 16.5t-5.5 27.5t-2.5 38t2 50.5q16 254 91 577q74 332 110 332q6 0 10.5 -16.5t-0.5 -24.5q-2 -8 -14 -32.5t-18 -37.5q-14 -23 -60 -237q-72 -324 -94 -572q-4 -47 -3 -81.5t3 -36t-4 -9.5zM274 1249q12 0 13 -12q0 -10 -19 -18 q-6 -2 -26.5 -15.5t-38.5 -25.5l-19 -13q-6 0 -6 9q0 2 34 29.5t42 33.5q16 12 20 12z" glyph-name="lacute" horiz-adv-x="159" unicode="ĺ"/><glyph d="M748 203q-606 -299 -689 -299q-70 0 -55 94q6 41 39 161t89 316.5t89 321.5q88 324 139 329q14 2 31 13q6 4 6 -4q0 -20 -24 -39q-25 -14 -66 -127q-68 -184 -100 -310q-152 -559 -162 -626q-12 -90 18 -90q49 0 285 100q96 41 192.5 85t152 69.5t63.5 29.5q12 0 12 -8 t-20 -16zM254 -195q-2 2 4 9.5t18.5 21.5t18.5 31q6 12 6 24.5t-2 19.5t0 7q14 8 25 -4q14 -25 -17 -72q-8 -12 -20.5 -21t-21.5 -13.5t-11 -2.5z" glyph-name="Lcommaaccent" horiz-adv-x="585" unicode="Ļ"/><glyph d="M-2 102q-4 0 -8 5.5t-7 16.5t-5.5 27.5t-2.5 38t2 50.5q16 254 91 577q74 332 110 332q6 0 10.5 -16.5t-0.5 -24.5q-2 -8 -14 -32.5t-18 -37.5q-14 -23 -60 -237q-72 -324 -94 -572q-4 -47 -3 -81.5t3 -36t-4 -9.5zM-65.5 -76q-2.5 2 4 9.5t18.5 21.5t18 31 q6 12 6.5 24.5t-2 19.5t0.5 7q14 8 24 -4q14 -25 -16 -72q-8 -12 -20.5 -21.5t-21.5 -13.5t-11.5 -2z" glyph-name="lcommaaccent" horiz-adv-x="159" unicode="ļ"/><glyph d="M748 203q-606 -299 -689 -299q-70 0 -55 94q6 41 39 161t89 316.5t89 321.5q88 324 139 329q14 2 31 13q6 4 6 -4q0 -20 -24 -39q-25 -14 -66 -127q-68 -184 -100 -310q-152 -559 -162 -626q-12 -90 18 -90q49 0 285 100q96 41 192.5 85t152 69.5t63.5 29.5q12 0 12 -8 t-20 -16zM494 1010q-4 0 -6.5 5t1.5 9q18 37 20.5 51.5t0.5 22.5t-5 12t-3 6q14 23 24 4q12 -27 4 -59q-6 -23 -15 -38t-21 -13z" glyph-name="Lcaron" horiz-adv-x="585" unicode="Ľ"/><glyph d="M-2 102q-4 0 -8 5.5t-7 16.5t-5.5 27.5t-2.5 38t2 50.5q16 254 91 577q74 332 110 332q6 0 10.5 -16.5t-0.5 -24.5q-2 -8 -14 -32.5t-18 -37.5q-14 -23 -60 -237q-72 -324 -94 -572q-4 -47 -3 -81.5t3 -36t-4 -9.5zM233 1014q-4 0 -6 5t2 9q18 37 20.5 51.5t0.5 22.5 t-5 12t-3 6q14 23 24 4q12 -27 4 -59q-6 -23 -15.5 -38t-21.5 -13z" glyph-name="lcaron" horiz-adv-x="159" unicode="ľ"/><glyph d="M358 385q-14 0 -14 21q0 2 13.5 12t19.5 10q4 0 9 -5t5 -11q0 -8 -13.5 -17.5t-19.5 -9.5zM748 203q-606 -299 -689 -299q-70 0 -55 94q6 41 39 161t89 316.5t89 321.5q88 324 139 329q14 2 31 13q6 4 6 -4q0 -20 -24 -39q-25 -14 -66 -127q-68 -184 -100 -310 q-152 -559 -162 -626q-12 -90 18 -90q49 0 285 100q96 41 192.5 85t152 69.5t63.5 29.5q12 0 12 -8t-20 -16z" glyph-name="Ldot" horiz-adv-x="585" unicode="Ŀ"/><glyph d="M113 582q-14 0 -15 20q0 2 13.5 12.5t19.5 10.5q4 0 9 -5.5t5 -11.5q0 -8 -13 -17t-19 -9zM-2 102q-4 0 -8 5.5t-7 16.5t-5.5 27.5t-2.5 38t2 50.5q16 254 91 577q74 332 110 332q6 0 10.5 -16.5t-0.5 -24.5q-2 -8 -14 -32.5t-18 -37.5q-14 -23 -60 -237 q-72 -324 -94 -572q-4 -47 -3 -81.5t3 -36t-4 -9.5z" glyph-name="ldot" horiz-adv-x="159" unicode="ŀ"/><glyph d="M748 203q-606 -299 -689 -299q-70 0 -55 94q6 45 117 440l-74 -26q-10 -4 -8 4q2 14 14 22l78 29q10 37 42 151.5t48 178.5q88 324 139 329q14 2 31 13q6 4 6 -4q0 -20 -24 -39q-25 -14 -66 -127q-68 -184 -100 -310l-51 -182l125 47q12 4 22 -8q8 -10 -4 -14l-149 -53 q-96 -350 -105 -416q-12 -90 18 -90q49 0 285 100q96 41 192.5 85t152 69.5t63.5 29.5q12 0 12 -8t-20 -16z" glyph-name="Lslash" horiz-adv-x="585" unicode="Ł"/><glyph d="M27 735q-10 -6 -11 2q-2 12 9 21l34 24l9 35q74 332 110 332q6 0 10.5 -16.5t-0.5 -24.5q-2 -8 -14 -32.5t-18 -37.5q-10 -16 -60 -231l56 37q12 8 24 -2q4 -4 -4 -11l-82 -53q-74 -383 -88 -549q-4 -47 -3 -81.5t3 -35.5t-4 -10q-4 0 -8 5.5t-7 16.5t-5.5 27.5t-2.5 38 t2 50.5q18 242 76 512z" glyph-name="lslash" horiz-adv-x="159" unicode="ł"/><glyph d="M446 82q-33 0 -52 56.5t-27.5 167t-9.5 203.5t-1 239q6 389 -39 389q-31 0 -79 -104.5t-88 -264.5q-94 -383 -80 -449q4 -20 -4.5 -23t-12.5 13q-2 4 -2 8q-6 49 15.5 189.5t54.5 267.5q106 387 194 387q84 0 76 -409q-16 -645 58 -646q51 0 133 158t125 361 q29 141 43 347t4 312q0 16 12 10q10 -6 10 -16q29 -299 -49 -672q-49 -231 -131 -377.5t-150 -146.5zM510 1341q12 0 12 -12q0 -10 -18 -18q-6 -2 -26.5 -15.5t-39.5 -25.5l-18 -13q-6 0 -6 9q0 2 33.5 29.5t41.5 33.5q17 12 21 12z" glyph-name="Nacute" horiz-adv-x="843" unicode="Ń"/><glyph d="M72 553q2 8 16 12q12 0 10 -14t-12 -45l-8 -31q-2 -2 0 -4t4 -2t63 31q57 31 78 30q33 0 33 -38q-4 -55 10 -56q37 -10 164 45l188 78q10 6 13 -6q0 -8 -8 -12q-29 -14 -97.5 -44t-87.5 -38q-135 -55 -184 -47q-35 8 -31 65q2 25 -4 29t-43 -14q-78 -43 -98 -43 q-6 0 -17.5 6t-11.5 12q0 2 4 15.5t10.5 34t8.5 36.5zM233 725q12 0 13 -12q0 -10 -19 -19q-6 -2 -26.5 -15t-38.5 -26l-19 -12q-6 0 -6 8q0 2 34 30t42 34q16 12 20 12z" glyph-name="nacute" horiz-adv-x="542" unicode="ń"/><glyph d="M446 82q-33 0 -52 56.5t-27.5 167t-9.5 203.5t-1 239q6 389 -39 389q-31 0 -79 -104.5t-88 -264.5q-94 -383 -80 -449q4 -20 -4.5 -23t-12.5 13q-2 4 -2 8q-6 49 15.5 189.5t54.5 267.5q106 387 194 387q84 0 76 -409q-16 -645 58 -646q51 0 133 158t125 361 q29 141 43 347t4 312q0 16 12 10q10 -6 10 -16q29 -299 -49 -672q-49 -231 -131 -377.5t-150 -146.5zM213 29q-2 2 4 9t18.5 21.5t18.5 30.5q6 12 6 24.5t-2 19.5t0 7q14 8 25 -4q14 -25 -17 -71q-8 -12 -20.5 -21.5t-21.5 -13.5t-11 -2z" glyph-name="Ncommaaccent" horiz-adv-x="843" unicode="Ņ"/><glyph d="M72 553q2 8 16 12q12 0 10 -14t-12 -45l-8 -31q-2 -2 0 -4t4 -2t63 31q57 31 78 30q33 0 33 -38q-4 -55 10 -56q37 -10 164 45l188 78q10 6 13 -6q0 -8 -8 -12q-29 -14 -97.5 -44t-87.5 -38q-135 -55 -184 -47q-35 8 -31 65q2 25 -4 29t-43 -14q-78 -43 -98 -43 q-6 0 -17.5 6t-11.5 12q0 2 4 15.5t10.5 34t8.5 36.5zM98 244q-2 2 4.5 9t18.5 21.5t18 30.5q6 12 6 24.5t-2 19.5t0 7q14 8 25 -4q14 -25 -16 -71q-8 -12 -20.5 -21.5t-22 -13.5t-11.5 -2z" glyph-name="ncommaaccent" horiz-adv-x="542" unicode="ņ"/><glyph d="M446 82q-33 0 -52 56.5t-27.5 167t-9.5 203.5t-1 239q6 389 -39 389q-31 0 -79 -104.5t-88 -264.5q-94 -383 -80 -449q4 -20 -4.5 -23t-12.5 13q-2 4 -2 8q-6 49 15.5 189.5t54.5 267.5q106 387 194 387q84 0 76 -409q-16 -645 58 -646q51 0 133 158t125 361 q29 141 43 347t4 312q0 16 12 10q10 -6 10 -16q29 -299 -49 -672q-49 -231 -131 -377.5t-150 -146.5zM494 1266q-6 0 -23 28q-2 6 -8 19q-6 12 -6 14q0 10 8 10q10 0 14 -12l17 -33q4 0 61 29t64 33q8 2 16 -6q6 -8 2 -12.5t-23 -16.5q-114 -53 -122 -53z" glyph-name="Ncaron" horiz-adv-x="843" unicode="Ň"/><glyph d="M72 553q2 8 16 12q12 0 10 -14t-12 -45l-8 -31q-2 -2 0 -4t4 -2t63 31q57 31 78 30q33 0 33 -38q-4 -55 10 -56q37 -10 164 45l188 78q10 6 13 -6q0 -8 -8 -12q-29 -14 -97.5 -44t-87.5 -38q-135 -55 -184 -47q-35 8 -31 65q2 25 -4 29t-43 -14q-78 -43 -98 -43 q-6 0 -17.5 6t-11.5 12q0 2 4 15.5t10.5 34t8.5 36.5zM182 633q-6 0 -22 29q-2 6 -8 18l-7 14q0 10 9 11q10 0 14 -13l16 -33q4 0 61.5 29t63.5 33q8 2 17 -6q6 -8 2 -12.5t-23 -16.5q-115 -53 -123 -53z" glyph-name="ncaron" horiz-adv-x="542" unicode="ň"/><glyph d="M72 553q2 8 16 12q12 0 10 -14t-12 -45l-8 -31q-2 -2 0 -4t4 -2t63 31q57 31 78 30q33 0 33 -38q-4 -55 10 -56q37 -10 164 45l188 78q10 6 13 -6q0 -8 -8 -12q-29 -14 -97.5 -44t-87.5 -38q-135 -55 -184 -47q-35 8 -31 65q2 25 -4 29t-43 -14q-78 -43 -98 -43 q-6 0 -17.5 6t-11.5 12q0 2 4 15.5t10.5 34t8.5 36.5zM139 637q-2 2 4.5 9t18.5 21.5t18 30.5q6 12 6 24.5t-2 20t0 7.5q14 8 25 -5q14 -25 -16 -71q-8 -12 -20.5 -21.5t-22 -13.5t-11.5 -2z" glyph-name="napostrophe" horiz-adv-x="542" unicode="ŉ"/><glyph d="M600 516q-57 -37 -88 -51q-23 -84 -80 -215q-49 -113 -133 -210t-174 -97q-68 0 -115 52t-47 167q0 174 121 368q-27 51 -27 121q0 193 127 362t252 169q139 0 139 -283q0 -199 -55 -405q31 12 72 38q27 18 27.5 8t-19.5 -24zM262 442q100 -10 219 33q63 227 64 436 q0 246 -109 246q-113 0 -230.5 -170t-117.5 -334q0 -47 14 -94q68 100 154 166q29 23 33 8q2 -6 -10 -18q-100 -96 -160 -187q41 -74 143 -86zM406 266q39 84 65 183q-98 -41 -207 -31q-111 8 -164 86q-109 -172 -108 -344q0 -94 34.5 -143.5t90.5 -49.5q86 0 162 91 t127 208zM504 1247q-94 0 -94 10q0 12 26 13h64q16 0 16 -13q0 -10 -12 -10z" glyph-name="Omacron" horiz-adv-x="659" unicode="Ō"/><glyph d="M-6 461q12 25 33 53q-12 12 -17 21q-16 35 8.5 68.5t65.5 33.5q39 0 62.5 -35t23.5 -92v-4h16q111 10 228 53q8 4 10 -8q0 -4 -2 -4q-137 -53 -240 -62q-4 -2 -12 -2q-8 -84 -59.5 -148.5t-96.5 -64.5q-43 0 -50 59.5t30 131.5zM10 291q43 0 84 56t49 136q-61 0 -96 17 q-25 -37 -29 -45q-23 -41 -28.5 -81t1.5 -61.5t19 -21.5zM92 555l-4 -4q-4 -4 -11 -13.5t-14 -17.5q29 -14 82 -14v12q0 45 -19.5 71.5t-46 26.5t-43 -21.5t-3.5 -47.5q2 -6 10 -15q27 31 39 31q10 0 10 -8zM188 686q-94 0 -94 10q0 12 27 13h63q16 0 17 -13q-1 -10 -13 -10 z" glyph-name="omacron" horiz-adv-x="339" unicode="ō"/><glyph d="M600 516q-57 -37 -88 -51q-23 -84 -80 -215q-49 -113 -133 -210t-174 -97q-68 0 -115 52t-47 167q0 174 121 368q-27 51 -27 121q0 193 127 362t252 169q139 0 139 -283q0 -199 -55 -405q31 12 72 38q27 18 27.5 8t-19.5 -24zM262 442q100 -10 219 33q63 227 64 436 q0 246 -109 246q-113 0 -230.5 -170t-117.5 -334q0 -47 14 -94q68 100 154 166q29 23 33 8q2 -6 -10 -18q-100 -96 -160 -187q41 -74 143 -86zM406 266q39 84 65 183q-98 -41 -207 -31q-111 8 -164 86q-109 -172 -108 -344q0 -94 34.5 -143.5t90.5 -49.5q86 0 162 91 t127 208zM469 1249q-70 0 -70 64q0 16 7.5 27.5t15.5 11.5q10 0 10 -13q0 -4 -5 -17t-5 -19q0 -27 41 -27q51 0 82 49q12 18 22 6q6 -4 0 -12q-43 -70 -98 -70z" glyph-name="Obreve" horiz-adv-x="659" unicode="Ŏ"/><glyph d="M-6 461q12 25 33 53q-12 12 -17 21q-16 35 8.5 68.5t65.5 33.5q39 0 62.5 -35t23.5 -92v-4h16q111 10 228 53q8 4 10 -8q0 -4 -2 -4q-137 -53 -240 -62q-4 -2 -12 -2q-8 -84 -59.5 -148.5t-96.5 -64.5q-43 0 -50 59.5t30 131.5zM10 291q43 0 84 56t49 136q-61 0 -96 17 q-25 -37 -29 -45q-23 -41 -28.5 -81t1.5 -61.5t19 -21.5zM92 555l-4 -4q-4 -4 -11 -13.5t-14 -17.5q29 -14 82 -14v12q0 45 -19.5 71.5t-46 26.5t-43 -21.5t-3.5 -47.5q2 -6 10 -15q27 31 39 31q10 0 10 -8zM172 678q-70 0 -70 63q0 16 7.5 27.5t15.5 11.5q10 0 10 -12 q0 -4 -5 -17.5t-5 -19.5q0 -27 41 -26q51 0 82 49q12 18 22 6q6 -4 0 -12q-43 -70 -98 -70z" glyph-name="obreve" horiz-adv-x="339" unicode="ŏ"/><glyph d="M600 516q-57 -37 -88 -51q-23 -84 -80 -215q-49 -113 -133 -210t-174 -97q-68 0 -115 52t-47 167q0 174 121 368q-27 51 -27 121q0 193 127 362t252 169q139 0 139 -283q0 -199 -55 -405q31 12 72 38q27 18 27.5 8t-19.5 -24zM262 442q100 -10 219 33q63 227 64 436 q0 246 -109 246q-113 0 -230.5 -170t-117.5 -334q0 -47 14 -94q68 100 154 166q29 23 33 8q2 -6 -10 -18q-100 -96 -160 -187q41 -74 143 -86zM406 266q39 84 65 183q-98 -41 -207 -31q-111 8 -164 86q-109 -172 -108 -344q0 -94 34.5 -143.5t90.5 -49.5q86 0 162 91 t127 208zM481 1350q10 4 14.5 -6.5t-10.5 -24.5q-4 -2 -15 -14.5t-22.5 -24.5t-21.5 -23l-10 -10q-4 -2 -8 6q0 6 55 80q16 17 18 17zM553 1350q10 4 14 -6.5t-12 -24.5q-2 -2 -22.5 -23.5t-38 -40t-19.5 -18.5q-6 0 -6 6q-2 2 66 90q16 17 18 17z" glyph-name="Ohungarumlaut" horiz-adv-x="659" unicode="Ő"/><glyph d="M-6 461q12 25 33 53q-12 12 -17 21q-16 35 8.5 68.5t65.5 33.5q39 0 62.5 -35t23.5 -92v-4h16q111 10 228 53q8 4 10 -8q0 -4 -2 -4q-137 -53 -240 -62q-4 -2 -12 -2q-8 -84 -59.5 -148.5t-96.5 -64.5q-43 0 -50 59.5t30 131.5zM10 291q43 0 84 56t49 136q-61 0 -96 17 q-25 -37 -29 -45q-23 -41 -28.5 -81t1.5 -61.5t19 -21.5zM92 555l-4 -4q-4 -4 -11 -13.5t-14 -17.5q29 -14 82 -14v12q0 45 -19.5 71.5t-46 26.5t-43 -21.5t-3.5 -47.5q2 -6 10 -15q27 31 39 31q10 0 10 -8zM168 776q10 4 14 -6t-10 -25q-4 -2 -15.5 -14t-22.5 -24.5 t-21 -22.5l-11 -10q-4 -2 -8 6q0 6 56 80q16 16 18 16zM240 776q10 4 14 -6t-12 -25q-2 -2 -22.5 -23.5t-38 -39.5t-19.5 -18q-6 0 -6 6q-2 2 65 90q17 16 19 16z" glyph-name="ohungarumlaut" horiz-adv-x="339" unicode="ő"/><glyph d="M459 106q92 6 319 74q102 33 123 53q12 10 31 -6q8 -6 2 -12q-35 -29 -162 -68q-197 -59 -278 -61q-53 -4 -62 6q-27 18 -29 45q0 8 11 76q-55 -106 -132 -188t-157 -82q-68 0 -115 52t-47 167q0 174 121 368q-27 51 -27 121q0 193 127 362t252 169q117 0 137 -215 q47 14 91 22q27 66 51 123q29 61 43 70q2 8 14 2q6 -2 0 -10q-16 -23 -20 -46q0 -6 -4.5 -15t-19.5 -41t-32 -77l92 13q215 27 342 18q14 0 17 -4q2 -4 -10 -10q-6 -4 -13 -4h-50t-74.5 -1t-92 -6.5t-112.5 -15.5q-51 -8 -111 -22l-2 -9q-82 -221 -139 -401q55 12 282 43 q43 6 76 12q14 4 17 0q2 -6 -6.5 -18t-22.5 -15q-213 -25 -357 -51l-18 -49q-8 -33 -29 -94q-61 -207 -57 -242q0 -33 31 -33zM262 442q100 -12 219 33q63 227 64 436v13q-45 -12 -86 -29q-20 -8 -21 8q0 12 13 21q16 12 94 34q-10 199 -109 199q-113 0 -230.5 -170 t-117.5 -334q0 -47 14 -94q68 100 154 166q29 23 33 8q2 -6 -10 -18q-100 -96 -160 -187q41 -74 143 -86zM406 266q31 68 65 178v5q-104 -39 -207 -31q-111 8 -164 86q-109 -172 -108 -344q0 -94 34.5 -143.5t90.5 -49.5q86 0 162 91t127 208zM575 899q0 -80 -10 -172 l84 227l-76 -20q2 -12 2 -35z" glyph-name="OE" horiz-adv-x="999" unicode="Œ"/><glyph d="M109 563q0 -18 -27 -28q-37 -14 -51 -66q-6 -29 -1 -45t17 -18q20 -2 37.5 17t24.5 46v39q-2 4 -5.5 7t-5.5 4t-2 3q2 4 7.5 5t11.5 -4t10 -13q18 35 46 51.5t48 11.5q37 -2 23 -51q-23 -53 -105 -80q6 -25 43 -24q43 4 357 141q12 6 15 -1t-5 -11q-63 -29 -153.5 -72 t-133.5 -60.5t-74 -19.5q-51 -2 -71 37q-27 -45 -68 -43q-33 2 -42 29.5t-1 60.5q16 41 41 67.5t45 28.5q6 2 12.5 -2t6.5 -10zM143 492q-10 -20 -10 -35q29 10 55.5 31.5t34.5 41.5q4 23 -6 25q-14 4 -37 -12t-37 -51z" glyph-name="oe" horiz-adv-x="540" unicode="œ"/><glyph d="M39 950q-29 -16 -29 0q0 14 25 27q188 104 336 153q20 68 61 193q8 18 21 14q8 -2 4 -18q-10 -20 -58 -178q102 33 183 33q137 0 204.5 -33t67.5 -109q0 -152 -281 -293q-106 -55 -323 -159l-25 -97l371 17q29 0 33 -17q-2 -12 -19 -14q-51 -6 -391 -14 q-55 -211 -69 -293q-8 -51 -5 -51q6 2 7 -2q0 -8 -19 -27q-23 -29 -27 0q0 12 5 33l84 338l-160 -4q-27 2 -34 18t26 31l204 102l37 154q41 164 90 342q-176 -64 -319 -146zM293 752l-33 -138l285 148q289 143 289 276q0 49 -69 78t-183 29q-70 0 -193 -39 q-63 -215 -96 -354zM203 481l20 86q-43 -23 -112 -53q-51 -20 -54 -29q12 -4 31 -6q60 0 115 2zM633 1354q12 0 12 -13q0 -10 -18 -18q-6 -2 -26.5 -15.5t-39.5 -25.5l-18 -12q-6 0 -6 8q0 2 33.5 29.5t41.5 33.5q17 13 21 13z" glyph-name="Racute" horiz-adv-x="743" unicode="Ŕ"/><glyph d="M59 358q-2 0 -7 5.5t-5 7.5v47q10 111 27 151q4 8 20.5 10.5t18.5 -6.5q0 -2 -3.5 -11t-9.5 -27.5t-10 -36.5q-8 -31 -11 -46.5t-1 -15.5t6 6.5t17.5 23.5t31.5 36q66 70 103 69q10 0 34.5 -9t32.5 -9q41 0 64 10q27 12 26 2q0 -4 -14 -12t-38 -15.5t-44.5 -7.5 t-38.5 5.5t-22 5.5q-10 0 -42 -17.5t-55 -42.5q-41 -47 -61 -90q-15 -33 -19 -33zM272 721q12 0 13 -12q0 -10 -19 -19q-6 -2 -26.5 -15t-38.5 -26l-19 -12q-6 0 -6 8q0 2 34 29.5t42 34.5q16 12 20 12z" glyph-name="racute" horiz-adv-x="405" unicode="ŕ"/><glyph d="M39 950q-29 -16 -29 0q0 14 25 27q188 104 336 153q20 68 61 193q8 18 21 14q8 -2 4 -18q-10 -20 -58 -178q102 33 183 33q137 0 204.5 -33t67.5 -109q0 -152 -281 -293q-106 -55 -323 -159l-25 -97l371 17q29 0 33 -17q-2 -12 -19 -14q-51 -6 -391 -14 q-55 -211 -69 -293q-8 -51 -5 -51q6 2 7 -2q0 -8 -19 -27q-23 -29 -27 0q0 12 5 33l84 338l-160 -4q-27 2 -34 18t26 31l204 102l37 154q41 164 90 342q-176 -64 -319 -146zM293 752l-33 -138l285 148q289 143 289 276q0 49 -69 78t-183 29q-70 0 -193 -39 q-63 -215 -96 -354zM203 481l20 86q-43 -23 -112 -53q-51 -20 -54 -29q12 -4 31 -6q60 0 115 2zM299 229q-2 2 4 9.5t18.5 21.5t18.5 31q6 12 6 24.5t-2 19.5t0 7q14 8 25 -4q14 -25 -17 -72q-8 -12 -20.5 -21t-21.5 -13.5t-11 -2.5z" glyph-name="Rcommaaccent" horiz-adv-x="743" unicode="Ŗ"/><glyph d="M59 358q-2 0 -7 5.5t-5 7.5v47q10 111 27 151q4 8 20.5 10.5t18.5 -6.5q0 -2 -3.5 -11t-9.5 -27.5t-10 -36.5q-8 -31 -11 -46.5t-1 -15.5t6 6.5t17.5 23.5t31.5 36q66 70 103 69q10 0 34.5 -9t32.5 -9q41 0 64 10q27 12 26 2q0 -4 -14 -12t-38 -15.5t-44.5 -7.5 t-38.5 5.5t-22 5.5q-10 0 -42 -17.5t-55 -42.5q-41 -47 -61 -90q-15 -33 -19 -33zM45 225q-2 2 4 9.5t18.5 21.5t18.5 31q6 12 6 24.5t-2 19.5t0 7q14 8 25 -4q14 -25 -17 -72q-8 -12 -20 -21.5t-21.5 -13.5t-11.5 -2z" glyph-name="rcommaaccent" horiz-adv-x="405" unicode="ŗ"/><glyph d="M39 950q-29 -16 -29 0q0 14 25 27q188 104 336 153q20 68 61 193q8 18 21 14q8 -2 4 -18q-10 -20 -58 -178q102 33 183 33q137 0 204.5 -33t67.5 -109q0 -152 -281 -293q-106 -55 -323 -159l-25 -97l371 17q29 0 33 -17q-2 -12 -19 -14q-51 -6 -391 -14 q-55 -211 -69 -293q-8 -51 -5 -51q6 2 7 -2q0 -8 -19 -27q-23 -29 -27 0q0 12 5 33l84 338l-160 -4q-27 2 -34 18t26 31l204 102l37 154q41 164 90 342q-176 -64 -319 -146zM293 752l-33 -138l285 148q289 143 289 276q0 49 -69 78t-183 29q-70 0 -193 -39 q-63 -215 -96 -354zM203 481l20 86q-43 -23 -112 -53q-51 -20 -54 -29q12 -4 31 -6q60 0 115 2zM563 1266q-6 0 -22 28q-2 6 -9 19q-6 12 -6 14q0 10 9 10q10 0 14 -12l16 -33q4 0 61.5 29t63.5 33q8 2 17 -6q6 -8 2 -12.5t-23 -16.5q-115 -53 -123 -53z" glyph-name="Rcaron" horiz-adv-x="743" unicode="Ř"/><glyph d="M59 358q-2 0 -7 5.5t-5 7.5v47q10 111 27 151q4 8 20.5 10.5t18.5 -6.5q0 -2 -3.5 -11t-9.5 -27.5t-10 -36.5q-8 -31 -11 -46.5t-1 -15.5t6 6.5t17.5 23.5t31.5 36q66 70 103 69q10 0 34.5 -9t32.5 -9q41 0 64 10q27 12 26 2q0 -4 -14 -12t-38 -15.5t-44.5 -7.5 t-38.5 5.5t-22 5.5q-10 0 -42 -17.5t-55 -42.5q-41 -47 -61 -90q-15 -33 -19 -33zM195 639q-6 0 -23 29q-2 6 -8 18t-6 14q0 10 8 11q10 0 14 -13l17 -32q4 0 61 28.5t64 32.5q8 2 16 -6q6 -8 2 -12t-23 -17q-114 -53 -122 -53z" glyph-name="rcaron" horiz-adv-x="405" unicode="ř"/><glyph d="M612 903q53 16 64 64q16 76 -70 90q-49 8 -136 -10.5t-173 -57.5q-207 -98 -231 -209q-14 -63 18.5 -120.5t126.5 -143.5l92 -90q88 35 236.5 81t183.5 52q18 4 25 -2q6 -4 -7 -8q-6 -2 -14 -4q-37 -8 -178 -52t-232 -83q72 -76 97.5 -130.5t17.5 -111.5 q-10 -72 -87 -112t-175 -29q-88 8 -132 51t-36 96q20 109 248 227q4 2 29 13l-86 86q-104 98 -140.5 158.5t-21.5 125.5q16 68 74.5 123.5t175.5 106.5q195 86 331 65q106 -18 86 -118q-8 -33 -34.5 -54.5t-45.5 -23.5q-10 -2 -13 7t7 13zM403 174q8 47 -15 96t-95 129 l-27 -16q-221 -119 -237 -209q-8 -45 30.5 -80t110.5 -39q90 -6 156.5 30t76.5 89zM508 1212q12 0 12 -12q0 -10 -18 -18q-6 -2 -26.5 -15.5t-39.5 -25.5l-18 -13q-6 0 -6 9q0 2 33.5 29.5t41.5 33.5q17 12 21 12z" glyph-name="Sacute" unicode="Ś"/><glyph d="M135 719q-70 -45 -57 -92q4 -12 20.5 -55.5t24.5 -69.5q80 63 141 90q8 4 23 4q6 -4 2 -7t-10 -5q-55 -23 -148 -105q27 -92 27 -160q0 -90 -60.5 -149t-120.5 -59q-68 0 -71 69q-6 104 129 240q27 27 67 63q-6 16 -16 44t-17.5 48.5t-11.5 36.5q-12 47 10.5 84t53.5 41 q23 2 22 -8q0 -6 -8 -10zM135 334q0 53 -24 127l-54 -53q-125 -127 -125 -228q0 -49 33 -49q61 0 115.5 60.5t54.5 142.5zM270 821q12 0 13 -12q0 -10 -19 -18q-6 -2 -26.5 -15.5t-38.5 -25.5l-19 -13q-6 0 -6 8q0 2 34 30t42 34q16 12 20 12z" glyph-name="sacute" horiz-adv-x="301" unicode="ś"/><glyph d="M612 903q53 16 64 64q16 76 -70 90q-49 8 -136 -10.5t-173 -57.5q-207 -98 -231 -209q-14 -63 18.5 -120.5t126.5 -143.5l92 -90q88 35 236.5 81t183.5 52q18 4 25 -2q6 -4 -7 -8q-6 -2 -14 -4q-37 -8 -178 -52t-232 -83q72 -76 97.5 -130.5t17.5 -111.5 q-10 -72 -87 -112t-175 -29q-88 8 -132 51t-36 96q20 109 248 227q4 2 29 13l-86 86q-104 98 -140.5 158.5t-21.5 125.5q16 68 74.5 123.5t175.5 106.5q195 86 331 65q106 -18 86 -118q-8 -33 -34.5 -54.5t-45.5 -23.5q-10 -2 -13 7t7 13zM403 174q8 47 -15 96t-95 129 l-27 -16q-221 -119 -237 -209q-8 -45 30.5 -80t110.5 -39q90 -6 156.5 30t76.5 89zM461 1149q-2 -2 -6 2t-4 8q-2 4 15 19.5t34 25.5q35 23 49 23q18 4 24 -17l17 -65q0 -6 -10 -12q-10 0 -15 22q-14 43 -16 43q-8 0 -55 -31q-25 -18 -33 -18z" glyph-name="Scircumflex" unicode="Ŝ"/><glyph d="M135 719q-70 -45 -57 -92q4 -12 20.5 -55.5t24.5 -69.5q80 63 141 90q8 4 23 4q6 -4 2 -7t-10 -5q-55 -23 -148 -105q27 -92 27 -160q0 -90 -60.5 -149t-120.5 -59q-68 0 -71 69q-6 104 129 240q27 27 67 63q-6 16 -16 44t-17.5 48.5t-11.5 36.5q-12 47 10.5 84t53.5 41 q23 2 22 -8q0 -6 -8 -10zM135 334q0 53 -24 127l-54 -53q-125 -127 -125 -228q0 -49 33 -49q61 0 115.5 60.5t54.5 142.5zM141 756q-2 -2 -6 2t-4 8q-2 4 15.5 19.5t33.5 25.5q33 23 49 23q18 4 25 -17l16 -65q0 -6 -10 -13q-10 0 -14 23q-14 43 -17 43q-8 0 -55 -31 q-25 -18 -33 -18z" glyph-name="scircumflex" horiz-adv-x="301" unicode="ŝ"/><glyph d="M125 -47q-8 0 -12 5t0 9q0 2 10 12.5t24.5 24.5t20.5 23q-86 8 -130 52t-36 95q20 109 248 227q4 2 29 13l-86 86q-104 98 -140.5 158.5t-21.5 125.5q16 68 74.5 123.5t175.5 106.5q195 86 331 65q106 -18 86 -118q-8 -33 -34.5 -54.5t-45.5 -23.5q-10 -2 -13 7t7 13 q53 16 64 64q16 76 -70 90q-49 8 -136 -10.5t-173 -57.5q-207 -98 -231 -209q-14 -63 18.5 -120.5t126.5 -143.5l92 -90q88 35 236.5 81t183.5 52q18 4 25 -2q6 -4 -7 -8q-6 -2 -14 -4q-37 -8 -178 -52t-232 -83q72 -76 97.5 -130.5t17.5 -111.5q-8 -68 -77.5 -108 t-159.5 -35q-18 -23 -33 -35h26q23 0 39.5 -16.5t16.5 -45.5q0 -43 -43 -84t-92 -41q-25 0 -39.5 13.5t-14.5 23.5q0 12 17 15q6 2 6 -5q0 -20 35 -20q33 0 69.5 37t36.5 63q0 41 -41 41q-16 0 -35 -8zM403 174q8 47 -15 96t-95 129l-27 -16q-221 -119 -237 -209 q-8 -45 30.5 -80t110.5 -39q90 -6 156.5 30t76.5 89z" glyph-name="Scedilla" unicode="Ş"/><glyph d="M-86 41q-4 0 -8 3t-4 6t2 5q2 10 51 58q-39 10 -47 54t23.5 112.5t103.5 140.5q27 27 67 63q-6 16 -16 44t-17.5 48.5t-11.5 36.5q-12 47 10.5 84t53.5 41q23 2 22 -8q0 -6 -8 -10q-70 -45 -57 -92q4 -12 20.5 -55.5t24.5 -69.5q80 63 141 90q8 4 23 4q6 -4 2 -7t-10 -5 q-55 -23 -148 -105q27 -92 27 -160q0 -90 -58.5 -148t-117.5 -60l-29 -33q8 2 24 2q25 0 41.5 -16.5t16.5 -45.5q0 -45 -43 -86t-92 -41q-27 0 -41.5 13.5t-14.5 23.5q0 14 19 15q4 -2 6 -4q0 -20 35 -21q33 0 68.5 38t35.5 62q0 16 -10 29.5t-31 13.5q-16 0 -33.5 -10 t-19.5 -10zM135 334q0 53 -24 127l-54 -53q-125 -127 -125 -228q0 -49 33 -49q61 0 115.5 60.5t54.5 142.5z" glyph-name="scedilla" horiz-adv-x="301" unicode="ş"/><glyph d="M612 903q53 16 64 64q16 76 -70 90q-49 8 -136 -10.5t-173 -57.5q-207 -98 -231 -209q-14 -63 18.5 -120.5t126.5 -143.5l92 -90q88 35 236.5 81t183.5 52q18 4 25 -2q6 -4 -7 -8q-6 -2 -14 -4q-37 -8 -178 -52t-232 -83q72 -76 97.5 -130.5t17.5 -111.5 q-10 -72 -87 -112t-175 -29q-88 8 -132 51t-36 96q20 109 248 227q4 2 29 13l-86 86q-104 98 -140.5 158.5t-21.5 125.5q16 68 74.5 123.5t175.5 106.5q195 86 331 65q106 -18 86 -118q-8 -33 -34.5 -54.5t-45.5 -23.5q-10 -2 -13 7t7 13zM403 174q8 47 -15 96t-95 129 l-27 -16q-221 -119 -237 -209q-8 -45 30.5 -80t110.5 -39q90 -6 156.5 30t76.5 89zM496 1126q-6 0 -23 29q-2 6 -8 19q-6 12 -6 14q0 10 8 10q12 0 14 -12l17 -33q4 0 61 28.5t64 32.5q8 2 16 -6q6 -8 2 -12t-23 -16q-114 -54 -122 -54z" glyph-name="Scaron" unicode="Š"/><glyph d="M135 719q-70 -45 -57 -92q4 -12 20.5 -55.5t24.5 -69.5q80 63 141 90q8 4 23 4q6 -4 2 -7t-10 -5q-55 -23 -148 -105q27 -92 27 -160q0 -90 -60.5 -149t-120.5 -59q-68 0 -71 69q-6 104 129 240q27 27 67 63q-6 16 -16 44t-17.5 48.5t-11.5 36.5q-12 47 10.5 84t53.5 41 q23 2 22 -8q0 -6 -8 -10zM135 334q0 53 -24 127l-54 -53q-125 -127 -125 -228q0 -49 33 -49q61 0 115.5 60.5t54.5 142.5zM199 756q-6 0 -23 28q-2 6 -8 19q-6 12 -6 14q0 10 8 10q10 0 14 -12l17 -33q4 0 61 29t64 33q8 2 16 -6q6 -8 2 -12.5t-22 -16.5q-115 -53 -123 -53z " glyph-name="scaron" horiz-adv-x="301" unicode="š"/><glyph d="M397 1133l-10 -50q82 4 336 15q102 4 199.5 6t130 3t43.5 5q18 4 20 -2q0 -4 -6 -10q-23 -23 -45 -23q-193 0 -348 -6q-276 -14 -336 -18q-31 -143 -57 -344q-14 -111 -93 -605q-2 -45 -22 -61q-6 0 -8 8q0 61 92 654q23 154 61 348q-137 -10 -202 -21q-266 -43 -273 -84 q-2 -14 -11 -15t-13 11q-4 14 4 24.5t56 30t144 41.5q119 27 301 41q23 90 48 115q16 14 24 0q4 -8 -4 -12q-21 -12 -31 -51zM135 -113q-2 2 4 9.5t18.5 21.5t18.5 31q6 12 6 24.5t-2 19.5t0 7q14 8 25 -4q14 -25 -17 -72q-8 -12 -20 -21t-21.5 -13.5t-11.5 -2.5z" glyph-name="Tcommaaccent" horiz-adv-x="563" unicode="Ţ"/><glyph d="M23 92q-4 -2 -8.5 3t-7.5 16.5t-5 28t-3 39t-1 48.5q6 262 57 531q12 72 27 123q-184 0 -224 2t-44 16q0 4 8 10t18 8.5t17 0.5q20 -10 55 -11l176 -2q55 221 92 221q8 0 13.5 -15t1.5 -24q0 -6 -2.5 -7t-4.5 0t-6 -3t-8 -14q-12 -12 -53 -158q12 0 61 -1t121 -1h33.5h30 t23.5 1t18.5 1t14.5 -1t11 -1t7 -1t5.5 -3t2.5 -4q2 -10 -32 -12t-118 -2h-184q-16 -59 -31 -136q-31 -184 -45 -296q-29 -197 -14 -304q2 -16 6 -34q4 -10 2 -14.5t-10 -4.5zM-59 -70q-2 2 4 9.5t18 21.5t19 31q6 12 6 24.5t-2 19.5t0 7q14 8 24 -4q14 -25 -16 -72 q-8 -12 -20.5 -21t-21.5 -13.5t-11 -2.5z" glyph-name="tcommaaccent" horiz-adv-x="206" unicode="ţ"/><glyph d="M397 1133l-10 -50q82 4 336 15q102 4 199.5 6t130 3t43.5 5q18 4 20 -2q0 -4 -6 -10q-23 -23 -45 -23q-193 0 -348 -6q-276 -14 -336 -18q-31 -143 -57 -344q-14 -111 -93 -605q-2 -45 -22 -61q-6 0 -8 8q0 61 92 654q23 154 61 348q-137 -10 -202 -21q-266 -43 -273 -84 q-2 -14 -11 -15t-13 11q-4 14 4 24.5t56 30t144 41.5q119 27 301 41q23 90 48 115q16 14 24 0q4 -8 -4 -12q-21 -12 -31 -51zM426 1241q-6 0 -23 29q-2 6 -8 18t-6 15q0 10 8 10q12 0 15 -13l16 -32q4 0 61.5 28.5t63.5 32.5q8 2 16 -6q6 -8 2 -12t-22 -17 q-115 -53 -123 -53z" glyph-name="Tcaron" horiz-adv-x="563" unicode="Ť"/><glyph d="M23 92q-4 -2 -8.5 3t-7.5 16.5t-5 28t-3 39t-1 48.5q6 262 57 531q12 72 27 123q-184 0 -224 2t-44 16q0 4 8 10t18 8.5t17 0.5q20 -10 55 -11l176 -2q55 221 92 221q8 0 13.5 -15t1.5 -24q0 -6 -2.5 -7t-4.5 0t-6 -3t-8 -14q-12 -12 -53 -158q12 0 61 -1t121 -1h33.5h30 t23.5 1t18.5 1t14.5 -1t11 -1t7 -1t5.5 -3t2.5 -4q2 -10 -32 -12t-118 -2h-184q-16 -59 -31 -136q-31 -184 -45 -296q-29 -197 -14 -304q2 -16 6 -34q4 -10 2 -14.5t-10 -4.5zM274 985q-4 0 -6 5t2 9q18 37 20.5 51.5t0.5 22.5t-5 12.5t-3 6.5q14 23 24 4q12 -27 4 -60 q-6 -23 -15.5 -38t-21.5 -13z" glyph-name="tcaron" horiz-adv-x="374" unicode="ť"/><glyph d="M397 1133l-10 -50q82 4 336 15q102 4 199.5 6t130 3t43.5 5q18 4 20 -2q0 -4 -6 -10q-23 -23 -45 -23q-193 0 -348 -6q-276 -14 -336 -18q-29 -131 -51 -297h16q16 0 16 -12.5t-14 -12.5h-20l-4 -22q-14 -111 -93 -605q-2 -45 -22 -61q-6 0 -8 8q0 61 92 654l4 28 q-41 0 -41 10.5t27 10.5h16q31 190 55 299q-137 -10 -202 -21q-266 -43 -273 -84q-2 -14 -11 -15t-13 11q-4 14 4 24.5t56 30t144 41.5q119 27 301 41q23 90 48 115q16 14 24 0q4 -8 -4 -12q-21 -12 -31 -51z" glyph-name="Tbar" horiz-adv-x="563" unicode="Ŧ"/><glyph d="M23 92q-4 -2 -8.5 3t-7.5 16.5t-5 28t-3 39t-1 48.5q6 262 57 531l8 47q-39 4 -38 10q0 10 26 10h19q4 33 12 56q-184 0 -224 2t-44 16q0 4 8 10t18 8.5t17 0.5q20 -10 55 -11l176 -2q55 221 92 221q8 0 13.5 -15t1.5 -24q0 -6 -2.5 -7t-4.5 0t-6 -3t-8 -14 q-12 -12 -53 -158q12 0 61 -1t121 -1h33.5h30t23.5 1t18.5 1t14.5 -1t11 -1t7 -1t5.5 -3t2.5 -4q2 -10 -32 -12t-118 -2h-184l-15 -54h15q16 0 16 -12q0 -10 -12 -10h-23l-12 -60q-31 -184 -45 -296q-29 -197 -14 -304q2 -16 6 -34q4 -10 2 -14.5t-10 -4.5z" glyph-name="tbar" horiz-adv-x="206" unicode="ŧ"/><glyph d="M303 1047q-39 -39 -100.5 -172.5t-100.5 -266.5q-35 -127 -48 -243.5t0.5 -185t45.5 -68.5q145 0 512 772l6 12q2 8 5.5 21.5t6.5 24.5t7 22q55 197 68.5 231.5t33.5 34.5q29 0 -14 -125q-27 -76 -82 -213l-4 -23q-68 -287 -89.5 -496.5t-8 -306t50.5 -124.5 q27 -20 12 -31q-10 -8 -35 12q-33 29 -52 105.5t-9 264t70 441.5q-117 -250 -258.5 -449.5t-219.5 -199.5q-27 0 -45 19.5t-29.5 60.5t-11.5 102.5t13.5 150.5t42.5 197q94 358 211 447q23 16 28 2q2 -8 -6 -16zM418 1204q-8 0 -8 17q0 10 27.5 23t49.5 13q37 0 35 -36 q0 -18 10 -19q12 0 52.5 18.5t42.5 18.5q12 0 12 -8t-45 -28.5t-66 -20.5q-25 0 -26 32q-2 18 -14.5 18.5t-39 -14t-30.5 -14.5z" glyph-name="Utilde" horiz-adv-x="729" unicode="Ũ"/><glyph d="M162 389q14 72 45 125l-45 -51q-98 -98 -135 -98q-27 0 -25 43q2 27 29 86q27 66 51 69q14 2 14 -14q0 -4 -8 -13.5t-20.5 -24.5t-18.5 -30q-18 -35 -24.5 -63.5t8.5 -28.5q12 0 51 31t61 55q8 8 19.5 20.5t17.5 19.5t14.5 16.5t13.5 14.5t11 9t10.5 5t8.5 1 q12 -4 -2 -37q-4 -8 -7 -12q-37 -84 -47 -125q-14 -59 17 -59q41 0 120.5 43t182 110.5t133.5 83.5q14 4 18 -4q2 -2 -6 -8q-18 -12 -77.5 -52t-102.5 -67.5t-98.5 -61.5t-99.5 -51.5t-72 -17.5q-60 0 -37 86zM104 635q-8 0 -8 16q0 10 28 23.5t50 13.5q39 0 35 -37 q0 -18 10 -18q12 0 52 18.5t42 18.5q12 0 12.5 -8.5t-44.5 -29t-66 -20.5q-25 0 -27 33q-4 18 -14 19q-12 0 -39 -14.5t-31 -14.5z" glyph-name="utilde" horiz-adv-x="563" unicode="ũ"/><glyph d="M303 1047q-39 -39 -100.5 -172.5t-100.5 -266.5q-35 -127 -48 -243.5t0.5 -185t45.5 -68.5q145 0 512 772l6 12q2 8 5.5 21.5t6.5 24.5t7 22q55 197 68.5 231.5t33.5 34.5q29 0 -14 -125q-27 -76 -82 -213l-4 -23q-68 -287 -89.5 -496.5t-8 -306t50.5 -124.5 q27 -20 12 -31q-10 -8 -35 12q-33 29 -52 105.5t-9 264t70 441.5q-117 -250 -258.5 -449.5t-219.5 -199.5q-27 0 -45 19.5t-29.5 60.5t-11.5 102.5t13.5 150.5t42.5 197q94 358 211 447q23 16 28 2q2 -8 -6 -16zM557 1202q-94 0 -94 10q0 12 26 13h64q16 0 16 -13 q0 -10 -12 -10z" glyph-name="Umacron" horiz-adv-x="729" unicode="Ū"/><glyph d="M162 389q14 72 45 125l-45 -51q-98 -98 -135 -98q-27 0 -25 43q2 27 29 86q27 66 51 69q14 2 14 -14q0 -4 -8 -13.5t-20.5 -24.5t-18.5 -30q-18 -35 -24.5 -63.5t8.5 -28.5q12 0 51 31t61 55q8 8 19.5 20.5t17.5 19.5t14.5 16.5t13.5 14.5t11 9t10.5 5t8.5 1 q12 -4 -2 -37q-4 -8 -7 -12q-37 -84 -47 -125q-14 -59 17 -59q41 0 120.5 43t182 110.5t133.5 83.5q14 4 18 -4q2 -2 -6 -8q-18 -12 -77.5 -52t-102.5 -67.5t-98.5 -61.5t-99.5 -51.5t-72 -17.5q-60 0 -37 86zM223 616q-94 0 -94 11q0 12 27 12h63q16 0 17 -12 q-1 -11 -13 -11z" glyph-name="umacron" horiz-adv-x="563" unicode="ū"/><glyph d="M303 1047q-39 -39 -100.5 -172.5t-100.5 -266.5q-35 -127 -48 -243.5t0.5 -185t45.5 -68.5q145 0 512 772l6 12q2 8 5.5 21.5t6.5 24.5t7 22q55 197 68.5 231.5t33.5 34.5q29 0 -14 -125q-27 -76 -82 -213l-4 -23q-68 -287 -89.5 -496.5t-8 -306t50.5 -124.5 q27 -20 12 -31q-10 -8 -35 12q-33 29 -52 105.5t-9 264t70 441.5q-117 -250 -258.5 -449.5t-219.5 -199.5q-27 0 -45 19.5t-29.5 60.5t-11.5 102.5t13.5 150.5t42.5 197q94 358 211 447q23 16 28 2q2 -8 -6 -16zM528 1169q-70 0 -69 64q0 16 7 27.5t15 11.5q10 0 11 -12 q0 -4 -5.5 -17.5t-5.5 -19.5q0 -27 41 -27q51 0 82 49q12 18 23 6q6 -4 0 -12q-44 -70 -99 -70z" glyph-name="Ubreve" horiz-adv-x="729" unicode="Ŭ"/><glyph d="M162 389q14 72 45 125l-45 -51q-98 -98 -135 -98q-27 0 -25 43q2 27 29 86q27 66 51 69q14 2 14 -14q0 -4 -8 -13.5t-20.5 -24.5t-18.5 -30q-18 -35 -24.5 -63.5t8.5 -28.5q12 0 51 31t61 55q8 8 19.5 20.5t17.5 19.5t14.5 16.5t13.5 14.5t11 9t10.5 5t8.5 1 q12 -4 -2 -37q-4 -8 -7 -12q-37 -84 -47 -125q-14 -59 17 -59q41 0 120.5 43t182 110.5t133.5 83.5q14 4 18 -4q2 -2 -6 -8q-18 -12 -77.5 -52t-102.5 -67.5t-98.5 -61.5t-99.5 -51.5t-72 -17.5q-60 0 -37 86zM188 614q-70 0 -69 64q0 16 7 27.5t15 11.5q10 0 11 -12 q0 -4 -5.5 -17.5t-5.5 -19.5q0 -27 41 -27q51 0 82 49q12 18 23 6q6 -4 0 -12q-44 -70 -99 -70z" glyph-name="ubreve" horiz-adv-x="563" unicode="ŭ"/><glyph d="M303 1047q-39 -39 -100.5 -172.5t-100.5 -266.5q-35 -127 -48 -243.5t0.5 -185t45.5 -68.5q145 0 512 772l6 12q2 8 5.5 21.5t6.5 24.5t7 22q55 197 68.5 231.5t33.5 34.5q29 0 -14 -125q-27 -76 -82 -213l-4 -23q-68 -287 -89.5 -496.5t-8 -306t50.5 -124.5 q27 -20 12 -31q-10 -8 -35 12q-33 29 -52 105.5t-9 264t70 441.5q-117 -250 -258.5 -449.5t-219.5 -199.5q-27 0 -45 19.5t-29.5 60.5t-11.5 102.5t13.5 150.5t42.5 197q94 358 211 447q23 16 28 2q2 -8 -6 -16zM553 1274q18 0 28.5 -13.5t10.5 -29.5q0 -18 -15.5 -35.5 t-44.5 -17.5q-16 0 -27 14t-7 35q2 18 19.5 32.5t35.5 14.5zM535 1202q31 0 34 29q4 20 -18 20q-31 0 -35 -24.5t19 -24.5z" glyph-name="Uring" horiz-adv-x="729" unicode="Ů"/><glyph d="M162 389q14 72 45 125l-45 -51q-98 -98 -135 -98q-27 0 -25 43q2 27 29 86q27 66 51 69q14 2 14 -14q0 -4 -8 -13.5t-20.5 -24.5t-18.5 -30q-18 -35 -24.5 -63.5t8.5 -28.5q12 0 51 31t61 55q8 8 19.5 20.5t17.5 19.5t14.5 16.5t13.5 14.5t11 9t10.5 5t8.5 1 q12 -4 -2 -37q-4 -8 -7 -12q-37 -84 -47 -125q-14 -59 17 -59q41 0 120.5 43t182 110.5t133.5 83.5q14 4 18 -4q2 -2 -6 -8q-18 -12 -77.5 -52t-102.5 -67.5t-98.5 -61.5t-99.5 -51.5t-72 -17.5q-60 0 -37 86zM202.5 707q18.5 0 29 -13.5t10.5 -29.5q0 -18 -15.5 -36 t-44.5 -18q-16 0 -27.5 14.5t-7.5 34.5q2 18 19.5 33t36 15zM184 635q31 0 35 29q4 20 -18 20q-31 0 -35.5 -24.5t18.5 -24.5z" glyph-name="uring" horiz-adv-x="563" unicode="ů"/><glyph d="M303 1047q-39 -39 -100.5 -172.5t-100.5 -266.5q-35 -127 -48 -243.5t0.5 -185t45.5 -68.5q145 0 512 772l6 12q2 8 5.5 21.5t6.5 24.5t7 22q55 197 68.5 231.5t33.5 34.5q29 0 -14 -125q-27 -76 -82 -213l-4 -23q-68 -287 -89.5 -496.5t-8 -306t50.5 -124.5 q27 -20 12 -31q-10 -8 -35 12q-33 29 -52 105.5t-9 264t70 441.5q-117 -250 -258.5 -449.5t-219.5 -199.5q-27 0 -45 19.5t-29.5 60.5t-11.5 102.5t13.5 150.5t42.5 197q94 358 211 447q23 16 28 2q2 -8 -6 -16zM516 1282q10 4 14.5 -6t-10.5 -25q-4 -2 -15 -14t-22.5 -24.5 t-21.5 -22.5l-10 -10q-4 -2 -9 6q0 6 56 80q16 16 18 16zM588 1282q10 4 14 -6t-12 -25q-2 -2 -22.5 -23.5t-38 -40t-19.5 -18.5q-6 0 -6 7q-2 2 65 90q17 16 19 16z" glyph-name="Uhungarumlaut" horiz-adv-x="729" unicode="Ű"/><glyph d="M162 389q14 72 45 125l-45 -51q-98 -98 -135 -98q-27 0 -25 43q2 27 29 86q27 66 51 69q14 2 14 -14q0 -4 -8 -13.5t-20.5 -24.5t-18.5 -30q-18 -35 -24.5 -63.5t8.5 -28.5q12 0 51 31t61 55q8 8 19.5 20.5t17.5 19.5t14.5 16.5t13.5 14.5t11 9t10.5 5t8.5 1 q12 -4 -2 -37q-4 -8 -7 -12q-37 -84 -47 -125q-14 -59 17 -59q41 0 120.5 43t182 110.5t133.5 83.5q14 4 18 -4q2 -2 -6 -8q-18 -12 -77.5 -52t-102.5 -67.5t-98.5 -61.5t-99.5 -51.5t-72 -17.5q-60 0 -37 86zM186 705q10 4 14.5 -6.5t-10.5 -24.5q-4 -2 -15 -14.5 t-22.5 -24.5t-21.5 -23l-10 -10q-4 -2 -8 6q0 6 55 80q16 17 18 17zM258 705q10 4 14 -6.5t-12 -24.5q-2 -2 -22.5 -23.5t-38 -40t-19.5 -18.5q-6 0 -6 6q-2 2 66 90q16 17 18 17z" glyph-name="uhungarumlaut" horiz-adv-x="563" unicode="ű"/><glyph d="M553 -211q14 12 20 4q4 -6 -6 -14q-45 -41 -84 -4q-33 33 -18 78q6 18 17.5 35.5t20.5 25.5t24.5 20.5t19.5 16.5q-109 195 31 782q-117 -250 -258.5 -449.5t-219.5 -199.5q-27 0 -45 19.5t-29.5 60.5t-11.5 102.5t13.5 150.5t42.5 197q94 358 211 447q23 16 28 2 q2 -8 -6 -16q-39 -39 -100.5 -172.5t-100.5 -266.5q-35 -127 -48 -243.5t0.5 -185t45.5 -68.5q145 0 512 772l6 12q2 8 5.5 21.5t6.5 24.5t7 22q55 197 68.5 231.5t33.5 34.5q29 0 -14 -125q-27 -76 -82 -213l-4 -23q-68 -287 -89.5 -496.5t-8 -306t50.5 -124.5 q27 -20 12 -31q-10 -8 -35 12l-10 10q-55 -55 -63 -102q-6 -33 14 -45t43 4z" glyph-name="Uogonek" horiz-adv-x="729" unicode="Ų"/><glyph d="M195 154q18 12 22 2q2 -6 -6 -15q-45 -39 -86 -2q-35 31 -16 78q16 49 71 90q-37 12 -18 82q14 72 45 125l-45 -51q-98 -98 -135 -98q-27 0 -25 43q2 27 29 86q27 66 51 69q14 2 14 -14q0 -4 -8 -13.5t-20.5 -24.5t-18.5 -30q-18 -35 -24.5 -63.5t8.5 -28.5q12 0 51 31 t61 55q8 8 19.5 20.5t17.5 19.5t14.5 16.5t13.5 14.5t11 9t10.5 5t8.5 1q12 -4 -2 -37q-4 -8 -7 -12q-37 -84 -47 -125q-14 -59 17 -59q41 0 120.5 43t182 110.5t133.5 83.5q14 4 18 -4q2 -2 -6 -8q-16 -10 -73.5 -50t-98.5 -65.5t-95 -58.5t-98 -51.5t-75 -22.5l-4 -4 q-57 -61 -66 -106q-6 -35 15 -47t41 6z" glyph-name="uogonek" horiz-adv-x="563" unicode="ų"/><glyph d="M74 412q0 -111 43 -111q16 0 33.5 26.5t52.5 98.5t51 102q14 25 31.5 57.5t27 50t19.5 35t18 24.5t15 7q45 0 38 -88q-4 -66 -36.5 -208t-36.5 -201q-12 -168 47 -168q39 0 123 87t159 241q82 164 136.5 371.5t54.5 334.5q0 195 -33 193h-6q-14 -4 -12 4q0 14 20 18h6 q49 -4 49 -213q0 -356 -192 -737q-76 -150 -156 -236t-143 -86q-57 0 -75.5 57.5t-8.5 131.5q8 72 42 217t36 194q2 61 -8 62q-16 0 -101 -168q-6 -10 -23.5 -47t-29.5 -62.5t-29.5 -56.5t-34 -47t-28.5 -16q-74 0 -74 133q0 184 109 430q92 203 182 282q12 10 12 2 q-2 -27 -71 -122q-47 -66 -107 -203q-100 -225 -100 -389zM506 1155q-2 -2 -6 2t-4 8q-2 4 15 19.5t34 25.5q33 23 49 23q18 4 24 -16l17 -66q0 -8 -10 -12q-10 0 -15 22q-14 43 -16 43q-8 0 -55 -30q-25 -19 -33 -19z" glyph-name="Wcircumflex" horiz-adv-x="899" unicode="Ŵ"/><glyph d="M139 645q-76 -139 -80 -209q0 -35 15 -35q16 0 82 66q57 51 75 51q27 0 27 -22q0 -6 -2 -28t-2 -26q-2 -18 6 -18q23 0 53 43q20 23 27 43q8 20 14 20q4 2 19.5 -4t44.5 -4q74 2 174 39q10 2 13 -3t-7 -9q-66 -35 -160 -45q-29 -2 -45 0t-22 4h-6l-5 -8q-4 -8 -11 -20.5 t-15 -24.5q-35 -51 -74 -52q-29 0 -29 31q0 10 3.5 30.5t3.5 27.5q0 10 -7 10q-2 0 -61 -58q-70 -66 -92 -67q-20 -4 -30.5 10t-10.5 33q0 59 53 174q29 61 41 61q16 0 8 -10zM213 618q-4 -2 -7 2.5t-3 8.5q-2 4 15.5 19.5t33.5 25.5q35 23 49 22q18 4 25 -16l16 -66 q0 -8 -10 -12q-10 0 -15 23q-14 43 -16 43q-10 0 -55 -31q-25 -19 -33 -19z" glyph-name="wcircumflex" horiz-adv-x="509" unicode="ŵ"/><glyph d="M707 207q-135 -10 -170 -17q-74 -164 -148 -292.5t-168 -226t-174 -97.5q-74 0 -110.5 43t-32.5 121q4 76 64.5 165t168.5 156q193 125 381 154q76 162 113 272q51 160 95 337t48 227q2 47 -14 47q-14 0 -39 -40t-119 -206q-66 -115 -108 -191q-53 -90 -104.5 -183 t-77 -140t-50 -88t-41 -55.5t-35.5 -14.5q-55 0 -86.5 57.5t-31.5 159.5q0 106 77 318q12 33 28.5 69.5t34 70.5t21.5 44q8 23 19 23q12 0 0 -27q-66 -154 -84 -197q-68 -188 -68 -295q0 -90 23.5 -149t56.5 -59q14 0 33.5 20t46.5 67.5t53.5 97.5t71.5 134t84 154 q207 365 252 417q27 33 41 33q41 0 37 -72q-12 -203 -140 -563q-49 -135 -106 -264q49 6 92 6q94 0 102.5 -4t-8.5 -8q-10 -2 -28 -4zM45 -397q94 0 220 170t241 411q-188 -35 -361 -145q-94 -59 -151 -144t-62 -157q-8 -135 113 -135zM428 1053q-2 -2 -6 2t-4 8 q-2 4 15.5 19.5t33.5 25.5q33 23 49 22q18 4 25 -16l16 -65q0 -8 -10 -13q-10 0 -15 23q-14 43 -16 43q-8 0 -55 -31q-25 -18 -33 -18z" glyph-name="Ycircumflex" horiz-adv-x="782" unicode="Ŷ"/><glyph d="M270 537q-23 0 -92 -76q-82 -90 -115 -90q-12 0 -20 12t-4 33l29 96q4 10 5 20.5t2 14.5t3 8t6 4q16 2 16 -12q0 -6 -14 -47q-20 -61 -23 -72q-8 -29 5 -29q29 0 96 74q8 10 20.5 23.5t18.5 20.5t15 16.5t13.5 13.5t11.5 9t11 7t9 4t11 2q35 0 39 -90q154 88 211 88 q18 0 17 -12q0 -8 -11 -8q-23 0 -86 -26.5t-131 -69.5q-2 -84 -30.5 -198t-69.5 -187q-96 -168 -197 -168q-29 0 -53 21.5t-24 64.5q0 156 215 372q57 59 137 107q-5 74 -21 74zM190 82q41 72 69 178.5t32 175.5q-63 -41 -121 -96q-102 -104 -154.5 -202.5t-52.5 -157.5 q0 -57 43 -58q37 0 88 41t96 119zM121 618q-2 -2 -6 2.5t-4 8.5q-2 4 15 19.5t34 25.5q33 23 49 22q18 4 24 -16l17 -66q0 -8 -10 -12q-10 0 -15 23q-14 43 -16 43q-8 0 -55 -31q-25 -19 -33 -19z" glyph-name="ycircumflex" horiz-adv-x="516" unicode="ŷ"/><glyph d="M707 207q-135 -10 -170 -17q-74 -164 -148 -292.5t-168 -226t-174 -97.5q-74 0 -110.5 43t-32.5 121q4 76 64.5 165t168.5 156q193 125 381 154q76 162 113 272q51 160 95 337t48 227q2 47 -14 47q-14 0 -39 -40t-119 -206q-66 -115 -108 -191q-53 -90 -104.5 -183 t-77 -140t-50 -88t-41 -55.5t-35.5 -14.5q-55 0 -86.5 57.5t-31.5 159.5q0 106 77 318q12 33 28.5 69.5t34 70.5t21.5 44q8 23 19 23q12 0 0 -27q-66 -154 -84 -197q-68 -188 -68 -295q0 -90 23.5 -149t56.5 -59q14 0 33.5 20t46.5 67.5t53.5 97.5t71.5 134t84 154 q207 365 252 417q27 33 41 33q41 0 37 -72q-12 -203 -140 -563q-49 -135 -106 -264q49 6 92 6q94 0 102.5 -4t-8.5 -8q-10 -2 -28 -4zM45 -397q94 0 220 170t241 411q-188 -35 -361 -145q-94 -59 -151 -144t-62 -157q-8 -135 113 -135zM444 1077q-4 2 -7 14.5t-1 18.5 t8.5 13t10.5 5q20 -4 16 -26q-2 -8 -11.5 -16.5t-15.5 -8.5zM506 1079q-8 0 -8 21q0 4 9 14t15 10q2 0 7.5 -5t5.5 -11q0 -8 -11.5 -18.5t-17.5 -10.5z" glyph-name="Ydieresis" horiz-adv-x="782" unicode="Ÿ"/><glyph d="M797 952q61 -4 -6 -82q-33 -39 -414 -358q-350 -297 -352 -299q188 37 446 25q510 -27 664 -156q20 -18 13 -25.5t-26 9.5q-57 51 -252.5 93t-398.5 50q-246 10 -451 -29q-25 -4 -30.5 15.5t18.5 40.5q16 12 47 40.5t112 97t198 163.5q330 266 403 344q43 47 20 51 q-176 16 -411 -10q-336 -37 -334 -138q0 -25 23 -49q14 -14 0 -22q-12 -4 -27 6q-10 23 -25.5 63.5t76.5 92t283 71.5q215 22 424 6zM555 1102q12 0 12 -12q0 -10 -18 -19q-6 -2 -26.5 -15.5t-39.5 -25.5l-18 -12q-6 0 -6 8q0 2 33.5 29.5t42.5 34.5q16 12 20 12z" glyph-name="Zacute" horiz-adv-x="770" unicode="Ź"/><glyph d="M80 549q-20 12 -4 24q12 10 20 -2q12 -20 123 4q45 10 41 -16q-2 -39 -92 -90q-66 -37 -102 -61q72 0 153.5 -15.5t118.5 -32.5q31 -14 14 -18q-6 -2 -18 2q-98 31 -275 41q-31 4 -34 10q-2 6 5 13.5t33.5 25t81.5 49.5q98 57 93 72q-2 8 -19 2q-94 -31 -139 -8zM227 694 q12 0 13 -12q0 -10 -19 -18q-6 -2 -26.5 -15.5t-38.5 -25.5l-19 -13q-6 0 -6 8q0 2 34 30t42 34q16 12 20 12z" glyph-name="zacute" horiz-adv-x="331" unicode="ź"/><glyph d="M797 952q61 -4 -6 -82q-33 -39 -414 -358q-350 -297 -352 -299q188 37 446 25q510 -27 664 -156q20 -18 13 -25.5t-26 9.5q-57 51 -252.5 93t-398.5 50q-246 10 -451 -29q-25 -4 -30.5 15.5t18.5 40.5q16 12 47 40.5t112 97t198 163.5q330 266 403 344q43 47 20 51 q-176 16 -411 -10q-336 -37 -334 -138q0 -25 23 -49q14 -14 0 -22q-12 -4 -27 6q-10 23 -25.5 63.5t76.5 92t283 71.5q215 22 424 6zM502 1016q-4 2 -7 14t-1 18.5t8 13.5t10 5q20 -4 16 -27q-2 -8 -11 -16t-15 -8z" glyph-name="Zdotaccent" horiz-adv-x="770" unicode="Ż"/><glyph d="M80 549q-20 12 -4 24q12 10 20 -2q12 -20 123 4q45 10 41 -16q-2 -39 -92 -90q-66 -37 -102 -61q72 0 153.5 -15.5t118.5 -32.5q31 -14 14 -18q-6 -2 -18 2q-98 31 -275 41q-31 4 -34 10q-2 6 5 13.5t33.5 25t81.5 49.5q98 57 93 72q-2 8 -19 2q-94 -31 -139 -8zM186 643 q-4 2 -7 14.5t-1 18.5t8.5 13t10.5 5q20 -4 16 -26q-2 -8 -11.5 -16.5t-15.5 -8.5z" glyph-name="zdotaccent" horiz-adv-x="331" unicode="ż"/><glyph d="M797 952q61 -4 -6 -82q-33 -39 -414 -358q-350 -297 -352 -299q188 37 446 25q510 -27 664 -156q20 -18 13 -25.5t-26 9.5q-57 51 -252.5 93t-398.5 50q-246 10 -451 -29q-25 -4 -30.5 15.5t18.5 40.5q16 12 47 40.5t112 97t198 163.5q330 266 403 344q43 47 20 51 q-176 16 -411 -10q-336 -37 -334 -138q0 -25 23 -49q14 -14 0 -22q-12 -4 -27 6q-10 23 -25.5 63.5t76.5 92t283 71.5q215 22 424 6zM459 1032q-6 0 -23 29q-2 6 -8 18t-6 15q0 10 8 10q12 0 14 -12l17 -33q4 0 61.5 28.5t63.5 32.5q8 2 16 -6q6 -8 2 -12t-22 -17 q-115 -53 -123 -53z" glyph-name="Zcaron" horiz-adv-x="770" unicode="Ž"/><glyph d="M80 549q-20 12 -4 24q12 10 20 -2q12 -20 123 4q45 10 41 -16q-2 -39 -92 -90q-66 -37 -102 -61q72 0 153.5 -15.5t118.5 -32.5q31 -14 14 -18q-6 -2 -18 2q-98 31 -275 41q-31 4 -34 10q-2 6 5 13.5t33.5 25t81.5 49.5q98 57 93 72q-2 8 -19 2q-94 -31 -139 -8zM170 612 q-6 0 -23 29q-2 6 -8 18t-6 15q0 10 8 10q10 0 15 -12l16 -33q4 0 61.5 28.5t63.5 32.5q8 2 16 -6q6 -8 2 -12t-22 -16q-115 -54 -123 -54z" glyph-name="zcaron" horiz-adv-x="331" unicode="ž"/><glyph d="M453 545q-4 -6 -47 -10q-123 -25 -244 -70q-61 -23 -115 -47q-12 -72 -18 -133q111 -86 110 -205q0 -72 -45 -161t-86 -89q-57 0 -14 422q2 10 2 27l-25 12q-18 8 -46.5 19.5t-37 16.5t-8.5 11q0 27 133 88q4 31 11.5 75t19.5 117.5t23 137.5q66 377 122 399 q27 10 37 -25q4 -8 1 -12t-4 -4h-9q-49 -4 -107 -356l-55 -314l70 31q59 27 136 49.5t125 32.5t58 10q25 -2 13 -22zM119 86q0 106 -92 174l-4 -35q-14 -170 -15.5 -264t10.5 -100q12 0 35 29.5t44.5 85t21.5 110.5zM-2 305l10 96q-90 -49 -90 -55q0 -2 9.5 -6t31 -13.5 t39.5 -21.5z" glyph-name="florin" horiz-adv-x="358" unicode="ƒ"/><glyph d="M793 106q92 6 319 74q98 31 125 53q10 10 29 -4q8 -8 2 -14q-35 -31 -162 -68q-197 -59 -279 -61q-45 -2 -55 2q8 -57 4 -84q0 -12 -13 -25.5t-20 -11.5h-7t-6 2t-1 8q4 16 14 136q0 2 -1 4t-1 4q-2 4 -2 16v6q-2 4 -2 9q-10 63 -79.5 132.5t-161.5 110.5q-45 18 -166 72 q-203 -338 -322 -610q-16 -37 -28 -23q-8 6 -3 21q111 260 326 624l-53 25q-33 16 -12 45q29 35 129 37l34 55q106 178 227.5 315.5t192 190.5t92.5 51q57 -6 45 -61l-38 -166l77 18l52 123q29 61 43 70q6 8 16 2q6 -2 -2 -10q-16 -23 -21 -46q0 -6 -4 -15t-19 -41t-32 -77 l92 13q215 27 342 18q14 0 17 -4q2 -6 -11 -10q-6 -4 -12 -4h-50t-74 -1t-91 -6.5t-115 -15.5q-51 -8 -110 -22l-2 -9q-2 -6 -127 -362h221q41 -4 74 -23q4 -2 14 -8q33 -14 12 -14q-18 0 -77 8q-76 10 -254 6l-39 -119q-45 -143 -62 -215l-8 -104v-2q-2 -2 -2 -4 q7 -11 25 -11zM403 586q20 0 410 6q33 172 74 336q-80 -27 -92 -33q-12 -4 -18.5 0t-4.5 13.5t12 15.5q27 18 111 41l43 172q4 39 -18 43q-12 2 -95.5 -78t-201 -216t-195.5 -259zM504 414q195 -94 244 -211q4 33 10 55q10 100 49 303q-90 -2 -240.5 -5t-183.5 -3l-39 -64z M911 934q-25 -102 -73 -342h14q55 158 133 362q-47 -10 -74 -20zM268 524l49 -22l29 49q-86 -6 -82 -23q0 -2 4 -4zM842 561h-11l-16 -80zM1126 1343q12 0 13 -12q0 -10 -19 -18q-6 -2 -26.5 -15.5t-38.5 -25.5l-19 -12q-6 0 -6 8q0 2 34 29.5t42 33.5q16 12 20 12z" glyph-name="AEacute" horiz-adv-x="1335" unicode="Ǽ"/><glyph d="M152 500l4 10l-4 -2q-4 -4 -14.5 -11.5t-22.5 -15.5q-57 -43 -82 -47q-12 -2 -21.5 4t-9.5 13q-8 39 49 96q45 41 82 45q25 4 37 -25q6 -12 0 -14q-6 0 -15.5 10t-15.5 10q-25 -4 -67 -41q-20 -16 -34.5 -39.5t-14.5 -31.5q0 -4 6 -4q12 0 61 32l94 60q35 33 66 24 q37 -2 22 -51q-23 -53 -104 -80q6 -25 43 -24q43 4 356 141q12 6 15.5 -1t-4.5 -11q-63 -29 -153.5 -72t-133.5 -60.5t-74 -19.5q-47 -4 -66 30t1 75zM174 492q-10 -20 -10 -35q29 10 55.5 31.5t34.5 41.5q4 23 -6 25q-14 4 -37 -12t-37 -51zM317 709q12 0 13 -13 q0 -10 -19 -18q-6 -2 -26.5 -15.5t-38.5 -25.5l-19 -12q-6 0 -6 8q0 2 34 29.5t42 33.5q16 13 20 13z" glyph-name="aeacute" horiz-adv-x="571" unicode="ǽ"/><glyph d="M-84 -51q-14 0 25 57l34 57q-12 43 -12 99q0 174 121 368q-27 51 -27 121q0 193 127 362t252 169q100 0 127 -154q82 133 86 133q10 0 10 -6q0 -2 -90 -158q6 -43 6 -98q0 -199 -55 -405q31 12 72 38q27 18 28 8t-20 -24q-57 -37 -88 -51q-23 -84 -80 -215 q-49 -113 -133 -210t-174 -97q-98 0 -141 98q-31 -49 -37 -57q-29 -35 -31 -35zM119 528q33 -55 94 -75l330 540q-16 164 -107 164q-113 0 -230.5 -170t-117.5 -334q0 -47 14 -94q68 100 154 166q29 23 33 8q2 -6 -10 -18q-101 -97 -160 -187zM406 266q39 84 65 183 q-98 -41 -207 -31l-39 6l-88 -141l-135 -213q31 -102 115 -103q86 0 162 91t127 208zM262 442q100 -10 219 33q63 227 64 436v45q-29 -49 -94.5 -158.5t-118.5 -198.5t-94 -155q4 0 12 -1t12 -1zM-8 160q0 -33 6 -60l119 195l82 135q-57 18 -99 74q-108 -172 -108 -344z M553 1317q12 0 12 -12q0 -10 -18 -19q-6 -2 -26.5 -15.5t-39.5 -25.5l-18 -12q-6 0 -6 8q0 2 33.5 29.5t41.5 34.5q17 12 21 12z" glyph-name="Oslashacute" horiz-adv-x="659" unicode="Ǿ"/><glyph d="M-47 268q-8 0 16 43q-18 63 25 150q12 25 33 53q-12 12 -17 21q-16 35 8.5 68.5t65.5 33.5q51 0 74 -55q49 63 55 63q10 0 10 -6q0 -8 -59 -80q6 -25 6 -49v-4h16q111 10 228 53q8 4 10 -8q0 -4 -2 -4q-137 -53 -240 -62q-4 -2 -12 -2q-8 -84 -59.5 -148.5t-96.5 -64.5 q-25 0 -37 23q-20 -25 -24 -25zM10 291q43 0 84 56t49 136q-23 0 -34 2q-20 -31 -63.5 -94t-53.5 -78q6 -22 18 -22zM92 555l-4 -4q-4 -4 -11 -13.5t-14 -17.5q12 -6 39 -10l25 31l12 18q-12 57 -59 57q-27 0 -43.5 -21.5t-3.5 -47.5q2 -6 10 -15q27 31 39 31q10 0 10 -8z M18 455q-31 -61 -30 -115q51 80 100 147q-39 10 -41 13q-25 -37 -29 -45zM125 506h20v12q0 10 -2 12l-2 -2zM213 737q12 0 12 -12q0 -10 -18 -18q-6 -2 -26.5 -15.5t-39.5 -25.5l-18 -13q-6 0 -6 9q0 2 33.5 29.5t42.5 33.5q16 12 20 12z" glyph-name="oslashacute" horiz-adv-x="339" unicode="ǿ"/><glyph d="M98 -117q-2 2 4.5 9.5t18.5 21.5t18 31q6 12 6 24.5t-2 19.5t0 7q14 8 25 -4q14 -25 -16 -72q-8 -12 -20.5 -21.5t-22 -13.5t-11.5 -2zM612 903q53 16 64 64q16 76 -70 90q-49 8 -136 -10.5t-173 -57.5q-207 -98 -231 -209q-14 -63 18.5 -120.5t126.5 -143.5l92 -90 q88 35 236.5 81t183.5 52q18 4 25 -2q6 -4 -7 -8q-6 -2 -14 -4q-37 -8 -178 -52t-232 -83q72 -76 97.5 -130.5t17.5 -111.5q-10 -72 -87 -112t-175 -29q-88 8 -132 51t-36 96q20 109 248 227q4 2 29 13l-86 86q-104 98 -140.5 158.5t-21.5 125.5q16 68 74.5 123.5 t175.5 106.5q195 86 331 65q106 -18 86 -118q-8 -33 -34.5 -54.5t-45.5 -23.5q-10 -2 -13 7t7 13zM403 174q8 47 -15 96t-95 129l-27 -16q-221 -119 -237 -209q-8 -45 30.5 -80t110.5 -39q90 -6 156.5 30t76.5 89z" glyph-name="Scommaaccent" unicode="Ș"/><glyph d="M135 719q-70 -45 -57 -92q4 -12 20.5 -55.5t24.5 -69.5q80 63 141 90q8 4 23 4q6 -4 2 -7t-10 -5q-55 -23 -148 -105q27 -92 27 -160q0 -90 -60.5 -149t-120.5 -59q-68 0 -71 69q-6 104 129 240q27 27 67 63q-6 16 -16 44t-17.5 48.5t-11.5 36.5q-12 47 10.5 84t53.5 41 q23 2 22 -8q0 -6 -8 -10zM135 334q0 53 -24 127l-54 -53q-125 -127 -125 -228q0 -49 33 -49q61 0 115.5 60.5t54.5 142.5zM-98 -39q-2 2 4 9t18.5 21.5t18.5 31.5q6 12 6 24t-2 19.5t0 7.5q14 8 24 -4q14 -25 -16 -72q-8 -12 -20.5 -21.5t-21.5 -13.5t-11 -2z" glyph-name="scommaaccent" horiz-adv-x="301" unicode="ș"/><glyph d="M12 623q-4 -2 -7 2t-3 8q-2 4 15.5 19.5t33.5 25.5q33 23 49 22q18 4 25 -16l16 -66q0 -8 -10 -12q-10 0 -14 23q-14 43 -17 43q-10 0 -55 -31q-25 -18 -33 -18z" glyph-name="circumflex" horiz-adv-x="129" unicode="ˆ"/><glyph d="M37 606q-6 0 -23 29q-2 6 -8 18t-6 15q0 10 8 10q12 0 15 -12l16 -33q4 0 61.5 28.5t63.5 32.5q8 2 16 -6q6 -8 2 -12t-22 -17q-115 -53 -123 -53z" glyph-name="caron" horiz-adv-x="172" unicode="ˇ"/><glyph d="M70 614q-70 0 -70 64q0 16 7 27.5t16 11.5q10 0 10 -12q0 -4 -5 -17.5t-5 -19.5q0 -27 40 -27q51 0 82 49q12 18 23 6q6 -4 0 -12q-43 -70 -98 -70z" glyph-name="breve" horiz-adv-x="159" unicode="˘"/><glyph d="M10 651q-4 2 -7 14.5t-1 18.5t8 13.5t10 4.5q20 -4 17 -26q-2 -8 -11.5 -16.5t-15.5 -8.5z" glyph-name="dotaccent" horiz-adv-x="26" unicode="˙"/><glyph d="M57.5 688q18.5 0 28.5 -13t10 -30q0 -18 -15 -35.5t-44 -17.5q-16 0 -27.5 14.5t-7.5 34.5q2 18 19.5 32.5t36 14.5zM39 616q31 0 35 29q4 20 -19 21q-31 0 -35 -25t19 -25z" glyph-name="ring" horiz-adv-x="83" unicode="˚"/><glyph d="M92 186q14 12 21 4q4 -6 -7 -14q-45 -41 -83 -2q-35 31 -19 78q10 25 23.5 42t35 35.5t25.5 22.5q6 6 13.5 5t8.5 -7t-8 -16q-57 -55 -67 -105q-6 -35 14 -47t43 4z" glyph-name="ogonek" horiz-adv-x="102" unicode="˛"/><glyph d="M8 631q-8 0 -8 16q0 10 27.5 23.5t50.5 13.5q37 0 35 -37q0 -18 10 -18q12 0 52 18.5t42 18.5q12 0 12 -8.5t-45 -29t-65 -20.5q-25 0 -27 33q-2 18 -14 18t-39 -14t-31 -14z" glyph-name="tilde" horiz-adv-x="217" unicode="˜"/><glyph d="M84 702q10 4 14 -6t-10 -24q-4 -2 -15.5 -14.5t-22.5 -24.5t-21 -23l-11 -10q-4 -2 -8 6q0 6 56 80q16 16 18 16zM156 702q10 4 14 -6t-12 -24q-2 -2 -22.5 -23.5t-38 -40t-19.5 -18.5q-6 0 -6 6q-2 2 65 90q17 16 19 16z" glyph-name="hungarumlaut" horiz-adv-x="192" unicode="˝"/><glyph d="M74 412q0 -111 43 -111q16 0 33.5 26.5t52.5 98.5t51 102q14 25 31.5 57.5t27 50t19.5 35t18 24.5t15 7q45 0 38 -88q-4 -66 -36.5 -208t-36.5 -201q-12 -168 47 -168q39 0 123 87t159 241q82 164 136.5 371.5t54.5 334.5q0 195 -33 193h-6q-14 -4 -12 4q0 14 20 18h6 q49 -4 49 -213q0 -356 -192 -737q-76 -150 -156 -236t-143 -86q-57 0 -75.5 57.5t-8.5 131.5q8 72 42 217t36 194q2 61 -8 62q-16 0 -101 -168q-6 -10 -23.5 -47t-29.5 -62.5t-29.5 -56.5t-34 -47t-28.5 -16q-74 0 -74 133q0 184 109 430q92 203 182 282q12 10 12 2 q-2 -27 -71 -122q-47 -66 -107 -203q-100 -225 -100 -389zM608 1137q-6 0 -49 47q-10 10 -24.5 22.5t-22.5 18.5t-8 8q-4 4 6 8q4 2 8 2q10 0 54 -44t44 -50q0 -12 -8 -12z" glyph-name="Wgrave" horiz-adv-x="899" unicode="Ẁ"/><glyph d="M139 645q-76 -139 -80 -209q0 -35 15 -35q16 0 82 66q57 51 75 51q27 0 27 -22q0 -6 -2 -28t-2 -26q-2 -18 6 -18q23 0 53 43q20 23 27 43q8 20 14 20q4 2 19.5 -4t44.5 -4q74 2 174 39q10 2 13 -3t-7 -9q-66 -35 -160 -45q-29 -2 -45 0t-22 4h-6l-5 -8q-4 -8 -11 -20.5 t-15 -24.5q-35 -51 -74 -52q-29 0 -29 31q0 10 3.5 30.5t3.5 27.5q0 10 -7 10q-2 0 -61 -58q-70 -66 -92 -67q-20 -4 -30.5 10t-10.5 33q0 59 53 174q29 61 41 61q16 0 8 -10zM317 592q-6 0 -49 47q-10 10 -24.5 22.5t-22.5 18.5t-8 8q-4 4 6 8q4 2 8 2q10 0 54.5 -44 t44.5 -50q-1 -12 -9 -12z" glyph-name="wgrave" horiz-adv-x="509" unicode="ẁ"/><glyph d="M74 412q0 -111 43 -111q16 0 33.5 26.5t52.5 98.5t51 102q14 25 31.5 57.5t27 50t19.5 35t18 24.5t15 7q45 0 38 -88q-4 -66 -36.5 -208t-36.5 -201q-12 -168 47 -168q39 0 123 87t159 241q82 164 136.5 371.5t54.5 334.5q0 195 -33 193h-6q-14 -4 -12 4q0 14 20 18h6 q49 -4 49 -213q0 -356 -192 -737q-76 -150 -156 -236t-143 -86q-57 0 -75.5 57.5t-8.5 131.5q8 72 42 217t36 194q2 61 -8 62q-16 0 -101 -168q-6 -10 -23.5 -47t-29.5 -62.5t-29.5 -56.5t-34 -47t-28.5 -16q-74 0 -74 133q0 184 109 430q92 203 182 282q12 10 12 2 q-2 -27 -71 -122q-47 -66 -107 -203q-100 -225 -100 -389zM616 1260q12 0 13 -13q0 -10 -19 -18q-6 -2 -26.5 -15.5t-38.5 -25.5l-19 -12q-6 0 -6 8q0 2 34 29.5t42 33.5q16 13 20 13z" glyph-name="Wacute" horiz-adv-x="899" unicode="Ẃ"/><glyph d="M139 645q-76 -139 -80 -209q0 -35 15 -35q16 0 82 66q57 51 75 51q27 0 27 -22q0 -6 -2 -28t-2 -26q-2 -18 6 -18q23 0 53 43q20 23 27 43q8 20 14 20q4 2 19.5 -4t44.5 -4q74 2 174 39q10 2 13 -3t-7 -9q-66 -35 -160 -45q-29 -2 -45 0t-22 4h-6l-5 -8q-4 -8 -11 -20.5 t-15 -24.5q-35 -51 -74 -52q-29 0 -29 31q0 10 3.5 30.5t3.5 27.5q0 10 -7 10q-2 0 -61 -58q-70 -66 -92 -67q-20 -4 -30.5 10t-10.5 33q0 59 53 174q29 61 41 61q16 0 8 -10zM322 694q12 0 12 -12q0 -10 -19 -18q-6 -2 -26.5 -15.5t-38.5 -25.5l-19 -13q-6 0 -6 8 q0 2 34 30t42 34q17 12 21 12z" glyph-name="wacute" horiz-adv-x="509" unicode="ẃ"/><glyph d="M74 412q0 -111 43 -111q16 0 33.5 26.5t52.5 98.5t51 102q14 25 31.5 57.5t27 50t19.5 35t18 24.5t15 7q45 0 38 -88q-4 -66 -36.5 -208t-36.5 -201q-12 -168 47 -168q39 0 123 87t159 241q82 164 136.5 371.5t54.5 334.5q0 195 -33 193h-6q-14 -4 -12 4q0 14 20 18h6 q49 -4 49 -213q0 -356 -192 -737q-76 -150 -156 -236t-143 -86q-57 0 -75.5 57.5t-8.5 131.5q8 72 42 217t36 194q2 61 -8 62q-16 0 -101 -168q-6 -10 -23.5 -47t-29.5 -62.5t-29.5 -56.5t-34 -47t-28.5 -16q-74 0 -74 133q0 184 109 430q92 203 182 282q12 10 12 2 q-2 -27 -71 -122q-47 -66 -107 -203q-100 -225 -100 -389zM524 1169q-4 2 -7 14.5t-1 18.5t8 13.5t11 5.5q20 -4 16 -27q-2 -8 -12.5 -16.5t-14.5 -8.5zM586 1171q-8 0 -8 21q0 4 9 14.5t15 10.5q2 0 7 -5.5t5 -11.5q0 -8 -11 -18.5t-17 -10.5z" glyph-name="Wdieresis" horiz-adv-x="899" unicode="Ẅ"/><glyph d="M139 645q-76 -139 -80 -209q0 -35 15 -35q16 0 82 66q57 51 75 51q27 0 27 -22q0 -6 -2 -28t-2 -26q-2 -18 6 -18q23 0 53 43q20 23 27 43q8 20 14 20q4 2 19.5 -4t44.5 -4q74 2 174 39q10 2 13 -3t-7 -9q-66 -35 -160 -45q-29 -2 -45 0t-22 4h-6l-5 -8q-4 -8 -11 -20.5 t-15 -24.5q-35 -51 -74 -52q-29 0 -29 31q0 10 3.5 30.5t3.5 27.5q0 10 -7 10q-2 0 -61 -58q-70 -66 -92 -67q-20 -4 -30.5 10t-10.5 33q0 59 53 174q29 61 41 61q16 0 8 -10zM244 635q-4 2 -7.5 14.5t-1 18.5t8.5 13t10 5q20 -4 16 -27q-2 -8 -11 -16t-15 -8zM305 637 q-8 0 -8 20q0 4 9 14.5t16 10.5q2 0 7 -5t5 -11q0 -8 -11.5 -18.5t-17.5 -10.5z" glyph-name="wdieresis" horiz-adv-x="509" unicode="ẅ"/><glyph d="M707 207q-135 -10 -170 -17q-74 -164 -148 -292.5t-168 -226t-174 -97.5q-74 0 -110.5 43t-32.5 121q4 76 64.5 165t168.5 156q193 125 381 154q76 162 113 272q51 160 95 337t48 227q2 47 -14 47q-14 0 -39 -40t-119 -206q-66 -115 -108 -191q-53 -90 -104.5 -183 t-77 -140t-50 -88t-41 -55.5t-35.5 -14.5q-55 0 -86.5 57.5t-31.5 159.5q0 106 77 318q12 33 28.5 69.5t34 70.5t21.5 44q8 23 19 23q12 0 0 -27q-66 -154 -84 -197q-68 -188 -68 -295q0 -90 23.5 -149t56.5 -59q14 0 33.5 20t46.5 67.5t53.5 97.5t71.5 134t84 154 q207 365 252 417q27 33 41 33q41 0 37 -72q-12 -203 -140 -563q-49 -135 -106 -264q49 6 92 6q94 0 102.5 -4t-8.5 -8q-10 -2 -28 -4zM45 -397q94 0 220 170t241 411q-188 -35 -361 -145q-94 -59 -151 -144t-62 -157q-8 -135 113 -135zM547 1036q-6 0 -49 47 q-10 10 -24.5 22.5t-23 18.5t-8.5 9q-4 4 7 8q4 2 8 2q10 0 54 -43t44 -51q0 -13 -8 -13z" glyph-name="Ygrave" horiz-adv-x="782" unicode="Ỳ"/><glyph d="M270 537q-23 0 -92 -76q-82 -90 -115 -90q-12 0 -20 12t-4 33l29 96q4 10 5 20.5t2 14.5t3 8t6 4q16 2 16 -12q0 -6 -14 -47q-20 -61 -23 -72q-8 -29 5 -29q29 0 96 74q8 10 20.5 23.5t18.5 20.5t15 16.5t13.5 13.5t11.5 9t11 7t9 4t11 2q35 0 39 -90q154 88 211 88 q18 0 17 -12q0 -8 -11 -8q-23 0 -86 -26.5t-131 -69.5q-2 -84 -30.5 -198t-69.5 -187q-96 -168 -197 -168q-29 0 -53 21.5t-24 64.5q0 156 215 372q57 59 137 107q-5 74 -21 74zM190 82q41 72 69 178.5t32 175.5q-63 -41 -121 -96q-102 -104 -154.5 -202.5t-52.5 -157.5 q0 -57 43 -58q37 0 88 41t96 119zM221 594q-6 0 -49 47q-10 10 -24.5 22.5t-22.5 18.5t-8 8q-4 4 6 8q4 2 8 2q12 0 55 -43t43 -51q0 -12 -8 -12z" glyph-name="ygrave" horiz-adv-x="516" unicode="ỳ"/><glyph d="M94 510q-18 0 2 16q6 8 13 9q6 0 77.5 2t77.5 2q12 0 19 -15q4 -12 -9 -12q-8 0 -90 -1t-90 -1z" glyph-name="endash" horiz-adv-x="333" unicode="–"/><glyph d="M94 510q-18 0 2 16q6 8 13 9q6 0 133 2t133 2q12 0 18 -15q4 -12 -8 -12q-8 0 -144.5 -1t-146.5 -1z" glyph-name="emdash" horiz-adv-x="444" unicode="—"/><glyph d="M45 805q18 0 6 -29q-25 -57 -26 -74q-4 -16 -5.5 -34.5t-1.5 -25.5t-4 -7q-23 0 -10 70q18 100 41 100z" glyph-name="quoteleft" horiz-adv-x="163" unicode="‘"/><glyph d="M88 682q-4 0 -6 5t2 9q18 37 20 51.5t0 22.5t-5 12t-3 6q14 23 25 5q12 -27 4 -60q-6 -23 -15.5 -38t-21.5 -13z" glyph-name="quoteright" horiz-adv-x="167" unicode="’"/><glyph d="M8 362q-4 0 -5 5.5t1 9.5q20 20 27 49q4 16 3 23.5t-3 12.5t-2 7q2 6 9 8t13 -8q10 -25 0 -59q-6 -16 -11 -24.5t-14.5 -17t-17.5 -6.5z" glyph-name="quotesinglbase" horiz-adv-x="102" unicode="‚"/><glyph d="M84 764q10 0 -2 -27q-2 -8 -4 -12q-4 -10 -6 -25.5t-4 -24.5t-7 -9q-18 0 -8 47q8 51 31 51zM45 805q18 0 6 -29q-25 -57 -26 -74q-4 -16 -5.5 -34.5t-1.5 -25.5t-4 -7q-23 0 -10 70q18 100 41 100z" glyph-name="quotedblleft" horiz-adv-x="163" unicode="“"/><glyph d="M133 680q-12 4 -6 16l4 4q4 2 8 5.5t8.5 12.5t8.5 21q2 16 2 23.5t-1 11.5t-1 6q2 6 9 9.5t13 -7.5q8 -20 -2 -53q-6 -20 -18.5 -35.5t-24.5 -13.5zM195 682q-4 0 -6.5 5t1.5 9q18 37 21 52q2 16 0 22t-4 11t-2 7q2 6 9 9.5t15 -4.5q10 -29 2 -60q-6 -23 -15 -38t-21 -13 z" glyph-name="quotedblright" horiz-adv-x="274" unicode="”"/><glyph d="M61 362q-4 0 -6 5.5t2 9.5q20 20 27 49q2 16 1 23.5t-2 12.5t-1 7q2 6 9 8t13 -8q10 -27 -2 -59q-8 -23 -18.5 -37.5t-22.5 -10.5zM2 365q-12 6 -6 18l4 2q4 4 8 6t9.5 11.5t9.5 21.5t5 20.5t0 12.5t-1 6q2 6 10 8t12 -8q6 -14 -6 -53q-8 -20 -20.5 -34.5t-24.5 -10.5z " glyph-name="quotedblbase" horiz-adv-x="137" unicode="„"/><glyph d="M113 879q-20 0 0 16q8 6 14 8q18 0 35 2l22 148q2 25 17.5 24.5t7.5 -33.5l-25 -139h23l12 2q16 0 21 -18q2 -8 -9 -8q-2 0 -20 -1t-31 -1q-88 -528 -112 -703q-4 -23 -11 -24q-4 0 -4 4q-2 6 -2 16q0 12 10.5 84t21.5 160t15 119q6 55 58 344h-43z" glyph-name="dagger" horiz-adv-x="270" unicode="†"/><glyph d="M244 932h-56q-10 -68 -51 -311.5t-55 -339.5h17.5h15.5h8q20 0 20 -15q0 -8 -16 -8h-8q-6 0 -17.5 1t-21.5 1q-8 -45 -12 -84q-4 -23 -11 -24q-4 0 -4 4q-2 6 -2 16q0 16 10 88q-14 2 -26 2q-20 0 -21 10q0 4 49 9l35 254q4 25 15.5 92t28 159.5t24.5 145.5h-55 q-18 0 0 14q8 6 14 8q25 0 45 2l14 97q2 25 17.5 24.5t7.5 -33.5l-16 -86q10 0 24 1.5t16 1.5q12 0 19 -17q2 -12 -8 -12z" glyph-name="daggerdbl" horiz-adv-x="270" unicode="‡"/><glyph d="M69.5 539q18.5 0 29 -13.5t10.5 -29.5q0 -18 -16.5 -35t-45.5 -17q-16 0 -27.5 14.5t-7.5 35.5q4 16 21.5 30.5t36 14.5z" glyph-name="bullet" horiz-adv-x="206" unicode="•"/><glyph d="M14 410q-14 0 -14 20q0 2 13.5 12.5t19.5 10.5q4 0 9 -5.5t5 -11.5q0 -8 -13.5 -17t-19.5 -9zM254 408q-10 0 -10 24q0 4 13 12.5t19.5 8.5t10.5 -5.5t0 -13.5q-2 -8 -15.5 -17t-17.5 -9zM123 397q-8 0 -13.5 8.5t5.5 24.5q25 29 51 29q14 0 -8 -31q-2 -4 -4 -6 q-19 -25 -31 -25z" glyph-name="ellipsis" horiz-adv-x="360" unicode="…"/><glyph d="M72 377q-14 0 -14.5 16.5t85.5 128.5q25 35 57.5 73t51.5 58l18 21q-2 0 -11 -4t-29.5 -10.5t-43.5 -10.5q-25 -4 -40 -2t-20 0t-5 -12q0 -23 -17.5 -41.5t-44.5 -18.5q-59 0 -59 58q0 18 18.5 34.5t40.5 16.5q14 0 25.5 -3t5.5 -13q-2 -6 -6 -8.5t-10 0t-11 2.5 q-43 0 -43 -33q0 -31 41 -31q16 0 26.5 14.5t10.5 22.5q0 25 2 27q0 2 8.5 3t28 2t39.5 5q61 8 119 30q4 2 29 27q6 4 13 0t8 -11t-5 -11q-12 -10 -74.5 -81t-101.5 -120q-23 -31 -46.5 -64.5t-33.5 -49t-12 -15.5zM469 518q-2 0 -9 2t-14 2q-10 0 -23 -11t-13 -19 q0 -16 26 -17q8 0 17.5 9.5t11.5 17.5q2 14 14 -2q0 -2 2 -4q4 -14 -8 -29.5t-35 -15.5q-20 0 -33.5 12t-13.5 29q0 12 2 16q0 2 -51 -4q-10 -2 -11 -4t-1 -13q0 -23 -17.5 -41t-44.5 -18q-59 0 -59 57q0 18 18.5 35t40.5 17q14 0 25.5 -3.5t5.5 -13.5q-2 -6 -6 -8t-10.5 0 t-10.5 2q-43 0 -43 -33q0 -31 41 -30q16 0 26.5 14t10.5 22q0 25 2 27l76 10q8 2 19.5 7.5t17.5 7.5q12 6 22 6q23 0 29 -19q4 -8 -4 -8z" glyph-name="perthousand" horiz-adv-x="489" unicode="‰"/><glyph d="M111 561q-12 -8 -32 -17t-24 -12q-20 -12 -4 -18q27 -10 47 -37q6 -8 0 -10t-10 2q-20 20 -53 37q-6 4 -11.5 5t-7.5 2t-2 3q0 12 15 19l67 36q18 10 21 0q2 -6 -6 -10z" glyph-name="guilsinglleft" horiz-adv-x="141" unicode="‹"/><glyph d="M121 584q4 0 22.5 -18.5t38.5 -30.5q14 -2 6 -13q-2 -2 -6 -4q-6 -2 -63 -37q-12 -6 -25 -16q-12 -8 -16 -6q-12 8 12 22q20 12 40 23.5t28 15.5t8 6l-35 29q-20 23 -10 29z" glyph-name="guilsinglright" horiz-adv-x="215" unicode="›"/><glyph d="M299 557q-14 0 -2 29q4 6 34.5 52t71.5 107.5t66 98.5q27 41 51.5 76.5t41 53t20.5 17.5q14 0 -50 -100q-215 -334 -233 -334zM217 594q-25 0 -6 33q23 49 113 190q27 41 51 77t40.5 53.5t20.5 17.5q2 -2 4 -4.5t-11 -27t-42 -69.5q-25 -37 -66.5 -108.5t-69.5 -116.5 t-34 -45zM184 385q-8 0 -13 8t5 25q25 29 51 28q14 0 -8 -30q-2 -4 -4 -6q-19 -25 -31 -25zM61 385q-8 0 -13 8t5 25q25 29 51 28q14 0 -8 -30q-2 -4 -4 -6q-19 -25 -31 -25z" glyph-name="exclamdbl" horiz-adv-x="477" unicode="‼"/><glyph d="M-47 289q-12 0 24 55q61 98 148 217q215 287 223 287q10 0 10 -6q0 -12 -219 -295q-20 -25 -82.5 -117t-72.5 -106q-29 -35 -31 -35z" glyph-name="fraction" horiz-adv-x="319" unicode="⁄"/><glyph d="M94 412q-2 0 -3 1t-1 3v6t2 10t5 14.5t7 20.5h-4q-12 0 -18 2q-25 -57 -31 -57q-6 2 -4 13t19 54q-37 29 -17 84q16 47 47 88t60 43l26 58q8 20 13 24q4 2 6 -4q2 -10 -6 -27l-21 -51q8 -2 21 -10l30 68q10 27 17 24q8 0 -2 -31l-29 -71q27 -27 22 -39q-4 -14 -8 -14 t-6 8q0 12 -18 24l-58 -135q-10 -25 -10 -26q31 8 53 30q8 4 15.5 2t6.5 -9t-11 -15q-35 -20 -72 -31q-21 -57 -31 -57zM102 485h11q0 2 2 6.5t4 9.5t2 9q29 72 65 154q-12 6 -22 6l-64 -152l-12 -31q2 -2 14 -2zM76 561q-14 -39 -4 -63l6 12q27 72 61 154q-38 -29 -63 -103 z" glyph-name="colonmonetary" horiz-adv-x="262" unicode="₡"/><glyph d="M154 338q-20 0 0 16q8 6 14 8q2 0 14.5 1.5t22.5 1.5q16 68 59 190q-195 -2 -217 -41q-6 -14 -12 -2v10q12 39 92 53q45 10 147 11q94 272 99 282l28 80q-72 -8 -153 -26q-201 -45 -211 -91q-2 -8 -8 -6q-4 2 -2 11q8 53 161 94q127 31 224 45q18 47 34.5 82t25.5 50 t11 23q4 18 13 25q6 2 6 -6q0 -4 -2 -8q-4 -16 -58 -162q266 37 443 12q78 -10 110 -33q33 -20 15 -20q-6 0 -17 2q-27 6 -96 18q-188 29 -465 -4l-24 -71q-31 -76 -99 -297q31 0 82 -1t68 -1q72 0 98 4q12 2 13 -1t-7 -7q-29 -25 -254 -25h-10l-55 -188h18q10 0 17 -15 q6 -12 -7 -12h-34l-5 -14q-61 -225 -26 -252q12 -12 1 -13.5t-34 13.5q-23 16 -17.5 68.5t38.5 185.5q0 6 4 10h-45z" glyph-name="franc" horiz-adv-x="647" unicode="₣"/><glyph d="M78 584q-10 0 -6 14q2 10 16 8q6 -2 39 -2l16 29q47 82 80 110.5t70 28.5q49 0 43 -51q-4 -29 -31 -49q-18 -12 -22 4q-2 4 2 6q25 18 30 35q8 33 -24 33q-25 0 -52.5 -25t-70.5 -102l-12 -21q68 -8 71 -14q8 -8 5 -13.5t-17 -1.5q-6 2 -72 7q-4 -4 -8 -13.5t-6 -11.5 q74 -4 80 -14q12 -12 2 -15q-4 0 -14 2q-6 0 -18.5 1t-31 2t-32.5 1q-37 -51 -49 -63q8 -4 32.5 -21.5t44 -26.5t37.5 -9q12 0 29.5 9t21.5 21q10 14 17 9q4 -4 0 -13q-4 -14 -26.5 -33.5t-45.5 -19.5q-27 0 -76 32t-57 34q-12 -4 -16 -5q-10 -2 -19.5 7.5t-5.5 23.5 q4 25 41 4q16 16 41 54l-25 2q-10 0 -6 14q2 10 17 8q16 0 30 -2l13 23q-10 0 -35 4z" glyph-name="lira" horiz-adv-x="360" unicode="₤"/><glyph d="M25 541q-20 0 -21 18l78 6l37 41q41 47 94 90t86 43t43 -24.5t4 -42.5q-12 -20 -24 -10q-4 2 0 12q6 14 1.5 26.5t-18.5 12.5q-27 0 -123 -82q-33 -25 -63 -66q12 0 32.5 2t31 3t21.5 1t16 -1t5 -3q0 -16 -86 -20l-39 -2q-6 -6 -14 -18.5t-10 -14.5q10 0 32.5 3t28.5 3 q4 0 11.5 -4t12.5 -8t3 -6t-41 -7.5t-60 -5.5q-10 -20 -10 -32q0 -53 49 -54q45 0 91 25q29 14 28 6q0 -4 -4 -10q-8 -8 -52 -26.5t-63 -18.5q-70 0 -69 78q0 14 6 32q-39 8 -39 19q0 6 49 6q6 16 19 31q-20 -2 -43 -2z" glyph-name="Euro" horiz-adv-x="335" unicode="€"/><glyph d="M131 510q-18 0 2 16q6 8 12 9q6 0 47 2t48 2q12 0 18 -15q4 -12 -8 -12q-8 0 -59.5 -1t-59.5 -1z" glyph-name="minus" horiz-adv-x="346" unicode="−"/><glyph d="M729 14q8 25 12 123q-35 111 -145.5 198t-259.5 140q-215 -354 -328 -618q-16 -37 -28 -23q-8 6 -3 21q121 281 330 630q-10 4 -31.5 10.5t-25.5 8.5q-33 16 -12 45q29 35 129 37l34 55q106 178 227.5 315.5t192 190.5t92.5 51q57 -6 45 -61q-2 -12 -20 -90t-48 -211.5 t-56 -262.5q51 0 102 -2t80 -4l31 -2q23 -2 20 -12q0 -14 -33 -10q-51 4 -205 8q-49 -246 -59 -391q-4 -20 -4 -27q12 -74 10 -92q0 -12 -13 -25.5t-20 -11.5h-7t-6 2t-1 8zM403 586q170 0 406 -11q27 137 58.5 273.5t51 209t19.5 79.5q4 39 -18 43q-12 2 -95.5 -78 t-201 -216t-195.5 -259zM346 494q317 -129 402 -297q16 147 57 356h-422zM268 524q14 -8 51 -18l27 45q-86 -6 -82 -23q0 -2 4 -4z" glyph-name="uniE000" horiz-adv-x="972" unicode=""/><glyph d="M469 551l-356 -41l-23 -68q-82 -254 -76 -303q0 -33 31 -33q76 4 256 52.5t227 91.5q10 10 29 -6q8 -8 2 -15q-49 -45 -223 -93t-256 -50q-53 -4 -64 6q-25 16 -26 45q0 74 67 309l19 60q-55 -6 -68 -6q-10 -2 -8 8q0 14 14 16q4 2 70 11q63 188 152 419 q-143 -37 -191 -59q-20 -8 -20 8q0 12 12 21q43 33 213 65q27 66 51 123q27 55 41 70q6 10 18 2q4 -2 -2 -10q-16 -23 -20 -46q0 -6 -5 -15t-19.5 -41t-30.5 -77l92 13q215 27 342 18q14 0 16 -4t-10 -10q-6 -4 -12 -4h-51.5t-75 -1t-91 -6.5t-112.5 -15.5q-45 -6 -111 -22 l-2 -9q-82 -221 -145 -415q219 23 280 32q43 6 76 13q14 4 17 0q2 -6 -5.5 -18.5t-21.5 -14.5zM518 356q70 53 152 183q-31 23 -27 65q2 29 20.5 43.5t34.5 9.5q18 0 25 -26q2 -23 -29 -82h2q37 -14 44.5 -19.5t7.5 -13.5q0 -4 -3.5 -11t-10.5 -21.5t-13 -28.5 q-39 -76 0 -80q23 -4 116 55t167 123q10 10 18 2q4 -4 -4 -10q-227 -205 -307 -199q-27 4 -32 38t15 81q20 45 21 47q0 10 -29 18h-2q-84 -135 -147 -188q-14 -12 -21 4q-2 6 2 10zM705 629l-9 10q-12 2 -20 -9.5t-8 -31.5q0 -25 14 -39q25 47 23 70z" glyph-name="uniE001" horiz-adv-x="942" unicode=""/><glyph d="M326 1104q-16 -47 -107 -537l-4 -20q158 18 346 24l31 162q12 68 23.5 127.5t21.5 106.5t12 61q10 49 39 66q8 0 10 -7q0 -6 -51 -256q-31 -154 -47 -258q47 2 123 2q68 0 96 -12q14 -6 -8 -8h-88q-18 0 -60 -1t-65 -1q-2 -8 -4 -19.5t-2 -13.5q-12 -76 -46 -240.5 t-40 -242.5l-4 -35q16 -61 14 -84q0 -12 -12 -23.5t-23 -9.5q-14 2 -14 4q-2 4 0 9q6 29 10 102l-2 12q-37 160 -303 305q-33 -184 -22 -217q8 -33 -7 -32q-16 6 -20 30q-2 84 16 236q-25 14 -190 90q-66 33 -6 65q25 14 71 27q80 16 160 25l2 12l90 479q12 70 51 107 q16 14 17 -4q-2 -13 -8 -31zM551 524l6 25q-166 -8 -348 -37l-33 -170q242 -131 307 -279q15 133 68 461zM-37 438q106 -43 180 -80l25 150q-88 -12 -137 -25q-86 -20 -80 -37q2 -4 12 -8z" glyph-name="uniE002" horiz-adv-x="727" unicode=""/><glyph d="M326 1104q-16 -47 -107 -537l-6 -24q166 14 342 4l37 186q12 68 23.5 127.5t21.5 106.5t12 61q10 49 39 66q8 0 10 -7q0 -6 -51 -256q-37 -201 -51 -286q4 0 11 -1t9 -1q55 0 95 -19q12 -8 -11 -8q-8 0 -86 6q-4 0 -11 1t-11 1v-4q-12 -76 -46 -240.5t-40 -242.5l-4 -35 q16 -61 14 -84q0 -12 -12 -23.5t-23 -9.5q-14 2 -14 4q-2 4 0 9q6 29 10 102l-2 12q-37 160 -303 305q-33 -184 -22 -217q8 -33 -7 -32q-16 6 -20 30q-2 84 16 236q-25 14 -190 90q-66 33 -6 65q25 14 71 27q102 18 160 25l2 4v8l90 479q12 70 51 107q16 14 17 -4 q-2 -13 -8 -31zM551 524v4q-139 8 -342 -16l-33 -170q242 -131 307 -279q15 133 68 461zM-37 438q106 -43 180 -80l25 148q-70 -8 -137 -23q-86 -20 -80 -37q2 -4 12 -8z" glyph-name="uniE003" horiz-adv-x="727" unicode=""/><glyph d="M391 535q242 160 332 243q74 342 139 342q35 0 40 -53t-13 -98q-29 -88 -135 -195l-6 -24q-10 -53 -33 -150.5t-37 -166t-19 -101.5q-2 -6 0.5 -7t6.5 5q129 168 159 170q27 0 27 -45q0 -43 10 -45q2 -2 8 -2q8 0 16.5 3t13.5 7t15.5 11t18.5 11q35 23 33 9t-25 -33 q-49 -31 -65 -31q-53 0 -54 53q0 31 -4 31q-23 0 -151 -162q-12 -16 -28.5 -16t-10.5 41q6 49 86 407q-94 -82 -314 -227l-106 -74q90 -88 122 -147.5t21 -122.5q-10 -72 -87 -112t-175 -29q-88 8 -133 53t-37 98q10 57 65.5 115.5t184.5 148.5l-57 58q-104 98 -140 158.5 t-22 125.5q16 68 74.5 123.5t175.5 106.5q199 86 307 65q106 -18 86 -116q-8 -35 -35 -56.5t-45 -23.5q-10 -2 -13 7t7 13q53 16 63 64q16 76 -69 90q-41 6 -123 -12.5t-162 -55.5q-207 -98 -231 -209q-14 -63 18.5 -120.5t126.5 -143.5l59 -59zM410 174q10 51 -19 105.5 t-117 144.5q-127 -90 -177 -143.5t-60 -106.5q-8 -45 29.5 -80t109.5 -39q90 -4 157 31t77 88zM807 987q-6 -12 -43 -170q88 94 108 162q12 35 10.5 74t-20.5 39q-24 -1 -55 -105z" glyph-name="uniE004" horiz-adv-x="1005" unicode=""/><glyph d="M1067 440q-82 -78 -129 -78t-37 107q6 31 -2 31q-6 0 -28.5 -24.5t-58.5 -66.5t-52 -61q-14 -14 -26.5 -14t-10.5 39q27 199 80 438q31 154 69 279l-344 -33q-35 -184 -57 -346q-14 -117 -92 -607q-2 -45 -23 -61q-6 0 -8 8q0 61 92 656q33 207 62 346q-88 -8 -203 -27 q-264 -51 -270 -90q-2 -14 -10.5 -16t-14.5 10q-4 14 3 24.5t55.5 31t144.5 46.5q125 29 303 49q20 90 45 115q16 16 25 0q4 -8 -5 -12q-20 -12 -30 -51l-10 -48q66 6 183.5 16.5t162.5 14.5h2q10 29 24 51q35 47 47 21q2 -6 2 -14q0 -16 -15 -41t-36 -37l-12 -39 q0 -2 -10.5 -43t-25.5 -106.5t-26 -112.5q-29 -123 -79 -422q23 23 58.5 65.5t58 67t34.5 24.5q27 0 27 -47q0 -12 -1 -28.5t-2 -26.5t0 -20.5t4 -14.5t9 -4q39 0 115 62q14 12 20 6.5t-8 -17.5z" glyph-name="uniE005" horiz-adv-x="1089" unicode=""/><glyph d="M154 397q68 0 210 215t240 447q2 8 12 6q6 0 2 -12q-115 -283 -250 -478.5t-212 -195.5q-23 0 -30 14.5t-4 32.5t7 35.5t2 19.5q-6 4 -49 -20q-66 -37 -90 -37q-29 0 -29 18q0 43 62 90q47 35 86 35q23 0 34 -28q6 -14 -2 -15q-6 0 -14 12.5t-14 12.5q-25 0 -74 -33 q-23 -16 -39 -37.5t-16 -29.5q0 -4 4 -5q10 0 67 27q86 41 93 41q14 0 14 -12q0 -4 -4 -16.5t-9.5 -27t-8.5 -27.5t0.5 -22.5t11.5 -9.5z" glyph-name="uniE006" horiz-adv-x="464" unicode=""/><glyph d="M156 403q53 0 139 68t168 172q6 4 14 4t0 -14q-74 -111 -173 -183.5t-150 -72.5q-29 0 -33 23.5t4 50t6 28.5q-6 6 -51 -20q-63 -37 -88 -37q-12 0 -20.5 7t-8.5 13q0 43 62 88q47 37 84 37q25 0 36 -28q6 -14 -2 -15q-6 -2 -14 11.5t-14 13.5q-29 -4 -74 -33 q-20 -16 -37.5 -37.5t-17.5 -29.5q0 -4 4 -5q8 0 67 25q82 43 93 43q14 0 14 -12q0 -4 -4 -15.5t-8.5 -25t-7.5 -26.5t0.5 -21.5t11.5 -8.5z" glyph-name="uniE007" horiz-adv-x="346" unicode=""/><glyph d="M156 406q53 0 139 66.5t168 172.5q2 2 8 3t9 -2t-3 -11q-74 -111 -173 -183.5t-152 -72.5q-23 0 -30 15.5t-2 32.5t9 34.5t2 19.5q-4 4 -51 -20q-63 -37 -88 -37q-12 0 -20.5 6t-8.5 12q0 45 62 90q47 37 84 37q27 0 36 -30q4 -14 -2 -15q-6 0 -14 12.5t-16 12.5 q-25 0 -72 -33q-55 -41 -55 -67q0 -4 4 -5q10 0 67 27q82 41 93 41q14 0 14 -12q0 -4 -4 -15.5t-8.5 -25t-7.5 -25.5t0.5 -20t11.5 -8z" glyph-name="uniE008" horiz-adv-x="403" unicode=""/><glyph d="M193 328q41 0 87 26.5t76.5 53t77.5 73.5q4 6 11.5 4t0.5 -12q-47 -63 -121.5 -116.5t-131.5 -53.5q-78 0 -66 135q6 39 4 41q-6 6 -51 -18q-63 -37 -88 -37q-12 0 -20.5 6t-8.5 12q0 45 62 90q47 37 84 37q27 0 36 -30q4 -14 -2 -15q-6 0 -14 12.5t-16 12.5 q-25 0 -72 -33q-20 -14 -37.5 -35.5t-17.5 -29.5q0 -4 4 -5q16 0 67 27q86 39 93 39q14 0 14 -12q0 -4 -2 -12.5t-5 -21.5t-5 -26q-10 -112 41 -112z" glyph-name="uniE009" horiz-adv-x="450" unicode=""/><glyph d="M623 616l6 -18q33 23 55 51q18 23 23 13q0 -4 -5 -13q-16 -29 -67 -69l24 -70q59 47 160 94q8 4 25 4q4 -4 0 -7t-10 -5q-70 -27 -168 -109q49 -141 14 -231q-23 -59 -73 -96t-95 -37q-43 0 -64.5 26.5t-17.5 67.5q10 88 139 215q33 35 68 62l-25 71q-31 -20 -101.5 -58 t-98.5 -56l-27 -19q51 -45 31 -98q-14 -35 -50 -61.5t-73 -26.5t-54.5 19.5t-7.5 47.5q14 45 121 121q-20 16 -28 27q-88 -70 -146 -70q-29 0 -39 21.5t-6 42t-2 26.5q-4 4 -53 -20q-59 -37 -86 -37q-12 0 -20.5 6t-8.5 12q0 45 62 90q47 37 84 37q27 0 36 -30q4 -14 -2 -15 q-6 0 -14 12.5t-16 12.5q-25 0 -72 -33q-55 -41 -55 -67q0 -4 4 -5q10 0 67 27q82 41 93 41q14 0 14 -12q0 -2 -1 -13.5t-2 -21.5t0 -21.5t6 -18.5t13 -7q53 0 131 61q-14 23 -6 49q8 29 45 57.5t68 28.5q20 0 24 -14t-8 -29q-53 -63 -94 -96q14 -18 31 -29v-2q2 2 28 19 q41 25 111 63.5t98 57.5q-4 12 -4 18q-14 47 7.5 78t54.5 35q31 4 30 -10q2 -6 -18 -11q-33 -4 -47 -28.5t-8 -49.5zM655 260q35 82 -10 213l-53 -53q-127 -123 -133 -203q-4 -29 9 -51.5t34 -22.5q43 0 85.5 32t67.5 85zM391 346q12 39 -24 74q-98 -68 -111 -115 q-10 -41 31 -41q33 -2 64.5 21.5t39.5 60.5zM332 524q-4 -16 -2 -30q39 35 84 77q10 10 12 17.5t0 10.5t-6 3q-20 0 -49 -25.5t-39 -52.5z" glyph-name="uniE00A" horiz-adv-x="839" unicode=""/><glyph d="M760 868q2 -6 -19 -10q-16 -2 -131 -2h-28q-12 -53 -27 -137q-29 -168 -47 -295q-25 -215 -12 -305q2 -8 3 -16.5t2 -13.5t2 -9t1 -7t-1 -5t-3 -3.5t-6 -1.5q-31 -4 -25 140q8 260 57 530q4 25 12.5 67t10.5 56h-55q-229 -477 -338 -477q-31 0 -35 22.5t3 50t5 29.5 q-4 4 -49 -20q-63 -37 -88 -37q-31 0 -31 18q0 43 62 90q49 35 86 35q25 0 34 -28q6 -14 -2 -15q-4 0 -13 12.5t-15 12.5q-25 0 -72 -33q-23 -16 -39 -37.5t-16 -29.5q0 -4 4 -5q8 0 67 27q82 41 93 41q14 0 14 -12q0 -4 -4 -16.5t-9.5 -27t-8.5 -27.5t-1 -22.5t11 -9.5 q88 0 317 459q-379 -4 -383 16q0 4 8 10.5t17.5 8.5t15.5 0q20 -10 57 -10q27 0 297 -4l90 180q2 6 6.5 14t6.5 12t5 9.5t5 7.5t5 6t6 4h6t7.5 -1t10.5 -3q27 -10 24 -27q-2 -4 -11 -15t-15 -32q-12 -35 -41 -155h28h66q78 1 80 -9zM600 1055q2 8 0 10q-6 4 -12 -10 q0 -4 -2 -6l-80 -172h49q25 127 45 178z" glyph-name="uniE00B" horiz-adv-x="679" unicode=""/><glyph d="M1036 1178q16 0 22.5 -11.5t2.5 -21.5q0 -6 -12.5 -29.5t-18.5 -44.5q-25 -82 -49 -180q16 2 41 2q143 8 147 4q2 -12 -49 -16q-16 -2 -102 -9l-43 -4l-31 -151q-4 -25 -19.5 -124t-25.5 -171q-20 -240 -12 -303q2 -14 6 -33q4 -20 -8 -23q-29 -4 -25 140q6 258 58 528 l26 137q-10 -2 -31 -2q-117 -209 -243.5 -369.5t-167.5 -160.5q-18 0 -26.5 13t-7.5 52t12.5 108t33.5 179l35 162h-55q-229 -471 -338 -471q-31 0 -35 22.5t3 49t5 28.5q-4 4 -49 -20q-59 -35 -88 -35q-31 0 -31 18q0 43 62 88q49 37 86 37q27 0 34 -30q4 -12 -2 -15 q-4 0 -13 13.5t-15 11.5q-29 0 -72 -31q-20 -16 -37.5 -37.5t-17.5 -29.5q0 -4 4 -5q14 0 67 27q82 41 93 41q14 0 14 -12q0 -4 -4 -16.5t-9.5 -27t-8.5 -27.5t-1 -22.5t11 -9.5q84 0 317 453q-379 0 -383 20q-2 8 16.5 16.5t24.5 4.5q20 -10 57 -10q137 0 299 2l88 174 q2 6 6.5 13t6.5 11t5 10.5t5 8.5l5 5t6 4t6 1t7.5 -2t10.5 -4q27 -10 24 -27q-2 -4 -11 -14t-15 -31q-4 -12 -9.5 -31.5t-14.5 -54.5t-15 -61q139 0 307 4q70 117 86 147l23 90q12 52 32 52zM584 850h-2l-37 -168q-18 -82 -28.5 -132t-17.5 -98.5t-5 -70t14 -21.5 q27 0 138.5 153t234.5 349q-234 -12 -297 -12zM508 883h49q27 133 43 170q2 8 0 10q-6 6 -12 -8q0 -4 -2 -6zM928 891h20l15 63z" glyph-name="uniE00C" horiz-adv-x="1071" unicode=""/><glyph d="M354 432q-45 35 -73 78l-13 -10q-164 -121 -217 -121q-51 0 -51 39q0 23 67.5 99.5t137.5 129.5q-2 4 -3 8t-2 9.5t-1 7.5q-4 33 23.5 59.5t64.5 26.5t37 -23q0 -29 -88 -98q6 -18 24 -57q12 -25 21 -37q84 66 114 104q10 14 22.5 6t8.5 -18q-20 -29 -129 -113 q37 -47 70 -69q18 -12 4 -23q-7 -4 -17 2zM244 516l20 14q-27 35 -51 91l-8 -7q-59 -45 -110.5 -102t-67.5 -86q-12 -12 -3 -18.5t12 -6.5h13q37 0 195 115zM227 684v-18q96 72 64 71q-18 0 -41 -17.5t-23 -35.5z" glyph-name="uniE00D" horiz-adv-x="413" unicode=""/><glyph d="M383 862q2 12 6 2v-8q-35 -166 -111.5 -293t-181.5 -176l-14 -6q-31 -31 -64.5 -39t-40.5 8q-4 8 9 10q6 2 12 4.5t19.5 7.5t27.5 11q31 27 41 47q39 66 23 88q-10 16 -60 -26q-57 -53 -72 -50q-25 2 -4 64q12 41 39 143.5t52.5 193.5t52.5 173q20 61 33.5 83.5 t25.5 12.5q8 -6 5 -31.5t-15 -50.5q-8 -16 -35 -88q-41 -117 -81 -253t-56 -183q0 -2 -4 -14.5t-5 -16.5t1 -8q10 0 49 43q63 57 92 37q16 -6 14 -45t-28 -84q92 61 161.5 182t108.5 262z" glyph-name="uniE00E" horiz-adv-x="303" unicode=""/><glyph d="M231 545q16 4 19 -4q0 -6 -8 -9q-2 -2 -4 -2q-33 -8 -101 -45q-8 -33 -24 -67q-23 -37 -53.5 -58.5t-51 -19.5t-31.5 10q-12 23 28 63t106 79q4 18 -2 26q-10 16 -60 -26q-57 -53 -72 -50q-25 2 -4 64q12 41 39 143.5t52.5 193.5t52.5 173q20 61 33.5 83.5t25.5 12.5 q8 -6 5 -31.5t-15 -50.5q-8 -16 -35 -88q-41 -117 -81 -253t-56 -183q0 -2 -4 -14.5t-5 -16.5t1 -8q10 0 49 43q63 57 92 37q12 -10 12 -39q65 31 92 37zM86 430l16 33q-49 -33 -78.5 -59.5t-21.5 -38.5q4 -4 18.5 2t34 23t31.5 40z" glyph-name="uniE00F" horiz-adv-x="262" unicode=""/><glyph d="M399 715q100 164 168 319q6 10 11 2q2 -6 -3 -12q-70 -168 -159 -319q-106 -178 -200.5 -260.5t-162.5 -82.5q-25 0 -42 15.5t-17 42.5q0 49 45 106.5t84 57.5q29 0 20 -37q-4 -29 -20 -35q-4 -4 -4 2q0 2 2 8q12 35 -8 35q-29 2 -61 -45t-32 -88q0 -37 33 -37 q66 0 164 93.5t182 234.5z" glyph-name="uniE010" horiz-adv-x="432" unicode=""/><glyph d="M14 446q-4 51 45.5 100.5t79.5 49.5q20 0 23 -16q-2 -8 -8 -11q-29 12 -72 -30.5t-41 -85.5q6 -41 65 -35q29 2 76 14t91 24.5t51 14.5q6 2 10 -6t-6 -10q-8 -2 -97.5 -28t-121.5 -32q-93 -15 -95 51z" glyph-name="uniE011" horiz-adv-x="299" unicode=""/><glyph d="M57 342q-35 0 -49 27.5t2 72.5q23 57 77 100.5t93 43.5q20 0 26.5 -24.5t-3.5 -39.5q-6 -12 -21 -8q-6 2 -4 6q16 37 2 41q-25 8 -76 -34t-71 -95q-10 -29 -3 -48t27 -19q51 0 99 57q6 10 10 -4q2 -8 -2 -12q-48 -64 -107 -64z" glyph-name="uniE012" horiz-adv-x="196" unicode=""/><glyph d="M281 424q14 10 16 0q2 -8 -12 -18q-111 -88 -203 -103q-49 -4 -83 23.5t-34 76.5q0 66 52.5 120.5t97.5 54.5q23 0 22 -19q0 -10 -6 -10q-2 0 -7 2t-9 2q-39 0 -82 -47t-43 -98q0 -41 27.5 -65t60.5 -17q88 12 203 98z" glyph-name="uniE013" horiz-adv-x="376" unicode=""/><glyph d="M311 315q-31 -4 -58.5 17.5t-35.5 60.5q-47 -27 -115 -49q-53 -16 -90 1t-37 61q0 57 49.5 114.5t106.5 57.5q20 0 21 -17q-2 -8 -9 -10q-39 14 -90 -39t-51 -98q0 -72 94 -52q59 12 117 48v20q0 72 49 135.5t92 63.5q29 0 29 -39q0 -90 -141 -182q4 -35 23.5 -54.5 t45.5 -17.5q47 6 99 61l8 4q4 0 4 -6q0 -4 -2 -6q-52 -68 -109 -74zM240 430v-4q37 20 79.5 75.5t42.5 90.5q0 14 -16 14q-29 0 -67.5 -61.5t-38.5 -114.5z" glyph-name="uniE014" horiz-adv-x="481" unicode=""/><glyph d="M57 356q96 -16 267 136q0 23 4 34q33 231 145 480q80 176 164 274t137 98q72 -20 21.5 -192t-142.5 -318q-131 -215 -299 -372q-18 -170 56 -181q43 -2 92 62q6 8 12 2t-4 -21q-45 -70 -102 -69q-41 2 -65 49t-21 125q-176 -150 -271 -131q-41 6 -57.5 42t4.5 95 q25 59 73 100t87 41q20 0 27.5 -14t-1.5 -29q-10 -16 -24 -8q-2 2 0 4q12 23 -2 23q-27 4 -69 -32t-62 -91q-16 -43 -6.5 -73t36.5 -34zM631 874q49 80 84 157t51 134.5t22.5 102.5t0 67.5t-18.5 22.5q-45 0 -124 -109.5t-144 -253.5q-104 -223 -144 -469q150 143 273 348z " glyph-name="uniE015" horiz-adv-x="544" unicode=""/><glyph d="M739 872q2 -10 -30.5 -13t-116.5 -3h-29q-12 -53 -26 -137q-16 -78 -48 -295q-25 -211 -14 -305q2 -14 6 -33q4 -20 -6 -23q-31 -4 -24 140q0 68 16 231.5t41 298.5l22 123q-8 0 -26.5 -1t-28.5 -1q-6 -10 -36.5 -66.5t-47.5 -85.5q-102 -174 -199.5 -252.5t-162.5 -78.5 q-61 0 -62 59q4 47 47 97.5t82 50.5q29 0 23 -37q-4 -29 -21 -37q-6 -2 -6 4q0 4 2 8q12 33 -6 33q-29 2 -60.5 -36t-33.5 -81q-2 -37 35 -37q61 0 162.5 90t183.5 228q27 43 78 141q-248 0 -252 14q-2 8 10 17.5t20 5.5q20 -10 58 -10h22q25 -2 70 -3t84 -1q23 39 46.5 83 t38.5 74.5t19 36.5q14 25 21.5 32t19.5 3q27 -10 25 -27q-2 -4 -12.5 -15t-16.5 -32q-12 -43 -39 -155h27q31 0 58.5 1t41 1h25.5t15 -1.5t5 -5.5zM567 1036l-80 -159h50q25 111 43 155q4 14 -1.5 15t-11.5 -11z" glyph-name="uniE016" horiz-adv-x="661" unicode=""/><glyph d="M197 381q53 186 133 432q-66 -127 -144 -254q14 -6 35 -20q6 -6 2 -10.5t-12 -2.5q-29 14 -35 17l-12 -21q-76 -119 -113 -168t-55 -49q-14 0 -27.5 20.5t-13.5 49.5q0 76 50 136t122 60q16 0 41 -4q166 293 203 361q6 25 20.5 61.5t16.5 44.5q55 150 65 150 q8 0 18.5 -14.5t8.5 -22.5q0 -12 -92 -186q-143 -422 -191 -592q-14 -45 -18 -82t0 -55.5t14 -18.5q51 0 184 221q2 4 8.5 6t8.5 -1t-2 -13q-43 -86 -104.5 -163t-96.5 -77q-65 0 -14 195zM145 530l11 17h-13q-66 0 -112.5 -53.5t-46.5 -116.5q0 -49 12 -49q14 0 64 72.5 t85 129.5z" glyph-name="uniE017" horiz-adv-x="434" unicode=""/><glyph d="M221 522l-33 15q-29 -45 -55 -86q-2 -111 37 -172.5t90 -61.5q33 0 62 29q8 6 10 -6q2 -10 -6 -17q-27 -20 -70 -24q-59 0 -104.5 51t-47.5 160q-82 -113 -110 -113q-16 0 -28.5 19.5t-12.5 48.5q0 78 47 141t121 65q6 41 18 82q45 164 134 328t133 164q41 -12 19 -101.5 t-87 -228.5q-66 -137 -139 -262q6 -2 12 -6t11 -8t7 -7q6 -6 3 -10t-11 0zM166 651q-10 -35 -21 -84q18 0 31 -6q74 125 146 268q39 76 62.5 143.5t24.5 97.5t-8 36q-33 0 -113.5 -152.5t-121.5 -302.5zM-6 319q29 0 112 125q0 51 9 101q-59 -10 -96 -64.5t-37 -113.5 q0 -48 12 -48zM135 492l31 51q-16 4 -23 4q-4 -18 -8 -55z" glyph-name="uniE018" horiz-adv-x="354" unicode=""/><glyph d="M119 358q-53 -8 -92 33t-9 113q18 39 50 58.5t53 15.5q16 -4 21 -20.5t-7 -41.5q-20 -45 -104 -72q4 -68 82 -61q49 6 101 60.5t106.5 155.5t95.5 192.5t96 226.5q4 10 10 6q2 -2 0 -10q-113 -315 -206 -477.5t-197 -178.5zM41 494q-6 -10 -10 -35q59 16 86 65 q14 27 2 35q-14 2 -39 -14t-39 -51z" glyph-name="uniE019" horiz-adv-x="389" unicode=""/><glyph d="M115 416q-47 0 -67.5 30.5t-0.5 71.5q16 39 49 59.5t54 14.5q14 -2 19 -18.5t-5 -41.5q-23 -45 -98 -69q12 -27 47 -27q51 0 125 41q14 8 14 -4q0 -6 -4 -8q-72 -49 -133 -49zM70 510q-10 -18 -7 -35q57 20 82 66q16 27 0 32q-12 4 -36.5 -12t-38.5 -51z" glyph-name="uniE01A" horiz-adv-x="202" unicode=""/><glyph d="M193 453q-53 -57 -109 -58q-47 -4 -66.5 30t0.5 75q16 39 47 59.5t54 13.5q37 -4 20 -51q-20 -51 -104 -80q10 -25 43 -24q47 0 108 47q12 10 13 0q0 -6 -6 -12zM41 492q-8 -16 -8 -35q27 10 53.5 31.5t34.5 41.5q6 20 -6 25q-14 4 -37 -12t-37 -51z" glyph-name="uniE01B" horiz-adv-x="223" unicode=""/><glyph d="M96 371q-66 -12 -83 33t7 83q18 45 49 74t58 25q20 -2 23.5 -25.5t-9.5 -48.5q-25 -55 -108 -82q4 -45 67 -37q61 12 154 56q10 6 13 -1.5t-5 -11.5q-23 -14 -79 -36.5t-87 -28.5zM43 479q-8 -18 -10 -35q55 18 88 78q6 8 9 19.5t1 18.5t-8 7q-12 2 -39 -25.5t-41 -62.5z " glyph-name="uniE01C" horiz-adv-x="243" unicode=""/><glyph d="M143 539q0 -33 -33.5 -73t-78.5 -58q12 -63 69 -64q53 0 90 41q6 6 11 6q6 0 6 -8q0 -2 -2 -4q-51 -61 -111 -62q-14 0 -30.5 5.5t-38 32t-21.5 71.5q0 68 36 107.5t71 39.5q32 1 32 -34zM29 432v-8q31 16 62.5 54t31.5 59q0 18 -14 18q-25 0 -52.5 -35t-27.5 -88z" glyph-name="uniE01D" horiz-adv-x="231" unicode=""/><glyph d="M518 514q12 16 15.5 10t-7.5 -18q-37 -55 -82 -90t-77 -35q-31 -2 -45.5 23.5t-4.5 64.5q2 10 4.5 19.5t3.5 14.5t2 9t1 6q0 8 -29 19q-12 4 -18 8q-14 -43 -24.5 -64.5t-32 -59.5t-51.5 -56.5t-67 -18.5q-43 0 -70.5 27.5t-27.5 75.5q0 51 35 87.5t67.5 36.5t32.5 -28 q0 -33 -33.5 -67t-76.5 -48q6 -27 27.5 -44t41.5 -17q35 0 54.5 8t48 49t63.5 127q-33 25 -32 49q-2 31 10 46.5t30 15.5q29 0 29 -35q0 -20 -14 -64l12 -6q57 -20 57 -35q0 -4 -3 -11t-7 -19.5t-8 -28.5q-8 -31 -2 -46.5t33 -15.5q31 0 61.5 26t83.5 85zM31 451v-9 q31 12 60.5 47t29.5 54q0 12 -12 12q-23 0 -50.5 -29.5t-27.5 -74.5zM260 604q0 -10 16 -26q12 39 15 47q0 20 -12 20q-27 0 -19 -41z" glyph-name="uniE01E" horiz-adv-x="499" unicode=""/><glyph d="M389 621q-10 -31 -16 -99q-6 -82 4 -82q2 0 3 10.5t9 31t23 42.5q51 74 100 74q10 0 31.5 -11.5t38.5 -15.5q37 -10 71 2q20 6 21 -2q0 -2 -15.5 -9t-40 -12t-45 -3t-37 11t-20.5 9q-53 0 -94 -61q-16 -25 -39 -109q-6 -35 -10 -37q-14 0 -15 11q-6 8 -10 47 q-2 31 2 102.5t8 97.5q0 10 -1 16.5t-6 3.5t-9 -15q-33 -86 -99.5 -180.5t-136.5 -94.5q-41 0 -69.5 27.5t-28.5 73.5q0 51 35 87.5t70 36.5q31 0 30 -28q0 -33 -34.5 -68t-75.5 -49q8 -25 28.5 -41t40.5 -16q51 0 114 66.5t112 195.5q14 33 39.5 26t21.5 -38zM31 451v-9 q31 12 61.5 47t30.5 54q0 12 -14 12q-23 0 -50.5 -29.5t-27.5 -74.5z" glyph-name="uniE01F" horiz-adv-x="636" unicode=""/></font>
</defs>
</svg>
