<svg width="73" height="72" viewBox="0 0 73 72" fill="none" xmlns="http://www.w3.org/2000/svg">
<path d="M14.7302 8.23907L8.36621 14.603L57.524 63.7608L63.8879 57.3968L14.7302 8.23907Z" fill="#C66D72"/>
<path d="M36.0162 59.3105L21.7038 44.8637C20.0514 43.1917 19.1282 40.9336 19.1358 38.5829C19.1434 36.2322 20.0813 33.9801 21.7445 32.3188C23.4076 30.6575 25.6608 29.7222 28.0115 29.7173C30.3622 29.7124 32.6193 30.6382 34.2894 32.2925L36.1266 34.1309L37.965 32.2925C39.6393 30.6553 41.8918 29.7444 44.2335 29.7575C46.5752 29.7707 48.8173 30.7068 50.4731 32.3628C52.1289 34.0188 53.0648 36.2609 53.0778 38.6027C53.0907 40.9444 52.1796 43.1968 50.5422 44.8709L36.0162 59.3105ZM28.0002 33.7673C27.048 33.7673 26.1171 34.0496 25.3254 34.5786C24.5336 35.1076 23.9165 35.8595 23.5521 36.7393C23.1877 37.619 23.0923 38.5871 23.2781 39.521C23.4639 40.4549 23.9225 41.3128 24.5958 41.9861L36.0378 53.5349L47.661 41.9813C48.5633 41.0781 49.0698 39.8534 49.0691 38.5768C49.0684 37.3001 48.5606 36.076 47.6574 35.1737C46.7542 34.2714 45.5295 33.7649 44.2529 33.7656C42.9762 33.7663 41.7521 34.2741 40.8498 35.1773L36.1266 39.9005L31.4034 35.1773C30.9575 34.7291 30.4271 34.3737 29.8429 34.1316C29.2588 33.8896 28.6325 33.7658 28.0002 33.7673Z" fill="#172530"/>
<path d="M36.0162 39.751L21.7038 25.3054C20.0514 23.6334 19.1282 21.3753 19.1358 19.0246C19.1434 16.6739 20.0813 14.4218 21.7445 12.7605C23.4076 11.0992 25.6608 10.1639 28.0115 10.159C30.3622 10.1541 32.6193 11.0799 34.2894 12.7342L36.1266 14.5714L37.965 12.7342C39.6328 11.0664 41.8949 10.1294 44.2536 10.1294C45.4215 10.1294 46.578 10.3594 47.657 10.8064C48.736 11.2533 49.7164 11.9084 50.5422 12.7342C51.368 13.56 52.0231 14.5405 52.4701 15.6195C52.917 16.6985 53.147 17.8549 53.147 19.0228C53.147 20.1907 52.917 21.3472 52.4701 22.4262C52.0231 23.5052 51.368 24.4856 50.5422 25.3114L36.0162 39.751ZM28.0002 14.2114C27.0482 14.2109 26.1175 14.4929 25.3257 15.0215C24.534 15.5501 23.9168 16.3018 23.5524 17.1812C23.1879 18.0607 23.0925 19.0285 23.2783 19.9622C23.464 20.8959 23.9225 21.7536 24.5958 22.4266L36.0378 33.9766L47.661 22.423C48.5633 21.5198 49.0698 20.2951 49.0691 19.0185C49.0684 17.7418 48.5606 16.5177 47.6574 15.6154C47.2102 15.1687 46.6793 14.8144 46.0952 14.5728C45.511 14.3312 44.885 14.207 44.2529 14.2073C42.9762 14.208 41.7521 14.7158 40.8498 15.619L36.1266 20.3422L31.4034 15.619C30.9567 15.1719 30.4262 14.8174 29.8422 14.5758C29.2582 14.3343 28.6322 14.2104 28.0002 14.2114Z" fill="#172530"/>
<path d="M38.1659 17.4565H34.0859V62.0401H38.1659V17.4565Z" fill="#172530"/>
</svg>
