<svg width="85" height="84" viewBox="0 0 85 84" fill="none" xmlns="http://www.w3.org/2000/svg">
<path d="M42.9488 71.6179C35.167 71.6179 27.8511 68.5833 22.3359 63.0806C16.8333 57.578 13.8112 50.2621 13.8112 42.4803C13.8112 34.6986 16.8459 27.3827 22.3485 21.8675C27.8511 16.3648 35.167 13.3428 42.9488 13.3428C50.7306 13.3428 58.0464 16.3774 63.5617 21.8801C69.0643 27.3827 72.099 34.6986 72.099 42.4929C72.099 50.2747 69.0643 57.5906 63.5617 63.1058C58.0464 68.5959 50.7306 71.6179 42.9488 71.6179ZM42.9488 17.624C29.2363 17.624 18.0925 28.7678 18.0925 42.4803C18.0925 49.1163 20.6738 55.3618 25.3705 60.0586C30.0673 64.7554 36.3129 67.3367 42.9488 67.3367C56.6613 67.3367 67.8051 56.1803 67.8051 42.4803C67.8051 28.7804 56.6613 17.624 42.9488 17.624Z" fill="white"/>
<path d="M36.2756 33.0364C37.5621 33.0364 38.6051 31.9935 38.6051 30.7069C38.6051 29.4204 37.5621 28.3774 36.2756 28.3774C34.9891 28.3774 33.9461 29.4204 33.9461 30.7069C33.9461 31.9935 34.9891 33.0364 36.2756 33.0364Z" fill="white"/>
<path d="M25.5088 43.2737C26.7953 43.2737 27.8383 42.2308 27.8383 40.9442C27.8383 39.6577 26.7953 38.6147 25.5088 38.6147C24.2222 38.6147 23.1793 39.6577 23.1793 40.9442C23.1793 42.2308 24.2222 43.2737 25.5088 43.2737Z" fill="white"/>
<path d="M44.0821 46.0311C45.3686 46.0311 46.4116 44.9881 46.4116 43.7016C46.4116 42.415 45.3686 41.3721 44.0821 41.3721C42.7955 41.3721 41.7526 42.415 41.7526 43.7016C41.7526 44.9881 42.7955 46.0311 44.0821 46.0311Z" fill="white"/>
<path d="M57.178 31.9412C58.4646 31.9412 59.5075 30.8983 59.5075 29.6117C59.5075 28.3252 58.4646 27.2822 57.178 27.2822C55.8915 27.2822 54.8485 28.3252 54.8485 29.6117C54.8485 30.8983 55.8915 31.9412 57.178 31.9412Z" fill="white"/>
<path d="M53.4879 58.3465C54.7745 58.3465 55.8174 57.3035 55.8174 56.017C55.8174 54.7305 54.7745 53.6875 53.4879 53.6875C52.2014 53.6875 51.1584 54.7305 51.1584 56.017C51.1584 57.3035 52.2014 58.3465 53.4879 58.3465Z" fill="white"/>
<path d="M45.2779 57.6658C46.5644 57.6658 47.6074 56.6229 47.6074 55.3363C47.6074 54.0498 46.5644 53.0068 45.2779 53.0068C43.9913 53.0068 42.9484 54.0498 42.9484 55.3363C42.9484 56.6229 43.9913 57.6658 45.2779 57.6658Z" fill="white"/>
</svg>
