<svg width="12" height="12" viewBox="0 0 12 12" fill="none" xmlns="http://www.w3.org/2000/svg">
<path d="M3.92159 9.67827C4.12765 9.88427 4.40711 10 4.69849 10C4.98987 10 5.26932 9.88427 5.47538 9.67827L9 6.1542L5.47538 2.63014C5.26111 2.41531 4.9798 2.30817 4.69849 2.30817C4.41718 2.30817 4.13587 2.41531 3.92159 2.63014C3.71558 2.8362 3.59985 3.11565 3.59985 3.40703C3.59985 3.69841 3.71558 3.97786 3.92159 4.18393L5.89131 6.1542L3.92159 8.12447C3.71558 8.33054 3.59985 8.60999 3.59985 8.90137C3.59985 9.19275 3.71558 9.4722 3.92159 9.67827Z" fill="white"/>
</svg>
