<svg width="73" height="73" viewBox="0 0 73 73" fill="none" xmlns="http://www.w3.org/2000/svg">
<path d="M18.3345 65.1837C17.0373 65.1837 15.9885 64.1501 15.9885 62.8717V43.5189C15.9885 42.2405 17.0373 41.2069 18.3345 41.2069C19.6317 41.2069 20.6805 42.2405 20.6805 43.5189V62.8717C20.6805 64.1365 19.6317 65.1837 18.3345 65.1837Z" fill="white"/>
<path d="M28.1464 55.4996H8.50896C7.21176 55.4996 6.16296 54.466 6.16296 53.1876C6.16296 51.9092 7.21176 50.8756 8.50896 50.8756H28.1464C29.4436 50.8756 30.4924 51.9092 30.4924 53.1876C30.4924 54.466 29.4436 55.4996 28.1464 55.4996Z" fill="white"/>
<path d="M53.387 47.8849C52.0898 47.8849 51.041 46.8513 51.041 45.5729V26.2201C51.041 24.9417 52.0898 23.9081 53.387 23.9081C54.6842 23.9081 55.733 24.9417 55.733 26.2201V45.5729C55.733 46.8513 54.6842 47.8849 53.387 47.8849Z" fill="white"/>
<path d="M63.2124 38.2009H43.575C42.2778 38.2009 41.229 37.1673 41.229 35.8889C41.229 34.6105 42.2778 33.5769 43.575 33.5769H63.2124C64.5096 33.5769 65.5584 34.6105 65.5584 35.8889C65.5584 37.1673 64.5096 38.2009 63.2124 38.2009Z" fill="white"/>
<path d="M32.9768 31.8633C31.6796 31.8633 30.6308 30.8297 30.6308 29.5513V10.1985C30.6308 8.92007 31.6796 7.88647 32.9768 7.88647C34.274 7.88647 35.3228 8.92007 35.3228 10.1985V29.5513C35.3228 30.8161 34.274 31.8633 32.9768 31.8633Z" fill="white"/>
<path d="M42.7875 22.1815H23.1501C21.8529 22.1815 20.8041 21.1479 20.8041 19.8695C20.8041 18.5911 21.8529 17.5575 23.1501 17.5575H42.7875C44.0847 17.5575 45.1335 18.5911 45.1335 19.8695C45.1335 21.1479 44.0847 22.1815 42.7875 22.1815Z" fill="white"/>
<path d="M41.9476 66.394C41.5888 66.394 41.2438 66.258 40.9678 65.9996C40.4296 65.4692 40.4296 64.6124 40.9678 64.082L47.9092 57.2412C48.4474 56.7108 49.3168 56.7108 49.855 57.2412C50.3932 57.7716 50.3932 58.6284 49.855 59.1588L42.9136 65.9996C42.6514 66.258 42.2926 66.394 41.9476 66.394Z" fill="white"/>
<path d="M48.889 66.394C48.5302 66.394 48.1852 66.258 47.9092 65.9996L40.9678 59.1588C40.4296 58.6284 40.4296 57.7716 40.9678 57.2412C41.506 56.7108 42.3754 56.7108 42.9136 57.2412L49.855 64.082C50.3932 64.6124 50.3932 65.4692 49.855 65.9996C49.5928 66.258 49.234 66.394 48.889 66.394Z" fill="white"/>
<path d="M9.03335 34.3264C8.67455 34.3264 8.32955 34.1904 8.05355 33.932C7.51535 33.4016 7.51535 32.5448 8.05355 32.0144L14.995 25.1736C15.5332 24.6432 16.4026 24.6432 16.9408 25.1736C17.479 25.704 17.479 26.5608 16.9408 27.0912L9.99935 33.932C9.73715 34.1904 9.39215 34.3264 9.03335 34.3264Z" fill="white"/>
<path d="M15.9748 34.3264C15.616 34.3264 15.271 34.1904 14.995 33.932L8.05355 27.0912C7.51535 26.5608 7.51535 25.704 8.05355 25.1736C8.59175 24.6432 9.46115 24.6432 9.99935 25.1736L16.9408 32.0144C17.479 32.5448 17.479 33.4016 16.9408 33.932C16.6786 34.1904 16.3336 34.3264 15.9748 34.3264Z" fill="white"/>
</svg>
