<svg width="85" height="84" viewBox="0 0 85 84" fill="none" xmlns="http://www.w3.org/2000/svg">
<path d="M36.3397 47.9275C35.5743 47.9275 34.9481 47.3013 34.9481 46.5359C34.9481 45.7705 35.5743 45.1443 36.3397 45.1443L51.9951 45.1025C52.7604 45.1025 53.3867 45.7288 53.3867 46.4941C53.3867 47.2595 52.7604 47.8857 51.9951 47.8857L36.3397 47.9275Z" fill="white"/>
<path d="M35.0033 55.3035C34.238 55.3035 33.6118 54.6772 33.6118 53.9119C33.6118 53.1465 34.238 52.5203 35.0033 52.5203L50.6449 52.4785C51.4102 52.4785 52.0364 53.1047 52.0364 53.8701C52.0364 54.6355 51.4102 55.2617 50.6449 55.2617L35.0033 55.3035Z" fill="white"/>
<path d="M30.7309 74.6313C29.4228 74.6313 28.3652 73.5737 28.3652 72.2656V64.4726C28.3652 63.8464 28.6157 63.248 29.061 62.8027C29.5063 62.3574 30.1047 62.1069 30.7309 62.1069L57.6025 62.0791C58.9106 62.0791 59.9683 63.1367 59.9683 64.4448V72.2377C59.9683 72.8639 59.7178 73.4623 59.2725 73.9076C58.8271 74.353 58.2288 74.6034 57.6025 74.6034L30.7309 74.6313ZM33.0966 66.8384V69.8999L55.2368 69.8859V66.8244L33.0966 66.8384Z" fill="white"/>
<path d="M56.0852 66.185C55.7095 66.185 55.3199 66.0875 54.9581 65.8927C53.817 65.2665 53.3856 63.8332 54.0118 62.6781L55.6678 59.6166C58.1587 55.0383 59.4668 49.8755 59.4668 44.657C59.4668 42.2078 59.7173 39.7447 60.2183 37.3372L63.1406 23.2821C63.2937 22.5724 62.8345 21.8488 62.1248 21.6957L61.6934 21.5983C60.9697 21.4313 60.2461 21.8905 60.0791 22.6142L57.0176 35.9735C56.7393 37.1842 55.5704 37.9774 54.3458 37.7825C53.1212 37.5877 52.2444 36.4744 52.3558 35.2498L53.9839 16.2268C54.0535 15.4892 53.4969 14.8352 52.7593 14.7656L52.5228 14.7517C51.7852 14.6821 51.1312 15.2387 51.0616 15.9763L49.1829 35.6812C49.0577 36.9337 47.9862 37.866 46.7337 37.8243C45.4813 37.7825 44.4794 36.7528 44.4515 35.5003L44.0619 15.03C44.048 14.3064 43.4357 13.708 42.712 13.708H42.2667C41.5153 13.708 40.9169 14.3203 40.9169 15.0578V35.7369C40.9169 36.9893 39.9428 38.0191 38.7042 38.1026C37.4518 38.1861 36.3664 37.2816 36.1994 36.043L33.8893 18.0497C33.7919 17.3261 33.1518 16.8112 32.4282 16.8808C32.0664 16.9086 31.7324 17.0895 31.5097 17.3679C31.2731 17.6462 31.1757 18.008 31.2175 18.3698L33.124 35.8761C33.4858 39.1602 32.7343 42.5418 31.0366 45.3667C30.3408 46.5357 29.0605 47.2315 27.6967 47.2036C26.3469 47.1758 25.0945 46.4104 24.4404 45.2276L19.542 36.2379C19.1663 35.5421 18.2896 35.2916 17.6077 35.6534C16.9258 36.0152 16.6475 36.8363 16.9676 37.5321L19.7786 43.6272C21.0449 46.3687 22.687 48.9292 24.677 51.2114L34.2372 62.2607C35.0861 63.2487 34.9887 64.7377 34.0007 65.6005C33.0126 66.4494 31.5236 66.3519 30.6608 65.3639L21.0867 54.3147C18.8184 51.6985 16.9258 48.7622 15.4786 45.6172L12.6675 39.522C11.2899 36.544 12.4866 33.0094 15.3951 31.4786C18.3592 29.92 22.0886 31.0333 23.689 33.9835L27.7246 41.3868C28.3508 39.8003 28.5874 38.0748 28.4065 36.3909L26.5 18.8708C26.3191 17.2426 26.7922 15.6423 27.8359 14.362C28.8796 13.0957 30.3408 12.3025 31.9829 12.1494C33.6389 11.9963 35.1974 12.5112 36.3942 13.4714C37.0761 10.8552 39.4557 8.9209 42.2806 8.9209H42.712C44.9247 8.9209 46.8729 10.1316 47.9444 11.9128C49.1829 10.5908 50.992 9.81152 52.9263 9.99243L53.1629 10.0063C56.5027 10.2986 58.9798 13.2488 58.6875 16.5886L58.6179 17.4653C59.8425 16.8391 61.3037 16.6164 62.751 16.9504L63.1824 17.0478C66.383 17.7853 68.4426 20.9999 67.7746 24.2145L64.8523 38.2974C64.4209 40.3848 64.1982 42.514 64.1982 44.6431C64.1982 50.6409 62.6814 56.5969 59.8147 61.8571L58.1587 64.9186C57.7412 65.7396 56.9202 66.185 56.0852 66.185Z" fill="white"/>
</svg>
