<svg width="73" height="73" viewBox="0 0 73 73" fill="none" xmlns="http://www.w3.org/2000/svg">
<path d="M56.5472 63.7763H15.5712C14.3492 63.7763 13.3612 62.7883 13.3612 61.5663V11.2043C13.3612 9.98226 14.3492 8.99426 15.5712 8.99426H56.5472C57.7692 8.99426 58.7572 9.98226 58.7572 11.2043V61.5533C58.7572 62.7883 57.7692 63.7763 56.5472 63.7763ZM17.7812 59.3563H54.3372V13.4143H17.7812V59.3563Z" fill="white"/>
<path d="M35.9798 56.3681C35.2648 56.3681 34.6798 55.7831 34.6798 55.0681V17.7061C34.6798 16.9911 35.2648 16.4061 35.9798 16.4061C36.6948 16.4061 37.2798 16.9911 37.2798 17.7061V55.0551C37.2798 55.7831 36.6948 56.3681 35.9798 56.3681Z" fill="white"/>
<path d="M50.0471 46.265H22.0711C21.3561 46.265 20.7711 45.68 20.7711 44.965C20.7711 44.25 21.3561 43.665 22.0711 43.665H50.0471C50.7621 43.665 51.3471 44.25 51.3471 44.965C51.3471 45.68 50.7621 46.265 50.0471 46.265Z" fill="white"/>
<path d="M50.0471 29.1052H22.0711C21.3561 29.1052 20.7711 28.5202 20.7711 27.8052C20.7711 27.0902 21.3561 26.5052 22.0711 26.5052H50.0471C50.7621 26.5052 51.3471 27.0902 51.3471 27.8052C51.3471 28.5202 50.7621 29.1052 50.0471 29.1052Z" fill="white"/>
</svg>
