<svg width="85" height="84" viewBox="0 0 85 84" fill="none" xmlns="http://www.w3.org/2000/svg">
<path d="M17.9261 64.4928C17.783 64.4928 17.64 64.4785 17.497 64.4499L9.60234 63.0627C8.97305 62.9482 8.40097 62.5907 8.02912 62.0615C7.65727 61.5323 7.51425 60.8745 7.62867 60.2452L12.4627 33.0429C12.5771 32.4136 12.9347 31.8415 13.4639 31.4697C13.993 31.0978 14.6509 30.9548 15.2802 31.0692L23.1749 32.4708C24.4906 32.6996 25.3774 33.9725 25.1485 35.2883L20.3145 62.4906C20.1143 63.6633 19.0845 64.4928 17.9261 64.4928ZM12.8489 58.7006L15.9524 59.2583L19.9283 36.8472L16.8248 36.2894L12.8489 58.7006Z" fill="white"/>
<path d="M53.9525 70.8445C53.595 70.8445 53.2374 70.8159 52.8656 70.7444C52.7798 70.7301 52.694 70.7157 52.6224 70.6871L17.4969 64.4658C16.1811 64.237 15.2944 62.9641 15.5232 61.6483C15.7521 60.3325 17.0249 59.4458 18.3407 59.6747L53.7094 65.9532C53.7523 65.9675 53.8095 65.9675 53.8524 65.9818C54.4817 66.0104 55.0538 65.5814 55.1682 64.9378C55.2969 64.2513 54.8249 63.5934 54.1384 63.4647C52.8227 63.2358 51.936 61.963 52.1648 60.6472C52.3936 59.3314 53.6665 58.4447 54.9823 58.6735C54.9823 58.6735 54.9823 58.6735 54.9966 58.6735L56.3266 58.9167C56.6556 58.9739 56.9988 58.9024 57.2706 58.7021C57.5423 58.5019 57.7282 58.2159 57.7854 57.8869C57.8427 57.558 57.7711 57.2147 57.5709 56.943C57.3707 56.6713 57.0847 56.4853 56.7557 56.4281C55.4399 56.1993 54.5532 54.9264 54.782 53.6106C55.0109 52.2949 56.2837 51.4081 57.5995 51.637L58.9439 51.8801C59.6304 52.0088 60.2883 51.5369 60.417 50.8504C60.5457 50.1639 60.0738 49.506 59.4016 49.3916C58.0858 49.1627 57.1991 47.8899 57.4279 46.5741C57.6567 45.2583 58.9296 44.3716 60.2454 44.6004L61.4181 44.8149C61.7471 44.8722 62.0903 44.8006 62.3621 44.6004C62.6338 44.4002 62.8197 44.1142 62.8769 43.7852C62.9341 43.4563 62.8626 43.113 62.6624 42.8413C62.4622 42.5695 62.1761 42.3836 61.8472 42.3264L61.7328 42.3121L43.6551 39.1085C42.8971 38.9798 42.2392 38.4792 41.896 37.7927C41.5527 37.1062 41.567 36.2767 41.9246 35.5902C41.9532 35.5473 44.2272 31.1995 47.4737 25.4215C49.1328 22.461 48.9755 19.2288 48.0744 17.3266C47.6454 16.4256 47.1448 16.0252 46.9303 15.9822C46.5155 15.9107 46.2152 15.8964 46.0293 15.925L45.6288 18.1704C44.8565 22.5182 42.4824 26.3655 38.9498 28.997L23.5037 40.5244C22.4311 41.3253 20.9008 41.1107 20.0998 40.0238C19.2989 38.9512 19.5135 37.4208 20.6004 36.6199L36.0465 25.0926C38.5922 23.1904 40.2942 20.4301 40.852 17.3123L41.3668 14.4519C41.3668 14.4233 41.3811 14.3947 41.3811 14.3518C41.6958 12.9216 43.4406 10.4188 47.7884 11.1911C49.7049 11.5343 51.4211 13.0074 52.4794 15.2385C53.8667 18.1847 54.3959 23.0188 51.7214 27.7956C50.1339 30.6274 48.7752 33.116 47.817 34.9037L62.7196 37.5496C66.052 38.1359 68.2688 41.3253 67.6824 44.6576C67.382 46.3882 66.3666 47.8184 64.9936 48.7194C65.3083 49.6776 65.3941 50.7073 65.2081 51.7371C64.8935 53.5248 63.8209 54.9979 62.3907 55.8846C62.6767 56.8143 62.7482 57.8011 62.5766 58.7879C62.2906 60.4041 61.3895 61.8056 60.0452 62.7353C59.945 62.8068 59.8449 62.864 59.7448 62.9355C60.0308 63.8365 60.1024 64.8234 59.9307 65.8245C59.6447 67.4406 58.7437 68.8422 57.4136 69.7718C56.3982 70.4726 55.1968 70.8445 53.9525 70.8445Z" fill="white"/>
<path d="M52.9086 39.6798C52.6798 39.6798 52.4366 39.6226 52.2221 39.5082C51.5356 39.1221 51.2782 38.264 51.65 37.5632L56.3411 29.0106C56.8416 28.0953 57.0705 27.0655 57.0133 26.0215L56.7415 21.7738C56.6414 20.1863 56.9847 18.6131 57.757 17.2258L63.1917 7.32887C63.5779 6.64237 64.436 6.38494 65.1368 6.75679C65.8233 7.14294 66.0807 8.00106 65.7088 8.70185L60.2741 18.5988C59.7735 19.5141 59.5447 20.5439 59.6019 21.5879L59.8737 25.8356C59.9738 27.4231 59.6305 28.9963 58.8582 30.3836L54.1529 38.9361C53.8954 39.4224 53.4092 39.6798 52.9086 39.6798Z" fill="white"/>
<path d="M36.6473 76.9223C36.0037 76.9223 35.3601 76.765 34.7881 76.436C32.9002 75.4063 32.2137 73.0179 33.2435 71.1443L36.6473 64.9373C37.0335 64.2508 37.8916 63.9933 38.5924 64.3652C39.2789 64.7513 39.5363 65.6095 39.1645 66.3103L35.7606 72.5173C35.4889 73.0179 35.6748 73.6614 36.1754 73.9332C36.4185 74.0619 36.7045 74.0905 36.962 74.019C37.2337 73.9475 37.4482 73.7616 37.5912 73.5184L41.796 65.8383C42.1822 65.1518 43.0403 64.8944 43.7411 65.2662C44.4276 65.6524 44.685 66.5105 44.3132 67.2113L40.1084 74.8914C39.6078 75.8067 38.7783 76.4646 37.7772 76.765C37.391 76.8651 37.0192 76.9223 36.6473 76.9223Z" fill="white"/>
<path d="M58.0436 40.5958C57.8147 40.5958 57.5716 40.5386 57.3571 40.4242C56.6706 40.038 56.4131 39.1799 56.785 38.4791L60.6608 31.3996C61.4188 30.0124 62.563 28.8682 63.9503 28.0959L67.6831 26.0364C68.5984 25.5359 69.3421 24.7778 69.8427 23.8625L75.2774 13.9656C75.6635 13.2791 76.5217 13.0217 77.2225 13.3935C77.9089 13.7797 78.1664 14.6378 77.7945 15.3386L72.3598 25.2355C71.6018 26.6228 70.4576 27.767 69.0703 28.5393L65.3375 30.5987C64.4222 31.0993 63.6785 31.8573 63.178 32.7726L59.3021 39.8521C59.0447 40.3241 58.5441 40.5958 58.0436 40.5958Z" fill="white"/>
<path d="M63.0343 21.5583C62.8055 21.5583 62.5624 21.5011 62.3478 21.3867C61.6614 21.0005 61.4039 20.1424 61.7758 19.4416L67.2105 9.54469C67.5967 8.85819 68.4548 8.60076 69.1556 8.97261C69.8421 9.35876 70.0995 10.2169 69.7276 10.9177L64.2929 20.8146C64.0355 21.3009 63.5349 21.5583 63.0343 21.5583Z" fill="white"/>
<path d="M67.0672 23.7741C66.8384 23.7741 66.5953 23.7169 66.3807 23.6025C65.6943 23.2164 65.4368 22.3582 65.8087 21.6574L71.2434 11.7605C71.6296 11.074 72.4877 10.8166 73.1885 11.1884C73.875 11.5746 74.1324 12.4327 73.7605 13.1335L68.3258 23.0304C68.0684 23.5024 67.5678 23.7741 67.0672 23.7741Z" fill="white"/>
</svg>
