<svg width="72" height="72" viewBox="0 0 72 72" fill="none" xmlns="http://www.w3.org/2000/svg">
<path d="M67.8632 29.532C67.4852 29.14 66.9112 28.944 66.1552 28.944C55.5852 28.944 45.0992 28.944 39.9892 28.944C39.8352 28.944 39.8072 28.93 39.8072 28.93C39.8072 28.93 39.7792 28.902 39.7652 28.79C39.6812 28.272 39.5552 27.754 39.4292 27.25L39.4012 27.11C38.6312 23.96 37.6232 20.278 35.9992 16.778C35.3692 15.42 34.4592 13.67 33.0872 12.242C31.8272 10.926 30.5532 10.366 29.1112 10.464C27.9632 10.548 26.8992 10.954 25.8632 11.738C24.4632 12.788 23.3012 14.202 22.1952 16.204C21.7332 17.03 21.3272 17.884 20.9212 18.724C20.8092 18.948 20.6972 19.172 20.5992 19.396C20.5432 19.34 20.4872 19.298 20.4312 19.242C20.0252 18.878 19.6192 18.486 19.1572 18.164C17.9952 17.338 16.7352 17.03 15.4472 17.24C14.4952 17.394 13.6272 17.884 12.9412 18.668C11.9192 19.83 11.1912 20.74 10.6032 21.664C9.09124 24.002 8.05524 26.564 7.22924 28.776C7.15924 28.958 7.14524 28.958 6.99124 28.944C6.61324 28.916 6.24924 28.93 5.89924 28.944C5.28324 28.972 4.72324 29.252 4.35924 29.714C3.99524 30.162 3.85524 30.736 3.95324 31.324C4.44324 34.152 7.84524 53.556 8.34924 56.048C8.96524 59.128 11.8632 61.55 14.9572 61.55H17.0152C19.3252 61.55 21.6492 61.55 24.0012 61.55C27.5432 61.55 31.1132 61.55 34.6552 61.55C35.1032 61.55 35.5652 61.494 35.9992 61.396C39.4012 60.64 41.5992 57.854 41.5992 54.312V39.738C43.9512 39.738 57.3912 39.738 58.3712 39.738C59.0432 39.738 59.5752 39.528 59.9532 39.108C60.5412 38.464 60.6952 37.708 60.3732 36.924C60.0512 36.126 59.3372 35.664 58.4272 35.664H41.6412V33.018H63.9432C63.9292 33.032 63.9292 33.06 63.9152 33.074C63.5372 33.816 62.9912 34.418 62.3192 34.88C61.7452 35.272 61.4372 35.734 61.3672 36.294C61.2272 37.442 61.7872 38.03 62.2632 38.338C63.0192 38.8 63.8172 38.786 64.5732 38.268C66.5052 36.966 67.7512 35.174 68.2692 32.92C68.3952 32.402 68.4652 31.828 68.4792 31.226C68.4232 30.484 68.2412 29.91 67.8632 29.532ZM18.4572 49.818H11.3172C11.1492 48.838 10.9532 47.76 10.7572 46.64H18.4432C19.2132 46.64 19.8432 46.01 19.8432 45.24C19.8432 44.47 19.2132 43.84 18.4432 43.84H10.2672C10.0712 42.776 9.88924 41.698 9.70724 40.662H18.4572C19.2272 40.662 19.8572 40.032 19.8572 39.262C19.8572 38.492 19.2272 37.862 18.4572 37.862H9.32924C9.28724 37.862 9.24524 37.862 9.21724 37.862C8.81124 35.594 8.48924 33.774 8.34924 32.99C14.1312 32.99 26.2272 32.99 33.0032 32.99H37.4832V54.27C37.4832 56.174 36.2232 57.448 34.3472 57.448C32.0372 57.448 29.7132 57.448 27.4032 57.448C23.4272 57.448 19.3252 57.448 15.2932 57.462C13.9212 57.462 12.4092 56.538 12.1852 54.76C12.1712 54.634 12.0312 53.836 11.8212 52.604H18.4572C19.2272 52.604 19.8572 51.974 19.8572 51.204C19.8572 50.434 19.2272 49.818 18.4572 49.818ZM11.4992 28.902C11.5552 28.776 11.6112 28.65 11.6672 28.524C11.9332 27.894 12.1852 27.292 12.4932 26.732C13.2492 25.318 14.0752 23.89 14.8732 22.532L14.9852 22.336C15.1392 22.07 15.3912 21.804 15.6012 21.594C16.0352 21.146 16.2032 21.132 16.6372 21.44C17.2112 21.846 17.6452 22.266 17.9532 22.7C18.4292 23.4 18.7932 24.198 19.1152 24.898C19.5212 25.794 20.2912 26.312 21.1732 26.284C22.0412 26.256 22.7272 25.682 23.0212 24.744C23.7352 22.448 24.7852 19.466 26.6192 16.862C27.1092 16.162 27.7532 15.476 28.4812 14.888C29.1672 14.342 29.6292 14.398 30.2732 15.112C31.1692 16.134 31.7432 17.352 32.3032 18.612C33.5772 21.51 34.6412 24.8 35.6212 28.916H11.4992V28.902Z" fill="white"/>
</svg>
