<svg width="85" height="84" viewBox="0 0 85 84" fill="none" xmlns="http://www.w3.org/2000/svg">
<path d="M61.9759 79.3625H21.7063C21.0847 79.3625 20.4967 79.1609 19.9927 78.7913C15.5407 75.4649 11.8615 71.0969 9.32469 66.1577C6.67029 60.9833 5.32629 55.3889 5.32629 49.5425C5.32629 47.9633 6.60309 46.6865 8.18229 46.6865H75.4831C77.0623 46.6865 78.3391 47.9633 78.3391 49.5425C78.3391 55.3889 76.9951 60.9833 74.3407 66.1577C71.8207 71.0969 68.1247 75.4649 63.6727 78.7913C63.2023 79.1609 62.5975 79.3625 61.9759 79.3625ZM22.6807 73.6505H61.0183C67.6711 68.3585 71.7535 60.7817 72.5095 52.3985H11.1727C11.9455 60.7817 16.0279 68.3585 22.6807 73.6505Z" fill="white"/>
<path d="M26.6626 33.4976V9.67516C26.6626 7.39036 29.0818 5.67676 32.2906 5.67676C35.4994 5.67676 37.9186 7.39036 37.9186 9.67516V33.4976H34.5586V9.74236C34.3906 9.50716 33.5842 9.03676 32.2906 9.03676C30.997 9.03676 30.1906 9.50716 30.0226 9.74236V33.4976H26.6626Z" fill="white"/>
<path d="M46.2512 49.5418H42.8912C42.8912 43.6618 37.5488 33.1618 32.2904 33.1618C27.032 33.1618 21.6896 43.6786 21.6896 49.5418H18.3296C18.3296 42.7882 24.2264 29.8018 32.2904 29.8018C40.3544 29.8018 46.2512 42.7882 46.2512 49.5418Z" fill="white"/>
<path d="M38.7419 49.5447H35.3819C35.3819 46.8063 34.9283 42.8751 34.2227 39.5151C33.5003 36.0375 32.7443 34.2735 32.2907 33.5175C31.8371 34.2735 31.0811 36.0375 30.3587 39.5151C29.6531 42.8751 29.1995 46.8063 29.1995 49.5447H25.8395C25.8395 46.2855 26.4107 41.5983 27.2843 37.8519C28.5611 32.2911 30.1067 29.8047 32.2907 29.8047C34.4747 29.8047 36.0203 32.2911 37.2971 37.8519C38.1707 41.5983 38.7419 46.3023 38.7419 49.5447Z" fill="white"/>
</svg>
