<svg width="73" height="73" viewBox="0 0 73 73" fill="none" xmlns="http://www.w3.org/2000/svg">
<path d="M20.8588 43.7629C15.2687 43.7629 9.66505 42.243 4.66907 39.1895C3.58885 38.5322 3.23779 37.0945 3.88591 35.9991C4.53404 34.9036 5.95182 34.5476 7.03203 35.2049C15.5522 40.4081 26.1383 40.4081 34.672 35.2049C44.6504 29.1116 57.0594 29.1116 67.0378 35.2049C68.1181 35.8621 68.4691 37.2999 67.821 38.3953C67.1729 39.4907 65.7551 39.8467 64.6749 39.1895C56.1547 33.9862 45.5686 33.9862 37.0349 39.1895C32.0525 42.243 26.4624 43.7629 20.8588 43.7629Z" fill="white"/>
<path d="M20.8867 57.3328C20.2116 57.3328 19.5364 57.3054 18.8613 57.2644C17.592 57.1822 16.6334 56.0731 16.7144 54.7996C16.7954 53.5125 17.8891 52.5403 19.1449 52.6225C24.6134 52.9785 29.974 51.6503 34.6729 48.7885C44.6514 42.6952 57.0603 42.6952 67.0388 48.7885C68.119 49.4457 68.4701 50.8835 67.8219 51.9789C67.1738 53.0743 65.756 53.4304 64.6758 52.7731C56.1556 47.5698 45.5696 47.5698 37.0359 52.7731C32.1344 55.7718 26.5848 57.3328 20.8867 57.3328Z" fill="white"/>
<path d="M20.8588 30.1801C15.2687 30.1801 9.66505 28.6602 4.66907 25.6067C3.58885 24.9495 3.23779 23.5117 3.88591 22.4163C4.53404 21.3208 5.95182 20.9648 7.03203 21.6221C15.5522 26.8254 26.1383 26.8254 34.672 21.6221C39.5599 18.6371 45.15 17.0624 50.8617 17.0624C52.1309 17.0624 53.1571 18.103 53.1571 19.3902C53.1571 20.6773 52.1309 21.7179 50.8617 21.7179C45.9872 21.7179 41.2208 23.0598 37.0484 25.6067C32.0525 28.6602 26.4624 30.1801 20.8588 30.1801Z" fill="white"/>
</svg>
