<svg width="73" height="72" viewBox="0 0 73 72" fill="none" xmlns="http://www.w3.org/2000/svg">
<path d="M40.626 10.6942H31.626V61.309H40.626V10.6942Z" fill="#9AB25D"/>
<path d="M61.4341 40.5023V31.5023L10.8193 31.5023V40.5023H61.4341Z" fill="#9AB25D"/>
<path d="M33.203 51.0447C32.6606 50.9247 32.111 50.8047 31.5626 50.6847C27.8678 49.8951 24.3794 49.1499 22.0598 47.9895C19.2998 46.6095 17.2322 43.9263 17.0042 43.6239C16.833 43.3966 16.7113 43.136 16.6468 42.8589C16.5823 42.5817 16.5765 42.2942 16.6298 42.0147L18.281 33.3627L22.289 34.1271L20.819 41.8383C21.4706 42.5655 22.619 43.7163 23.885 44.3487C25.7402 45.2763 29.1338 46.0023 32.4158 46.7031C32.9702 46.8231 33.5246 46.9431 34.073 47.0631L33.203 51.0447Z" fill="#172530"/>
<path d="M50.6463 56.0816L46.6383 55.3232L48.1095 47.612C47.4579 46.8848 46.3095 45.734 45.0423 45.1016C43.1883 44.1632 39.7947 43.4432 36.5127 42.7412L34.8555 42.3812L35.7243 38.4032L37.3659 38.756C41.0595 39.5456 44.5491 40.2908 46.8675 41.4512C49.6275 42.8312 51.6963 45.5156 51.9231 45.8168C52.0943 46.0441 52.216 46.3047 52.2805 46.5818C52.3449 46.8589 52.3507 47.1465 52.2975 47.426L50.6463 56.0816Z" fill="#172530"/>
<path d="M15.3193 61.8301C15.0191 61.8302 14.7225 61.7641 14.4508 61.6364C14.1791 61.5087 13.9389 61.3227 13.7474 61.0915C13.5559 60.8603 13.4177 60.5897 13.3428 60.299C13.2679 60.0083 13.2581 59.7046 13.3141 59.4096L14.9653 50.7493C15.0161 50.4852 15.1186 50.2339 15.2669 50.0096C15.4151 49.7853 15.6063 49.5926 15.8293 49.4424C15.9577 49.356 19.0093 47.3148 22.1353 46.7952C24.7453 46.3608 28.3165 46.65 32.0953 46.9572C32.6569 47.0028 33.2197 47.0484 33.7753 47.0904C34.3309 47.1324 34.9081 47.1804 35.4769 47.226C38.8441 47.4984 42.3265 47.7804 44.4385 47.43C46.6765 47.058 49.1113 45.4392 49.1353 45.4236C49.4694 45.1992 49.8624 45.0786 50.2649 45.077C50.6673 45.0755 51.0613 45.193 51.3971 45.4148C51.7329 45.6366 51.9957 45.9527 52.1522 46.3235C52.3088 46.6943 52.3521 47.1031 52.2769 47.4984L50.6317 56.1624C50.5813 56.4268 50.4792 56.6786 50.3311 56.9033C50.183 57.1279 49.992 57.3211 49.7689 57.4716C49.6405 57.558 46.5877 59.5992 43.4617 60.1188C40.8541 60.552 37.2829 60.2628 33.5017 59.9568C32.9389 59.9112 32.3749 59.8656 31.8217 59.8224C31.2685 59.7792 30.6901 59.7336 30.1225 59.6868C26.7541 59.4144 23.2705 59.1324 21.1585 59.484C18.9205 59.8548 16.4857 61.4736 16.4617 61.4904C16.1232 61.7148 15.7254 61.8331 15.3193 61.8301ZM23.6893 55.23C25.7293 55.23 28.0453 55.4172 30.4477 55.6128C31.0093 55.6584 31.5721 55.704 32.1277 55.746C32.6833 55.788 33.2605 55.836 33.8305 55.8816C37.1977 56.154 40.6801 56.436 42.7921 56.0856C44.3029 55.8336 45.9037 55.014 46.7917 54.504L47.4997 50.7912C46.7263 51.0857 45.9267 51.3063 45.1117 51.45C42.5041 51.8832 38.9329 51.594 35.1517 51.288C34.5889 51.2424 34.0261 51.1968 33.4717 51.1536C32.9089 51.1104 32.3401 51.0648 31.7725 51.018C28.4041 50.7456 24.9205 50.4636 22.8085 50.8152C21.2965 51.066 19.6957 51.8856 18.8089 52.3968L18.1009 56.1084C18.8738 55.8139 19.673 55.5937 20.4877 55.4508C21.5473 55.2918 22.618 55.2188 23.6893 55.2324V55.23Z" fill="#172530"/>
<path d="M36.5206 33.6441C35.977 33.5241 35.4286 33.4041 34.8802 33.2913C31.1854 32.5017 27.6958 31.7553 25.3774 30.5949C22.6174 29.2161 20.5486 26.5317 20.3218 26.2305L23.581 23.7753C23.5954 23.7945 25.261 25.9785 27.2026 26.9469C29.0578 27.8745 32.4514 28.5993 35.7334 29.3013C36.2878 29.4213 36.8422 29.5413 37.3906 29.6613L36.5206 33.6441Z" fill="#172530"/>
<path d="M53.9644 38.6807L49.9564 37.9223L51.4264 30.2063C50.776 29.4779 49.6264 28.3271 48.3604 27.6947C46.5064 26.7623 43.1128 26.0423 39.8308 25.3403C39.2764 25.2203 38.722 25.1003 38.1724 24.9803L39.0424 21.0023C39.586 21.1223 40.1344 21.2423 40.6828 21.3551C44.3776 22.1447 47.8672 22.8911 50.1856 24.0515C52.9456 25.4303 55.0144 28.1147 55.2412 28.4159C55.4123 28.6432 55.5341 28.9038 55.5986 29.1809C55.663 29.4581 55.6688 29.7456 55.6156 30.0251L53.9644 38.6807Z" fill="#172530"/>
<path d="M18.6464 44.3798C18.3462 44.3799 18.0497 44.3138 17.778 44.1861C17.5063 44.0585 17.2661 43.8724 17.0745 43.6412C16.883 43.41 16.7449 43.1394 16.67 42.8487C16.5951 42.558 16.5853 42.2543 16.6412 41.9594L18.2924 33.299C18.3428 33.0346 18.445 32.7829 18.593 32.5582C18.7411 32.3335 18.9322 32.1403 19.1552 31.9898C19.2836 31.9034 22.3364 29.8622 25.4624 29.3426C28.0724 28.9082 31.6436 29.1986 35.4224 29.5046C35.9852 29.5502 36.548 29.5958 37.1024 29.639C37.6568 29.6822 38.2352 29.7278 38.8028 29.7734C42.1712 30.047 45.6536 30.3278 47.7668 29.9774C50.0036 29.6054 52.4384 27.9866 52.4624 27.971C52.7965 27.7461 53.1897 27.6252 53.5924 27.6234C53.9951 27.6217 54.3893 27.7391 54.7253 27.9609C55.0614 28.1828 55.3243 28.4992 55.4809 28.8702C55.6374 29.2412 55.6807 29.6502 55.6052 30.0458L53.954 38.7062C53.9037 38.9705 53.8015 39.2223 53.6534 39.447C53.5054 39.6717 53.3143 39.8648 53.0912 40.0154C52.9628 40.1018 49.91 42.143 46.784 42.6626C44.1752 43.097 40.604 42.8066 36.824 42.5006C36.2612 42.455 35.6984 42.4094 35.144 42.3674C34.5896 42.3254 34.0124 42.2774 33.4448 42.2318C30.0752 41.9582 26.5928 41.6762 24.4808 42.0278C22.2428 42.3998 19.808 44.0186 19.784 44.0342C19.4476 44.2598 19.0516 44.3801 18.6464 44.3798ZM27.0152 37.7798C29.0552 37.7798 31.3724 37.9682 33.7736 38.1626C34.3336 38.2082 34.8936 38.253 35.4536 38.297C36.0176 38.3402 36.5864 38.3858 37.154 38.4314C40.5224 38.705 44.0048 38.9858 46.1168 38.6354C47.6288 38.3846 49.2296 37.565 50.1176 37.0538L50.8256 33.3422C50.0523 33.6367 49.2527 33.8569 48.4376 33.9998C45.8288 34.4342 42.2576 34.1438 38.4776 33.8378C37.9148 33.7922 37.352 33.7466 36.7976 33.7046C36.2348 33.6614 35.666 33.6146 35.0984 33.569C31.73 33.2954 28.2464 33.0134 26.1344 33.365C24.6224 33.6158 23.0216 34.4354 22.1336 34.9466L21.4256 38.6582C22.1989 38.3636 22.9986 38.1434 23.8136 38.0006C24.8732 37.8415 25.9439 37.7684 27.0152 37.7822V37.7798Z" fill="#172530"/>
<path d="M21.9736 26.9311C21.6734 26.9311 21.3768 26.8648 21.1052 26.737C20.8335 26.6092 20.5934 26.423 20.402 26.1917C20.2105 25.9604 20.0725 25.6897 19.9978 25.3989C19.9231 25.1081 19.9134 24.8044 19.9696 24.5095L21.6208 15.8491C21.6712 15.5847 21.7733 15.333 21.9214 15.1083C22.0695 14.8836 22.2605 14.6904 22.4836 14.5399C22.612 14.4535 25.6648 12.4123 28.7908 11.8927C31.3996 11.4595 34.972 11.7487 38.7508 12.0547C39.3108 12.1003 39.8708 12.1451 40.4308 12.1891C40.9908 12.2331 41.5576 12.2783 42.1312 12.3247C45.4996 12.5971 48.982 12.8791 51.094 12.5275C53.332 12.1555 55.7668 10.5379 55.7908 10.5211C56.1249 10.2947 56.5186 10.1724 56.9222 10.1698C57.3258 10.1673 57.721 10.2844 58.058 10.5065C58.395 10.7287 58.6585 11.0457 58.8152 11.4176C58.9719 11.7895 59.0148 12.1996 58.9384 12.5959L57.2872 21.2563C57.2367 21.5207 57.1344 21.7725 56.9861 21.9972C56.8378 22.2219 56.6465 22.4151 56.4232 22.5655C56.2948 22.6519 53.2432 24.6931 50.1172 25.2127C47.5072 25.6471 43.936 25.3579 40.1572 25.0507C39.5944 25.0051 39.0304 24.9595 38.4772 24.9175C37.924 24.8755 37.3468 24.8275 36.7792 24.7819C33.4096 24.5095 29.9272 24.2275 27.814 24.5779C25.576 24.9499 23.1412 26.5687 23.1172 26.5843C22.7789 26.8108 22.3808 26.9316 21.9736 26.9311ZM30.3436 20.3311C32.3836 20.3311 34.6996 20.5183 37.102 20.7127C37.662 20.7583 38.222 20.8031 38.782 20.8471C39.3448 20.8903 39.9136 20.9359 40.4824 20.9827C43.8508 21.2551 47.3332 21.5371 49.4452 21.1855C50.956 20.9347 52.558 20.1151 53.4448 19.6039L54.1528 15.8923C53.3799 16.1869 52.5807 16.407 51.766 16.5499C49.1572 16.9843 45.586 16.6951 41.806 16.3879L40.126 16.2547C39.562 16.2115 38.9944 16.1647 38.4268 16.1191C35.0572 15.8467 31.5748 15.5647 29.4616 15.9151C27.9508 16.1671 26.35 16.9867 25.462 17.4967L24.754 21.2095C25.5274 20.9151 26.327 20.6945 27.142 20.5507C28.2016 20.392 29.2723 20.3194 30.3436 20.3335V20.3311Z" fill="#172530"/>
</svg>
