<svg width="72" height="72" viewBox="0 0 72 72" fill="none" xmlns="http://www.w3.org/2000/svg">
<path d="M57.9365 10.5124C57.2525 10.0564 56.3525 10.0564 55.6685 10.5244C55.6445 10.5364 53.2085 12.1564 50.9765 12.5284C48.8645 12.8764 45.3845 12.6004 42.0125 12.3244C41.4485 12.2764 40.8725 12.2284 40.3085 12.1924C39.7445 12.1444 39.1925 12.1084 38.6285 12.0604C34.8485 11.7484 31.2725 11.4604 28.6685 11.9044C25.5365 12.4204 22.4885 14.4604 22.3565 14.5564C21.9005 14.8564 21.6005 15.3364 21.4925 15.8644L19.8365 24.5284C19.7165 25.1284 19.8845 25.7404 20.2565 26.1964L20.1845 26.2444C20.3645 26.4844 21.7805 28.3084 23.7845 29.7244C21.2645 30.5044 19.1285 31.9324 19.0205 32.0044C18.5645 32.3044 18.2645 32.7844 18.1565 33.3124L17.0645 39.0484L16.5005 42.0364C16.3925 42.6004 16.5245 43.1884 16.8725 43.6444C17.0645 43.8964 18.4925 45.7444 20.5205 47.1604C17.9765 47.9284 15.8045 49.3804 15.6965 49.4524C15.2405 49.7524 14.9405 50.2324 14.8325 50.7604L13.1765 59.4244C13.0205 60.2284 13.3685 61.0564 14.0525 61.5124C14.3885 61.7404 14.7845 61.8484 15.1805 61.8484C15.5765 61.8484 15.9725 61.7284 16.3205 61.5004C16.3445 61.4884 18.7805 59.8684 21.0125 59.4964C23.1245 59.1484 26.6045 59.4244 29.9765 59.7004C30.5405 59.7484 31.1165 59.7964 31.6805 59.8324C32.2325 59.8804 32.7965 59.9164 33.3605 59.9644C37.1405 60.2764 40.7165 60.5644 43.3205 60.1204C46.4405 59.6044 49.5005 57.5644 49.6325 57.4684C50.0885 57.1684 50.3885 56.6884 50.4965 56.1604L52.1525 47.4964L52.1645 47.4244C52.2725 46.8604 52.1405 46.2724 51.7925 45.8164C51.6005 45.5644 50.1845 43.7284 48.1565 42.3124C50.6885 41.5444 52.8485 40.0924 52.9565 40.0204C53.4125 39.7204 53.7125 39.2404 53.8205 38.7124L55.4765 30.0484V30.0244C55.4765 30.0004 55.4765 29.9884 55.4885 29.9644C55.4885 29.9404 55.5005 29.9044 55.5005 29.8804C55.5605 29.3644 55.4285 28.8364 55.1045 28.4164C54.9125 28.1644 53.4725 26.2924 51.4325 24.8764C53.9885 24.1084 56.1845 22.6444 56.2925 22.5724C56.7485 22.2724 57.0485 21.7924 57.1565 21.2644L58.8125 12.6004C58.9685 11.7844 58.6205 10.9684 57.9365 10.5124ZM39.7085 25.3444C42.9845 26.0404 46.3805 26.7724 48.2405 27.6964C48.9725 28.0564 49.6565 28.5964 50.2445 29.1244C49.4645 29.4844 48.5405 29.8324 47.6525 29.9764C45.5405 30.3244 42.0605 30.0484 38.6885 29.7724C38.2205 29.7364 37.7405 29.7004 37.2725 29.6644C36.7205 29.5444 36.1685 29.4244 35.6165 29.3044C32.3405 28.6084 28.9445 27.8764 27.0845 26.9524C26.3285 26.5804 25.6205 26.0164 25.0325 25.4644C25.8365 25.0924 26.7845 24.7324 27.6965 24.5764C29.8085 24.2284 33.2885 24.5044 36.6605 24.7804C37.1405 24.8164 37.6085 24.8524 38.0765 24.8884L38.0525 24.9724C38.5925 25.1044 39.1445 25.2244 39.7085 25.3444ZM49.9925 37.0564C49.1045 37.5724 47.5085 38.3884 45.9965 38.6404C43.8845 38.9884 40.4045 38.7124 37.0325 38.4364C36.4685 38.3884 35.8925 38.3404 35.3285 38.3044C34.7645 38.2564 34.2125 38.2204 33.6485 38.1724C31.2485 37.9804 28.9325 37.7884 26.8925 37.7884C25.7165 37.7884 24.6365 37.8484 23.6885 38.0044C22.8725 38.1364 22.0565 38.3764 21.3005 38.6644L21.3125 38.5804L22.0085 34.9444C22.8965 34.4284 24.4925 33.6124 26.0045 33.3604C28.1165 33.0124 31.5965 33.2884 34.9685 33.5644C35.5325 33.6124 36.1085 33.6604 36.6725 33.6964C37.2245 33.7444 37.7885 33.7804 38.3525 33.8284C42.1325 34.1404 45.7085 34.4284 48.3125 33.9844C49.1285 33.8524 49.9445 33.6124 50.7005 33.3244L50.6645 33.5164L49.9925 37.0564ZM32.2925 46.7044C29.0165 46.0084 25.6205 45.2764 23.7605 44.3524C23.0165 43.9804 22.3205 43.4404 21.7325 42.9004C22.5245 42.5284 23.4485 42.1804 24.3485 42.0364C26.4605 41.6884 29.9405 41.9644 33.3125 42.2404C33.7925 42.2764 34.2605 42.3124 34.7285 42.3484L34.7165 42.3844C35.2685 42.5044 35.8205 42.6244 36.3725 42.7444C39.6485 43.4404 43.0445 44.1724 44.9045 45.0964C45.6485 45.4684 46.3565 46.0204 46.9325 46.5604C46.1405 46.9324 45.2045 47.2804 44.3045 47.4364C42.1925 47.7844 38.7125 47.5084 35.3405 47.2324C34.8725 47.1964 34.3925 47.1604 33.9245 47.1244L33.9365 47.0764C33.3965 46.9324 32.8445 46.8124 32.2925 46.7044ZM42.6725 56.0884C40.5605 56.4364 37.0805 56.1604 33.7085 55.8844C33.1445 55.8364 32.5685 55.7884 32.0045 55.7524C31.4405 55.7044 30.8885 55.6684 30.3245 55.6204C27.9245 55.4284 25.6085 55.2364 23.5685 55.2364C22.3925 55.2364 21.3125 55.2964 20.3645 55.4524C19.5485 55.5844 18.7325 55.8244 17.9765 56.1124L18.6845 52.4044C19.5725 51.8884 21.1685 51.0724 22.6805 50.8204C24.7925 50.4724 28.2725 50.7484 31.6445 51.0244C32.2085 51.0724 32.7845 51.1204 33.3485 51.1564C33.9005 51.2044 34.4645 51.2404 35.0285 51.2884C38.8085 51.6004 42.3845 51.8884 44.9885 51.4444C45.8045 51.3124 46.6205 51.0724 47.3765 50.7844L46.8605 53.4964L46.6685 54.4924C45.7805 55.0204 44.1845 55.8364 42.6725 56.0884ZM53.3165 19.6084C52.4285 20.1244 50.8325 20.9404 49.3205 21.1924C47.2085 21.5404 43.7285 21.2644 40.3565 20.9884C39.7925 20.9404 39.2165 20.8924 38.6525 20.8564C38.0885 20.8084 37.5365 20.7724 36.9725 20.7244C34.5725 20.5324 32.2565 20.3404 30.2165 20.3404C29.0405 20.3404 27.9605 20.4004 27.0125 20.5564C26.1965 20.6884 25.3805 20.9284 24.6245 21.2164L25.3325 17.5084C26.2205 16.9924 27.8165 16.1764 29.3285 15.9244C31.4405 15.5764 34.9205 15.8524 38.2925 16.1284C38.8565 16.1764 39.4325 16.2244 39.9965 16.2604C40.5485 16.3084 41.1125 16.3444 41.6765 16.3924C45.4565 16.7044 49.0325 16.9924 51.6365 16.5484C52.4525 16.4164 53.2685 16.1764 54.0245 15.8884L53.3165 19.6084Z" fill="white"/>
</svg>
