<svg width="72" height="72" viewBox="0 0 72 72" fill="none" xmlns="http://www.w3.org/2000/svg">
<path d="M35.9992 10.0801C30.0232 10.0801 24.6352 14.6641 20.6512 20.4481C16.6672 26.2321 14.0752 33.4081 14.0752 39.9841C14.0752 46.9681 16.4632 52.5481 20.4592 56.3401C24.6352 59.9281 30.0232 61.9201 35.9992 61.9201C41.9752 61.9201 47.3632 60.1201 51.5512 56.3401C55.7392 52.5601 57.9352 46.9681 57.9352 39.9841C57.9352 33.4081 55.3432 26.2201 51.3592 20.4481C47.3752 14.6761 41.9752 10.0801 35.9992 10.0801ZM35.9992 14.0641C39.7912 14.0641 44.3752 17.4481 47.9632 22.6321C51.5512 27.8161 53.9392 34.5961 53.9392 39.9841C53.9392 46.1641 51.9472 50.5561 48.7552 53.3401C45.5632 56.3281 41.1832 57.9241 35.9992 57.9241C30.8152 57.9241 26.4232 56.3281 23.2432 53.3401C20.0512 50.3521 18.0592 45.9601 18.0592 39.9841C18.0592 34.4041 20.4472 27.8161 24.0352 22.6321C27.6232 17.4481 32.2072 14.0641 35.9992 14.0641Z" fill="white"/>
</svg>
