<svg width="73" height="72" viewBox="0 0 73 72" fill="none" xmlns="http://www.w3.org/2000/svg">
<path d="M14.7302 8.23919L8.36621 14.6031L57.524 63.7609L63.8879 57.397L14.7302 8.23919Z" fill="#C66D72"/>
<path d="M30.8075 53.6449C32.0309 53.6449 33.0227 52.6531 33.0227 51.4297C33.0227 50.2063 32.0309 49.2145 30.8075 49.2145C29.5841 49.2145 28.5923 50.2063 28.5923 51.4297C28.5923 52.6531 29.5841 53.6449 30.8075 53.6449Z" fill="#172530"/>
<path d="M19.5111 51.43C20.7345 51.43 21.7263 50.4383 21.7263 49.2148C21.7263 47.9914 20.7345 46.9996 19.5111 46.9996C18.2877 46.9996 17.2959 47.9914 17.2959 49.2148C17.2959 50.4383 18.2877 51.43 19.5111 51.43Z" fill="#172530"/>
<path d="M19.5111 31.7997C20.7345 31.7997 21.7263 30.8079 21.7263 29.5845C21.7263 28.361 20.7345 27.3693 19.5111 27.3693C18.2877 27.3693 17.2959 28.361 17.2959 29.5845C17.2959 30.8079 18.2877 31.7997 19.5111 31.7997Z" fill="#172530"/>
<path d="M39.4217 34.016C40.6452 34.016 41.6369 33.0242 41.6369 31.8008C41.6369 30.5774 40.6452 29.5856 39.4217 29.5856C38.1983 29.5856 37.2065 30.5774 37.2065 31.8008C37.2065 33.0242 38.1983 34.016 39.4217 34.016Z" fill="#172530"/>
<path d="M41.7372 48.5751C42.9606 48.5751 43.9524 47.5833 43.9524 46.3599C43.9524 45.1364 42.9606 44.1447 41.7372 44.1447C40.5138 44.1447 39.522 45.1364 39.522 46.3599C39.522 47.5833 40.5138 48.5751 41.7372 48.5751Z" fill="#172530"/>
<path d="M29.3671 40.4994C30.5905 40.4994 31.5823 39.5076 31.5823 38.2842C31.5823 37.0607 30.5905 36.069 29.3671 36.069C28.1436 36.069 27.1519 37.0607 27.1519 38.2842C27.1519 39.5076 28.1436 40.4994 29.3671 40.4994Z" fill="#172530"/>
<path d="M47.5956 62.0394H14.526C13.3484 62.0394 12.2191 61.5716 11.3864 60.739C10.5537 59.9063 10.086 58.777 10.086 57.5994V24.5298C10.0832 23.4869 10.3205 22.4574 10.7796 21.521C11.2386 20.5846 11.9071 19.7664 12.7332 19.1298L22.5204 11.5314C23.7205 10.6015 25.1949 10.0951 26.7132 10.0914H57.5892C58.7667 10.0914 59.896 10.5592 60.7287 11.3919C61.5614 12.2245 62.0292 13.3539 62.0292 14.5314V45.4074C62.0255 46.9257 61.5191 48.4001 60.5892 49.6002L52.9956 59.3874C52.3596 60.2145 51.5417 60.884 50.6052 61.3439C49.6687 61.8038 48.6389 62.0418 47.5956 62.0394ZM26.7156 14.1762C26.1017 14.1774 25.5057 14.3826 25.0212 14.7594L15.234 22.3482C14.9001 22.6051 14.63 22.9357 14.4447 23.3141C14.2595 23.6925 14.1641 24.1085 14.166 24.5298V57.5994C14.166 57.6949 14.2039 57.7865 14.2714 57.854C14.3389 57.9215 14.4305 57.9594 14.526 57.9594H47.5956C48.0169 57.9613 48.4329 57.8659 48.8113 57.6807C49.1897 57.4954 49.5202 57.2253 49.7772 56.8914L57.366 47.1042C57.7409 46.6198 57.9447 46.0248 57.9456 45.4122V14.5362C57.9456 14.4408 57.9076 14.3492 57.8401 14.2817C57.7726 14.2142 57.681 14.1762 57.5856 14.1762H26.7156Z" fill="#172530"/>
<path d="M51.9881 60.0004H47.9081V24.2188H12.1265V20.1388H51.9881V60.0004Z" fill="#172530"/>
<path d="M58.5477 10.6927L48.5054 20.735L51.3904 23.62L61.4327 13.5777L58.5477 10.6927Z" fill="#172530"/>
</svg>
