<svg width="187" height="52" viewBox="0 0 187 52" fill="none" xmlns="http://www.w3.org/2000/svg">
<mask id="path-1-outside-1_58_63" maskUnits="userSpaceOnUse" x="-0.027832" y="-0.197144" width="187" height="53" fill="black">
<rect fill="white" x="-0.027832" y="-0.197144" width="187" height="53"/>
<path d="M31.389 38.9471C19.339 44.7971 5.93895 51.0971 3.33895 51.0971C1.08895 51.0971 0.738952 49.5471 1.08895 47.2471C1.63895 43.3971 6.28895 28.3971 9.93895 14.7471C13.489 1.59706 14.939 1.39706 15.589 1.29706C16.139 1.24706 16.439 1.09706 16.889 0.847058C17.389 0.547059 17.089 1.84706 16.089 2.54706C15.289 3.09706 14.739 4.04706 13.439 7.74706C11.939 11.8471 10.889 14.5971 9.33895 20.2971C7.08895 28.5471 3.18895 42.8471 2.78895 45.8471C2.53895 47.6971 2.53895 49.4971 3.53895 49.4971C4.53895 49.4971 6.28895 49.1471 15.139 45.3971C24.039 41.6971 30.639 38.3471 31.689 37.9471C31.939 37.8971 32.839 38.2471 31.389 38.9471Z"/>
<path d="M24.4682 28.4471C24.8682 27.5971 25.3682 26.8471 25.8182 26.2471C25.5682 25.9971 25.3182 25.7471 25.1682 25.3971C24.2682 23.4971 25.9182 21.2471 28.1182 21.2471C30.3182 21.2471 31.6682 23.2971 31.6682 26.4471V26.5971C31.8682 26.5971 32.0682 26.5971 32.3182 26.5471C34.8182 26.3471 39.4682 25.1471 41.5682 24.3971C41.9182 24.2471 42.1683 24.7971 41.9183 24.8971C40.8183 25.3471 35.1182 27.1971 32.1682 27.4471C31.9682 27.4971 31.7682 27.4971 31.6182 27.4971C31.1682 32.2971 27.6182 36.1971 25.3182 36.1971C23.0682 36.1971 22.4682 32.3471 24.4682 28.4471ZM25.1182 35.2971C27.3683 35.2971 30.0682 31.8971 30.5182 27.4971C29.1682 27.4971 27.7182 27.2971 26.6682 26.7971C26.2682 27.3471 25.8182 27.9971 25.4682 28.6471C23.5682 32.3471 24.1682 35.2971 25.1182 35.2971ZM28.4682 24.5971C28.4682 24.6971 27.9182 25.1971 27.2682 25.9971C28.1682 26.3971 29.3682 26.5971 30.6182 26.5971V26.0971C30.6182 23.4971 29.3683 22.0971 27.9683 22.0971C26.6183 22.0971 25.3682 23.3971 26.0682 24.8971C26.1682 25.1471 26.3182 25.2971 26.4682 25.4971C27.2182 24.6971 27.8682 24.2471 28.0182 24.2471C28.3182 24.2471 28.4682 24.3971 28.4682 24.5971Z"/>
<path d="M44.2854 20.9471C42.6354 23.7971 41.0854 27.9471 41.0354 29.4471C40.9854 30.4471 41.2354 30.8471 41.5854 30.8471C42.2354 30.8471 43.2854 29.7971 44.9354 28.1971C46.5854 26.6471 47.3354 26.0471 47.9854 26.0471C48.5854 26.0471 49.0854 26.4971 49.0854 26.9971C49.0854 27.4471 48.8854 28.8471 48.8854 29.1971C48.8354 29.7971 48.9354 29.8971 49.1354 29.8971C49.7854 29.8971 50.6354 29.0971 51.3354 28.1971C51.8354 27.5471 52.2354 26.8971 52.3854 26.4471C52.6854 25.7971 52.7854 25.5471 53.0354 25.5471C53.4854 25.4471 53.5354 26.0471 55.5854 25.9471C57.7854 25.7971 61.4854 24.7471 62.6354 24.3471C63.2854 24.1471 63.4354 24.5471 62.8854 24.8471C61.8354 25.4471 58.8354 26.4471 56.3854 26.6471C54.0354 26.7971 53.5354 26.3971 53.4354 26.4971C53.3354 26.5471 52.9354 27.5471 52.1854 28.6971C51.5354 29.6971 50.2854 30.7471 49.1354 30.7471C48.2354 30.7471 47.9854 30.1971 47.9854 29.4971C47.9854 28.6971 48.2354 27.7471 48.2354 27.1471C48.2354 26.9471 48.2354 26.7471 48.0354 26.7471C47.6354 26.7471 47.4354 27.2471 45.4854 29.0471C43.2854 31.1471 42.4854 31.7471 41.7354 31.8471C40.5354 32.0471 40.0854 30.8471 40.0854 30.0471C40.0854 28.6471 41.0854 25.4971 42.2354 22.9971C43.1354 21.0971 43.5354 20.4971 43.9354 20.4971C44.3354 20.4971 44.5354 20.5471 44.2854 20.9471Z"/>
<path d="M95.2237 10.4471C96.0737 10.1471 97.4737 9.39706 97.8237 7.79706C98.2237 5.89706 97.3237 4.59706 95.0237 4.19706C92.4737 3.74706 87.2737 4.64706 82.3737 6.94706C78.1737 8.94706 73.7737 11.9971 72.9737 15.4471C72.2237 18.8971 73.9237 21.5971 78.8737 26.1971C80.3237 27.5471 81.5737 28.7471 82.6237 29.8471C88.0737 27.6471 98.5237 24.6971 99.7237 24.4471C101.024 24.1471 101.274 24.7471 99.9237 24.9971C98.7737 25.2471 88.8737 28.0971 83.2737 30.4971C87.1237 34.5471 88.4237 37.1471 87.9237 40.3471C87.3237 44.3471 82.3737 46.5971 77.2237 46.0971C72.2737 45.6471 69.9737 42.7471 70.4237 40.0971C71.0737 36.5971 75.5737 33.3971 80.4737 30.8471C80.7737 30.6471 81.2237 30.4971 81.6237 30.2971C80.6737 29.2971 79.4737 28.1471 78.1737 26.8471C72.6737 21.6471 70.7737 18.9471 71.5737 15.2471C72.3737 11.5471 75.4237 8.74706 81.7737 5.94706C88.1737 3.09706 92.5237 2.79706 95.2237 3.24706C98.1737 3.74706 99.2737 5.69706 98.7737 8.04706C98.2737 10.1471 96.1237 11.1971 95.5237 11.2471C94.9237 11.3471 94.6237 10.6971 95.2237 10.4471ZM86.7737 40.0971C87.1737 37.5971 86.2737 35.2971 82.2737 30.9471C81.8237 31.1471 81.4737 31.3471 81.1237 31.5471C74.9737 34.8971 71.9737 37.3971 71.4737 40.0971C71.0737 42.3971 73.1737 44.6471 77.2737 44.9471C82.2737 45.2471 86.2737 42.8971 86.7737 40.0971Z"/>
<path d="M103.632 31.3471C103.982 29.7471 104.782 27.5971 105.482 26.2471C105.132 26.6471 104.582 27.2971 103.632 28.2971C101.932 30.0971 99.0815 32.2971 98.1815 32.2971C97.4815 32.2971 97.0815 31.8971 97.1815 30.5971C97.2815 29.4471 97.8815 27.9971 98.3315 27.0471C98.9315 25.6971 99.8815 24.3471 100.382 24.2471C100.882 24.1971 100.982 24.6471 100.982 24.7971C100.982 25.1971 99.7815 26.1971 99.0815 27.5471C98.5315 28.6471 98.1815 29.7471 98.0815 30.1471C97.9315 30.9471 98.1315 31.2971 98.3815 31.2971C99.1815 31.2971 101.982 28.9471 103.032 27.7971C104.932 25.7471 106.132 24.1971 106.832 24.3471C107.432 24.4971 107.182 24.8471 106.482 26.3471C105.882 27.6471 105.032 29.7471 104.582 31.4471C104.132 33.2471 104.632 33.7971 105.232 33.7971C108.882 33.7971 118.482 26.6471 123.032 24.1971C123.282 24.0971 124.282 24.1471 123.482 24.6971C118.982 27.5971 109.182 34.7971 105.132 34.7971C103.632 34.7971 103.082 33.6971 103.632 31.3471Z"/>
<path d="M119.932 51.1971C118.582 51.1971 116.782 50.2971 116.782 47.7471C116.782 44.0471 119.132 39.5971 125.182 33.9471C126.832 32.3971 128.832 31.0471 130.882 29.9471C130.882 26.5971 130.332 24.6471 128.882 24.6471C128.132 24.6471 127.332 25.2471 126.582 25.8471C125.582 26.6471 124.532 27.6471 123.432 27.6471C121.482 27.6471 121.732 24.3471 124.132 23.2471C126.182 22.3471 127.782 23.1471 128.232 23.7971C128.432 23.7971 128.682 23.7471 128.932 23.7471C130.632 23.7471 131.832 25.5971 131.832 29.2971V29.4471C136.782 26.8971 141.782 25.5971 143.182 25.5971C143.982 25.5971 143.732 26.4471 143.032 26.4471C141.632 26.4471 136.732 27.6971 131.782 30.4471C131.582 34.8471 130.182 40.4971 127.932 44.4471C125.632 48.4971 122.582 51.1971 119.932 51.1971ZM127.032 43.6971C129.282 39.8471 130.632 34.3471 130.832 30.9471C129.082 31.9971 127.382 33.2471 125.832 34.6971C119.532 40.4971 117.782 45.0471 117.782 47.8971C117.782 49.3471 118.382 50.2471 119.532 50.2471C121.382 50.2471 124.482 48.1971 127.032 43.6971ZM125.932 25.0471C126.382 24.6471 126.882 24.2471 127.532 23.9971C126.782 23.5971 125.582 23.3471 124.432 24.1471C122.582 25.3971 122.732 26.7971 123.432 26.7971C124.032 26.7971 124.932 25.8971 125.932 25.0471Z"/>
<path d="M150.892 30.7471C154.392 30.7471 164.542 26.0471 167.592 24.3971C167.842 24.2471 168.892 24.2971 168.042 24.8471C164.742 26.9971 154.142 31.7971 150.842 31.7971C148.392 31.7971 147.692 30.3471 147.692 29.2971C147.692 28.2471 147.892 27.7471 147.792 27.6471C147.642 27.4971 147.342 27.5471 145.742 28.3971C144.292 29.2471 142.692 29.8971 142.192 29.8971C141.492 29.8971 140.992 29.4471 140.992 29.1471C140.992 28.1971 141.592 26.8971 143.492 25.4971C145.092 24.2471 146.092 23.9971 146.942 23.9971C148.092 23.9971 148.792 25.7971 148.292 25.7971C147.792 25.7971 147.642 24.7971 147.092 24.7971C146.592 24.7971 145.592 25.1971 144.192 26.1471C142.892 26.9971 141.892 28.4471 141.892 28.8471C141.892 28.9471 141.942 28.9971 142.092 28.9971C142.542 28.9971 143.392 28.6471 144.792 27.9471C146.692 27.0471 147.942 26.3471 148.542 26.3471C148.742 26.3471 149.192 26.4471 149.192 26.7971C149.192 27.1971 148.692 28.0971 148.692 29.2471C148.692 30.0971 149.592 30.7471 150.892 30.7471Z"/>
<path d="M169.706 32.0471C168.606 31.8971 167.856 30.7471 169.056 28.2471C169.556 27.1471 169.906 26.4971 169.906 26.2471C169.906 26.0471 169.756 25.8971 168.706 25.4971C167.356 24.9971 167.156 23.6971 167.406 22.6971C167.856 20.8971 169.306 20.3471 170.056 20.4971C170.456 20.5971 171.006 21.1471 170.956 21.5471C170.806 22.8471 170.006 23.6971 168.656 24.4471C168.756 24.5471 168.906 24.6471 169.106 24.6971C170.956 25.4471 171.206 25.5971 171.206 26.0471C171.206 26.4471 170.656 27.2471 170.006 28.6471C169.256 30.1971 169.206 30.8471 170.056 30.9471C172.856 31.2971 180.006 29.0471 185.256 24.5471C185.756 24.0971 186.356 24.4471 185.906 24.8471C180.606 29.8971 172.256 32.3971 169.706 32.0471ZM168.406 22.9471C168.306 23.2471 168.256 23.5471 168.356 23.8471C169.806 22.9471 170.156 22.1971 170.206 21.4971C170.206 21.3971 170.206 21.3471 170.106 21.2971C169.606 21.1471 168.656 22.1471 168.406 22.9471Z"/>
</mask>
<path d="M31.389 38.9471C19.339 44.7971 5.93895 51.0971 3.33895 51.0971C1.08895 51.0971 0.738952 49.5471 1.08895 47.2471C1.63895 43.3971 6.28895 28.3971 9.93895 14.7471C13.489 1.59706 14.939 1.39706 15.589 1.29706C16.139 1.24706 16.439 1.09706 16.889 0.847058C17.389 0.547059 17.089 1.84706 16.089 2.54706C15.289 3.09706 14.739 4.04706 13.439 7.74706C11.939 11.8471 10.889 14.5971 9.33895 20.2971C7.08895 28.5471 3.18895 42.8471 2.78895 45.8471C2.53895 47.6971 2.53895 49.4971 3.53895 49.4971C4.53895 49.4971 6.28895 49.1471 15.139 45.3971C24.039 41.6971 30.639 38.3471 31.689 37.9471C31.939 37.8971 32.839 38.2471 31.389 38.9471Z" fill="white"/>
<path d="M24.4682 28.4471C24.8682 27.5971 25.3682 26.8471 25.8182 26.2471C25.5682 25.9971 25.3182 25.7471 25.1682 25.3971C24.2682 23.4971 25.9182 21.2471 28.1182 21.2471C30.3182 21.2471 31.6682 23.2971 31.6682 26.4471V26.5971C31.8682 26.5971 32.0682 26.5971 32.3182 26.5471C34.8182 26.3471 39.4682 25.1471 41.5682 24.3971C41.9182 24.2471 42.1683 24.7971 41.9183 24.8971C40.8183 25.3471 35.1182 27.1971 32.1682 27.4471C31.9682 27.4971 31.7682 27.4971 31.6182 27.4971C31.1682 32.2971 27.6182 36.1971 25.3182 36.1971C23.0682 36.1971 22.4682 32.3471 24.4682 28.4471ZM25.1182 35.2971C27.3683 35.2971 30.0682 31.8971 30.5182 27.4971C29.1682 27.4971 27.7182 27.2971 26.6682 26.7971C26.2682 27.3471 25.8182 27.9971 25.4682 28.6471C23.5682 32.3471 24.1682 35.2971 25.1182 35.2971ZM28.4682 24.5971C28.4682 24.6971 27.9182 25.1971 27.2682 25.9971C28.1682 26.3971 29.3682 26.5971 30.6182 26.5971V26.0971C30.6182 23.4971 29.3683 22.0971 27.9683 22.0971C26.6183 22.0971 25.3682 23.3971 26.0682 24.8971C26.1682 25.1471 26.3182 25.2971 26.4682 25.4971C27.2182 24.6971 27.8682 24.2471 28.0182 24.2471C28.3182 24.2471 28.4682 24.3971 28.4682 24.5971Z" fill="white"/>
<path d="M44.2854 20.9471C42.6354 23.7971 41.0854 27.9471 41.0354 29.4471C40.9854 30.4471 41.2354 30.8471 41.5854 30.8471C42.2354 30.8471 43.2854 29.7971 44.9354 28.1971C46.5854 26.6471 47.3354 26.0471 47.9854 26.0471C48.5854 26.0471 49.0854 26.4971 49.0854 26.9971C49.0854 27.4471 48.8854 28.8471 48.8854 29.1971C48.8354 29.7971 48.9354 29.8971 49.1354 29.8971C49.7854 29.8971 50.6354 29.0971 51.3354 28.1971C51.8354 27.5471 52.2354 26.8971 52.3854 26.4471C52.6854 25.7971 52.7854 25.5471 53.0354 25.5471C53.4854 25.4471 53.5354 26.0471 55.5854 25.9471C57.7854 25.7971 61.4854 24.7471 62.6354 24.3471C63.2854 24.1471 63.4354 24.5471 62.8854 24.8471C61.8354 25.4471 58.8354 26.4471 56.3854 26.6471C54.0354 26.7971 53.5354 26.3971 53.4354 26.4971C53.3354 26.5471 52.9354 27.5471 52.1854 28.6971C51.5354 29.6971 50.2854 30.7471 49.1354 30.7471C48.2354 30.7471 47.9854 30.1971 47.9854 29.4971C47.9854 28.6971 48.2354 27.7471 48.2354 27.1471C48.2354 26.9471 48.2354 26.7471 48.0354 26.7471C47.6354 26.7471 47.4354 27.2471 45.4854 29.0471C43.2854 31.1471 42.4854 31.7471 41.7354 31.8471C40.5354 32.0471 40.0854 30.8471 40.0854 30.0471C40.0854 28.6471 41.0854 25.4971 42.2354 22.9971C43.1354 21.0971 43.5354 20.4971 43.9354 20.4971C44.3354 20.4971 44.5354 20.5471 44.2854 20.9471Z" fill="white"/>
<path d="M95.2237 10.4471C96.0737 10.1471 97.4737 9.39706 97.8237 7.79706C98.2237 5.89706 97.3237 4.59706 95.0237 4.19706C92.4737 3.74706 87.2737 4.64706 82.3737 6.94706C78.1737 8.94706 73.7737 11.9971 72.9737 15.4471C72.2237 18.8971 73.9237 21.5971 78.8737 26.1971C80.3237 27.5471 81.5737 28.7471 82.6237 29.8471C88.0737 27.6471 98.5237 24.6971 99.7237 24.4471C101.024 24.1471 101.274 24.7471 99.9237 24.9971C98.7737 25.2471 88.8737 28.0971 83.2737 30.4971C87.1237 34.5471 88.4237 37.1471 87.9237 40.3471C87.3237 44.3471 82.3737 46.5971 77.2237 46.0971C72.2737 45.6471 69.9737 42.7471 70.4237 40.0971C71.0737 36.5971 75.5737 33.3971 80.4737 30.8471C80.7737 30.6471 81.2237 30.4971 81.6237 30.2971C80.6737 29.2971 79.4737 28.1471 78.1737 26.8471C72.6737 21.6471 70.7737 18.9471 71.5737 15.2471C72.3737 11.5471 75.4237 8.74706 81.7737 5.94706C88.1737 3.09706 92.5237 2.79706 95.2237 3.24706C98.1737 3.74706 99.2737 5.69706 98.7737 8.04706C98.2737 10.1471 96.1237 11.1971 95.5237 11.2471C94.9237 11.3471 94.6237 10.6971 95.2237 10.4471ZM86.7737 40.0971C87.1737 37.5971 86.2737 35.2971 82.2737 30.9471C81.8237 31.1471 81.4737 31.3471 81.1237 31.5471C74.9737 34.8971 71.9737 37.3971 71.4737 40.0971C71.0737 42.3971 73.1737 44.6471 77.2737 44.9471C82.2737 45.2471 86.2737 42.8971 86.7737 40.0971Z" fill="white"/>
<path d="M103.632 31.3471C103.982 29.7471 104.782 27.5971 105.482 26.2471C105.132 26.6471 104.582 27.2971 103.632 28.2971C101.932 30.0971 99.0815 32.2971 98.1815 32.2971C97.4815 32.2971 97.0815 31.8971 97.1815 30.5971C97.2815 29.4471 97.8815 27.9971 98.3315 27.0471C98.9315 25.6971 99.8815 24.3471 100.382 24.2471C100.882 24.1971 100.982 24.6471 100.982 24.7971C100.982 25.1971 99.7815 26.1971 99.0815 27.5471C98.5315 28.6471 98.1815 29.7471 98.0815 30.1471C97.9315 30.9471 98.1315 31.2971 98.3815 31.2971C99.1815 31.2971 101.982 28.9471 103.032 27.7971C104.932 25.7471 106.132 24.1971 106.832 24.3471C107.432 24.4971 107.182 24.8471 106.482 26.3471C105.882 27.6471 105.032 29.7471 104.582 31.4471C104.132 33.2471 104.632 33.7971 105.232 33.7971C108.882 33.7971 118.482 26.6471 123.032 24.1971C123.282 24.0971 124.282 24.1471 123.482 24.6971C118.982 27.5971 109.182 34.7971 105.132 34.7971C103.632 34.7971 103.082 33.6971 103.632 31.3471Z" fill="white"/>
<path d="M119.932 51.1971C118.582 51.1971 116.782 50.2971 116.782 47.7471C116.782 44.0471 119.132 39.5971 125.182 33.9471C126.832 32.3971 128.832 31.0471 130.882 29.9471C130.882 26.5971 130.332 24.6471 128.882 24.6471C128.132 24.6471 127.332 25.2471 126.582 25.8471C125.582 26.6471 124.532 27.6471 123.432 27.6471C121.482 27.6471 121.732 24.3471 124.132 23.2471C126.182 22.3471 127.782 23.1471 128.232 23.7971C128.432 23.7971 128.682 23.7471 128.932 23.7471C130.632 23.7471 131.832 25.5971 131.832 29.2971V29.4471C136.782 26.8971 141.782 25.5971 143.182 25.5971C143.982 25.5971 143.732 26.4471 143.032 26.4471C141.632 26.4471 136.732 27.6971 131.782 30.4471C131.582 34.8471 130.182 40.4971 127.932 44.4471C125.632 48.4971 122.582 51.1971 119.932 51.1971ZM127.032 43.6971C129.282 39.8471 130.632 34.3471 130.832 30.9471C129.082 31.9971 127.382 33.2471 125.832 34.6971C119.532 40.4971 117.782 45.0471 117.782 47.8971C117.782 49.3471 118.382 50.2471 119.532 50.2471C121.382 50.2471 124.482 48.1971 127.032 43.6971ZM125.932 25.0471C126.382 24.6471 126.882 24.2471 127.532 23.9971C126.782 23.5971 125.582 23.3471 124.432 24.1471C122.582 25.3971 122.732 26.7971 123.432 26.7971C124.032 26.7971 124.932 25.8971 125.932 25.0471Z" fill="white"/>
<path d="M150.892 30.7471C154.392 30.7471 164.542 26.0471 167.592 24.3971C167.842 24.2471 168.892 24.2971 168.042 24.8471C164.742 26.9971 154.142 31.7971 150.842 31.7971C148.392 31.7971 147.692 30.3471 147.692 29.2971C147.692 28.2471 147.892 27.7471 147.792 27.6471C147.642 27.4971 147.342 27.5471 145.742 28.3971C144.292 29.2471 142.692 29.8971 142.192 29.8971C141.492 29.8971 140.992 29.4471 140.992 29.1471C140.992 28.1971 141.592 26.8971 143.492 25.4971C145.092 24.2471 146.092 23.9971 146.942 23.9971C148.092 23.9971 148.792 25.7971 148.292 25.7971C147.792 25.7971 147.642 24.7971 147.092 24.7971C146.592 24.7971 145.592 25.1971 144.192 26.1471C142.892 26.9971 141.892 28.4471 141.892 28.8471C141.892 28.9471 141.942 28.9971 142.092 28.9971C142.542 28.9971 143.392 28.6471 144.792 27.9471C146.692 27.0471 147.942 26.3471 148.542 26.3471C148.742 26.3471 149.192 26.4471 149.192 26.7971C149.192 27.1971 148.692 28.0971 148.692 29.2471C148.692 30.0971 149.592 30.7471 150.892 30.7471Z" fill="white"/>
<path d="M169.706 32.0471C168.606 31.8971 167.856 30.7471 169.056 28.2471C169.556 27.1471 169.906 26.4971 169.906 26.2471C169.906 26.0471 169.756 25.8971 168.706 25.4971C167.356 24.9971 167.156 23.6971 167.406 22.6971C167.856 20.8971 169.306 20.3471 170.056 20.4971C170.456 20.5971 171.006 21.1471 170.956 21.5471C170.806 22.8471 170.006 23.6971 168.656 24.4471C168.756 24.5471 168.906 24.6471 169.106 24.6971C170.956 25.4471 171.206 25.5971 171.206 26.0471C171.206 26.4471 170.656 27.2471 170.006 28.6471C169.256 30.1971 169.206 30.8471 170.056 30.9471C172.856 31.2971 180.006 29.0471 185.256 24.5471C185.756 24.0971 186.356 24.4471 185.906 24.8471C180.606 29.8971 172.256 32.3971 169.706 32.0471ZM168.406 22.9471C168.306 23.2471 168.256 23.5471 168.356 23.8471C169.806 22.9471 170.156 22.1971 170.206 21.4971C170.206 21.3971 170.206 21.3471 170.106 21.2971C169.606 21.1471 168.656 22.1471 168.406 22.9471Z" fill="white"/>
<path d="M31.389 38.9471C19.339 44.7971 5.93895 51.0971 3.33895 51.0971C1.08895 51.0971 0.738952 49.5471 1.08895 47.2471C1.63895 43.3971 6.28895 28.3971 9.93895 14.7471C13.489 1.59706 14.939 1.39706 15.589 1.29706C16.139 1.24706 16.439 1.09706 16.889 0.847058C17.389 0.547059 17.089 1.84706 16.089 2.54706C15.289 3.09706 14.739 4.04706 13.439 7.74706C11.939 11.8471 10.889 14.5971 9.33895 20.2971C7.08895 28.5471 3.18895 42.8471 2.78895 45.8471C2.53895 47.6971 2.53895 49.4971 3.53895 49.4971C4.53895 49.4971 6.28895 49.1471 15.139 45.3971C24.039 41.6971 30.639 38.3471 31.689 37.9471C31.939 37.8971 32.839 38.2471 31.389 38.9471Z" stroke="white" stroke-width="1.6" mask="url(#path-1-outside-1_58_63)"/>
<path d="M24.4682 28.4471C24.8682 27.5971 25.3682 26.8471 25.8182 26.2471C25.5682 25.9971 25.3182 25.7471 25.1682 25.3971C24.2682 23.4971 25.9182 21.2471 28.1182 21.2471C30.3182 21.2471 31.6682 23.2971 31.6682 26.4471V26.5971C31.8682 26.5971 32.0682 26.5971 32.3182 26.5471C34.8182 26.3471 39.4682 25.1471 41.5682 24.3971C41.9182 24.2471 42.1683 24.7971 41.9183 24.8971C40.8183 25.3471 35.1182 27.1971 32.1682 27.4471C31.9682 27.4971 31.7682 27.4971 31.6182 27.4971C31.1682 32.2971 27.6182 36.1971 25.3182 36.1971C23.0682 36.1971 22.4682 32.3471 24.4682 28.4471ZM25.1182 35.2971C27.3683 35.2971 30.0682 31.8971 30.5182 27.4971C29.1682 27.4971 27.7182 27.2971 26.6682 26.7971C26.2682 27.3471 25.8182 27.9971 25.4682 28.6471C23.5682 32.3471 24.1682 35.2971 25.1182 35.2971ZM28.4682 24.5971C28.4682 24.6971 27.9182 25.1971 27.2682 25.9971C28.1682 26.3971 29.3682 26.5971 30.6182 26.5971V26.0971C30.6182 23.4971 29.3683 22.0971 27.9683 22.0971C26.6183 22.0971 25.3682 23.3971 26.0682 24.8971C26.1682 25.1471 26.3182 25.2971 26.4682 25.4971C27.2182 24.6971 27.8682 24.2471 28.0182 24.2471C28.3182 24.2471 28.4682 24.3971 28.4682 24.5971Z" stroke="white" stroke-width="1.6" mask="url(#path-1-outside-1_58_63)"/>
<path d="M44.2854 20.9471C42.6354 23.7971 41.0854 27.9471 41.0354 29.4471C40.9854 30.4471 41.2354 30.8471 41.5854 30.8471C42.2354 30.8471 43.2854 29.7971 44.9354 28.1971C46.5854 26.6471 47.3354 26.0471 47.9854 26.0471C48.5854 26.0471 49.0854 26.4971 49.0854 26.9971C49.0854 27.4471 48.8854 28.8471 48.8854 29.1971C48.8354 29.7971 48.9354 29.8971 49.1354 29.8971C49.7854 29.8971 50.6354 29.0971 51.3354 28.1971C51.8354 27.5471 52.2354 26.8971 52.3854 26.4471C52.6854 25.7971 52.7854 25.5471 53.0354 25.5471C53.4854 25.4471 53.5354 26.0471 55.5854 25.9471C57.7854 25.7971 61.4854 24.7471 62.6354 24.3471C63.2854 24.1471 63.4354 24.5471 62.8854 24.8471C61.8354 25.4471 58.8354 26.4471 56.3854 26.6471C54.0354 26.7971 53.5354 26.3971 53.4354 26.4971C53.3354 26.5471 52.9354 27.5471 52.1854 28.6971C51.5354 29.6971 50.2854 30.7471 49.1354 30.7471C48.2354 30.7471 47.9854 30.1971 47.9854 29.4971C47.9854 28.6971 48.2354 27.7471 48.2354 27.1471C48.2354 26.9471 48.2354 26.7471 48.0354 26.7471C47.6354 26.7471 47.4354 27.2471 45.4854 29.0471C43.2854 31.1471 42.4854 31.7471 41.7354 31.8471C40.5354 32.0471 40.0854 30.8471 40.0854 30.0471C40.0854 28.6471 41.0854 25.4971 42.2354 22.9971C43.1354 21.0971 43.5354 20.4971 43.9354 20.4971C44.3354 20.4971 44.5354 20.5471 44.2854 20.9471Z" stroke="white" stroke-width="1.6" mask="url(#path-1-outside-1_58_63)"/>
<path d="M95.2237 10.4471C96.0737 10.1471 97.4737 9.39706 97.8237 7.79706C98.2237 5.89706 97.3237 4.59706 95.0237 4.19706C92.4737 3.74706 87.2737 4.64706 82.3737 6.94706C78.1737 8.94706 73.7737 11.9971 72.9737 15.4471C72.2237 18.8971 73.9237 21.5971 78.8737 26.1971C80.3237 27.5471 81.5737 28.7471 82.6237 29.8471C88.0737 27.6471 98.5237 24.6971 99.7237 24.4471C101.024 24.1471 101.274 24.7471 99.9237 24.9971C98.7737 25.2471 88.8737 28.0971 83.2737 30.4971C87.1237 34.5471 88.4237 37.1471 87.9237 40.3471C87.3237 44.3471 82.3737 46.5971 77.2237 46.0971C72.2737 45.6471 69.9737 42.7471 70.4237 40.0971C71.0737 36.5971 75.5737 33.3971 80.4737 30.8471C80.7737 30.6471 81.2237 30.4971 81.6237 30.2971C80.6737 29.2971 79.4737 28.1471 78.1737 26.8471C72.6737 21.6471 70.7737 18.9471 71.5737 15.2471C72.3737 11.5471 75.4237 8.74706 81.7737 5.94706C88.1737 3.09706 92.5237 2.79706 95.2237 3.24706C98.1737 3.74706 99.2737 5.69706 98.7737 8.04706C98.2737 10.1471 96.1237 11.1971 95.5237 11.2471C94.9237 11.3471 94.6237 10.6971 95.2237 10.4471ZM86.7737 40.0971C87.1737 37.5971 86.2737 35.2971 82.2737 30.9471C81.8237 31.1471 81.4737 31.3471 81.1237 31.5471C74.9737 34.8971 71.9737 37.3971 71.4737 40.0971C71.0737 42.3971 73.1737 44.6471 77.2737 44.9471C82.2737 45.2471 86.2737 42.8971 86.7737 40.0971Z" stroke="white" stroke-width="1.6" mask="url(#path-1-outside-1_58_63)"/>
<path d="M103.632 31.3471C103.982 29.7471 104.782 27.5971 105.482 26.2471C105.132 26.6471 104.582 27.2971 103.632 28.2971C101.932 30.0971 99.0815 32.2971 98.1815 32.2971C97.4815 32.2971 97.0815 31.8971 97.1815 30.5971C97.2815 29.4471 97.8815 27.9971 98.3315 27.0471C98.9315 25.6971 99.8815 24.3471 100.382 24.2471C100.882 24.1971 100.982 24.6471 100.982 24.7971C100.982 25.1971 99.7815 26.1971 99.0815 27.5471C98.5315 28.6471 98.1815 29.7471 98.0815 30.1471C97.9315 30.9471 98.1315 31.2971 98.3815 31.2971C99.1815 31.2971 101.982 28.9471 103.032 27.7971C104.932 25.7471 106.132 24.1971 106.832 24.3471C107.432 24.4971 107.182 24.8471 106.482 26.3471C105.882 27.6471 105.032 29.7471 104.582 31.4471C104.132 33.2471 104.632 33.7971 105.232 33.7971C108.882 33.7971 118.482 26.6471 123.032 24.1971C123.282 24.0971 124.282 24.1471 123.482 24.6971C118.982 27.5971 109.182 34.7971 105.132 34.7971C103.632 34.7971 103.082 33.6971 103.632 31.3471Z" stroke="white" stroke-width="1.6" mask="url(#path-1-outside-1_58_63)"/>
<path d="M119.932 51.1971C118.582 51.1971 116.782 50.2971 116.782 47.7471C116.782 44.0471 119.132 39.5971 125.182 33.9471C126.832 32.3971 128.832 31.0471 130.882 29.9471C130.882 26.5971 130.332 24.6471 128.882 24.6471C128.132 24.6471 127.332 25.2471 126.582 25.8471C125.582 26.6471 124.532 27.6471 123.432 27.6471C121.482 27.6471 121.732 24.3471 124.132 23.2471C126.182 22.3471 127.782 23.1471 128.232 23.7971C128.432 23.7971 128.682 23.7471 128.932 23.7471C130.632 23.7471 131.832 25.5971 131.832 29.2971V29.4471C136.782 26.8971 141.782 25.5971 143.182 25.5971C143.982 25.5971 143.732 26.4471 143.032 26.4471C141.632 26.4471 136.732 27.6971 131.782 30.4471C131.582 34.8471 130.182 40.4971 127.932 44.4471C125.632 48.4971 122.582 51.1971 119.932 51.1971ZM127.032 43.6971C129.282 39.8471 130.632 34.3471 130.832 30.9471C129.082 31.9971 127.382 33.2471 125.832 34.6971C119.532 40.4971 117.782 45.0471 117.782 47.8971C117.782 49.3471 118.382 50.2471 119.532 50.2471C121.382 50.2471 124.482 48.1971 127.032 43.6971ZM125.932 25.0471C126.382 24.6471 126.882 24.2471 127.532 23.9971C126.782 23.5971 125.582 23.3471 124.432 24.1471C122.582 25.3971 122.732 26.7971 123.432 26.7971C124.032 26.7971 124.932 25.8971 125.932 25.0471Z" stroke="white" stroke-width="1.6" mask="url(#path-1-outside-1_58_63)"/>
<path d="M150.892 30.7471C154.392 30.7471 164.542 26.0471 167.592 24.3971C167.842 24.2471 168.892 24.2971 168.042 24.8471C164.742 26.9971 154.142 31.7971 150.842 31.7971C148.392 31.7971 147.692 30.3471 147.692 29.2971C147.692 28.2471 147.892 27.7471 147.792 27.6471C147.642 27.4971 147.342 27.5471 145.742 28.3971C144.292 29.2471 142.692 29.8971 142.192 29.8971C141.492 29.8971 140.992 29.4471 140.992 29.1471C140.992 28.1971 141.592 26.8971 143.492 25.4971C145.092 24.2471 146.092 23.9971 146.942 23.9971C148.092 23.9971 148.792 25.7971 148.292 25.7971C147.792 25.7971 147.642 24.7971 147.092 24.7971C146.592 24.7971 145.592 25.1971 144.192 26.1471C142.892 26.9971 141.892 28.4471 141.892 28.8471C141.892 28.9471 141.942 28.9971 142.092 28.9971C142.542 28.9971 143.392 28.6471 144.792 27.9471C146.692 27.0471 147.942 26.3471 148.542 26.3471C148.742 26.3471 149.192 26.4471 149.192 26.7971C149.192 27.1971 148.692 28.0971 148.692 29.2471C148.692 30.0971 149.592 30.7471 150.892 30.7471Z" stroke="white" stroke-width="1.6" mask="url(#path-1-outside-1_58_63)"/>
<path d="M169.706 32.0471C168.606 31.8971 167.856 30.7471 169.056 28.2471C169.556 27.1471 169.906 26.4971 169.906 26.2471C169.906 26.0471 169.756 25.8971 168.706 25.4971C167.356 24.9971 167.156 23.6971 167.406 22.6971C167.856 20.8971 169.306 20.3471 170.056 20.4971C170.456 20.5971 171.006 21.1471 170.956 21.5471C170.806 22.8471 170.006 23.6971 168.656 24.4471C168.756 24.5471 168.906 24.6471 169.106 24.6971C170.956 25.4471 171.206 25.5971 171.206 26.0471C171.206 26.4471 170.656 27.2471 170.006 28.6471C169.256 30.1971 169.206 30.8471 170.056 30.9471C172.856 31.2971 180.006 29.0471 185.256 24.5471C185.756 24.0971 186.356 24.4471 185.906 24.8471C180.606 29.8971 172.256 32.3971 169.706 32.0471ZM168.406 22.9471C168.306 23.2471 168.256 23.5471 168.356 23.8471C169.806 22.9471 170.156 22.1971 170.206 21.4971C170.206 21.3971 170.206 21.3471 170.106 21.2971C169.606 21.1471 168.656 22.1471 168.406 22.9471Z" stroke="white" stroke-width="1.6" mask="url(#path-1-outside-1_58_63)"/>
</svg>
