<svg width="408" height="111" viewBox="0 0 408 111" fill="none" xmlns="http://www.w3.org/2000/svg">
<path d="M0.256348 109.119L8.40169 64.7428H14.2012L26.3866 97.1287H26.5821L38.7675 64.7428H44.567L52.7123 109.119H45.8702L42.2863 88.0059C41.765 84.965 41.3306 81.9675 40.983 79.0135C40.6355 76.016 40.4183 73.0185 40.3314 70.021H41.9605C41.1785 73.6267 40.3531 76.7979 39.4843 79.5348C38.6589 82.2716 37.7032 85.0953 36.6171 88.0059L28.9931 108.402H23.9756L16.3515 88.0059C15.2655 85.0519 14.288 82.2282 13.4192 79.5348C12.5938 76.7979 11.7901 73.6267 11.0082 70.021H12.6373C12.5504 73.0185 12.3332 76.016 11.9856 79.0135C11.6381 81.9675 11.2037 84.965 10.6824 88.0059L7.09843 109.119H0.256348Z" fill="#172530"/>
<path d="M67.1102 109.119H60.594V64.7428H67.1102V109.119Z" fill="#172530"/>
<path d="M109.696 109.119L81.0245 71.9107L84.6736 70.8681V109.119H78.1573V64.7428H83.6962L111.39 100.647H108.719V64.7428H115.235V109.119H109.696Z" fill="#172530"/>
<path d="M132.846 109.119H126.329V64.7428H132.846V109.119Z" fill="#172530"/>
<path d="M162.269 109.901C157.664 109.901 153.667 108.923 150.279 106.968C146.934 105.013 144.327 102.32 142.459 98.8881C140.635 95.4128 139.722 91.4378 139.722 86.9633C139.722 83.6183 140.265 80.5557 141.351 77.7754C142.481 74.9517 144.045 72.5189 146.043 70.4772C148.041 68.392 150.409 66.8063 153.146 65.7203C155.926 64.5908 158.967 64.0261 162.269 64.0261C167.482 64.0261 171.761 65.1555 175.106 67.4145C178.451 69.6735 181.014 72.8882 182.795 77.0586L174.128 80.3819C172.695 77.9057 171 76.1029 169.046 74.9734C167.134 73.8005 164.875 73.214 162.269 73.214C159.792 73.214 157.577 73.8005 155.622 74.9734C153.711 76.1029 152.19 77.6885 151.061 79.7303C149.975 81.772 149.432 84.1831 149.432 86.9633C149.432 89.7002 149.975 92.1112 151.061 94.1964C152.19 96.2381 153.711 97.8238 155.622 98.9533C157.577 100.083 159.792 100.647 162.269 100.647C164.875 100.647 167.134 100.083 169.046 98.9533C171 97.8238 172.695 96.0209 174.128 93.5448L182.795 96.8681C181.014 101.038 178.451 104.253 175.106 106.512C171.761 108.771 167.482 109.901 162.269 109.901Z" fill="#172530"/>
<path d="M185.094 86.9633C185.094 83.6183 185.637 80.5557 186.723 77.7754C187.853 74.9517 189.439 72.5189 191.48 70.4772C193.522 68.392 195.933 66.7846 198.713 65.6551C201.494 64.5256 204.578 63.9609 207.967 63.9609C211.268 63.9609 214.309 64.5256 217.089 65.6551C219.913 66.7846 222.346 68.392 224.388 70.4772C226.429 72.5189 227.993 74.9517 229.079 77.7754C230.209 80.5557 230.773 83.6183 230.773 86.9633C230.773 90.3083 230.209 93.3927 229.079 96.2164C227.993 98.9967 226.429 101.429 224.388 103.515C222.346 105.556 219.913 107.142 217.089 108.272C214.309 109.358 211.268 109.901 207.967 109.901C204.578 109.901 201.494 109.358 198.713 108.272C195.933 107.142 193.522 105.556 191.48 103.515C189.439 101.429 187.853 98.9967 186.723 96.2164C185.637 93.3927 185.094 90.3083 185.094 86.9633ZM194.804 86.9633C194.804 89.7002 195.368 92.0895 196.498 94.1312C197.627 96.173 199.17 97.7586 201.124 98.8881C203.123 100.018 205.403 100.582 207.967 100.582C210.486 100.582 212.723 100.018 214.678 98.8881C216.677 97.7586 218.241 96.173 219.37 94.1312C220.499 92.0895 221.064 89.6784 221.064 86.8982C221.064 84.1613 220.499 81.772 219.37 79.7303C218.241 77.6885 216.677 76.1246 214.678 75.0386C212.723 73.9091 210.486 73.3443 207.967 73.3443C205.403 73.3443 203.123 73.9091 201.124 75.0386C199.17 76.168 197.627 77.7537 196.498 79.7954C195.368 81.7938 194.804 84.1831 194.804 86.9633Z" fill="#172530"/>
<path d="M233.712 86.9633C233.712 83.6183 234.255 80.5557 235.341 77.7754C236.47 74.9517 238.056 72.5189 240.098 70.4772C242.14 68.392 244.551 66.7846 247.331 65.6551C250.111 64.5256 253.196 63.9609 256.584 63.9609C259.886 63.9609 262.927 64.5256 265.707 65.6551C268.531 66.7846 270.963 68.392 273.005 70.4772C275.047 72.5189 276.611 74.9517 277.697 77.7754C278.826 80.5557 279.391 83.6183 279.391 86.9633C279.391 90.3083 278.826 93.3927 277.697 96.2164C276.611 98.9967 275.047 101.429 273.005 103.515C270.963 105.556 268.531 107.142 265.707 108.272C262.927 109.358 259.886 109.901 256.584 109.901C253.196 109.901 250.111 109.358 247.331 108.272C244.551 107.142 242.14 105.556 240.098 103.515C238.056 101.429 236.47 98.9967 235.341 96.2164C234.255 93.3927 233.712 90.3083 233.712 86.9633ZM243.421 86.9633C243.421 89.7002 243.986 92.0895 245.115 94.1312C246.245 96.173 247.787 97.7586 249.742 98.8881C251.74 100.018 254.021 100.582 256.584 100.582C259.104 100.582 261.341 100.018 263.296 98.8881C265.294 97.7586 266.858 96.173 267.987 94.1312C269.117 92.0895 269.682 89.6784 269.682 86.8982C269.682 84.1613 269.117 81.772 267.987 79.7303C266.858 77.6885 265.294 76.1246 263.296 75.0386C261.341 73.9091 259.104 73.3443 256.584 73.3443C254.021 73.3443 251.74 73.9091 249.742 75.0386C247.787 76.168 246.245 77.7537 245.115 79.7954C243.986 81.7938 243.421 84.1831 243.421 86.9633Z" fill="#172530"/>
<path d="M284.616 109.119V64.7428H294.13V109.119H284.616ZM309.052 109.119L290.741 87.7453V86.2465L309.639 64.7428H321.433L300.646 88.3969L300.907 85.5297L321.433 109.119H309.052Z" fill="#172530"/>
<path d="M333.648 109.119H324.134V64.7428H333.648V109.119Z" fill="#172530"/>
<path d="M347.829 91.3944V82.3368H366.074V91.3944H347.829ZM347.633 73.8005L350.956 69.9559V103.906L347.307 100.061H369.658V109.119H341.443V64.7428H369.658V73.8005H347.633Z" fill="#172530"/>
<path d="M391.374 110.226C388.811 110.226 386.399 109.857 384.141 109.119C381.925 108.337 379.927 107.185 378.146 105.665C376.408 104.101 374.931 102.103 373.714 99.6701L381.143 95.0435C382.403 97.1287 383.945 98.7143 385.77 99.8004C387.594 100.886 389.636 101.429 391.895 101.429C393.85 101.429 395.327 101.017 396.326 100.191C397.325 99.366 397.825 98.2799 397.825 96.9332C397.825 96.0644 397.586 95.3259 397.108 94.7177C396.673 94.0661 395.87 93.4579 394.697 92.8931C393.524 92.3284 391.83 91.7854 389.614 91.2641C386.009 90.3952 383.141 89.3092 381.013 88.0059C378.927 86.7027 377.45 85.1605 376.582 83.3794C375.713 81.5548 375.278 79.5348 375.278 77.3192C375.278 74.7127 375.908 72.4103 377.168 70.412C378.471 68.3702 380.318 66.7629 382.707 65.59C385.096 64.417 387.942 63.8306 391.243 63.8306C394.979 63.8306 398.129 64.5691 400.692 66.0461C403.298 67.5231 405.384 69.4563 406.947 71.8456L399.519 76.9934C398.389 75.5164 397.021 74.4521 395.414 73.8005C393.85 73.1488 392.286 72.823 390.722 72.823C388.854 72.823 387.399 73.1923 386.356 73.9308C385.357 74.6259 384.857 75.625 384.857 76.9283C384.857 78.1446 385.379 79.1655 386.421 79.9909C387.464 80.7729 389.506 81.5114 392.547 82.2064C396.196 83.0753 399.128 84.1396 401.343 85.3994C403.559 86.6592 405.166 88.2014 406.165 90.026C407.165 91.8505 407.664 94.0443 407.664 96.6074C407.664 99.2139 406.991 101.538 405.644 103.58C404.341 105.622 402.473 107.251 400.04 108.467C397.607 109.64 394.719 110.226 391.374 110.226Z" fill="#172530"/>
<mask id="path-2-outside-1_115_22" maskUnits="userSpaceOnUse" x="111.802" y="7.53369" width="188" height="53" fill="black">
<rect fill="white" x="111.802" y="7.53369" width="188" height="53"/>
<path d="M143.481 46.9837C131.431 52.8337 118.031 59.1337 115.431 59.1337C113.181 59.1337 112.831 57.5837 113.181 55.2837C113.731 51.4337 118.381 36.4337 122.031 22.7837C125.581 9.63369 127.031 9.43369 127.681 9.33369C128.231 9.28369 128.531 9.13369 128.981 8.88369C129.481 8.58369 129.181 9.88369 128.181 10.5837C127.381 11.1337 126.831 12.0837 125.531 15.7837C124.031 19.8837 122.981 22.6337 121.431 28.3337C119.181 36.5837 115.281 50.8837 114.881 53.8837C114.631 55.7337 114.631 57.5337 115.631 57.5337C116.631 57.5337 118.381 57.1837 127.231 53.4337C136.131 49.7337 142.731 46.3837 143.781 45.9837C144.031 45.9337 144.931 46.2837 143.481 46.9837ZM136.56 36.4837C136.96 35.6337 137.46 34.8837 137.91 34.2837C137.66 34.0337 137.41 33.7837 137.26 33.4337C136.36 31.5337 138.01 29.2837 140.21 29.2837C142.41 29.2837 143.76 31.3337 143.76 34.4837V34.6337C143.96 34.6337 144.16 34.6337 144.41 34.5837C146.91 34.3837 151.56 33.1837 153.66 32.4337C154.01 32.2837 154.26 32.8337 154.01 32.9337C152.91 33.3837 147.21 35.2337 144.26 35.4837C144.06 35.5337 143.86 35.5337 143.71 35.5337C143.26 40.3337 139.71 44.2337 137.41 44.2337C135.16 44.2337 134.56 40.3837 136.56 36.4837ZM137.21 43.3337C139.46 43.3337 142.16 39.9337 142.61 35.5337C141.26 35.5337 139.81 35.3337 138.76 34.8337C138.36 35.3837 137.91 36.0337 137.56 36.6837C135.66 40.3837 136.26 43.3337 137.21 43.3337ZM140.56 32.6337C140.56 32.7337 140.01 33.2337 139.36 34.0337C140.26 34.4337 141.46 34.6337 142.71 34.6337V34.1337C142.71 31.5337 141.46 30.1337 140.06 30.1337C138.71 30.1337 137.46 31.4337 138.16 32.9337C138.26 33.1837 138.41 33.3337 138.56 33.5337C139.31 32.7337 139.96 32.2837 140.11 32.2837C140.41 32.2837 140.56 32.4337 140.56 32.6337ZM156.377 28.9837C154.727 31.8337 153.177 35.9837 153.127 37.4837C153.077 38.4837 153.327 38.8837 153.677 38.8837C154.327 38.8837 155.377 37.8337 157.027 36.2337C158.677 34.6837 159.427 34.0837 160.077 34.0837C160.677 34.0837 161.177 34.5337 161.177 35.0337C161.177 35.4837 160.977 36.8837 160.977 37.2337C160.927 37.8337 161.027 37.9337 161.227 37.9337C161.877 37.9337 162.727 37.1337 163.427 36.2337C163.927 35.5837 164.327 34.9337 164.477 34.4837C164.777 33.8337 164.877 33.5837 165.127 33.5837C165.577 33.4837 165.627 34.0837 167.677 33.9837C169.877 33.8337 173.577 32.7837 174.727 32.3837C175.377 32.1837 175.527 32.5837 174.977 32.8837C173.927 33.4837 170.927 34.4837 168.477 34.6837C166.127 34.8337 165.627 34.4337 165.527 34.5337C165.427 34.5837 165.027 35.5837 164.277 36.7337C163.627 37.7337 162.377 38.7837 161.227 38.7837C160.327 38.7837 160.077 38.2337 160.077 37.5337C160.077 36.7337 160.327 35.7837 160.327 35.1837C160.327 34.9837 160.327 34.7837 160.127 34.7837C159.727 34.7837 159.527 35.2837 157.577 37.0837C155.377 39.1837 154.577 39.7837 153.827 39.8837C152.627 40.0837 152.177 38.8837 152.177 38.0837C152.177 36.6837 153.177 33.5337 154.327 31.0337C155.227 29.1337 155.627 28.5337 156.027 28.5337C156.427 28.5337 156.627 28.5837 156.377 28.9837ZM207.316 18.4837C208.166 18.1837 209.566 17.4337 209.916 15.8337C210.316 13.9337 209.416 12.6337 207.116 12.2337C204.566 11.7837 199.366 12.6837 194.466 14.9837C190.266 16.9837 185.866 20.0337 185.066 23.4837C184.316 26.9337 186.016 29.6337 190.966 34.2337C192.416 35.5837 193.666 36.7837 194.716 37.8837C200.166 35.6837 210.616 32.7337 211.816 32.4837C213.116 32.1837 213.366 32.7837 212.016 33.0337C210.866 33.2837 200.966 36.1337 195.366 38.5337C199.216 42.5837 200.516 45.1837 200.016 48.3837C199.416 52.3837 194.466 54.6337 189.316 54.1337C184.366 53.6837 182.066 50.7837 182.516 48.1337C183.166 44.6337 187.666 41.4337 192.566 38.8837C192.866 38.6837 193.316 38.5337 193.716 38.3337C192.766 37.3337 191.566 36.1837 190.266 34.8837C184.766 29.6837 182.866 26.9837 183.666 23.2837C184.466 19.5837 187.516 16.7837 193.866 13.9837C200.266 11.1337 204.616 10.8337 207.316 11.2837C210.266 11.7837 211.366 13.7337 210.866 16.0837C210.366 18.1837 208.216 19.2337 207.616 19.2837C207.016 19.3837 206.716 18.7337 207.316 18.4837ZM198.866 48.1337C199.266 45.6337 198.366 43.3337 194.366 38.9837C193.916 39.1837 193.566 39.3837 193.216 39.5837C187.066 42.9337 184.066 45.4337 183.566 48.1337C183.166 50.4337 185.266 52.6837 189.366 52.9837C194.366 53.2837 198.366 50.9337 198.866 48.1337ZM215.723 39.3837C216.073 37.7837 216.873 35.6337 217.573 34.2837C217.223 34.6837 216.673 35.3337 215.723 36.3337C214.023 38.1337 211.173 40.3337 210.273 40.3337C209.573 40.3337 209.173 39.9337 209.273 38.6337C209.373 37.4837 209.973 36.0337 210.423 35.0837C211.023 33.7337 211.973 32.3837 212.473 32.2837C212.973 32.2337 213.073 32.6837 213.073 32.8337C213.073 33.2337 211.873 34.2337 211.173 35.5837C210.623 36.6837 210.273 37.7837 210.173 38.1837C210.023 38.9837 210.223 39.3337 210.473 39.3337C211.273 39.3337 214.073 36.9837 215.123 35.8337C217.023 33.7837 218.223 32.2337 218.923 32.3837C219.523 32.5337 219.273 32.8837 218.573 34.3837C217.973 35.6837 217.123 37.7837 216.673 39.4837C216.223 41.2837 216.723 41.8337 217.323 41.8337C220.973 41.8337 230.573 34.6837 235.123 32.2337C235.373 32.1337 236.373 32.1837 235.573 32.7337C231.073 35.6337 221.273 42.8337 217.223 42.8337C215.723 42.8337 215.173 41.7337 215.723 39.3837ZM232.024 59.2337C230.674 59.2337 228.874 58.3337 228.874 55.7837C228.874 52.0837 231.224 47.6337 237.274 41.9837C238.924 40.4337 240.924 39.0837 242.974 37.9837C242.974 34.6337 242.424 32.6837 240.974 32.6837C240.224 32.6837 239.424 33.2837 238.674 33.8837C237.674 34.6837 236.624 35.6837 235.524 35.6837C233.574 35.6837 233.824 32.3837 236.224 31.2837C238.274 30.3837 239.874 31.1837 240.324 31.8337C240.524 31.8337 240.774 31.7837 241.024 31.7837C242.724 31.7837 243.924 33.6337 243.924 37.3337V37.4837C248.874 34.9337 253.874 33.6337 255.274 33.6337C256.074 33.6337 255.824 34.4837 255.124 34.4837C253.724 34.4837 248.824 35.7337 243.874 38.4837C243.674 42.8837 242.274 48.5337 240.024 52.4837C237.724 56.5337 234.674 59.2337 232.024 59.2337ZM239.124 51.7337C241.374 47.8837 242.724 42.3837 242.924 38.9837C241.174 40.0337 239.474 41.2837 237.924 42.7337C231.624 48.5337 229.874 53.0837 229.874 55.9337C229.874 57.3837 230.474 58.2837 231.624 58.2837C233.474 58.2837 236.574 56.2337 239.124 51.7337ZM238.024 33.0837C238.474 32.6837 238.974 32.2837 239.624 32.0337C238.874 31.6337 237.674 31.3837 236.524 32.1837C234.674 33.4337 234.824 34.8337 235.524 34.8337C236.124 34.8337 237.024 33.9337 238.024 33.0837ZM262.983 38.7837C266.483 38.7837 276.633 34.0837 279.683 32.4337C279.933 32.2837 280.983 32.3337 280.133 32.8837C276.833 35.0337 266.233 39.8337 262.933 39.8337C260.483 39.8337 259.783 38.3837 259.783 37.3337C259.783 36.2837 259.983 35.7837 259.883 35.6837C259.733 35.5337 259.433 35.5837 257.833 36.4337C256.383 37.2837 254.783 37.9337 254.283 37.9337C253.583 37.9337 253.083 37.4837 253.083 37.1837C253.083 36.2337 253.683 34.9337 255.583 33.5337C257.183 32.2837 258.183 32.0337 259.033 32.0337C260.183 32.0337 260.883 33.8337 260.383 33.8337C259.883 33.8337 259.733 32.8337 259.183 32.8337C258.683 32.8337 257.683 33.2337 256.283 34.1837C254.983 35.0337 253.983 36.4837 253.983 36.8837C253.983 36.9837 254.033 37.0337 254.183 37.0337C254.633 37.0337 255.483 36.6837 256.883 35.9837C258.783 35.0837 260.033 34.3837 260.633 34.3837C260.833 34.3837 261.283 34.4837 261.283 34.8337C261.283 35.2337 260.783 36.1337 260.783 37.2837C260.783 38.1337 261.683 38.7837 262.983 38.7837ZM281.798 40.0837C280.698 39.9337 279.948 38.7837 281.148 36.2837C281.648 35.1837 281.998 34.5337 281.998 34.2837C281.998 34.0837 281.848 33.9337 280.798 33.5337C279.448 33.0337 279.248 31.7337 279.498 30.7337C279.948 28.9337 281.398 28.3837 282.148 28.5337C282.548 28.6337 283.098 29.1837 283.048 29.5837C282.898 30.8837 282.098 31.7337 280.748 32.4837C280.848 32.5837 280.998 32.6837 281.198 32.7337C283.048 33.4837 283.298 33.6337 283.298 34.0837C283.298 34.4837 282.748 35.2837 282.098 36.6837C281.348 38.2337 281.298 38.8837 282.148 38.9837C284.948 39.3337 292.098 37.0837 297.348 32.5837C297.848 32.1337 298.448 32.4837 297.998 32.8837C292.698 37.9337 284.348 40.4337 281.798 40.0837ZM280.498 30.9837C280.398 31.2837 280.348 31.5837 280.448 31.8837C281.898 30.9837 282.248 30.2337 282.298 29.5337C282.298 29.4337 282.298 29.3837 282.198 29.3337C281.698 29.1837 280.748 30.1837 280.498 30.9837Z"/>
</mask>
<path d="M143.481 46.9837C131.431 52.8337 118.031 59.1337 115.431 59.1337C113.181 59.1337 112.831 57.5837 113.181 55.2837C113.731 51.4337 118.381 36.4337 122.031 22.7837C125.581 9.63369 127.031 9.43369 127.681 9.33369C128.231 9.28369 128.531 9.13369 128.981 8.88369C129.481 8.58369 129.181 9.88369 128.181 10.5837C127.381 11.1337 126.831 12.0837 125.531 15.7837C124.031 19.8837 122.981 22.6337 121.431 28.3337C119.181 36.5837 115.281 50.8837 114.881 53.8837C114.631 55.7337 114.631 57.5337 115.631 57.5337C116.631 57.5337 118.381 57.1837 127.231 53.4337C136.131 49.7337 142.731 46.3837 143.781 45.9837C144.031 45.9337 144.931 46.2837 143.481 46.9837ZM136.56 36.4837C136.96 35.6337 137.46 34.8837 137.91 34.2837C137.66 34.0337 137.41 33.7837 137.26 33.4337C136.36 31.5337 138.01 29.2837 140.21 29.2837C142.41 29.2837 143.76 31.3337 143.76 34.4837V34.6337C143.96 34.6337 144.16 34.6337 144.41 34.5837C146.91 34.3837 151.56 33.1837 153.66 32.4337C154.01 32.2837 154.26 32.8337 154.01 32.9337C152.91 33.3837 147.21 35.2337 144.26 35.4837C144.06 35.5337 143.86 35.5337 143.71 35.5337C143.26 40.3337 139.71 44.2337 137.41 44.2337C135.16 44.2337 134.56 40.3837 136.56 36.4837ZM137.21 43.3337C139.46 43.3337 142.16 39.9337 142.61 35.5337C141.26 35.5337 139.81 35.3337 138.76 34.8337C138.36 35.3837 137.91 36.0337 137.56 36.6837C135.66 40.3837 136.26 43.3337 137.21 43.3337ZM140.56 32.6337C140.56 32.7337 140.01 33.2337 139.36 34.0337C140.26 34.4337 141.46 34.6337 142.71 34.6337V34.1337C142.71 31.5337 141.46 30.1337 140.06 30.1337C138.71 30.1337 137.46 31.4337 138.16 32.9337C138.26 33.1837 138.41 33.3337 138.56 33.5337C139.31 32.7337 139.96 32.2837 140.11 32.2837C140.41 32.2837 140.56 32.4337 140.56 32.6337ZM156.377 28.9837C154.727 31.8337 153.177 35.9837 153.127 37.4837C153.077 38.4837 153.327 38.8837 153.677 38.8837C154.327 38.8837 155.377 37.8337 157.027 36.2337C158.677 34.6837 159.427 34.0837 160.077 34.0837C160.677 34.0837 161.177 34.5337 161.177 35.0337C161.177 35.4837 160.977 36.8837 160.977 37.2337C160.927 37.8337 161.027 37.9337 161.227 37.9337C161.877 37.9337 162.727 37.1337 163.427 36.2337C163.927 35.5837 164.327 34.9337 164.477 34.4837C164.777 33.8337 164.877 33.5837 165.127 33.5837C165.577 33.4837 165.627 34.0837 167.677 33.9837C169.877 33.8337 173.577 32.7837 174.727 32.3837C175.377 32.1837 175.527 32.5837 174.977 32.8837C173.927 33.4837 170.927 34.4837 168.477 34.6837C166.127 34.8337 165.627 34.4337 165.527 34.5337C165.427 34.5837 165.027 35.5837 164.277 36.7337C163.627 37.7337 162.377 38.7837 161.227 38.7837C160.327 38.7837 160.077 38.2337 160.077 37.5337C160.077 36.7337 160.327 35.7837 160.327 35.1837C160.327 34.9837 160.327 34.7837 160.127 34.7837C159.727 34.7837 159.527 35.2837 157.577 37.0837C155.377 39.1837 154.577 39.7837 153.827 39.8837C152.627 40.0837 152.177 38.8837 152.177 38.0837C152.177 36.6837 153.177 33.5337 154.327 31.0337C155.227 29.1337 155.627 28.5337 156.027 28.5337C156.427 28.5337 156.627 28.5837 156.377 28.9837ZM207.316 18.4837C208.166 18.1837 209.566 17.4337 209.916 15.8337C210.316 13.9337 209.416 12.6337 207.116 12.2337C204.566 11.7837 199.366 12.6837 194.466 14.9837C190.266 16.9837 185.866 20.0337 185.066 23.4837C184.316 26.9337 186.016 29.6337 190.966 34.2337C192.416 35.5837 193.666 36.7837 194.716 37.8837C200.166 35.6837 210.616 32.7337 211.816 32.4837C213.116 32.1837 213.366 32.7837 212.016 33.0337C210.866 33.2837 200.966 36.1337 195.366 38.5337C199.216 42.5837 200.516 45.1837 200.016 48.3837C199.416 52.3837 194.466 54.6337 189.316 54.1337C184.366 53.6837 182.066 50.7837 182.516 48.1337C183.166 44.6337 187.666 41.4337 192.566 38.8837C192.866 38.6837 193.316 38.5337 193.716 38.3337C192.766 37.3337 191.566 36.1837 190.266 34.8837C184.766 29.6837 182.866 26.9837 183.666 23.2837C184.466 19.5837 187.516 16.7837 193.866 13.9837C200.266 11.1337 204.616 10.8337 207.316 11.2837C210.266 11.7837 211.366 13.7337 210.866 16.0837C210.366 18.1837 208.216 19.2337 207.616 19.2837C207.016 19.3837 206.716 18.7337 207.316 18.4837ZM198.866 48.1337C199.266 45.6337 198.366 43.3337 194.366 38.9837C193.916 39.1837 193.566 39.3837 193.216 39.5837C187.066 42.9337 184.066 45.4337 183.566 48.1337C183.166 50.4337 185.266 52.6837 189.366 52.9837C194.366 53.2837 198.366 50.9337 198.866 48.1337ZM215.723 39.3837C216.073 37.7837 216.873 35.6337 217.573 34.2837C217.223 34.6837 216.673 35.3337 215.723 36.3337C214.023 38.1337 211.173 40.3337 210.273 40.3337C209.573 40.3337 209.173 39.9337 209.273 38.6337C209.373 37.4837 209.973 36.0337 210.423 35.0837C211.023 33.7337 211.973 32.3837 212.473 32.2837C212.973 32.2337 213.073 32.6837 213.073 32.8337C213.073 33.2337 211.873 34.2337 211.173 35.5837C210.623 36.6837 210.273 37.7837 210.173 38.1837C210.023 38.9837 210.223 39.3337 210.473 39.3337C211.273 39.3337 214.073 36.9837 215.123 35.8337C217.023 33.7837 218.223 32.2337 218.923 32.3837C219.523 32.5337 219.273 32.8837 218.573 34.3837C217.973 35.6837 217.123 37.7837 216.673 39.4837C216.223 41.2837 216.723 41.8337 217.323 41.8337C220.973 41.8337 230.573 34.6837 235.123 32.2337C235.373 32.1337 236.373 32.1837 235.573 32.7337C231.073 35.6337 221.273 42.8337 217.223 42.8337C215.723 42.8337 215.173 41.7337 215.723 39.3837ZM232.024 59.2337C230.674 59.2337 228.874 58.3337 228.874 55.7837C228.874 52.0837 231.224 47.6337 237.274 41.9837C238.924 40.4337 240.924 39.0837 242.974 37.9837C242.974 34.6337 242.424 32.6837 240.974 32.6837C240.224 32.6837 239.424 33.2837 238.674 33.8837C237.674 34.6837 236.624 35.6837 235.524 35.6837C233.574 35.6837 233.824 32.3837 236.224 31.2837C238.274 30.3837 239.874 31.1837 240.324 31.8337C240.524 31.8337 240.774 31.7837 241.024 31.7837C242.724 31.7837 243.924 33.6337 243.924 37.3337V37.4837C248.874 34.9337 253.874 33.6337 255.274 33.6337C256.074 33.6337 255.824 34.4837 255.124 34.4837C253.724 34.4837 248.824 35.7337 243.874 38.4837C243.674 42.8837 242.274 48.5337 240.024 52.4837C237.724 56.5337 234.674 59.2337 232.024 59.2337ZM239.124 51.7337C241.374 47.8837 242.724 42.3837 242.924 38.9837C241.174 40.0337 239.474 41.2837 237.924 42.7337C231.624 48.5337 229.874 53.0837 229.874 55.9337C229.874 57.3837 230.474 58.2837 231.624 58.2837C233.474 58.2837 236.574 56.2337 239.124 51.7337ZM238.024 33.0837C238.474 32.6837 238.974 32.2837 239.624 32.0337C238.874 31.6337 237.674 31.3837 236.524 32.1837C234.674 33.4337 234.824 34.8337 235.524 34.8337C236.124 34.8337 237.024 33.9337 238.024 33.0837ZM262.983 38.7837C266.483 38.7837 276.633 34.0837 279.683 32.4337C279.933 32.2837 280.983 32.3337 280.133 32.8837C276.833 35.0337 266.233 39.8337 262.933 39.8337C260.483 39.8337 259.783 38.3837 259.783 37.3337C259.783 36.2837 259.983 35.7837 259.883 35.6837C259.733 35.5337 259.433 35.5837 257.833 36.4337C256.383 37.2837 254.783 37.9337 254.283 37.9337C253.583 37.9337 253.083 37.4837 253.083 37.1837C253.083 36.2337 253.683 34.9337 255.583 33.5337C257.183 32.2837 258.183 32.0337 259.033 32.0337C260.183 32.0337 260.883 33.8337 260.383 33.8337C259.883 33.8337 259.733 32.8337 259.183 32.8337C258.683 32.8337 257.683 33.2337 256.283 34.1837C254.983 35.0337 253.983 36.4837 253.983 36.8837C253.983 36.9837 254.033 37.0337 254.183 37.0337C254.633 37.0337 255.483 36.6837 256.883 35.9837C258.783 35.0837 260.033 34.3837 260.633 34.3837C260.833 34.3837 261.283 34.4837 261.283 34.8337C261.283 35.2337 260.783 36.1337 260.783 37.2837C260.783 38.1337 261.683 38.7837 262.983 38.7837ZM281.798 40.0837C280.698 39.9337 279.948 38.7837 281.148 36.2837C281.648 35.1837 281.998 34.5337 281.998 34.2837C281.998 34.0837 281.848 33.9337 280.798 33.5337C279.448 33.0337 279.248 31.7337 279.498 30.7337C279.948 28.9337 281.398 28.3837 282.148 28.5337C282.548 28.6337 283.098 29.1837 283.048 29.5837C282.898 30.8837 282.098 31.7337 280.748 32.4837C280.848 32.5837 280.998 32.6837 281.198 32.7337C283.048 33.4837 283.298 33.6337 283.298 34.0837C283.298 34.4837 282.748 35.2837 282.098 36.6837C281.348 38.2337 281.298 38.8837 282.148 38.9837C284.948 39.3337 292.098 37.0837 297.348 32.5837C297.848 32.1337 298.448 32.4837 297.998 32.8837C292.698 37.9337 284.348 40.4337 281.798 40.0837ZM280.498 30.9837C280.398 31.2837 280.348 31.5837 280.448 31.8837C281.898 30.9837 282.248 30.2337 282.298 29.5337C282.298 29.4337 282.298 29.3837 282.198 29.3337C281.698 29.1837 280.748 30.1837 280.498 30.9837Z" fill="white"/>
<path d="M143.481 46.9837L143.183 46.367L143.182 46.3676L143.481 46.9837ZM113.181 55.2837L113.858 55.3867L113.859 55.3805L113.181 55.2837ZM122.031 22.7837L121.37 22.6052L121.369 22.6068L122.031 22.7837ZM127.681 9.33369L127.619 8.65165L127.598 8.65357L127.577 8.6568L127.681 9.33369ZM128.981 8.88369L129.313 9.48235L129.323 9.47681L129.333 9.47094L128.981 8.88369ZM128.181 10.5837L128.569 11.1481L128.573 11.1447L128.181 10.5837ZM125.531 15.7837L126.174 16.019L126.177 16.0107L125.531 15.7837ZM121.431 28.3337L122.091 28.5139L122.092 28.5134L121.431 28.3337ZM114.881 53.8837L115.559 53.9754L115.56 53.9742L114.881 53.8837ZM127.231 53.4337L126.968 52.8013L126.964 52.8031L127.231 53.4337ZM143.781 45.9837L143.646 45.3121L143.59 45.3234L143.537 45.3437L143.781 45.9837ZM143.182 46.3676C137.158 49.2921 130.804 52.3254 125.634 54.6268C123.047 55.7779 120.766 56.7419 118.974 57.417C118.078 57.7548 117.313 58.0168 116.699 58.1934C116.066 58.3753 115.652 58.4488 115.431 58.4488V59.8185C115.859 59.8185 116.433 59.6952 117.078 59.5097C117.741 59.319 118.544 59.0431 119.457 58.6988C121.286 58.0098 123.595 57.0333 126.191 55.8781C131.383 53.567 137.754 50.5253 143.78 47.5998L143.182 46.3676ZM115.431 58.4488C114.943 58.4488 114.617 58.3643 114.4 58.2498C114.194 58.141 114.051 57.9876 113.948 57.7741C113.72 57.3005 113.685 56.5211 113.858 55.3867L112.504 55.1807C112.326 56.3463 112.292 57.4919 112.714 58.3683C112.936 58.8298 113.28 59.2076 113.761 59.4614C114.232 59.7094 114.794 59.8185 115.431 59.8185V58.4488ZM113.859 55.3805C114.125 53.5143 115.406 48.862 117.102 42.8959C118.788 36.9632 120.866 29.7924 122.692 22.9606L121.369 22.6068C119.546 29.425 117.473 36.5792 115.785 42.5215C114.105 48.4304 112.786 53.2031 112.503 55.1868L113.859 55.3805ZM122.692 22.9622C124.465 16.3937 125.7 13.1172 126.551 11.481C126.977 10.6616 127.281 10.3067 127.464 10.152C127.607 10.0313 127.675 10.0275 127.785 10.0106L127.577 8.6568C127.361 8.6899 127.004 8.74857 126.582 9.10449C126.2 9.4263 125.797 9.96202 125.336 10.8489C124.412 12.6251 123.146 16.0237 121.37 22.6052L122.692 22.9622ZM127.743 10.0157C128.436 9.95275 128.836 9.74772 129.313 9.48235L128.648 8.28503C128.226 8.51967 128.026 8.61463 127.619 8.65165L127.743 10.0157ZM129.333 9.47094C129.327 9.47472 129.296 9.49254 129.244 9.50662C129.192 9.52083 129.1 9.53593 128.985 9.51108C128.701 9.44911 128.582 9.22484 128.55 9.11694C128.524 9.02796 128.537 8.97843 128.533 9.00657C128.531 9.02302 128.523 9.06226 128.5 9.12293C128.406 9.37987 128.162 9.76075 127.788 10.0226L128.573 11.1447C129.199 10.7066 129.605 10.0875 129.786 9.59445C129.833 9.46762 129.87 9.33499 129.889 9.20378C129.906 9.08427 129.917 8.91129 129.865 8.73169C129.806 8.53316 129.637 8.25109 129.277 8.17271C128.984 8.10893 128.744 8.22717 128.628 8.29644L129.333 9.47094ZM127.793 10.0193C127.275 10.3757 126.871 10.8503 126.436 11.6863C126.011 12.5024 125.535 13.706 124.885 15.5567L126.177 16.0107C126.827 14.1614 127.275 13.0399 127.651 12.3186C128.016 11.6171 128.287 11.3417 128.569 11.148L127.793 10.0193ZM124.888 15.5484C123.387 19.6497 122.328 22.4234 120.77 28.154L122.092 28.5134C123.633 22.8439 124.674 20.1177 126.174 16.019L124.888 15.5484ZM120.77 28.1535C119.645 32.2779 118.107 37.9187 116.8 42.9037C115.499 47.8617 114.409 52.2398 114.202 53.7932L115.56 53.9742C115.752 52.5276 116.812 48.2556 118.124 43.2512C119.43 38.2737 120.966 32.6395 122.091 28.5139L120.77 28.1535ZM114.202 53.792C114.076 54.7284 114.001 55.7178 114.109 56.4958C114.162 56.8807 114.268 57.287 114.493 57.6131C114.744 57.9751 115.132 58.2185 115.631 58.2185V56.8488C115.63 56.8488 115.643 56.8673 115.62 56.8339C115.572 56.7648 115.506 56.6054 115.465 56.3091C115.385 55.7246 115.436 54.889 115.559 53.9754L114.202 53.792ZM115.631 58.2185C116.239 58.2185 117.007 58.1051 118.704 57.5396C120.399 56.9745 123.07 55.9407 127.498 54.0643L126.964 52.8031C122.542 54.6767 119.912 55.6929 118.27 56.2402C116.629 56.7873 116.023 56.8488 115.631 56.8488V58.2185ZM127.494 54.0661C131.956 52.2111 135.84 50.4443 138.739 49.0918C140.188 48.4158 141.392 47.8427 142.296 47.4153C143.217 46.9799 143.794 46.7115 144.025 46.6237L143.537 45.3437C143.243 45.4558 142.601 45.7562 141.711 46.1771C140.804 46.606 139.605 47.1765 138.16 47.8506C135.271 49.1981 131.406 50.9563 126.968 52.8013L127.494 54.0661ZM143.915 46.6552C143.876 46.663 143.848 46.6638 143.835 46.6638C143.82 46.6638 143.811 46.6628 143.808 46.6623C143.802 46.6615 143.801 46.661 143.801 46.6608C143.799 46.6604 143.796 46.659 143.79 46.6558C143.784 46.6527 143.774 46.6466 143.76 46.6362C143.736 46.6175 143.682 46.5693 143.642 46.4806C143.598 46.381 143.591 46.2716 143.615 46.1778C143.636 46.0959 143.671 46.0608 143.662 46.0709C143.636 46.1001 143.517 46.2058 143.183 46.367L143.779 47.6004C144.17 47.4116 144.482 47.211 144.687 46.9793C144.907 46.7311 145.079 46.3414 144.894 45.9243C144.747 45.5925 144.449 45.4417 144.286 45.38C144.119 45.3166 143.879 45.2657 143.646 45.3121L143.915 46.6552ZM136.56 36.4837L137.169 36.7962L137.175 36.7858L137.18 36.7753L136.56 36.4837ZM137.91 34.2837L138.458 34.6946L138.814 34.2194L138.394 33.7994L137.91 34.2837ZM137.26 33.4337L137.89 33.1639L137.884 33.1521L137.879 33.1405L137.26 33.4337ZM143.76 34.6337H143.075V35.3185H143.76V34.6337ZM144.41 34.5837L144.355 33.901L144.315 33.9042L144.276 33.9121L144.41 34.5837ZM153.66 32.4337L153.89 33.0786L153.91 33.0715L153.93 33.0632L153.66 32.4337ZM154.01 32.9337L153.756 32.2978L153.751 32.2998L154.01 32.9337ZM144.26 35.4837L144.202 34.8013L144.147 34.8059L144.094 34.8193L144.26 35.4837ZM143.71 35.5337V34.8488H143.086L143.028 35.4698L143.71 35.5337ZM142.61 35.5337L143.291 35.6034L143.369 34.8488H142.61V35.5337ZM138.76 34.8337L139.054 34.2154L138.541 33.9708L138.206 34.4309L138.76 34.8337ZM137.56 36.6837L136.957 36.3589L136.951 36.3708L137.56 36.6837ZM139.36 34.0337L138.829 33.6018L138.264 34.2962L139.082 34.6595L139.36 34.0337ZM142.71 34.6337V35.3185H143.395V34.6337H142.71ZM138.16 32.9337L138.796 32.6793L138.789 32.6615L138.781 32.6441L138.16 32.9337ZM138.56 33.5337L138.012 33.9446L138.502 34.5973L139.06 34.0021L138.56 33.5337ZM137.18 36.7753C137.553 35.9813 138.025 35.2721 138.458 34.6946L137.362 33.8728C136.895 34.4952 136.367 35.286 135.94 36.1921L137.18 36.7753ZM138.394 33.7994C138.132 33.5376 137.98 33.3747 137.89 33.1639L136.631 33.7035C136.84 34.1927 137.188 34.5298 137.426 34.768L138.394 33.7994ZM137.879 33.1405C137.553 32.4523 137.674 31.6788 138.129 31.0459C138.585 30.4103 139.348 29.9685 140.21 29.9685V28.5988C138.872 28.5988 137.71 29.2821 137.016 30.2465C136.321 31.2136 136.067 32.5151 136.641 33.7269L137.879 33.1405ZM140.21 29.9685C141.065 29.9685 141.747 30.3529 142.243 31.0859C142.755 31.8433 143.075 32.9948 143.075 34.4837H144.445C144.445 32.8225 144.091 31.3741 143.377 30.319C142.648 29.2395 141.555 28.5988 140.21 28.5988V29.9685ZM143.075 34.4837V34.6337H144.445V34.4837H143.075ZM143.76 35.3185C143.961 35.3185 144.221 35.3198 144.544 35.2552L144.276 33.9121C144.099 33.9476 143.959 33.9488 143.76 33.9488V35.3185ZM144.465 35.2664C147.045 35.0599 151.758 33.8404 153.89 33.0786L153.43 31.7887C151.363 32.527 146.775 33.7075 144.355 33.901L144.465 35.2664ZM153.93 33.0632C153.832 33.105 153.71 33.1027 153.608 33.0553C153.525 33.0163 153.484 32.9619 153.465 32.9297C153.449 32.9017 153.418 32.8338 153.429 32.725C153.434 32.6655 153.455 32.5809 153.513 32.4943C153.575 32.4029 153.662 32.3354 153.756 32.2978L154.264 33.5696C154.613 33.4303 154.766 33.121 154.792 32.8596C154.815 32.6242 154.746 32.4094 154.655 32.2502C154.561 32.0867 154.408 31.9167 154.187 31.8137C153.947 31.7021 153.663 31.6874 153.39 31.8042L153.93 33.0632ZM153.751 32.2998C153.236 32.5104 151.565 33.0772 149.641 33.625C147.712 34.1746 145.605 34.6824 144.202 34.8013L144.318 36.1661C145.865 36.035 148.084 35.4928 150.016 34.9423C151.955 34.3902 153.684 33.807 154.269 33.5676L153.751 32.2998ZM144.094 34.8193C143.987 34.8461 143.867 34.8488 143.71 34.8488V36.2185C143.853 36.2185 144.133 36.2213 144.426 36.1481L144.094 34.8193ZM143.028 35.4698C142.817 37.7255 141.874 39.7786 140.714 41.2619C140.135 42.0027 139.514 42.586 138.923 42.9789C138.322 43.3775 137.801 43.5488 137.41 43.5488V44.9185C138.169 44.9185 138.954 44.6024 139.68 44.1198C140.416 43.6314 141.141 42.9397 141.793 42.1055C143.096 40.4388 144.153 38.1419 144.392 35.5976L143.028 35.4698ZM137.41 43.5488C137.069 43.5488 136.8 43.4134 136.579 43.1404C136.343 42.8483 136.151 42.3801 136.071 41.7362C135.91 40.4507 136.218 38.6515 137.169 36.7962L135.951 36.1712C134.902 38.2159 134.51 40.2916 134.712 41.9061C134.813 42.7123 135.068 43.4503 135.514 44.002C135.976 44.5727 136.626 44.9185 137.41 44.9185V43.5488ZM137.21 44.0185C138.663 44.0185 140.079 42.9525 141.14 41.485C142.226 39.9835 143.055 37.9181 143.291 35.6034L141.929 35.464C141.715 37.5493 140.969 39.3839 140.03 40.6824C139.066 42.0149 138.007 42.6488 137.21 42.6488V44.0185ZM142.61 34.8488C141.305 34.8488 139.972 34.6524 139.054 34.2154L138.466 35.452C139.648 36.0149 141.215 36.2185 142.61 36.2185V34.8488ZM138.206 34.4309C137.802 34.9869 137.33 35.667 136.957 36.359L138.163 37.0084C138.49 36.4003 138.918 35.7805 139.314 35.2365L138.206 34.4309ZM136.951 36.3708C135.956 38.3082 135.597 40.0836 135.632 41.414C135.649 42.0732 135.764 42.6613 135.979 43.1108C136.18 43.5303 136.574 44.0185 137.21 44.0185V42.6488C137.371 42.6488 137.334 42.7684 137.214 42.5191C137.109 42.2999 137.015 41.9192 137.001 41.3784C136.973 40.3087 137.264 38.7592 138.169 36.9965L136.951 36.3708ZM139.875 32.6337C139.875 32.4989 139.917 32.4033 139.929 32.3772C139.945 32.3408 139.96 32.3179 139.963 32.3135C139.969 32.3045 139.965 32.3112 139.94 32.3415C139.89 32.4003 139.814 32.4839 139.7 32.6072C139.481 32.8446 139.168 33.1836 138.829 33.6018L139.892 34.4656C140.202 34.0838 140.489 33.7728 140.708 33.5352C140.813 33.421 140.914 33.3109 140.988 33.2227C141.024 33.1796 141.069 33.1246 141.107 33.066C141.127 33.0368 141.154 32.9921 141.179 32.937C141.199 32.8923 141.245 32.781 141.245 32.6337H139.875ZM139.082 34.6595C140.097 35.1106 141.4 35.3185 142.71 35.3185V33.9488C141.52 33.9488 140.423 33.7568 139.638 33.4079L139.082 34.6595ZM143.395 34.6337V34.1337H142.025V34.6337H143.395ZM143.395 34.1337C143.395 31.3776 142.027 29.4488 140.06 29.4488V30.8185C140.893 30.8185 142.025 31.6898 142.025 34.1337H143.395ZM140.06 29.4488C139.174 29.4488 138.323 29.8714 137.798 30.554C137.255 31.2607 137.077 32.2322 137.539 33.2233L138.781 32.6441C138.543 32.1352 138.64 31.7067 138.884 31.3884C139.148 31.0459 139.596 30.8185 140.06 30.8185V29.4488ZM137.524 33.188C137.669 33.5498 137.923 33.8258 138.012 33.9446L139.108 33.1228C138.897 32.8416 138.851 32.8176 138.796 32.6793L137.524 33.188ZM139.06 34.0021C139.412 33.6258 139.736 33.3385 139.979 33.1506C140.101 33.0558 140.195 32.9932 140.255 32.9581C140.286 32.9401 140.297 32.9356 140.292 32.9376C140.29 32.9388 140.275 32.9447 140.251 32.951C140.231 32.9564 140.18 32.9685 140.11 32.9685V31.5988C139.952 31.5988 139.823 31.6495 139.77 31.6716C139.698 31.7013 139.628 31.7382 139.565 31.7749C139.438 31.8492 139.294 31.9491 139.141 32.0668C138.834 32.3039 138.458 32.6415 138.06 33.0653L139.06 34.0021ZM140.11 32.9685C140.153 32.9685 140.092 32.9792 140.009 32.9098C139.967 32.8747 139.931 32.8277 139.906 32.7728C139.882 32.719 139.875 32.6699 139.875 32.6337H141.245C141.245 32.3508 141.132 32.0627 140.886 31.8576C140.653 31.6631 140.367 31.5988 140.11 31.5988V32.9685ZM156.377 28.9837L155.796 28.6207L155.79 28.6305L155.785 28.6406L156.377 28.9837ZM153.127 37.4837L153.811 37.5179L153.812 37.5065L153.127 37.4837ZM157.027 36.2337L156.558 35.7345L156.55 35.742L157.027 36.2337ZM160.977 37.2337L161.66 37.2906L161.662 37.2622V37.2337H160.977ZM163.427 36.2337L163.968 36.6542L163.97 36.6512L163.427 36.2337ZM164.477 34.4837L163.855 34.1967L163.84 34.2311L163.828 34.2671L164.477 34.4837ZM165.127 33.5837V34.2685H165.202L165.276 34.2522L165.127 33.5837ZM167.677 33.9837L167.711 34.6679L167.724 34.667L167.677 33.9837ZM174.727 32.3837L174.526 31.7291L174.514 31.7328L174.502 31.7369L174.727 32.3837ZM174.977 32.8837L174.649 32.2823L174.637 32.2891L174.977 32.8837ZM168.477 34.6837L168.521 35.3673L168.533 35.3663L168.477 34.6837ZM165.527 34.5337L165.834 35.1462L165.933 35.0965L166.012 35.018L165.527 34.5337ZM164.277 36.7337L163.704 36.3596L163.703 36.3605L164.277 36.7337ZM157.577 37.0837L157.113 36.5804L157.104 36.5883L157.577 37.0837ZM153.827 39.8837L153.737 39.2048L153.726 39.2063L153.715 39.2082L153.827 39.8837ZM154.327 31.0337L153.708 30.7405L153.705 30.7475L154.327 31.0337ZM155.785 28.6406C154.937 30.104 154.122 31.8888 153.512 33.497C153.206 34.3022 152.949 35.0713 152.764 35.7411C152.582 36.3985 152.458 37.0025 152.443 37.4609L153.812 37.5065C153.821 37.2149 153.91 36.7376 154.084 36.106C154.255 35.4867 154.498 34.759 154.793 33.9829C155.382 32.4286 156.167 30.7134 156.97 29.3268L155.785 28.6406ZM152.443 37.4495C152.416 37.9912 152.462 38.4675 152.626 38.8368C152.808 39.2465 153.169 39.5685 153.677 39.5685V38.1988C153.728 38.1988 153.791 38.2162 153.844 38.2548C153.889 38.2886 153.893 38.3133 153.878 38.2805C153.842 38.1999 153.788 37.9762 153.811 37.5179L152.443 37.4495ZM153.677 39.5685C154.014 39.5685 154.325 39.4368 154.583 39.289C154.85 39.136 155.13 38.9251 155.418 38.6828C155.992 38.2004 156.689 37.5152 157.504 36.7253L156.55 35.742C155.715 36.5522 155.063 37.1919 154.536 37.6345C154.275 37.8548 154.067 38.0064 153.903 38.1003C153.73 38.1993 153.666 38.1988 153.677 38.1988V39.5685ZM157.496 36.7328C158.325 35.9547 158.894 35.4466 159.329 35.1322C159.769 34.8139 159.972 34.7685 160.077 34.7685V33.3988C159.532 33.3988 159.036 33.6535 158.526 34.0226C158.01 34.3958 157.38 34.9627 156.558 35.7345L157.496 36.7328ZM160.077 34.7685C160.207 34.7685 160.323 34.8179 160.401 34.8866C160.482 34.9574 160.492 35.0174 160.492 35.0337H161.862C161.862 34.0724 160.967 33.3988 160.077 33.3988V34.7685ZM160.492 35.0337C160.492 35.2106 160.449 35.6241 160.397 36.0956C160.35 36.5143 160.292 37.0091 160.292 37.2337H161.662C161.662 37.1083 161.704 36.7281 161.758 36.2468C161.806 35.8183 161.862 35.3068 161.862 35.0337H160.492ZM160.295 37.1768C160.27 37.4695 160.26 37.8067 160.381 38.0832C160.457 38.2567 160.588 38.4179 160.785 38.5186C160.961 38.6086 161.131 38.6185 161.227 38.6185V37.2488C161.229 37.2488 161.248 37.2488 161.278 37.2541C161.309 37.2597 161.355 37.2717 161.408 37.2988C161.463 37.3268 161.514 37.3654 161.556 37.4126C161.598 37.4585 161.622 37.5027 161.636 37.5342C161.66 37.589 161.654 37.611 161.651 37.5563C161.648 37.5072 161.649 37.4237 161.66 37.2906L160.295 37.1768ZM161.227 38.6185C161.802 38.6185 162.336 38.2844 162.743 37.9508C163.177 37.5948 163.6 37.1275 163.968 36.6541L162.887 35.8132C162.555 36.2399 162.202 36.6226 161.874 36.8915C161.519 37.1829 161.303 37.2488 161.227 37.2488V38.6185ZM163.97 36.6512C164.481 35.9874 164.939 35.263 165.127 34.7003L163.828 34.2671C163.715 34.6044 163.374 35.18 162.884 35.8161L163.97 36.6512ZM165.099 34.7707C165.177 34.6022 165.235 34.4744 165.287 34.3667C165.34 34.2578 165.373 34.1979 165.395 34.1641C165.418 34.1289 165.404 34.1604 165.348 34.1986C165.276 34.2481 165.192 34.2685 165.127 34.2685V32.8988C164.937 32.8988 164.747 32.9506 164.576 33.0673C164.422 33.1726 164.318 33.3072 164.247 33.4158C164.118 33.6137 163.99 33.9048 163.855 34.1967L165.099 34.7707ZM165.276 34.2522C165.208 34.2674 165.148 34.2437 165.169 34.2526C165.198 34.2641 165.226 34.2779 165.301 34.313C165.367 34.344 165.453 34.3831 165.556 34.4229C165.991 34.5899 166.615 34.7212 167.711 34.6677L167.644 33.2997C166.69 33.3462 166.264 33.2275 166.048 33.1445C165.989 33.1218 165.937 33.0983 165.882 33.0724C165.835 33.0504 165.757 33.0126 165.685 32.9836C165.507 32.9112 165.272 32.85 164.979 32.9151L165.276 34.2522ZM167.724 34.667C170.016 34.5107 173.785 33.4365 174.952 33.0305L174.502 31.7369C173.37 32.1308 169.738 33.1567 167.631 33.3004L167.724 34.667ZM174.929 33.0383C175.032 33.0064 175.056 33.0183 175.019 33.013C174.993 33.0092 174.785 32.9678 174.676 32.7243C174.567 32.4784 174.678 32.2913 174.699 32.2605C174.726 32.2221 174.728 32.2397 174.649 32.2825L175.305 33.4849C175.502 33.3777 175.691 33.2328 175.824 33.0413C175.952 32.8573 176.087 32.5265 175.928 32.168C175.77 31.8121 175.436 31.6894 175.216 31.6575C174.986 31.6241 174.747 31.661 174.526 31.7291L174.929 33.0383ZM174.637 32.2891C174.181 32.5499 173.228 32.9321 172.059 33.2768C170.899 33.6185 169.585 33.9061 168.422 34.0011L168.533 35.3663C169.819 35.2613 171.23 34.9489 172.446 34.5906C173.651 34.2353 174.723 33.8175 175.317 33.4783L174.637 32.2891ZM168.434 34.0002C167.302 34.0725 166.64 34.0108 166.266 33.9511C166.075 33.9206 165.958 33.8912 165.844 33.8666C165.802 33.8574 165.709 33.837 165.613 33.8332C165.52 33.8297 165.259 33.8332 165.043 34.0494L166.012 35.018C165.82 35.2092 165.597 35.2033 165.56 35.2019C165.519 35.2004 165.5 35.1935 165.555 35.2054C165.637 35.2231 165.811 35.2655 166.051 35.3037C166.539 35.3816 167.303 35.4449 168.521 35.3671L168.434 34.0002ZM165.221 33.9211C165.081 33.991 164.999 34.0916 164.978 34.1162C164.944 34.1575 164.917 34.1979 164.899 34.2266C164.861 34.2849 164.824 34.3523 164.791 34.4147C164.725 34.5381 164.634 34.7199 164.537 34.9073C164.335 35.299 164.06 35.813 163.704 36.3596L164.851 37.1078C165.244 36.5044 165.544 35.9434 165.755 35.535C165.864 35.3225 165.939 35.173 166 35.0589C166.03 35.0025 166.046 34.9747 166.053 34.9643C166.056 34.9585 166.049 34.9712 166.032 34.9918C166.028 34.9957 165.961 35.0826 165.834 35.1462L165.221 33.9211ZM163.703 36.3605C163.423 36.7916 163.006 37.2416 162.539 37.5782C162.064 37.9207 161.604 38.0988 161.227 38.0988V39.4685C162.001 39.4685 162.74 39.1217 163.34 38.6892C163.948 38.2508 164.482 37.6758 164.851 37.1069L163.703 36.3605ZM161.227 38.0988C160.924 38.0988 160.865 38.0137 160.855 38.0007C160.818 37.9529 160.762 37.8242 160.762 37.5337H159.392C159.392 37.9432 159.461 38.4394 159.774 38.8416C160.114 39.2787 160.631 39.4685 161.227 39.4685V38.0988ZM160.762 37.5337C160.762 37.1929 160.816 36.8045 160.879 36.3863C160.938 36.0004 161.012 35.5487 161.012 35.1837H159.642C159.642 35.4187 159.592 35.742 159.525 36.1811C159.463 36.5879 159.392 37.0745 159.392 37.5337H160.762ZM161.012 35.1837C161.012 35.1225 161.02 34.8956 160.952 34.6921C160.912 34.5708 160.83 34.4071 160.663 34.2775C160.491 34.1432 160.296 34.0988 160.127 34.0988V35.4685C160.059 35.4685 159.939 35.4491 159.822 35.3587C159.712 35.2728 159.668 35.1715 159.653 35.1253C159.638 35.083 159.639 35.0607 159.641 35.0824C159.642 35.1024 159.642 35.1288 159.642 35.1837H161.012ZM160.127 34.0988C159.851 34.0988 159.628 34.1966 159.437 34.3318C159.275 34.4474 159.111 34.6099 158.945 34.7788C158.595 35.1355 158.072 35.6949 157.113 36.5805L158.042 37.5869C159.032 36.6725 159.585 36.0819 159.922 35.7386C160.1 35.5575 160.183 35.4825 160.231 35.4481C160.252 35.4333 160.204 35.4685 160.127 35.4685V34.0988ZM157.104 36.5883C156.003 37.6394 155.28 38.2878 154.749 38.6851C154.223 39.0782 153.946 39.1769 153.737 39.2048L153.918 40.5625C154.458 40.4904 154.957 40.2392 155.568 39.7823C156.174 39.3296 156.951 38.628 158.05 37.5791L157.104 36.5883ZM153.715 39.2082C153.409 39.2591 153.245 39.1548 153.113 38.966C152.951 38.7336 152.862 38.381 152.862 38.0837H151.492C151.492 38.5864 151.629 39.2338 151.991 39.7514C152.384 40.3126 153.045 40.7083 153.94 40.5592L153.715 39.2082ZM152.862 38.0837C152.862 37.4952 153.083 36.4432 153.475 35.1733C153.86 33.9266 154.387 32.5422 154.949 31.3199L153.705 30.7475C153.117 32.0252 152.569 33.4658 152.167 34.7691C151.771 36.0492 151.492 37.2722 151.492 38.0837H152.862ZM154.946 31.3269C155.398 30.3738 155.702 29.7937 155.932 29.4553C156.192 29.0706 156.211 29.2185 156.027 29.2185V27.8488C155.443 27.8488 155.062 28.2968 154.798 28.6871C154.502 29.1237 154.157 29.7936 153.708 30.7405L154.946 31.3269ZM156.027 29.2185C156.121 29.2185 156.165 29.2221 156.182 29.2246C156.188 29.2256 156.171 29.2238 156.142 29.2127C156.112 29.2018 156.051 29.1748 155.985 29.1154C155.914 29.0507 155.855 28.9622 155.824 28.8571C155.796 28.7582 155.801 28.6769 155.809 28.632C155.821 28.5589 155.844 28.5452 155.796 28.6207L156.958 29.3467C157.036 29.2222 157.127 29.0522 157.16 28.8572C157.199 28.6209 157.15 28.3234 156.907 28.1019C156.719 27.9311 156.497 27.8873 156.39 27.8709C156.264 27.8516 156.133 27.8488 156.027 27.8488V29.2185ZM207.316 18.4837L207.088 17.8379L207.07 17.8442L207.052 17.8515L207.316 18.4837ZM209.916 15.8337L210.585 15.98L210.586 15.9748L209.916 15.8337ZM207.116 12.2337L206.997 12.9081L206.998 12.9084L207.116 12.2337ZM194.466 14.9837L194.175 14.3637L194.171 14.3654L194.466 14.9837ZM185.066 23.4837L184.398 23.329L184.396 23.3382L185.066 23.4837ZM190.966 34.2337L191.432 33.7325L191.432 33.732L190.966 34.2337ZM194.716 37.8837L194.22 38.3566L194.541 38.6927L194.972 38.5187L194.716 37.8837ZM211.816 32.4837L211.955 33.1541L211.962 33.1526L211.97 33.151L211.816 32.4837ZM212.016 33.0337L211.891 32.3603L211.88 32.3622L211.87 32.3645L212.016 33.0337ZM195.366 38.5337L195.096 37.9042L194.191 38.292L194.869 39.0055L195.366 38.5337ZM200.016 48.3837L199.339 48.278L199.338 48.2821L200.016 48.3837ZM189.316 54.1337L189.382 53.452L189.378 53.4517L189.316 54.1337ZM182.516 48.1337L181.842 48.0086L181.84 48.019L182.516 48.1337ZM192.566 38.8837L192.882 39.4912L192.915 39.4741L192.945 39.4535L192.566 38.8837ZM193.716 38.3337L194.022 38.9462L194.849 38.5326L194.212 37.862L193.716 38.3337ZM190.266 34.8837L190.75 34.3994L190.743 34.3926L190.736 34.386L190.266 34.8837ZM183.666 23.2837L182.996 23.139L183.666 23.2837ZM193.866 13.9837L194.142 14.6103L194.144 14.6093L193.866 13.9837ZM207.316 11.2837L207.43 10.6085L207.428 10.6082L207.316 11.2837ZM210.866 16.0837L211.532 16.2423L211.534 16.2343L211.535 16.2262L210.866 16.0837ZM207.616 19.2837L207.559 18.6012L207.531 18.6035L207.503 18.6082L207.616 19.2837ZM198.866 48.1337L199.54 48.2541L199.542 48.2419L198.866 48.1337ZM194.366 38.9837L194.87 38.5201L194.537 38.1581L194.087 38.3579L194.366 38.9837ZM193.216 39.5837L193.543 40.1852L193.555 40.1783L193.216 39.5837ZM183.566 48.1337L182.892 48.009L182.891 48.0163L183.566 48.1337ZM189.366 52.9837L189.316 53.6668L189.325 53.6673L189.366 52.9837ZM207.543 19.1295C208.459 18.8065 210.156 17.9383 210.585 15.98L209.246 15.6873C208.975 16.929 207.872 17.5609 207.088 17.8379L207.543 19.1295ZM210.586 15.9748C210.814 14.8926 210.69 13.8732 210.075 13.0585C209.469 12.2571 208.48 11.7758 207.233 11.559L206.998 12.9084C208.051 13.0916 208.662 13.4603 208.981 13.8839C209.291 14.2942 209.418 14.8748 209.245 15.6926L210.586 15.9748ZM207.235 11.5593C205.836 11.3125 203.801 11.4431 201.535 11.9065C199.252 12.3732 196.675 13.1899 194.175 14.3637L194.757 15.6036C197.156 14.4774 199.629 13.6942 201.809 13.2484C204.005 12.7993 205.845 12.7049 206.997 12.9081L207.235 11.5593ZM194.171 14.3654C192.039 15.3808 189.834 16.6722 188.051 18.1648C186.281 19.6459 184.848 21.3905 184.398 23.329L185.733 23.6384C186.083 22.1269 187.25 20.6215 188.93 19.2151C190.597 17.8202 192.692 16.5866 194.76 15.602L194.171 14.3654ZM184.396 23.3382C183.983 25.2374 184.254 26.9457 185.282 28.7644C186.287 30.5438 188.018 32.429 190.499 34.7354L191.432 33.732C188.964 31.4384 187.369 29.6736 186.474 28.0905C185.602 26.5466 185.398 25.18 185.735 23.6292L184.396 23.3382ZM190.499 34.7349C191.946 36.0822 193.184 37.2713 194.22 38.3566L195.211 37.4108C194.147 36.296 192.885 35.0852 191.432 33.7325L190.499 34.7349ZM194.972 38.5187C200.384 36.3341 210.795 33.3959 211.955 33.1541L211.676 31.8132C210.436 32.0715 199.947 35.0333 194.459 37.2486L194.972 38.5187ZM211.97 33.151C212.248 33.0867 212.43 33.0809 212.519 33.0896C212.565 33.094 212.558 33.0998 212.521 33.0827C212.494 33.0701 212.348 32.9983 212.272 32.802C212.182 32.5721 212.261 32.3757 212.321 32.2875C212.371 32.2133 212.415 32.1948 212.387 32.2112C212.338 32.2402 212.189 32.3052 211.891 32.3603L212.14 33.7071C212.517 33.6372 212.843 33.5334 213.086 33.389C213.205 33.3187 213.349 33.2123 213.456 33.0539C213.572 32.8815 213.665 32.6046 213.547 32.3029C213.442 32.0347 213.227 31.8996 213.091 31.8373C212.945 31.7704 212.79 31.7397 212.651 31.7263C212.37 31.699 212.033 31.7307 211.662 31.8164L211.97 33.151ZM211.87 32.3645C210.682 32.6228 200.74 35.4854 195.096 37.9042L195.635 39.1632C201.191 36.782 211.049 33.9446 212.161 33.7029L211.87 32.3645ZM194.869 39.0055C198.687 43.0221 199.787 45.4107 199.339 48.278L200.692 48.4894C201.244 44.9567 199.744 42.1453 195.862 38.0618L194.869 39.0055ZM199.338 48.2821C199.08 50.0027 197.882 51.4051 196.06 52.3364C194.237 53.2685 191.846 53.6913 189.382 53.452L189.249 54.8153C191.935 55.0761 194.594 54.6239 196.683 53.556C198.774 52.4873 200.351 50.7647 200.693 48.4853L199.338 48.2821ZM189.378 53.4517C184.625 53.0196 182.837 50.3312 183.191 48.2483L181.84 48.019C181.294 51.2361 184.106 54.3478 189.254 54.8157L189.378 53.4517ZM183.189 48.2587C183.471 46.7397 184.615 45.1937 186.392 43.6728C188.154 42.1647 190.453 40.755 192.882 39.4912L192.249 38.2762C189.778 39.5623 187.377 41.0277 185.502 42.6321C183.641 44.2237 182.21 46.0276 181.842 48.0086L183.189 48.2587ZM192.945 39.4535C193.04 39.3905 193.177 39.3238 193.378 39.2361C193.559 39.1569 193.801 39.0567 194.022 38.9462L193.409 37.7211C193.23 37.8107 193.047 37.8855 192.829 37.9813C192.629 38.0686 192.391 38.1769 192.186 38.3139L192.945 39.4535ZM194.212 37.862C193.255 36.8543 192.034 35.6834 190.75 34.3994L189.781 35.368C191.097 36.6839 192.276 37.8131 193.219 38.8054L194.212 37.862ZM190.736 34.386C187.985 31.7847 186.2 29.8677 185.192 28.1713C184.211 26.5207 183.974 25.0962 184.335 23.4284L182.996 23.139C182.557 25.1711 182.87 26.9467 184.014 28.8711C185.131 30.7497 187.046 32.7826 189.795 35.3813L190.736 34.386ZM184.335 23.4284C185.062 20.0679 187.836 17.3909 194.142 14.6103L193.589 13.3571C187.195 16.1765 183.87 19.0995 182.996 23.139L184.335 23.4284ZM194.144 14.6093C200.459 11.7974 204.671 11.5372 207.203 11.9592L207.428 10.6082C204.56 10.1302 200.072 10.47 193.587 13.3581L194.144 14.6093ZM207.201 11.9589C208.547 12.187 209.371 12.7262 209.82 13.3785C210.27 14.0312 210.417 14.9026 210.196 15.9412L211.535 16.2262C211.814 14.9148 211.661 13.6361 210.948 12.6014C210.235 11.5662 209.034 10.8804 207.43 10.6085L207.201 11.9589ZM210.199 15.9251C209.996 16.7808 209.449 17.4462 208.854 17.9143C208.559 18.1467 208.263 18.3213 208.014 18.4383C207.89 18.4967 207.783 18.5386 207.698 18.5659C207.655 18.5795 207.621 18.5886 207.596 18.5943C207.569 18.6003 207.557 18.6013 207.559 18.6012L207.672 19.9662C207.943 19.9436 208.277 19.8287 208.598 19.6775C208.937 19.518 209.322 19.2895 209.702 18.9906C210.457 18.3962 211.236 17.4866 211.532 16.2423L210.199 15.9251ZM207.503 18.6082C207.459 18.6154 207.58 18.5885 207.648 18.7531C207.683 18.8359 207.684 18.9412 207.638 19.0325C207.596 19.1191 207.543 19.1307 207.579 19.1159L207.052 17.8515C206.788 17.9617 206.548 18.1483 206.411 18.424C206.272 18.7043 206.273 19.0128 206.383 19.2768C206.601 19.8039 207.172 20.0519 207.728 19.9592L207.503 18.6082ZM199.542 48.2419C199.995 45.4097 198.894 42.8971 194.87 38.5201L193.861 39.4472C197.837 43.7703 198.536 45.8577 198.189 48.0255L199.542 48.2419ZM194.087 38.3579C193.602 38.5735 193.225 38.7893 192.876 38.9891L193.555 40.1783C193.906 39.9781 194.229 39.7939 194.644 39.6095L194.087 38.3579ZM192.888 38.9823C189.8 40.6643 187.46 42.1553 185.821 43.5867C184.183 45.0178 183.182 46.4448 182.892 48.009L184.239 48.2584C184.449 47.1226 185.198 45.9496 186.722 44.6182C188.246 43.2871 190.481 41.8531 193.543 40.1851L192.888 38.9823ZM182.891 48.0163C182.645 49.4283 183.181 50.7942 184.32 51.8181C185.449 52.8326 187.157 53.5088 189.316 53.6667L189.416 52.3007C187.474 52.1586 186.082 51.5598 185.236 50.7993C184.4 50.0482 184.086 49.1391 184.24 48.251L182.891 48.0163ZM189.325 53.6673C191.938 53.8241 194.315 53.2908 196.125 52.3255C197.92 51.3685 199.24 49.9348 199.54 48.2541L198.191 48.0133C197.991 49.1326 197.061 50.2739 195.481 51.1169C193.916 51.9516 191.794 52.4433 189.407 52.3001L189.325 53.6673ZM215.723 39.3837L216.39 39.5398L216.392 39.53L215.723 39.3837ZM217.573 34.2837L218.181 34.5989L217.058 33.8327L217.573 34.2837ZM215.723 36.3337L215.227 35.862L215.225 35.8635L215.723 36.3337ZM209.273 38.6337L208.591 38.5744L208.591 38.5812L209.273 38.6337ZM210.423 35.0837L211.042 35.3769L211.046 35.3694L211.049 35.3618L210.423 35.0837ZM212.473 32.2837L212.405 31.6022L212.372 31.6056L212.339 31.6121L212.473 32.2837ZM211.173 35.5837L210.565 35.2684L210.561 35.2774L211.173 35.5837ZM210.173 38.1837L209.509 38.0176L209.504 38.0374L209.5 38.0575L210.173 38.1837ZM215.123 35.8337L214.621 35.3681L214.618 35.3719L215.123 35.8337ZM218.923 32.3837L219.089 31.7193L219.078 31.7165L219.067 31.714L218.923 32.3837ZM218.573 34.3837L217.953 34.0941L217.952 34.0967L218.573 34.3837ZM216.673 39.4837L216.011 39.3084L216.009 39.3176L216.673 39.4837ZM235.123 32.2337L234.869 31.5978L234.833 31.6123L234.799 31.6307L235.123 32.2337ZM235.573 32.7337L235.944 33.3094L235.953 33.3038L235.961 33.298L235.573 32.7337ZM216.392 39.53C216.729 37.992 217.507 35.8985 218.181 34.5989L216.965 33.9684C216.239 35.3689 215.418 37.5754 215.054 39.2373L216.392 39.53ZM217.058 33.8327C216.704 34.2371 216.165 34.8746 215.227 35.862L216.22 36.8054C217.182 35.7928 217.743 35.1303 218.089 34.7347L217.058 33.8327ZM215.225 35.8635C214.405 36.7319 213.298 37.7061 212.288 38.46C211.784 38.8371 211.316 39.1493 210.932 39.3637C210.739 39.471 210.579 39.5475 210.453 39.5955C210.316 39.6476 210.264 39.6488 210.273 39.6488V41.0185C210.508 41.0185 210.742 40.951 210.94 40.8757C211.148 40.7964 211.371 40.687 211.599 40.56C212.055 40.3056 212.575 39.9553 213.108 39.5574C214.174 38.7613 215.341 37.7355 216.221 36.8039L215.225 35.8635ZM210.273 39.6488C210.057 39.6488 210.046 39.5959 210.043 39.5913C209.999 39.5253 209.909 39.2946 209.956 38.6862L208.591 38.5812C208.537 39.2728 208.597 39.892 208.904 40.3511C209.25 40.8715 209.789 41.0185 210.273 41.0185V39.6488ZM209.956 38.693C210.044 37.6773 210.593 36.3258 211.042 35.3769L209.804 34.7905C209.354 35.7415 208.703 37.29 208.591 38.5744L209.956 38.693ZM211.049 35.3618C211.331 34.7268 211.696 34.0935 212.041 33.6162C212.214 33.3766 212.371 33.1914 212.5 33.068C212.655 32.9202 212.687 32.9394 212.608 32.9552L212.339 31.6121C212.01 31.678 211.736 31.9034 211.553 32.0791C211.344 32.2791 211.133 32.5346 210.931 32.8137C210.526 33.3738 210.115 34.0906 209.798 34.8055L211.049 35.3618ZM212.541 32.9651C212.56 32.9633 212.533 32.969 212.486 32.9471C212.441 32.9259 212.413 32.8955 212.4 32.8764C212.389 32.8607 212.388 32.8535 212.39 32.859C212.392 32.8666 212.388 32.8617 212.388 32.8337H213.758C213.758 32.6557 213.709 32.3584 213.522 32.091C213.298 31.7714 212.912 31.5516 212.405 31.6022L212.541 32.9651ZM212.388 32.8337C212.388 32.727 212.424 32.6733 212.408 32.7047C212.397 32.7258 212.372 32.7692 212.32 32.8416C212.213 32.9893 212.061 33.1707 211.858 33.4161C211.471 33.8842 210.953 34.5216 210.565 35.2684L211.781 35.8989C212.094 35.2957 212.526 34.7582 212.914 34.2888C213.098 34.0654 213.29 33.8375 213.43 33.643C213.501 33.5443 213.575 33.4334 213.633 33.318C213.685 33.2129 213.758 33.0404 213.758 32.8337H212.388ZM210.561 35.2774C209.987 36.4257 209.62 37.5732 209.509 38.0176L210.838 38.3498C210.927 37.9942 211.26 36.9417 211.786 35.89L210.561 35.2774ZM209.5 38.0575C209.415 38.5127 209.409 38.9317 209.524 39.2753C209.643 39.6327 209.952 40.0185 210.473 40.0185V38.6488C210.582 38.6488 210.682 38.6907 210.752 38.7521C210.814 38.8066 210.827 38.8531 210.823 38.8421C210.813 38.8107 210.782 38.6546 210.846 38.3099L209.5 38.0575ZM210.473 40.0185C210.715 40.0185 210.95 39.937 211.13 39.8599C211.325 39.7761 211.535 39.6621 211.746 39.5335C212.169 39.2756 212.651 38.9279 213.128 38.5536C214.078 37.8072 215.071 36.9066 215.629 36.2955L214.618 35.3719C214.126 35.9108 213.194 36.7602 212.282 37.4763C211.827 37.8333 211.393 38.1449 211.034 38.3636C210.853 38.4732 210.705 38.5519 210.59 38.601C210.459 38.6569 210.432 38.6488 210.473 38.6488V40.0185ZM215.626 36.2992C216.604 35.2439 217.343 34.3829 217.958 33.768C218.261 33.4641 218.496 33.2617 218.674 33.1456C218.874 33.0163 218.88 33.0748 218.78 33.0533L219.067 31.714C218.616 31.6175 218.211 31.8136 217.928 31.9968C217.626 32.1932 217.31 32.4783 216.989 32.7994C216.354 33.4345 215.543 34.3735 214.621 35.3682L215.626 36.2992ZM218.757 33.0481C218.872 33.0768 218.744 33.0734 218.645 32.9203C218.536 32.7518 218.596 32.6161 218.572 32.708C218.552 32.7884 218.498 32.9266 218.385 33.1747C218.272 33.421 218.135 33.7031 217.953 34.0941L219.194 34.6733C219.361 34.3143 219.518 33.9902 219.631 33.7442C219.742 33.5002 219.845 33.2603 219.899 33.0469C219.951 32.8451 220.004 32.4999 219.795 32.1767C219.596 31.869 219.275 31.7656 219.089 31.7193L218.757 33.0481ZM217.952 34.0967C217.343 35.4149 216.475 37.5549 216.011 39.3084L217.335 39.6589C217.771 38.0125 218.604 35.9525 219.195 34.6707L217.952 34.0967ZM216.009 39.3176C215.773 40.262 215.744 41.022 215.968 41.5861C216.086 41.884 216.276 42.1298 216.536 42.2961C216.791 42.4597 217.069 42.5185 217.323 42.5185V41.1488C217.278 41.1488 217.269 41.1389 217.275 41.1432C217.286 41.1501 217.267 41.1459 217.241 41.0812C217.177 40.9204 217.124 40.5054 217.338 39.6498L216.009 39.3176ZM217.323 42.5185C218.405 42.5185 219.814 42.0057 221.3 41.2963C222.816 40.5723 224.525 39.5873 226.243 38.5368C229.721 36.4107 233.191 34.0522 235.448 32.8367L234.799 31.6307C232.506 32.8652 228.901 35.3067 225.529 37.3681C223.822 38.4113 222.162 39.367 220.71 40.0602C219.227 40.7679 218.067 41.1488 217.323 41.1488V42.5185ZM235.378 32.8696C235.338 32.8853 235.322 32.8851 235.344 32.8818C235.36 32.8795 235.386 32.8773 235.416 32.8771C235.492 32.8766 235.521 32.8884 235.499 32.8803C235.49 32.8767 235.408 32.8464 235.328 32.7521C235.283 32.7001 235.24 32.6286 235.214 32.5383C235.189 32.4471 235.188 32.3595 235.202 32.2852C235.215 32.2142 235.24 32.1631 235.256 32.1344C235.272 32.1057 235.286 32.0912 235.286 32.0905C235.287 32.0893 235.281 32.0962 235.264 32.1108C235.246 32.1253 235.221 32.1448 235.185 32.1693L235.961 33.298C236.087 33.212 236.205 33.1169 236.302 33.0099C236.393 32.9093 236.509 32.7497 236.549 32.5337C236.596 32.2801 236.52 32.0395 236.369 31.8628C236.241 31.7124 236.085 31.6375 235.985 31.5996C235.782 31.5228 235.564 31.5064 235.407 31.5075C235.259 31.5084 235.049 31.5258 234.869 31.5978L235.378 32.8696ZM235.202 32.158C232.904 33.639 229.394 36.1229 225.871 38.2877C224.121 39.363 222.402 40.3378 220.879 41.0417C219.331 41.7572 218.076 42.1488 217.223 42.1488V43.5185C218.396 43.5185 219.884 43.0102 221.454 42.285C223.048 41.5484 224.819 40.5419 226.588 39.4547C230.103 37.2945 233.742 34.7284 235.944 33.3094L235.202 32.158ZM217.223 42.1488C216.929 42.1488 216.735 42.0945 216.609 42.0252C216.493 41.9612 216.4 41.8661 216.329 41.7086C216.169 41.3531 216.124 40.6784 216.39 39.5398L215.057 39.2276C214.773 40.439 214.728 41.4893 215.08 42.2713C215.266 42.6826 215.557 43.0093 215.948 43.225C216.331 43.4354 216.768 43.5185 217.223 43.5185V42.1488ZM237.274 41.9837L237.741 42.4842L237.743 42.4828L237.274 41.9837ZM242.974 37.9837L243.298 38.5872L243.659 38.3934V37.9837H242.974ZM238.674 33.8837L239.102 34.4185L238.674 33.8837ZM236.224 31.2837L235.948 30.6565L235.938 30.6611L236.224 31.2837ZM240.324 31.8337L239.761 32.2235L239.965 32.5185H240.324V31.8337ZM243.924 37.4837H243.239V38.6069L244.237 38.0925L243.924 37.4837ZM243.874 38.4837L243.541 37.885L243.207 38.0707L243.19 38.4526L243.874 38.4837ZM240.024 52.4837L239.429 52.1447L239.428 52.1455L240.024 52.4837ZM239.124 51.7337L238.532 51.3881L238.528 51.3961L239.124 51.7337ZM242.924 38.9837L243.607 39.0239L243.684 37.7291L242.571 38.3964L242.924 38.9837ZM237.924 42.7337L238.388 43.2375L238.392 43.2338L237.924 42.7337ZM238.024 33.0837L238.467 33.6055L238.473 33.6006L238.479 33.5956L238.024 33.0837ZM239.624 32.0337L239.87 32.6729L241.269 32.1348L239.946 31.4294L239.624 32.0337ZM236.524 32.1837L236.907 32.7512L236.915 32.7459L236.524 32.1837ZM232.024 58.5488C231.488 58.5488 230.869 58.3676 230.395 57.9505C229.939 57.5497 229.559 56.8822 229.559 55.7837H228.189C228.189 57.2352 228.709 58.2927 229.49 58.9794C230.253 59.6497 231.21 59.9185 232.024 59.9185V58.5488ZM229.559 55.7837C229.559 52.378 231.728 48.0995 237.741 42.4842L236.806 41.4832C230.719 47.1679 228.189 51.7894 228.189 55.7837H229.559ZM237.743 42.4828C239.339 40.9833 241.286 39.6663 243.298 38.5872L242.65 37.3802C240.561 38.5011 238.509 39.8841 236.805 41.4845L237.743 42.4828ZM243.659 37.9837C243.659 36.2918 243.522 34.8704 243.164 33.8502C242.983 33.3357 242.728 32.8744 242.362 32.5368C241.979 32.1848 241.507 31.9988 240.974 31.9988V33.3685C241.165 33.3685 241.306 33.4264 241.434 33.5446C241.578 33.6774 241.734 33.913 241.871 34.3047C242.15 35.097 242.289 36.3256 242.289 37.9837H243.659ZM240.974 31.9988C240.423 31.9988 239.911 32.216 239.48 32.4664C239.043 32.7199 238.62 33.0494 238.246 33.3489L239.102 34.4185C239.477 34.118 239.829 33.8475 240.168 33.6509C240.511 33.4514 240.774 33.3685 240.974 33.3685V31.9988ZM238.246 33.3489C237.711 33.7771 237.248 34.1858 236.756 34.5139C236.27 34.8384 235.871 34.9988 235.524 34.9988V36.3685C236.277 36.3685 236.953 36.029 237.516 35.6535C238.074 35.2816 238.637 34.7903 239.102 34.4185L238.246 33.3489ZM235.524 34.9988C235.256 34.9988 235.127 34.9002 235.046 34.7764C234.946 34.6227 234.876 34.3516 234.922 33.98C235.014 33.2396 235.537 32.3516 236.509 31.9063L235.938 30.6611C234.51 31.3158 233.709 32.6277 233.563 33.8123C233.49 34.4033 233.573 35.0259 233.9 35.5254C234.245 36.0547 234.816 36.3685 235.524 36.3685V34.9988ZM236.499 31.9108C238.297 31.1215 239.526 31.884 239.761 32.2235L240.887 31.4439C240.222 30.4833 238.251 29.6459 235.948 30.6566L236.499 31.9108ZM240.324 32.5185C240.468 32.5185 240.622 32.5008 240.727 32.4898C240.848 32.477 240.939 32.4685 241.024 32.4685V31.0988C240.858 31.0988 240.7 31.1153 240.583 31.1276C240.451 31.1416 240.379 31.1488 240.324 31.1488V32.5185ZM241.024 32.4685C241.575 32.4685 242.094 32.7482 242.512 33.5031C242.946 34.2859 243.239 35.5423 243.239 37.3337H244.609C244.609 35.4251 244.302 33.9065 243.71 32.8393C243.104 31.7442 242.173 31.0988 241.024 31.0988V32.4685ZM243.239 37.3337V37.4837H244.609V37.3337H243.239ZM244.237 38.0925C246.673 36.8377 249.124 35.8893 251.136 35.2557C253.178 34.6123 254.689 34.3185 255.274 34.3185V32.9488C254.458 32.9488 252.769 33.3051 250.724 33.9492C248.648 34.6031 246.124 35.5797 243.61 36.8749L244.237 38.0925ZM255.274 34.3185C255.365 34.3185 255.292 34.3429 255.197 34.2459C255.087 34.1337 255.074 33.9889 255.095 33.9018C255.128 33.7606 255.204 33.7988 255.124 33.7988V35.1685C255.744 35.1685 256.295 34.7818 256.428 34.2155C256.498 33.916 256.442 33.5587 256.175 33.2871C255.924 33.0307 255.583 32.9488 255.274 32.9488V34.3185ZM255.124 33.7988C254.308 33.7988 252.645 34.1422 250.618 34.8011C248.563 35.4692 246.06 36.4859 243.541 37.885L244.206 39.0824C246.638 37.7315 249.059 36.7482 251.042 36.1037C253.052 35.4502 254.539 35.1685 255.124 35.1685V33.7988ZM243.19 38.4526C242.994 42.7644 241.616 48.3049 239.429 52.1447L240.619 52.8227C242.932 48.7625 244.354 43.0029 244.558 38.5148L243.19 38.4526ZM239.428 52.1455C238.307 54.1191 237.017 55.739 235.71 56.857C234.393 57.9834 233.121 58.5488 232.024 58.5488V59.9185C233.576 59.9185 235.155 59.134 236.6 57.8979C238.055 56.6534 239.44 54.8983 240.619 52.8219L239.428 52.1455ZM239.715 52.0792C242.028 48.1215 243.402 42.5132 243.607 39.0239L242.24 38.9435C242.045 42.2541 240.72 47.6459 238.532 51.3881L239.715 52.0792ZM242.571 38.3964C240.784 39.4688 239.045 40.7474 237.456 42.2336L238.392 43.2338C239.903 41.82 241.563 40.5985 243.276 39.5709L242.571 38.3964ZM237.46 42.2299C231.093 48.0917 229.189 52.8109 229.189 55.9337H230.559C230.559 53.3564 232.155 48.9757 238.388 43.2375L237.46 42.2299ZM229.189 55.9337C229.189 56.7387 229.353 57.4877 229.763 58.0537C230.194 58.6511 230.846 58.9685 231.624 58.9685V57.5988C231.252 57.5988 231.028 57.4663 230.872 57.2512C230.694 57.0046 230.559 56.5787 230.559 55.9337H229.189ZM231.624 58.9685C232.773 58.9685 234.16 58.3496 235.543 57.228C236.944 56.091 238.409 54.3837 239.72 52.0713L238.528 51.3961C237.288 53.5837 235.928 55.1514 234.68 56.1644C233.412 57.1927 232.325 57.5988 231.624 57.5988V58.9685ZM238.479 33.5956C238.913 33.2093 239.338 32.8773 239.87 32.6729L239.378 31.3945C238.609 31.6901 238.034 32.1581 237.569 32.5718L238.479 33.5956ZM239.946 31.4294C239.052 30.9526 237.561 30.6279 236.133 31.6215L236.915 32.7459C237.787 32.1395 238.696 32.3148 239.301 32.638L239.946 31.4294ZM236.14 31.6162C235.122 32.3041 234.552 33.1013 234.397 33.8368C234.321 34.2006 234.34 34.5934 234.526 34.9275C234.724 35.286 235.089 35.5185 235.524 35.5185V34.1488C235.609 34.1488 235.692 34.2064 235.723 34.2633C235.741 34.2959 235.708 34.2606 235.738 34.1181C235.796 33.841 236.075 33.3133 236.907 32.7511L236.14 31.6162ZM235.524 35.5185C235.835 35.5185 236.12 35.4056 236.347 35.285C236.583 35.1603 236.819 34.9937 237.045 34.8176C237.483 34.4762 238 34.0025 238.467 33.6055L237.58 32.5619C237.047 33.0149 236.615 33.4162 236.203 33.7373C236.004 33.8924 235.84 34.004 235.706 34.0746C235.565 34.1493 235.513 34.1488 235.524 34.1488V35.5185ZM279.684 32.4337L280.009 33.036L280.023 33.0288L280.036 33.0209L279.684 32.4337ZM280.133 32.8837L279.761 32.3087L279.76 32.3099L280.133 32.8837ZM259.883 35.6837L260.368 35.1994V35.1994L259.883 35.6837ZM257.833 36.4337L257.512 35.8289L257.5 35.8356L257.487 35.8429L257.833 36.4337ZM255.583 33.5337L255.99 34.085L255.998 34.0793L256.005 34.0734L255.583 33.5337ZM256.283 34.1837L256.658 34.757L256.668 34.7504L256.283 34.1837ZM256.883 35.9837L256.59 35.3648L256.584 35.3679L256.577 35.3711L256.883 35.9837ZM262.983 39.4685C263.971 39.4685 265.349 39.1451 266.845 38.6772C268.362 38.2026 270.075 37.5555 271.763 36.8608C275.137 35.4721 278.459 33.8745 280.009 33.036L279.358 31.8313C277.858 32.6429 274.58 34.2203 271.242 35.5941C269.574 36.2806 267.901 36.9116 266.436 37.3699C264.95 37.8348 263.746 38.0988 262.983 38.0988V39.4685ZM280.036 33.0209C279.981 33.0536 279.948 33.0583 279.965 33.0543C279.974 33.0522 279.994 33.0487 280.023 33.0468C280.095 33.0421 280.126 33.053 280.104 33.0459C280.097 33.0434 280.009 33.0155 279.921 32.918C279.872 32.8636 279.823 32.7868 279.796 32.688C279.768 32.5883 279.771 32.4937 279.787 32.4159C279.803 32.3418 279.831 32.2902 279.848 32.2629C279.857 32.2487 279.864 32.2385 279.869 32.2325C279.874 32.2264 279.877 32.2233 279.877 32.2232C279.877 32.2231 279.875 32.2252 279.87 32.2295C279.865 32.2338 279.858 32.2398 279.849 32.2475C279.829 32.263 279.8 32.2835 279.761 32.3087L280.506 33.4587C280.636 33.374 280.759 33.2813 280.86 33.1774C280.953 33.0815 281.079 32.9238 281.126 32.7046C281.183 32.44 281.104 32.185 280.94 32.0021C280.803 31.8503 280.639 31.7802 280.538 31.7465C280.329 31.6769 280.103 31.669 279.934 31.68C279.784 31.6897 279.537 31.7229 279.331 31.8464L280.036 33.0209ZM279.76 32.3099C278.161 33.3515 274.73 35.0704 271.267 36.5341C269.541 37.2636 267.824 37.9226 266.34 38.3979C264.832 38.8811 263.641 39.1488 262.934 39.1488V40.5185C263.876 40.5185 265.247 40.1863 266.758 39.7023C268.293 39.2104 270.051 38.5351 271.8 37.7958C275.287 36.322 278.806 34.5658 280.507 33.4575L279.76 32.3099ZM262.934 39.1488C261.848 39.1488 261.254 38.8317 260.93 38.4994C260.597 38.1573 260.468 37.7162 260.468 37.3337H259.099C259.099 38.0012 259.32 38.8101 259.949 39.4555C260.588 40.1107 261.569 40.5185 262.934 40.5185V39.1488ZM260.468 37.3337C260.468 36.8548 260.514 36.503 260.549 36.2471C260.565 36.1319 260.587 35.9894 260.594 35.8775C260.597 35.8198 260.6 35.7295 260.584 35.6306C260.568 35.5353 260.524 35.3552 260.368 35.1994L259.399 36.168C259.268 36.0372 259.239 35.8946 259.232 35.8499C259.224 35.8016 259.228 35.7749 259.226 35.7946C259.224 35.8374 259.214 35.9042 259.193 36.0578C259.153 36.3394 259.099 36.7626 259.099 37.3337H260.468ZM260.368 35.1994C260.21 35.0417 260.001 34.9442 259.754 34.9338C259.552 34.9253 259.355 34.9763 259.182 35.0354C258.829 35.1556 258.308 35.4062 257.512 35.8289L258.155 37.0385C258.959 36.6112 259.388 36.4118 259.623 36.332C259.743 36.2911 259.749 36.3045 259.696 36.3023C259.597 36.2981 259.482 36.2507 259.399 36.168L260.368 35.1994ZM257.487 35.8429C256.789 36.2523 256.054 36.6135 255.438 36.8705C255.13 36.999 254.86 37.0981 254.645 37.1639C254.538 37.1967 254.45 37.2194 254.382 37.2333C254.309 37.2482 254.281 37.2488 254.283 37.2488V38.6185C254.518 38.6185 254.795 38.5504 255.045 38.4738C255.316 38.3911 255.63 38.2746 255.966 38.1344C256.638 37.8538 257.428 37.4651 258.18 37.0245L257.487 35.8429ZM254.283 37.2488C254.079 37.2488 253.917 37.1828 253.816 37.1117C253.765 37.0758 253.742 37.0473 253.738 37.0403C253.728 37.0264 253.768 37.0757 253.768 37.1837H252.399C252.399 37.4417 252.502 37.6598 252.608 37.8145C252.718 37.9764 252.864 38.1166 253.026 38.2307C253.35 38.4596 253.788 38.6185 254.283 38.6185V37.2488ZM253.768 37.1837C253.768 36.5364 254.183 35.4165 255.99 34.085L255.177 32.9823C253.184 34.4509 252.399 35.931 252.399 37.1837H253.768ZM256.005 34.0734C257.52 32.8902 258.375 32.7185 259.033 32.7185V31.3488C257.992 31.3488 256.847 31.6772 255.162 32.994L256.005 34.0734ZM259.033 32.7185C259.242 32.7185 259.523 32.9055 259.732 33.2726C259.829 33.4434 259.86 33.57 259.862 33.6062C259.865 33.6327 259.85 33.5496 259.913 33.432C260.006 33.2592 260.194 33.1488 260.383 33.1488V34.5185C260.698 34.5185 260.974 34.3519 261.119 34.0807C261.236 33.8646 261.239 33.641 261.228 33.4987C261.204 33.1974 261.081 32.874 260.922 32.5948C260.619 32.0619 259.975 31.3488 259.033 31.3488V32.7185ZM260.383 33.1488C260.514 33.1488 260.575 33.2219 260.549 33.1952C260.511 33.1574 260.467 33.095 260.37 32.9505C260.293 32.8361 260.166 32.6465 260.003 32.4922C259.826 32.3248 259.554 32.1488 259.184 32.1488V33.5185C259.088 33.5185 259.041 33.4675 259.062 33.4877C259.098 33.5209 259.143 33.5813 259.235 33.7168C259.306 33.8223 259.428 34.01 259.576 34.1597C259.736 34.3205 260.003 34.5185 260.383 34.5185V33.1488ZM259.184 32.1488C258.786 32.1488 258.304 32.2972 257.791 32.5276C257.258 32.7667 256.623 33.126 255.899 33.617L256.668 34.7504C257.344 34.2914 257.909 33.9757 258.351 33.7773C258.813 33.5702 259.081 33.5185 259.184 33.5185V32.1488ZM255.909 33.6105C255.184 34.0845 254.557 34.7146 254.11 35.2762C253.886 35.5581 253.698 35.8348 253.561 36.0802C253.493 36.2025 253.433 36.3267 253.388 36.447C253.347 36.5549 253.299 36.712 253.299 36.8837H254.668C254.668 36.9554 254.651 36.9797 254.67 36.9284C254.685 36.8895 254.713 36.8282 254.759 36.745C254.851 36.5794 254.994 36.3655 255.182 36.1287C255.56 35.6528 256.083 35.1329 256.658 34.7569L255.909 33.6105ZM253.299 36.8837C253.299 37.043 253.342 37.3248 253.599 37.531C253.817 37.7047 254.063 37.7185 254.184 37.7185V36.3488C254.184 36.3488 254.185 36.3488 254.188 36.349C254.19 36.3491 254.194 36.3493 254.2 36.3499C254.21 36.3509 254.227 36.3532 254.25 36.3587C254.295 36.3697 254.374 36.3963 254.455 36.4614C254.65 36.6176 254.668 36.8243 254.668 36.8837H253.299ZM254.184 37.7185C254.548 37.7185 254.978 37.5858 255.428 37.4083C255.901 37.222 256.485 36.9487 257.19 36.5962L256.577 35.3711C255.882 35.7187 255.341 35.9704 254.926 36.1341C254.489 36.3065 254.269 36.3488 254.184 36.3488V37.7185ZM257.177 36.6026C258.161 36.1365 258.902 35.7584 259.532 35.4684C259.838 35.3277 260.086 35.2232 260.285 35.1546C260.494 35.0824 260.599 35.0685 260.633 35.0685V33.6988C260.368 33.6988 260.091 33.7725 259.839 33.8596C259.575 33.9504 259.279 34.0771 258.96 34.224C258.34 34.509 257.506 34.9309 256.59 35.3648L257.177 36.6026ZM260.633 35.0685C260.632 35.0685 260.65 35.069 260.678 35.0749C260.705 35.0806 260.722 35.0875 260.727 35.09C260.734 35.0933 260.704 35.0803 260.668 35.0347C260.65 35.0104 260.631 34.9787 260.617 34.9403C260.604 34.9016 260.599 34.8648 260.599 34.8337H261.968C261.968 34.2966 261.6 33.9952 261.34 33.8649C261.088 33.7391 260.816 33.6988 260.633 33.6988V35.0685ZM260.599 34.8337C260.599 34.8224 260.597 34.8658 260.549 35.0294C260.527 35.101 260.502 35.1801 260.472 35.2746C260.443 35.3668 260.41 35.4707 260.377 35.5816C260.245 36.0252 260.099 36.6114 260.099 37.2837H261.468C261.468 36.806 261.572 36.3672 261.69 35.9733C261.719 35.8748 261.749 35.781 261.778 35.6883C261.807 35.5978 261.836 35.5047 261.862 35.4177C261.908 35.2641 261.968 35.0449 261.968 34.8337H260.599ZM260.099 37.2837C260.099 37.9761 260.472 38.5451 261.006 38.9152C261.532 39.2801 262.226 39.4685 262.983 39.4685V38.0988C262.441 38.0988 262.035 37.9623 261.786 37.7897C261.545 37.6223 261.468 37.4413 261.468 37.2837H260.099ZM281.798 40.0837L281.891 39.4052L281.89 39.4051L281.798 40.0837ZM281.148 36.2837L281.765 36.58L281.768 36.5736L281.771 36.5671L281.148 36.2837ZM280.798 33.5337L281.042 32.8937L281.036 32.8915L280.798 33.5337ZM279.498 30.7337L278.834 30.5676L279.498 30.7337ZM282.148 28.5337L282.314 27.8693L282.298 27.8653L282.282 27.8621L282.148 28.5337ZM283.048 29.5837L282.368 29.4987L282.368 29.5052L283.048 29.5837ZM280.748 32.4837L280.415 31.885L279.622 32.326L280.264 32.968L280.748 32.4837ZM281.198 32.7337L281.455 32.099L281.411 32.081L281.364 32.0693L281.198 32.7337ZM282.098 36.6837L282.715 36.982L282.719 36.9721L282.098 36.6837ZM282.148 38.9837L282.233 38.3041L282.228 38.3035L282.148 38.9837ZM297.348 32.5837L297.794 33.1037L297.8 33.0983L297.806 33.0927L297.348 32.5837ZM297.998 32.8837L297.543 32.3718L297.534 32.3797L297.526 32.3879L297.998 32.8837ZM280.498 30.9837L281.148 31.2003L281.152 31.188L280.498 30.9837ZM280.448 31.8837L279.798 32.1003L280.072 32.9228L280.809 32.4656L280.448 31.8837ZM282.298 29.5337L282.981 29.5825L282.983 29.5581V29.5337H282.298ZM282.198 29.3337L282.504 28.7211L282.451 28.6947L282.395 28.6777L282.198 29.3337ZM281.89 39.4051C281.575 39.3621 281.361 39.2025 281.269 38.8786C281.161 38.4935 281.196 37.7662 281.765 36.58L280.531 35.9873C279.9 37.3012 279.71 38.3988 279.951 39.2513C280.21 40.1649 280.921 40.6553 281.705 40.7623L281.89 39.4051ZM281.771 36.5671C281.895 36.2962 282.009 36.0526 282.112 35.8335C282.214 35.6163 282.307 35.4186 282.384 35.2474C282.461 35.0781 282.53 34.9185 282.58 34.7782C282.624 34.6566 282.683 34.4733 282.683 34.2837H281.313C281.313 34.2191 281.328 34.2108 281.291 34.3158C281.26 34.402 281.21 34.5205 281.137 34.6824C281.064 34.8426 280.976 35.0292 280.872 35.2511C280.769 35.4711 280.651 35.7212 280.524 36.0003L281.771 36.5671ZM282.683 34.2837C282.683 34.1347 282.651 33.9543 282.538 33.7737C282.436 33.612 282.298 33.4981 282.172 33.4139C281.931 33.2532 281.562 33.0921 281.042 32.8937L280.554 34.1737C281.083 34.3753 281.315 34.4892 281.412 34.5535C281.454 34.5818 281.419 34.5679 281.378 34.503C281.326 34.4193 281.313 34.3327 281.313 34.2837H282.683ZM281.036 32.8915C280.554 32.7131 280.312 32.4152 280.191 32.0859C280.062 31.7321 280.062 31.3017 280.162 30.8998L278.834 30.5676C278.684 31.1657 278.659 31.8853 278.905 32.5565C279.159 33.2522 279.692 33.8543 280.56 34.1759L281.036 32.8915ZM280.162 30.8998C280.532 29.4214 281.655 29.1334 282.014 29.2052L282.282 27.8621C281.141 27.634 279.364 28.4459 278.834 30.5676L280.162 30.8998ZM281.982 29.1981C281.979 29.1975 281.989 29.1996 282.009 29.2092C282.028 29.2185 282.053 29.2326 282.083 29.2522C282.142 29.2923 282.205 29.3461 282.259 29.4061C282.315 29.4674 282.348 29.5201 282.364 29.5533C282.381 29.5912 282.36 29.5678 282.368 29.4987L283.728 29.6686C283.761 29.3996 283.69 29.1574 283.606 28.9765C283.52 28.7911 283.4 28.625 283.274 28.4863C283.038 28.2254 282.689 27.9631 282.314 27.8693L281.982 29.1981ZM282.368 29.5052C282.254 30.4928 281.672 31.1867 280.415 31.885L281.081 33.0824C282.524 32.2807 283.542 31.2746 283.728 29.6622L282.368 29.5052ZM280.264 32.968C280.443 33.1469 280.7 33.3151 281.032 33.3981L281.364 32.0693C281.296 32.0523 281.253 32.0205 281.232 31.9994L280.264 32.968ZM280.941 33.3684C281.89 33.7533 282.345 33.9528 282.573 34.0985C282.676 34.1642 282.665 34.1781 282.64 34.1354C282.607 34.0796 282.613 34.037 282.613 34.0837H283.983C283.983 33.9054 283.958 33.6753 283.82 33.4414C283.691 33.2205 283.501 33.0657 283.31 32.9439C282.951 32.7146 282.356 32.4641 281.455 32.099L280.941 33.3684ZM282.613 34.0837C282.613 34.0474 282.621 34.0719 282.567 34.2058C282.518 34.3271 282.441 34.4841 282.333 34.6953C282.122 35.1046 281.81 35.6785 281.477 36.3953L282.719 36.9721C283.036 36.2889 283.324 35.7628 283.551 35.3221C283.661 35.1083 283.763 34.9028 283.837 34.7178C283.907 34.5455 283.983 34.3199 283.983 34.0837H282.613ZM281.481 36.3854C281.289 36.7839 281.132 37.1425 281.023 37.4593C280.916 37.7686 280.838 38.0819 280.838 38.3774C280.838 38.6895 280.927 39.0297 281.201 39.2936C281.457 39.5396 281.784 39.6304 282.068 39.6638L282.228 38.3035C282.087 38.287 282.101 38.259 282.151 38.3066C282.219 38.3721 282.208 38.4341 282.208 38.3774C282.208 38.3043 282.23 38.1581 282.317 37.9065C282.401 37.6624 282.532 37.3584 282.714 36.982L281.481 36.3854ZM282.063 39.6632C283.636 39.8599 286.255 39.333 289.076 38.2411C291.929 37.1373 295.099 35.4131 297.794 33.1037L296.902 32.0637C294.347 34.2543 291.317 35.9051 288.582 36.9638C285.816 38.0344 283.459 38.4574 282.233 38.3041L282.063 39.6632ZM297.806 33.0927C297.907 33.0015 297.879 33.1086 297.713 33.0225C297.615 32.9717 297.474 32.8329 297.472 32.6113C297.47 32.4198 297.575 32.343 297.543 32.3718L298.453 33.3956C298.645 33.2244 298.845 32.9538 298.841 32.5983C298.838 32.2126 298.599 31.9395 298.345 31.8073C297.867 31.5588 297.288 31.7159 296.89 32.0746L297.806 33.0927ZM297.526 32.3879C294.958 34.8348 291.629 36.6809 288.615 37.8718C287.111 38.466 285.699 38.8918 284.515 39.1471C283.312 39.4065 282.407 39.4761 281.891 39.4052L281.705 40.7622C282.464 40.8663 283.559 40.7546 284.804 40.486C286.069 40.2131 287.554 39.7639 289.118 39.1456C292.242 37.9114 295.738 35.9826 298.47 33.3795L297.526 32.3879ZM279.848 30.7671C279.73 31.1224 279.629 31.5933 279.798 32.1003L281.098 31.6671C281.067 31.5741 281.066 31.445 281.148 31.2003L279.848 30.7671ZM280.809 32.4656C281.581 31.9866 282.111 31.5166 282.456 31.03C282.812 30.5291 282.948 30.0432 282.981 29.5825L281.615 29.4849C281.598 29.7242 281.534 29.9633 281.339 30.2373C281.135 30.5257 280.765 30.8808 280.087 31.3018L280.809 32.4656ZM282.983 29.5337C282.983 29.5284 282.993 29.3406 282.921 29.1606C282.823 28.9159 282.637 28.7877 282.504 28.7211L281.892 29.9462C281.879 29.9398 281.835 29.9169 281.786 29.8699C281.73 29.8171 281.681 29.7487 281.65 29.6693C281.621 29.5975 281.615 29.5399 281.614 29.5219C281.613 29.5087 281.613 29.501 281.613 29.5337H282.983ZM282.395 28.6777C282.017 28.5644 281.665 28.6912 281.44 28.8085C281.196 28.9358 280.967 29.1211 280.77 29.3182C280.382 29.7062 280.01 30.2481 279.844 30.7794L281.152 31.188C281.236 30.9193 281.464 30.5612 281.738 30.2867C281.873 30.1525 281.991 30.066 282.073 30.0229C282.175 29.97 282.129 30.028 282.001 29.9897L282.395 28.6777Z" fill="white" mask="url(#path-2-outside-1_115_22)"/>
</svg>
